;TYPE=PLATED
;Layer: PTH_Through_Via
;EasyEDA Pro Client v2.1.51.8c9149c1.e57db4, 2024-04-05 14:55:06
;Gerber Generator version 0.3
M48
METRIC,LZ,000.00000
;Hole size 1 = 0.30500 METRIC
T01C0.30500
;Hole size 2 = 0.40000 METRIC
T02C0.40000
%
G05
G90
T01
X-00101600Y-00132080
X00707390Y00480060
X00706120Y00715010
X00746760Y01432560
X00748030Y01515110
X00344170Y01082040
X00431800Y01144270
X00932180Y-00502920
X-00845820Y-00565150
X00766998Y00602999
X-00369999Y00753998
X-00260999Y00766998
X00398999Y-00068000
X-00018000Y-00176000
X00661999Y-00109000
X-00405999Y01791996
X-00319999Y01793996
X-00234303Y01793996
X-00144000Y01795996
X-00056000Y01795996
X00025000Y01796996
X00456499Y01799497
X00368499Y01799497
X00278196Y01797497
X00192500Y01797497
X00106500Y01795497
X-00409061Y01708258
X-00411468Y01618866
X-00414530Y01535127
X-00412999Y01451363
X-00416061Y01367625
X-00414530Y01290810
X-00417593Y01207072
X00459530Y01710866
X00456468Y01627127
X00457999Y01528171
X00454937Y01444433
X00455530Y01358867
X00536999Y00710360
X00690999Y00049000
X-00371999Y00474999
X-00639999Y00465999
X-01077998Y-00253999
X-00521999Y-00063000
X-01006998Y-00149000
X-00770998Y00986998
X-00804998Y00917998
X00968998Y01440997
X01029998Y00927998
X01036462Y00663499
X00179000Y00794998
T02
X00017000Y-00030000
X-01087998Y01716997
X-00910998Y00988998
M30