G04 Layer: TopPasteMaskLayer*
G04 EasyEDA Pro v2.1.51.8c9149c1.e57db4, 2024-04-05 14:55:05*
G04 Gerber Generator version 0.3*
G04 Scale: 100 percent, Rotated: No, Reflected: No*
G04 Dimensions in millimeters*
G04 Leading zeros omitted, absolute positions, 3 integers and 5 decimals*
%FSLAX35Y35*%
%MOMM*%
%ADD10R,0.8X0.4*%
%ADD11R,0.4X0.8*%
%ADD12R,1.45001X1.45001*%
%ADD13R,0.7X0.7*%
%ADD14R,1.05001X2.46499*%
%ADD15R,3.54X2.46499*%
%ADD16R,1.35999X1.23*%
%ADD17R,0.8X0.9*%
%ADD18R,0.9X0.8*%
%ADD19R,0.25001X0.70002*%
%ADD20R,0.8X0.9*%
%ADD21O,0.8X0.28001*%
%ADD22O,0.28001X0.8*%
%ADD23R,2.37599X1.9*%
%ADD24R,0.9X0.8*%
G75*


G04 PolygonModel Start*
G36*
G01X-593227Y-120884D02*
G01X-593227Y-248882D01*
G01X-598228Y-253883D01*
G01X-713229D01*
G01X-718228Y-248882D01*
G01X-718731Y-207879D01*
G01X-673730D01*
G01Y-162880D01*
G01X-717730D01*
G01X-718228Y-120884D01*
G01X-713229Y-115882D01*
G01X-598228D01*
G01X-593227Y-120884D01*
G37*
G36*
G01X-808228Y-120884D02*
G01X-808231Y-162880D01*
G01X-852729D01*
G01Y-207879D01*
G01X-808731D01*
G01X-808228Y-248882D01*
G01X-813229Y-253883D01*
G01X-928228D01*
G01X-933229Y-248882D01*
G01Y-120884D01*
G01X-928228Y-115882D01*
G01X-813229D01*
G01X-808228Y-120884D01*
G37*
G36*
G01X569681Y826892D02*
G01X569681Y746892D01*
G01X574683Y741891D01*
G01X597479D01*
G01Y778891D01*
G01X630479D01*
G01Y741891D01*
G01X654682D01*
G01X659681Y746892D01*
G01Y826892D01*
G01X654682Y831891D01*
G01X574683D01*
G01X569681Y826892D01*
G37*
G36*
G01X574683Y671891D02*
G01X597479Y671891D01*
G01Y633893D01*
G01X630479D01*
G01Y671891D01*
G01X654682D01*
G01X659681Y666892D01*
G01Y587893D01*
G01X654682Y582892D01*
G01X574683D01*
G01X569681Y587893D01*
G01Y666892D01*
G01X574683Y671891D01*
G37*
G36*
G01X1042121Y-182758D02*
G01X1042121Y-262758D01*
G01X1047123Y-267759D01*
G01X1069919D01*
G01Y-230759D01*
G01X1102919D01*
G01Y-267759D01*
G01X1127122D01*
G01X1132121Y-262758D01*
G01Y-182758D01*
G01X1127122Y-177759D01*
G01X1047123D01*
G01X1042121Y-182758D01*
G37*
G36*
G01X1047123Y-337759D02*
G01X1069919Y-337759D01*
G01Y-375757D01*
G01X1102919D01*
G01Y-337759D01*
G01X1127122D01*
G01X1132121Y-342758D01*
G01Y-421757D01*
G01X1127122Y-426758D01*
G01X1047123D01*
G01X1042121Y-421757D01*
G01Y-342758D01*
G01X1047123Y-337759D01*
G37*
G36*
G01X500502Y826049D02*
G01X420502Y826049D01*
G01X415501Y821047D01*
G01Y798251D01*
G01X452501D01*
G01Y765251D01*
G01X415501D01*
G01Y741048D01*
G01X420502Y736049D01*
G01X500502D01*
G01X505501Y741048D01*
G01Y821047D01*
G01X500502Y826049D01*
G37*
G36*
G01X345501Y821047D02*
G01X345501Y798251D01*
G01X307503D01*
G01Y765251D01*
G01X345501D01*
G01Y741048D01*
G01X340502Y736049D01*
G01X261503D01*
G01X256502Y741048D01*
G01Y821047D01*
G01X261503Y826049D01*
G01X340502D01*
G01X345501Y821047D01*
G37*
G36*
G01X863722Y-334731D02*
G01X783722Y-334731D01*
G01X778721Y-339733D01*
G01Y-362529D01*
G01X815721D01*
G01Y-395529D01*
G01X778721D01*
G01Y-419732D01*
G01X783722Y-424731D01*
G01X863722D01*
G01X868721Y-419732D01*
G01Y-339733D01*
G01X863722Y-334731D01*
G37*
G36*
G01X708721Y-339733D02*
G01X708721Y-362529D01*
G01X670723D01*
G01Y-395529D01*
G01X708721D01*
G01Y-419732D01*
G01X703722Y-424731D01*
G01X624723D01*
G01X619722Y-419732D01*
G01Y-339733D01*
G01X624723Y-334731D01*
G01X703722D01*
G01X708721Y-339733D01*
G37*
G36*
G01X-727588Y-386801D02*
G01X-807588Y-386801D01*
G01X-812589Y-391803D01*
G01Y-414599D01*
G01X-775589D01*
G01Y-447599D01*
G01X-812589D01*
G01Y-471802D01*
G01X-807588Y-476801D01*
G01X-727588D01*
G01X-722589Y-471802D01*
G01Y-391803D01*
G01X-727588Y-386801D01*
G37*
G36*
G01X-882589Y-391803D02*
G01X-882589Y-414599D01*
G01X-920587D01*
G01Y-447599D01*
G01X-882589D01*
G01Y-471802D01*
G01X-887588Y-476801D01*
G01X-966587D01*
G01X-971588Y-471802D01*
G01Y-391803D01*
G01X-966587Y-386801D01*
G01X-887588D01*
G01X-882589Y-391803D01*
G37*
G36*
G01X728858Y996401D02*
G01X808858Y996401D01*
G01X813859Y1001403D01*
G01Y1024199D01*
G01X776859D01*
G01Y1057199D01*
G01X813859D01*
G01Y1081402D01*
G01X808858Y1086401D01*
G01X728858D01*
G01X723859Y1081402D01*
G01Y1001403D01*
G01X728858Y996401D01*
G37*
G36*
G01X883859Y1001403D02*
G01X883859Y1024199D01*
G01X921857D01*
G01Y1057199D01*
G01X883859D01*
G01Y1081402D01*
G01X888858Y1086401D01*
G01X967857D01*
G01X972858Y1081402D01*
G01Y1001403D01*
G01X967857Y996401D01*
G01X888858D01*
G01X883859Y1001403D01*
G37*
G36*
G01X-173756Y365623D02*
G01X-45758Y365623D01*
G01X-40757Y360622D01*
G01Y245621D01*
G01X-45758Y240622D01*
G01X-86761Y240119D01*
G01Y285120D01*
G01X-131760D01*
G01Y241120D01*
G01X-173756Y240622D01*
G01X-178758Y245621D01*
G01Y360622D01*
G01X-173756Y365623D01*
G37*
G36*
G01X-173756Y150622D02*
G01X-131760Y150619D01*
G01Y106121D01*
G01X-86761D01*
G01Y150119D01*
G01X-45758Y150622D01*
G01X-40757Y145621D01*
G01Y30622D01*
G01X-45758Y25621D01*
G01X-173756D01*
G01X-178758Y30622D01*
G01Y145621D01*
G01X-173756Y150622D01*
G37*
G36*
G01X728858Y1249131D02*
G01X808858Y1249131D01*
G01X813859Y1254133D01*
G01Y1276929D01*
G01X776859D01*
G01Y1309929D01*
G01X813859D01*
G01Y1334132D01*
G01X808858Y1339131D01*
G01X728858D01*
G01X723859Y1334132D01*
G01Y1254133D01*
G01X728858Y1249131D01*
G37*
G36*
G01X883859Y1254133D02*
G01X883859Y1276929D01*
G01X921857D01*
G01Y1309929D01*
G01X883859D01*
G01Y1334132D01*
G01X888858Y1339131D01*
G01X967857D01*
G01X972858Y1334132D01*
G01Y1254133D01*
G01X967857Y1249131D01*
G01X888858D01*
G01X883859Y1254133D01*
G37*
G04 PolygonModel End*

G04 Pad Start*
G54D10*
G01X-588602Y1838255D03*
G01X-588602Y1758245D03*
G01X-588602Y1678235D03*
G01X-588602Y1598251D03*
G01X-588602Y1518241D03*
G01X-588602Y1438256D03*
G01X-588602Y1358246D03*
G01X-588602Y1278236D03*
G01X-588602Y1198251D03*
G01X-588602Y1118241D03*
G01X-588602Y1038231D03*
G54D11*
G01X-478594Y950754D03*
G01X-398610Y950754D03*
G01X-318600Y950754D03*
G01X-238590Y950754D03*
G01X-158605Y950754D03*
G01X-78595Y950754D03*
G01X1389Y950754D03*
G01X81399Y950754D03*
G01X161409Y950754D03*
G01X241394Y950754D03*
G01X321404Y950754D03*
G01X401414Y950754D03*
G01X481399Y950754D03*
G54D10*
G01X591406Y1038231D03*
G01X591406Y1118241D03*
G01X591406Y1198251D03*
G01X591406Y1278236D03*
G01X591406Y1358246D03*
G01X591406Y1438231D03*
G01X591406Y1518241D03*
G01X591406Y1598251D03*
G01X591406Y1678235D03*
G01X591406Y1758245D03*
G01X591406Y1838255D03*
G54D11*
G01X481399Y1930737D03*
G01X401414Y1930737D03*
G01X321404Y1930737D03*
G01X241394Y1930737D03*
G01X161409Y1930737D03*
G01X81399Y1930737D03*
G01X1415Y1930737D03*
G01X-78595Y1930737D03*
G01X-158605Y1930737D03*
G01X-238590Y1930737D03*
G01X-318600Y1930737D03*
G01X-398584Y1930737D03*
G01X-478594Y1930737D03*
G54D12*
G01X3904Y1445749D03*
G54D13*
G01X596410Y1935740D03*
G01X596410Y945750D03*
G01X-593606Y945750D03*
G01X-593606Y1935740D03*
G54D12*
G01X-176106Y1445749D03*
G01X-176106Y1625759D03*
G01X3904Y1625759D03*
G01X183888Y1625759D03*
G01X183888Y1445749D03*
G01X-176106Y1265765D03*
G01X3904Y1265765D03*
G01X183888Y1265765D03*
G54D14*
G01X-834517Y104140D03*
G01X-604520Y104140D03*
G01X-374523Y104140D03*
G54D15*
G01X-604520Y675640D03*
G54D16*
G01X1087255Y-1011676D03*
G01X1087255Y-574694D03*
G54D17*
G01X-295758Y-152400D03*
G01X-435762Y-152400D03*
G54D18*
G01X-800998Y1677994D03*
G01X-800998Y1817999D03*
G54D19*
G01X932180Y712534D03*
G01X881380Y712534D03*
G01X830580Y712534D03*
G01X779780Y712534D03*
G01X779780Y402527D03*
G01X830580Y402527D03*
G01X881380Y402527D03*
G01X932180Y402527D03*
G54D20*
G01X776122Y855980D03*
G01X916127Y855980D03*
G54D17*
G01X443382Y603250D03*
G01X303378Y603250D03*
G54D21*
G01X274015Y46673D03*
G01X274015Y-3340D03*
G01X274015Y-53327D03*
G01X274015Y-103340D03*
G01X274015Y-153327D03*
G54D22*
G01X364033Y-193332D03*
G01X414020Y-193332D03*
G01X464033Y-193332D03*
G54D21*
G01X554025Y-153327D03*
G01X554025Y-103340D03*
G01X554025Y-53327D03*
G01X554025Y-3340D03*
G01X554025Y46673D03*
G54D22*
G01X464033Y86652D03*
G01X414020Y86652D03*
G01X364033Y86652D03*
G54D18*
G01X111760Y73508D03*
G01X111760Y213512D03*
G54D17*
G01X451002Y242570D03*
G01X310998Y242570D03*
G54D16*
G01X-1086985Y-1000246D03*
G01X-1086985Y-563264D03*
G54D23*
G01X-1075690Y1527175D03*
G01X-1075690Y1147445D03*
G54D24*
G01X-802640Y1273962D03*
G01X-802640Y1133958D03*
G04 Pad End*

M02*
