G04 Layer: BottomSilkscreenLayer*
G04 EasyEDA Pro v2.1.51.8c9149c1.e57db4, 2024-04-05 14:55:05*
G04 Gerber Generator version 0.3*
G04 Scale: 100 percent, Rotated: No, Reflected: No*
G04 Dimensions in millimeters*
G04 Leading zeros omitted, absolute positions, 3 integers and 5 decimals*
%FSLAX35Y35*%
%MOMM*%
%ADD10C,0.203*%
%ADD11C,0.254*%
%ADD12C,0.2032*%
%ADD13C,0.256*%
G75*


G04 Text Start*
G54D10*
G01X1224948Y-208369D02*
G01X1224948Y-199479D01*
G01X1216058Y-181699D01*
G01X1207168Y-172809D01*
G01X1189388Y-163919D01*
G01X1153828D01*
G01X1136048Y-172809D01*
G01X1127158Y-181699D01*
G01X1118268Y-199479D01*
G01Y-217259D01*
G01X1127158Y-235039D01*
G01X1144938Y-261709D01*
G01X1233838Y-350609D01*
G01X1109378D01*
G01X993046Y-163919D02*
G01X1019716Y-172809D01*
G01X1037496Y-199479D01*
G01X1046386Y-243929D01*
G01Y-270599D01*
G01X1037496Y-315049D01*
G01X1019716Y-341719D01*
G01X993046Y-350609D01*
G01X975266D01*
G01X948596Y-341719D01*
G01X930816Y-315049D01*
G01X921926Y-270599D01*
G01Y-243929D01*
G01X930816Y-199479D01*
G01X948596Y-172809D01*
G01X975266Y-163919D01*
G01X993046D01*
G01X850044Y-208369D02*
G01X850044Y-199479D01*
G01X841154Y-181699D01*
G01X832264Y-172809D01*
G01X814484Y-163919D01*
G01X778924D01*
G01X761144Y-172809D01*
G01X752254Y-181699D01*
G01X743364Y-199479D01*
G01Y-217259D01*
G01X752254Y-235039D01*
G01X770034Y-261709D01*
G01X858934Y-350609D01*
G01X734474D01*
G01X582582Y-163919D02*
G01X671482Y-288379D01*
G01X538132D01*
G01X582582Y-163919D02*
G01X582582Y-350609D01*
G01X969918Y-438159D02*
G01X1156608Y-509279D01*
G01X969918Y-580399D02*
G01X1156608Y-509279D01*
G01X969918Y-661171D02*
G01X969918Y-758961D01*
G01X1041038Y-705621D01*
G01Y-732291D01*
G01X1049928Y-750071D01*
G01X1058818Y-758961D01*
G01X1085488Y-767851D01*
G01X1103268D01*
G01X1129938Y-758961D01*
G01X1147718Y-741181D01*
G01X1156608Y-714511D01*
G01Y-687841D01*
G01X1147718Y-661171D01*
G01X1138828Y-652281D01*
G01X1121048Y-643391D01*
G01X1112158Y-839733D02*
G01X1121048Y-830843D01*
G01X1129938Y-839733D01*
G01X1121048Y-848623D01*
G01X1112158Y-839733D01*
G01X969918Y-964955D02*
G01X978808Y-938285D01*
G01X1005478Y-920505D01*
G01X1049928Y-911615D01*
G01X1076598D01*
G01X1121048Y-920505D01*
G01X1147718Y-938285D01*
G01X1156608Y-964955D01*
G01Y-982735D01*
G01X1147718Y-1009405D01*
G01X1121048Y-1027185D01*
G01X1076598Y-1036075D01*
G01X1049928D01*
G01X1005478Y-1027185D01*
G01X978808Y-1009405D01*
G01X969918Y-982735D01*
G01Y-964955D01*
G01X443839Y-218307D02*
G01X443839Y-261995D01*
G01X443839Y-237103D02*
G01X440791Y-227705D01*
G01X434441Y-221609D01*
G01X428345Y-218307D01*
G01X418947D01*
G01X368147Y-218307D02*
G01X374243Y-221609D01*
G01X380593Y-227705D01*
G01X383641Y-237103D01*
G01Y-243453D01*
G01X380593Y-252597D01*
G01X374243Y-258947D01*
G01X368147Y-261995D01*
G01X358749D01*
G01X352653Y-258947D01*
G01X346303Y-252597D01*
G01X343255Y-243453D01*
G01Y-237103D01*
G01X346303Y-227705D01*
G01X352653Y-221609D01*
G01X358749Y-218307D01*
G01X368147D01*
G01X307949Y-196717D02*
G01X307949Y-261995D01*
G01X307949Y-227705D02*
G01X301853Y-221609D01*
G01X295503Y-218307D01*
G01X286105D01*
G01X280009Y-221609D01*
G01X273659Y-227705D01*
G01X270611Y-237103D01*
G01Y-243453D01*
G01X273659Y-252597D01*
G01X280009Y-258947D01*
G01X286105Y-261995D01*
G01X295503D01*
G01X301853Y-258947D01*
G01X307949Y-252597D01*
G01X219811Y-218307D02*
G01X225907Y-221609D01*
G01X232257Y-227705D01*
G01X235305Y-237103D01*
G01Y-243453D01*
G01X232257Y-252597D01*
G01X225907Y-258947D01*
G01X219811Y-261995D01*
G01X210413D01*
G01X204317Y-258947D01*
G01X197967Y-252597D01*
G01X194919Y-243453D01*
G01Y-237103D01*
G01X197967Y-227705D01*
G01X204317Y-221609D01*
G01X210413Y-218307D01*
G01X219811D01*
G01X150215Y-196717D02*
G01X150215Y-249549D01*
G01X147167Y-258947D01*
G01X141071Y-261995D01*
G01X134721D01*
G01X159613Y-218307D02*
G01X137769Y-218307D01*
G01X74523Y-196717D02*
G01X80873Y-196717D01*
G01X86969Y-199765D01*
G01X90017Y-209163D01*
G01Y-261995D01*
G01X99415Y-218307D02*
G01X77571Y-218307D01*
G01X39217Y-218307D02*
G01X39217Y-249549D01*
G01X36169Y-258947D01*
G01X29819Y-261995D01*
G01X20675D01*
G01X14325Y-258947D01*
G01X4927Y-249549D01*
G01X4927Y-218307D02*
G01X4927Y-261995D01*
G01X-64669Y-218307D02*
G01X-30379Y-261995D01*
G01X-30379Y-218307D02*
G01X-64669Y-218307D01*
G01X-30379Y-261995D02*
G01X-64669Y-261995D01*
G01X-99975Y-237103D02*
G01X-137313Y-237103D01*
G01Y-231007D01*
G01X-134265Y-224657D01*
G01X-130963Y-221609D01*
G01X-124867Y-218307D01*
G01X-115469D01*
G01X-109373Y-221609D01*
G01X-103023Y-227705D01*
G01X-99975Y-237103D01*
G01Y-243453D01*
G01X-103023Y-252597D01*
G01X-109373Y-258947D01*
G01X-115469Y-261995D01*
G01X-124867D01*
G01X-130963Y-258947D01*
G01X-137313Y-252597D01*
G01X-175667Y-246501D02*
G01X-172619Y-249549D01*
G01X-175667Y-252597D01*
G01X-178715Y-249549D01*
G01X-175667Y-246501D01*
G01X-251359Y-227705D02*
G01X-245009Y-221609D01*
G01X-238913Y-218307D01*
G01X-229515D01*
G01X-223419Y-221609D01*
G01X-217069Y-227705D01*
G01X-214021Y-237103D01*
G01Y-243453D01*
G01X-217069Y-252597D01*
G01X-223419Y-258947D01*
G01X-229515Y-261995D01*
G01X-238913D01*
G01X-245009Y-258947D01*
G01X-251359Y-252597D01*
G01X-302159Y-218307D02*
G01X-296063Y-221609D01*
G01X-289713Y-227705D01*
G01X-286665Y-237103D01*
G01Y-243453D01*
G01X-289713Y-252597D01*
G01X-296063Y-258947D01*
G01X-302159Y-261995D01*
G01X-311557D01*
G01X-317653Y-258947D01*
G01X-324003Y-252597D01*
G01X-327051Y-243453D01*
G01Y-237103D01*
G01X-324003Y-227705D01*
G01X-317653Y-221609D01*
G01X-311557Y-218307D01*
G01X-302159D01*
G01X-362357Y-218307D02*
G01X-362357Y-261995D01*
G01X-362357Y-231007D02*
G01X-371755Y-221609D01*
G01X-377851Y-218307D01*
G01X-387249D01*
G01X-393345Y-221609D01*
G01X-396647Y-231007D01*
G01Y-261995D01*
G01X-396647Y-231007D02*
G01X-406045Y-221609D01*
G01X-412141Y-218307D01*
G01X-421539D01*
G01X-427635Y-221609D01*
G01X-430937Y-231007D01*
G01Y-261995D01*
G01X-897482Y-263237D02*
G01X-880210Y-271873D01*
G01X-862684Y-289399D01*
G01X-853794Y-306925D01*
G01X-845158Y-333087D01*
G01Y-376775D01*
G01X-853794Y-402937D01*
G01X-862684Y-420463D01*
G01X-880210Y-437989D01*
G01X-897482Y-446625D01*
G01X-932534D01*
G01X-950060Y-437989D01*
G01X-967586Y-420463D01*
G01X-976222Y-402937D01*
G01X-985112Y-376775D01*
G01Y-333087D01*
G01X-976222Y-306925D01*
G01X-967586Y-289399D01*
G01X-950060Y-271873D01*
G01X-932534Y-263237D01*
G01X-897482D01*
G01X-1047342Y-263237D02*
G01X-1047342Y-446625D01*
G01X-1169770Y-263237D02*
G01X-1047342Y-385411D01*
G01X-1091030Y-341723D02*
G01X-1169770Y-446625D01*
G01X809300Y-433159D02*
G01X894390Y-433159D01*
G01X849940Y-433159D02*
G01X841812Y-441287D01*
G01X837748Y-449415D01*
G01Y-461607D01*
G01X841812Y-469735D01*
G01X849940Y-477609D01*
G01X862132Y-481673D01*
G01X870260D01*
G01X882198Y-477609D01*
G01X890326Y-469735D01*
G01X894390Y-461607D01*
G01Y-449415D01*
G01X890326Y-441287D01*
G01X882198Y-433159D01*
G01X837748Y-521551D02*
G01X878388Y-521551D01*
G01X890326Y-525361D01*
G01X894390Y-533489D01*
G01Y-545681D01*
G01X890326Y-553809D01*
G01X878388Y-566001D01*
G01X837748Y-566001D02*
G01X894390Y-566001D01*
G01X809300Y-605879D02*
G01X894390Y-605879D01*
G01X837748Y-646265D02*
G01X878388Y-605879D01*
G01X862132Y-621881D02*
G01X894390Y-650329D01*
G01X837748Y-738721D02*
G01X894390Y-738721D01*
G01X849940Y-738721D02*
G01X841812Y-730593D01*
G01X837748Y-722465D01*
G01Y-710273D01*
G01X841812Y-702145D01*
G01X849940Y-694017D01*
G01X862132Y-690207D01*
G01X870260D01*
G01X882198Y-694017D01*
G01X890326Y-702145D01*
G01X894390Y-710273D01*
G01Y-722465D01*
G01X890326Y-730593D01*
G01X882198Y-738721D01*
G01X809300Y-794601D02*
G01X813364Y-798665D01*
G01X809300Y-802729D01*
G01X805236Y-798665D01*
G01X809300Y-794601D01*
G01X837748Y-798665D02*
G01X906582Y-798665D01*
G01X918774Y-794601D01*
G01X922838Y-786473D01*
G01Y-778599D01*
G01X809300Y-842607D02*
G01X894390Y-842607D01*
G01X837748Y-930999D02*
G01X894390Y-930999D01*
G01X849940Y-930999D02*
G01X841812Y-922871D01*
G01X837748Y-914743D01*
G01Y-902551D01*
G01X841812Y-894423D01*
G01X849940Y-886295D01*
G01X862132Y-882485D01*
G01X870260D01*
G01X882198Y-886295D01*
G01X890326Y-894423D01*
G01X894390Y-902551D01*
G01Y-914743D01*
G01X890326Y-922871D01*
G01X882198Y-930999D01*
G01X837748Y-1019391D02*
G01X902518Y-1019391D01*
G01X914710Y-1015327D01*
G01X918774Y-1011263D01*
G01X922838Y-1003135D01*
G01Y-990943D01*
G01X918774Y-982815D01*
G01X849940Y-1019391D02*
G01X841812Y-1011263D01*
G01X837748Y-1003135D01*
G01Y-990943D01*
G01X841812Y-982815D01*
G01X849940Y-974687D01*
G01X862132Y-970877D01*
G01X870260D01*
G01X882198Y-974687D01*
G01X890326Y-982815D01*
G01X894390Y-990943D01*
G01Y-1003135D01*
G01X890326Y-1011263D01*
G01X882198Y-1019391D01*
G01X741838Y-395301D02*
G01X741838Y-480391D01*
G01X741838Y-395301D02*
G01X709326Y-480391D01*
G01X677068Y-395301D02*
G01X709326Y-480391D01*
G01X677068Y-395301D02*
G01X677068Y-480391D01*
G01X637190Y-395301D02*
G01X637190Y-480391D01*
G01X637190Y-395301D02*
G01X584612Y-395301D01*
G01X637190Y-435941D02*
G01X604932Y-435941D01*
G01X-660159Y1214456D02*
G01X-660159Y1148924D01*
G01X-660159Y1195660D02*
G01X-674129Y1209630D01*
G01X-683527Y1214456D01*
G01X-697497D01*
G01X-706895Y1209630D01*
G01X-711721Y1195660D01*
G01Y1148924D01*
G01X-711721Y1195660D02*
G01X-725691Y1209630D01*
G01X-735089Y1214456D01*
G01X-749059D01*
G01X-758457Y1209630D01*
G01X-763029Y1195660D01*
G01Y1148924D01*
G01X-805701Y1214456D02*
G01X-805701Y1148924D01*
G01X-805701Y1186262D02*
G01X-810527Y1200232D01*
G01X-819925Y1209630D01*
G01X-829069Y1214456D01*
G01X-843293D01*
G01X-937527Y1200232D02*
G01X-932955Y1209630D01*
G01X-918731Y1214456D01*
G01X-904761D01*
G01X-890791Y1209630D01*
G01X-885965Y1200232D01*
G01X-890791Y1191088D01*
G01X-900189Y1186262D01*
G01X-923557Y1181690D01*
G01X-932955Y1176864D01*
G01X-937527Y1167720D01*
G01Y1162894D01*
G01X-932955Y1153496D01*
G01X-918731Y1148924D01*
G01X-904761D01*
G01X-890791Y1153496D01*
G01X-885965Y1162894D01*
G01X-980199Y1247222D02*
G01X-980199Y1148924D01*
G01X-980199Y1195660D02*
G01X-994423Y1209630D01*
G01X-1003567Y1214456D01*
G01X-1017791D01*
G01X-1027189Y1209630D01*
G01X-1031761Y1195660D01*
G01Y1148924D01*
G01X-1074433Y1214456D02*
G01X-1074433Y1167720D01*
G01X-1079259Y1153496D01*
G01X-1088657Y1148924D01*
G01X-1102627D01*
G01X-1112025Y1153496D01*
G01X-1125995Y1167720D01*
G01X-1125995Y1214456D02*
G01X-1125995Y1148924D01*
G36*
G01X1116381Y1807007D02*
G01X1107745Y1806550D01*
G01X1103630Y1805635D01*
G01X1099109Y1804264D01*
G01X1091794Y1801520D01*
G01X1087730Y1800657D01*
G01X1083158Y1801063D01*
G01X1079094Y1802435D01*
G01X1076350Y1804264D01*
G01X1074064Y1806092D01*
G01X1072947D01*
G01X1072286Y1804264D01*
G01X1071372Y1799285D01*
G01X1070458Y1794713D01*
G01X1068629Y1783791D01*
G01X1067714Y1779270D01*
G01X1065886Y1768348D01*
G01X1065022Y1763827D01*
G01X1064108Y1758340D01*
G01Y1755750D01*
G01X1065022Y1754276D01*
G01X1068629Y1752905D01*
G01X1070559Y1753108D01*
G01X1071829Y1754734D01*
G01X1073658Y1759712D01*
G01X1075436Y1765198D01*
G01X1077265Y1769262D01*
G01X1078636Y1772463D01*
G01X1080008Y1775155D01*
G01X1083615Y1781556D01*
G01X1085444Y1784248D01*
G01X1087730Y1786992D01*
G01X1093165Y1792427D01*
G01X1097280Y1795170D01*
G01X1100887Y1796999D01*
G01X1105459Y1798371D01*
G01X1110437Y1799285D01*
G01X1115009D01*
G01X1119530Y1798371D01*
G01X1124102Y1796999D01*
G01X1127709Y1795170D01*
G01X1131367Y1792884D01*
G01X1134567Y1790192D01*
G01X1139088Y1785620D01*
G01X1141832Y1782013D01*
G01X1144981Y1777441D01*
G01X1147724Y1772920D01*
G01X1150010Y1768805D01*
G01X1151839Y1764741D01*
G01X1153617Y1759712D01*
G01X1154989Y1755648D01*
G01X1156818Y1748384D01*
G01X1158646Y1738376D01*
G01X1159561Y1731112D01*
G01X1160475Y1720190D01*
G01X1160882Y1705204D01*
G01X1160475Y1690167D01*
G01X1160018Y1687017D01*
G01X1159561Y1681074D01*
G01X1158646Y1674724D01*
G01X1157732Y1669288D01*
G01X1155903Y1660195D01*
G01X1154532Y1655166D01*
G01X1151839Y1646072D01*
G01X1149096Y1638808D01*
G01X1147267Y1634744D01*
G01X1144981Y1630172D01*
G01X1141832Y1625651D01*
G01X1139088Y1621993D01*
G01X1135888Y1618793D01*
G01X1131824Y1616100D01*
G01X1128624Y1614272D01*
G01X1124102Y1612443D01*
G01X1116838Y1611071D01*
G01X1111352D01*
G01X1108202Y1611528D01*
G01X1104087Y1611986D01*
G01X1099109Y1613357D01*
G01X1094994Y1615186D01*
G01X1091794Y1617015D01*
G01X1089101Y1619250D01*
G01X1086815Y1622450D01*
G01X1084986Y1626565D01*
G01X1084072Y1630172D01*
G01X1083615Y1651102D01*
G01X1084072Y1671980D01*
G01X1084529Y1675181D01*
G01X1085444Y1678838D01*
G01X1087272Y1681988D01*
G01X1090016Y1684274D01*
G01X1093165Y1685646D01*
G01X1099972Y1686103D01*
G01X1105459D01*
G01Y1692453D01*
G01X1046378D01*
G01Y1686103D01*
G01X1049071D01*
G01X1054100Y1685646D01*
G01X1058621Y1684274D01*
G01X1061822Y1681988D01*
G01X1063650Y1679245D01*
G01X1064565Y1646072D01*
G01X1064870Y1622450D01*
G01X1065886Y1615186D01*
G01X1069543Y1616558D01*
G01X1075893D01*
G01X1079195Y1615846D01*
G01X1080922Y1614729D01*
G01X1084072Y1611986D01*
G01X1087272Y1609700D01*
G01X1090473Y1607922D01*
G01X1094537Y1606093D01*
G01X1098652Y1604721D01*
G01X1102258Y1603807D01*
G01X1114552Y1603350D01*
G01X1125931Y1603807D01*
G01X1129538Y1604721D01*
G01X1134567Y1606093D01*
G01X1138174Y1607464D01*
G01X1141374Y1608836D01*
G01X1144524Y1610614D01*
G01X1147267Y1612443D01*
G01X1150468Y1614729D01*
G01X1153617Y1617472D01*
G01X1158189Y1621993D01*
G01X1160882Y1625651D01*
G01X1163625Y1629715D01*
G01X1165911Y1633372D01*
G01X1168197Y1637436D01*
G01X1171804Y1645615D01*
G01X1173632Y1650644D01*
G01X1175461Y1656080D01*
G01X1177290Y1661973D01*
G01X1178611Y1666545D01*
G01X1180440Y1675638D01*
G01X1181354Y1681988D01*
G01X1182268Y1693824D01*
G01X1182726Y1701546D01*
G01X1182268Y1709268D01*
G01X1181354Y1720190D01*
G01X1180897Y1723339D01*
G01X1180440Y1727454D01*
G01X1179525Y1732890D01*
G01X1178204Y1739290D01*
G01X1176833Y1743812D01*
G01X1175918Y1747926D01*
G01X1174547Y1751990D01*
G01X1171804Y1759255D01*
G01X1164082Y1774749D01*
G01X1161339Y1778813D01*
G01X1159561Y1782013D01*
G01X1157732Y1784248D01*
G01X1153160Y1789735D01*
G01X1148639Y1794256D01*
G01X1146353Y1796085D01*
G01X1143203Y1798371D01*
G01X1139088Y1801063D01*
G01X1135431Y1802892D01*
G01X1132281Y1804264D01*
G01X1128624Y1805635D01*
G01X1125017Y1806550D01*
G37*
G36*
G01X682701Y1807007D02*
G01X676808Y1806550D01*
G01X673202Y1805178D01*
G01X670458Y1803349D01*
G01X668172Y1801063D01*
G01X666344Y1797914D01*
G01X665429Y1794256D01*
G01X666344Y1789735D01*
G01X668172Y1786077D01*
G01X670001Y1783791D01*
G01X672287Y1781556D01*
G01X674980Y1779727D01*
G01X681380Y1778813D01*
G01X687273Y1779727D01*
G01X690016Y1781556D01*
G01X692709Y1783791D01*
G01X694995Y1787449D01*
G01X696366Y1792884D01*
G01X695452Y1797914D01*
G01X693623Y1801063D01*
G01X690931Y1803806D01*
G01X687730Y1806092D01*
G37*
G36*
G01X783184Y1800657D02*
G01X780999Y1800403D01*
G01X780898Y1799742D01*
G01X782726Y1796999D01*
G01X785012Y1792884D01*
G01X787248Y1789278D01*
G01X805434Y1757477D01*
G01X806806Y1754734D01*
G01X810666Y1753718D01*
G01X821385Y1753362D01*
G01X835457D01*
G01X836828Y1755648D01*
G01X839064Y1759255D01*
G01X840892Y1762455D01*
G01X843178Y1766519D01*
G01X845464Y1770177D01*
G01X858164Y1792427D01*
G01X859993Y1795170D01*
G01X861822Y1798371D01*
G01X862736Y1800657D01*
G01X860450D01*
G01X856386Y1799285D01*
G01X853186Y1796999D01*
G01X849528Y1794256D01*
G01X845007Y1790649D01*
G01X837743Y1785163D01*
G01X833171Y1781556D01*
G01X829564Y1778813D01*
G01X824992Y1775155D01*
G01X821385Y1772463D01*
G01X817728Y1771091D01*
G01X815442Y1772920D01*
G01X810920Y1777441D01*
G01X805434Y1782013D01*
G01X797712Y1789735D01*
G01X794106Y1792427D01*
G01X787248Y1799285D01*
G01X785774Y1800301D01*
G37*
G36*
G01X673659Y1744269D02*
G01X673659Y1682902D01*
G01X673202Y1618336D01*
G01X671373Y1614272D01*
G01X668172Y1612443D01*
G01X652729Y1611528D01*
G01X639064D01*
G01Y1605178D01*
G01X725475D01*
G01Y1611528D01*
G01X714096D01*
G01X698652Y1611986D01*
G01X695096Y1612900D01*
G01X692709Y1614729D01*
G01X691337Y1629359D01*
G01X690931Y1668831D01*
G01X691794Y1723339D01*
G01X693064Y1725727D01*
G01X694995Y1727454D01*
G01X698500Y1728470D01*
G01X704545Y1728826D01*
G01X713181Y1729283D01*
G01X719988Y1729740D01*
G01X725475D01*
G01Y1732432D01*
G01X725119Y1734617D01*
G01X724103Y1735633D01*
G01X721360Y1736547D01*
G01X711352Y1737004D01*
G01X700430Y1737462D01*
G01X694995Y1738376D01*
G01X688645Y1739748D01*
G01X683158Y1741526D01*
G01X679552Y1743354D01*
G01X675894Y1744269D01*
G37*
G36*
G01X969518Y1737919D02*
G01X955904Y1737462D01*
G01X950468Y1736547D01*
G01X944524Y1735176D01*
G01X939546Y1733347D01*
G01X934974Y1731112D01*
G01X931824Y1728826D01*
G01X929538Y1726997D01*
G01X927252Y1724711D01*
G01X925017Y1721561D01*
G01X922731Y1716989D01*
G01X921360Y1712925D01*
G01X920750Y1654251D01*
G01X937260D01*
G01X937717Y1681988D01*
G01X938428Y1682902D01*
G01X939546D01*
G01X945896Y1681988D01*
G01X956818Y1680159D01*
G01X961339Y1679245D01*
G01X967740Y1677924D01*
G01X973633Y1676095D01*
G01X979068Y1674266D01*
G01X983183Y1672438D01*
G01X986841Y1670609D01*
G01X990905Y1668374D01*
G01X994105Y1666088D01*
G01X1000912Y1659280D01*
G01X1003198Y1656080D01*
G01X1005434Y1651559D01*
G01X1006805Y1647444D01*
G01X1007262Y1641094D01*
G01X1006348Y1632915D01*
G01X1004519Y1627429D01*
G01X1002284Y1622908D01*
G01X999998Y1619707D01*
G01X998169Y1617472D01*
G01X995020Y1615186D01*
G01X990905Y1613357D01*
G01X986384Y1612443D01*
G01X982269Y1611986D01*
G01X979526D01*
G01X976376Y1612443D01*
G01X972261Y1612900D01*
G01X967740Y1613814D01*
G01X962711Y1615186D01*
G01X957732Y1617015D01*
G01X945896Y1622908D01*
G01X941832Y1625651D01*
G01X938632Y1627429D01*
G01X937616Y1634388D01*
G01X937260Y1654251D01*
G01X920750D01*
G01X920445Y1622908D01*
G01X919988Y1619707D01*
G01X918616Y1616100D01*
G01X916686Y1614729D01*
G01X913638Y1614272D01*
G01X907745Y1615643D01*
G01X904545Y1619250D01*
G01X903173Y1622908D01*
G01X902716Y1629258D01*
G01Y1634287D01*
G01X896366D01*
G01Y1631086D01*
G01X896823Y1625651D01*
G01X897738Y1621079D01*
G01X899109Y1616558D01*
G01X901344Y1611986D01*
G01X905002Y1608379D01*
G01X909066Y1606093D01*
G01X917296Y1605178D01*
G01X925474Y1606093D01*
G01X929538Y1607922D01*
G01X932739Y1610157D01*
G01X934568Y1612443D01*
G01X936346Y1616100D01*
G01X937362Y1618031D01*
G01X938632Y1618336D01*
G01X942289Y1616558D01*
G01X945896Y1614272D01*
G01X952246Y1610614D01*
G01X956361Y1608836D01*
G01X960882Y1607007D01*
G01X965454Y1605636D01*
G01X969518Y1604721D01*
G01X982726Y1604264D01*
G01X995477Y1604721D01*
G01X997712Y1605636D01*
G01X1001827Y1606550D01*
G01X1005891Y1607922D01*
G01X1009548Y1609700D01*
G01X1014070Y1612443D01*
G01X1017727Y1615186D01*
G01X1020928Y1618336D01*
G01X1023620Y1622450D01*
G01X1025449Y1625651D01*
G01X1026820Y1629258D01*
G01X1027735Y1633830D01*
G01Y1637436D01*
G01X1027278Y1642008D01*
G01X1026363Y1646987D01*
G01X1024992Y1651102D01*
G01X1023163Y1655623D01*
G01X1020470Y1659738D01*
G01X1018184Y1662887D01*
G01X1011377Y1669745D01*
G01X1008177Y1671980D01*
G01X1004519Y1674266D01*
G01X1001370Y1676095D01*
G01X997255Y1677924D01*
G01X992276Y1679702D01*
G01X988619Y1681074D01*
G01X979526Y1683360D01*
G01X975004Y1684731D01*
G01X965911Y1686560D01*
G01X960476Y1687474D01*
G01X947725Y1689252D01*
G01X940460Y1690167D01*
G01X937260Y1690624D01*
G01Y1697431D01*
G01X937717Y1707439D01*
G01X938632Y1712925D01*
G01X940003Y1717904D01*
G01X942289Y1722882D01*
G01X944982Y1726082D01*
G01X948639Y1728368D01*
G01X954075Y1730197D01*
G01X958647Y1731112D01*
G01X964540Y1731518D01*
G01X973176Y1731112D01*
G01X979526Y1730197D01*
G01X984098Y1729283D01*
G01X988619Y1727911D01*
G01X993191Y1725625D01*
G01X996340Y1722882D01*
G01X998626Y1720647D01*
G01X1000455Y1716989D01*
G01Y1712925D01*
G01X999541Y1708810D01*
G01X999998Y1703832D01*
G01X1002741Y1699717D01*
G01X1005129Y1698346D01*
G01X1008634Y1697888D01*
G01X1014984Y1698803D01*
G01X1018184Y1701089D01*
G01X1020013Y1704289D01*
G01X1020928Y1707896D01*
G01X1020013Y1712925D01*
G01X1017727Y1717904D01*
G01X1015441Y1721104D01*
G01X1012292Y1724254D01*
G01X1008634Y1726997D01*
G01X1005891Y1728826D01*
G01X1002741Y1730654D01*
G01X999084Y1732432D01*
G01X991819Y1735176D01*
G01X986841Y1736547D01*
G01X982269Y1737462D01*
G37*
G36*
G01X761797Y1734261D02*
G01X761797Y1731975D01*
G01X763168Y1727911D01*
G01X765454Y1724711D01*
G01X776376Y1710182D01*
G01X779983Y1705610D01*
G01X837286Y1629258D01*
G01X840892Y1624736D01*
G01X843636Y1621079D01*
G01X845464Y1618793D01*
G01X846836Y1616558D01*
G01X848614Y1614272D01*
G01X850443Y1611528D01*
G01X850900Y1609700D01*
G01X822706D01*
G01X793191Y1610157D01*
G01X789991Y1610614D01*
G01X785012Y1611528D01*
G01X779526Y1614272D01*
G01X776376Y1617015D01*
G01X774548Y1619707D01*
G01X772719Y1623365D01*
G01X771347Y1628343D01*
G01X770433Y1632915D01*
G01X769976Y1637436D01*
G01Y1640637D01*
G01X764540D01*
G01Y1632915D01*
G01X764997Y1623822D01*
G01X765454Y1611528D01*
G01Y1600657D01*
G01X884530D01*
G01Y1602892D01*
G01X883158Y1607007D01*
G01X880923Y1610157D01*
G01X864565Y1632001D01*
G01X859993Y1638351D01*
G01X799998Y1718361D01*
G01X798170Y1720647D01*
G01X796798Y1722882D01*
G01X803402Y1723949D01*
G01X824078Y1724254D01*
G01X855015Y1723339D01*
G01X859536Y1721561D01*
G01X862279Y1719732D01*
G01X864565Y1716532D01*
G01X866343Y1712925D01*
G01X867715Y1709268D01*
G01X868629Y1705610D01*
G01X869086Y1701089D01*
G01Y1697888D01*
G01X875436D01*
G01Y1712011D01*
G01X874979Y1727454D01*
G01X874522Y1731518D01*
G01Y1734261D01*
G37*
G01X-719131Y1768805D02*
G01X-689159Y1690319D01*
G01X-719131Y1768805D02*
G01X-749103Y1690319D01*
G01X-700335Y1716481D02*
G01X-737673Y1716481D01*
G01X-832161Y1768805D02*
G01X-832161Y1690319D01*
G01X-832161Y1731467D02*
G01X-824795Y1738833D01*
G01X-817175Y1742643D01*
G01X-805999D01*
G01X-798633Y1738833D01*
G01X-791013Y1731467D01*
G01X-787457Y1720291D01*
G01Y1712671D01*
G01X-791013Y1701495D01*
G01X-798633Y1694129D01*
G01X-805999Y1690319D01*
G01X-817175D01*
G01X-824795Y1694129D01*
G01X-832161Y1701495D01*
G01X-870515Y1742643D02*
G01X-870515Y1690319D01*
G01X-870515Y1727657D02*
G01X-881691Y1738833D01*
G01X-889057Y1742643D01*
G01X-900233D01*
G01X-907853Y1738833D01*
G01X-911663Y1727657D01*
G01Y1690319D01*
G01X-911663Y1727657D02*
G01X-922839Y1738833D01*
G01X-930205Y1742643D01*
G01X-941381D01*
G01X-949001Y1738833D01*
G01X-952811Y1727657D01*
G01Y1690319D01*
G01X-1035869Y1742643D02*
G01X-1035869Y1690319D01*
G01X-1035869Y1731467D02*
G01X-1028503Y1738833D01*
G01X-1020883Y1742643D01*
G01X-1009707D01*
G01X-1002341Y1738833D01*
G01X-994721Y1731467D01*
G01X-991165Y1720291D01*
G01Y1712671D01*
G01X-994721Y1701495D01*
G01X-1002341Y1694129D01*
G01X-1009707Y1690319D01*
G01X-1020883D01*
G01X-1028503Y1694129D01*
G01X-1035869Y1701495D01*
G01X-1074223Y1742643D02*
G01X-1074223Y1690319D01*
G01X-1074223Y1727657D02*
G01X-1085399Y1738833D01*
G01X-1092765Y1742643D01*
G01X-1103941D01*
G01X-1111561Y1738833D01*
G01X-1115371Y1727657D01*
G01Y1690319D01*
G04 Text End*

G04 PolygonModel Start*
G54D11*
G01X1013000Y1425998D02*
G01X1013000Y-99000D01*
G01X1013000Y-99000D02*
G01X1273000Y-99000D01*
G01X1273000Y-99000D02*
G01X1273000Y1425998D01*
G01X1273000Y1425998D02*
G01X1013000Y1425998D01*
G01X1016000Y1171648D02*
G01X1270000Y1171648D01*
G54D12*
G01X-1016000Y920000D02*
G01X-1270000Y920000D01*
G01X-1270000Y920000D02*
G01X-1270000Y-96000D01*
G01X-1270000Y-96000D02*
G01X-1016000Y-96000D01*
G01X-1016000Y-96000D02*
G01X-1016000Y94500D01*
G54D10*
G01X-1016000Y920000D02*
G01X-1016000Y94500D01*
G04 PolygonModel End*

G04 Rect Start*
G54D13*
G01X-1209476Y-571514D02*
G01X-1209476Y-986998D01*
G01X-820998D01*
G01Y-571514D01*
G01X-1209476D01*
G04 Rect End*

M02*
