G04 Layer: TopLayer*
G04 EasyEDA Pro v2.1.51.8c9149c1.e57db4, 2024-04-05 14:55:05*
G04 Gerber Generator version 0.3*
G04 Scale: 100 percent, Rotated: No, Reflected: No*
G04 Dimensions in millimeters*
G04 Leading zeros omitted, absolute positions, 3 integers and 5 decimals*
%FSLAX35Y35*%
%MOMM*%
%ADD8191C,0.2032*%
%ADD10C,0.254*%
%ADD11R,0.8X0.4*%
%ADD12R,0.4X0.8*%
%ADD13R,1.45001X1.45001*%
%ADD14R,0.7079X0.7*%
%ADD15R,0.7X0.7*%
%ADD16R,1.05001X2.46499*%
%ADD17R,3.54X2.46499*%
%ADD18R,1.35999X1.23*%
%ADD19R,1.41X1.35001*%
%ADD20R,0.8X0.9*%
%ADD21R,0.9X0.8*%
%ADD22R,1.7X1.7*%
%ADD23C,1.7*%
%ADD24R,1.7X1.7*%
%ADD25R,1.7X1.7*%
%ADD26R,0.25001X0.70002*%
%ADD27R,0.8X0.9*%
%ADD28R,0.86401X0.80648*%
%ADD29O,0.8X0.28001*%
%ADD30O,0.28001X0.8*%
%ADD31R,0.80648X0.86401*%
%ADD32R,0.80648X0.86401*%
%ADD33R,1.35001X1.41*%
%ADD34R,2.37599X1.9*%
%ADD35R,0.9X0.8*%
%ADD36C,0.61*%
%ADD37C,0.8*%
%ADD38C,0.4*%
%ADD39C,0.3*%
%ADD40C,0.256*%
%ADD41C,0.9*%
%ADD42C,0.7*%
%ADD43C,0.25*%
%ADD44C,0.6*%
%ADD45C,0.35*%
G75*


G04 Copper Start*
G36*
G01X-983998Y-1069395D02*
G03X-983172Y-1061745I-34988J7649D01*
G01Y-938746D01*
G03X-1018986Y-902932I-35814J0D01*
G01X-1154985D01*
G03X-1190799Y-938746I0J-35814D01*
G01Y-1061745D01*
G03X-1190573Y-1065765I35814J0D01*
G02X-1233481Y-1005209I21277J60557D01*
G01Y-89392D01*
G03X-1228000Y-89814I5481J35392D01*
G01X-1058000D01*
G03X-1022186Y-54000I0J35814D01*
G01Y-49814D01*
G01X-986998D01*
G03X-929854Y-26144I0J80814D01*
G01X-922832Y-19122D01*
G03X-910331Y-46296I35814J12D01*
G01Y-79565D01*
G01X-934227D01*
G03X-970041Y-115379I0J-35814D01*
G01Y-115380D01*
G01Y-250380D01*
G03X-934227Y-286194I35814J0D01*
G01X-793227D01*
G03X-760730Y-265434I0J35814D01*
G03X-728233Y-286194I32497J15053D01*
G01X-587233D01*
G03X-551419Y-250380I0J35814D01*
G01Y-115380D01*
G01Y-115379D01*
G03X-587233Y-79565I-35814J0D01*
G01X-728233D01*
G03X-758703Y-96558I0J-35814D01*
G01Y-46296D01*
G03X-746202Y-19110I-23314J27187D01*
G01Y227390D01*
G03X-773537Y262185I-35814J0D01*
G01X-665500D01*
G03X-692835Y227390I8480J-34796D01*
G01Y-19110D01*
G03X-657021Y-54924I35814J0D01*
G01X-552019D01*
G03X-516205Y-19110I0J35814D01*
G01Y227390D01*
G03X-543540Y262185I-35814J0D01*
G01X-445337D01*
G01Y258167D01*
G03X-462838Y227390I18314J-30778D01*
G01Y-19110D01*
G03X-427024Y-54924I35814J0D01*
G01X-383764D01*
G01X-371572Y-67116D01*
G01Y-80991D01*
G03X-395762Y-71586I-24191J-26409D01*
G01X-475762D01*
G03X-511576Y-107400I0J-35814D01*
G01Y-197400D01*
G03X-491396Y-229622I35814J0D01*
G03X-499206Y-236124I31656J-45968D01*
G01X-639069Y-375986D01*
G01X-697911D01*
G03X-731430Y-352786I-33519J-12614D01*
G01X-812077D01*
G03X-847090Y-381066I0J-35814D01*
G03X-882103Y-352786I-35013J-7534D01*
G01X-962750D01*
G03X-996269Y-375986I0J-35814D01*
G01X-1031240D01*
G03X-1070706Y-392334I0J-55814D01*
G01X-1126452Y-448079D01*
G03X-1138452Y-465950I39466J-39466D01*
G01X-1154985D01*
G03X-1190799Y-501764I0J-35814D01*
G01Y-624764D01*
G03X-1154985Y-660578I35814J0D01*
G01X-1018986D01*
G03X-983172Y-624764I0J35814D01*
G01Y-504421D01*
G03X-974410Y-508863I20422J29421D01*
G03X-961893Y-528010I51984J20319D01*
G01X-910608Y-579295D01*
G03X-845820Y-631464I64788J14145D01*
G03X-804881Y-617318I0J66314D01*
G03X-805110Y-625210I135584J-7891D01*
G01Y-1005209D01*
G02X-869296Y-1069395I-64186J0D01*
G01X-983998D01*
G37*
G36*
G01X983441Y-950176D02*
G01X983441Y-1069395D01*
G01X870701D01*
G02X806515Y-1005209I0J64186D01*
G01Y-625210D01*
G03X670701Y-489396I-135814J0D01*
G01X501543D01*
G03X501814Y-485000I-35543J4396D01*
G01Y-329284D01*
G01X538126D01*
G01Y-359410D01*
G03X552365Y-393785I48614J0D01*
G01X572685Y-414105D01*
G03X592899Y-426236I34375J34375D01*
G03X628560Y-458744I35661J3305D01*
G01X709207D01*
G03X744220Y-430464I0J35814D01*
G03X779233Y-458744I35013J7534D01*
G01X859880D01*
G03X895694Y-422930I0J35814D01*
G01Y-336530D01*
G03X868170Y-301688I-35814J0D01*
G01Y-272129D01*
G03X886054Y-275538I17883J45205D01*
G01X1009078D01*
G03X1036386Y-302260I34841J8290D01*
G03X1008106Y-337273I7534J-35013D01*
G01Y-417920D01*
G03X1024150Y-447784I35814J0D01*
G03X1015481Y-447106I-8670J-55136D01*
G01X967990D01*
G03X932180Y-436606I-35810J-55814D01*
G03X865866Y-502920I0J-66314D01*
G03X932180Y-569234I66314J0D01*
G03X967990Y-558734I0J66314D01*
G01X983441D01*
G01Y-636194D01*
G03X1019255Y-672008I35814J0D01*
G01X1155254D01*
G03X1191068Y-636194I0J35814D01*
G01Y-513194D01*
G03X1155254Y-477380I-35814J0D01*
G01X1138069D01*
G01Y-452886D01*
G03X1166134Y-417920I-7748J34966D01*
G01Y-337273D01*
G03X1137854Y-302260I-35814J0D01*
G03X1166134Y-267247I-7534J35013D01*
G01Y-186600D01*
G03X1130320Y-150786I-35814J0D01*
G01X1043920D01*
G03X1009078Y-178310I0J-35814D01*
G01X906190D01*
G01X895812Y-167931D01*
G01X739613Y-11732D01*
G01Y3897D01*
G03X757313Y49000I-48614J45103D01*
G03X736361Y97371I-66314J0D01*
G03X725374Y114267I-45363J-17480D01*
G01X562695Y276945D01*
G03X528320Y291184I-34375J-34375D01*
G01X526634D01*
G03X491002Y323384I-35631J-3614D01*
G01X411002D01*
G03X381000Y307127I0J-35814D01*
G03X350998Y323384I-30002J-19557D01*
G01X270998D01*
G03X235184Y287570I0J-35814D01*
G01Y197570D01*
G03X270998Y161756I35814J0D01*
G01X350998D01*
G03X381000Y178013I0J35814D01*
G03X407046Y161975I30002J19557D01*
G03X389026Y155742I6974J-49324D01*
G03X364033Y162466I-24994J-43091D01*
G03X314218Y112652I0J-49814D01*
G01Y97479D01*
G01X313327Y97486D01*
G01X274015D01*
G01X215675D01*
G01X203723Y109439D01*
G03X192287Y118028I-35931J-35931D01*
G03X176317Y143510I-35528J-4520D01*
G03X192574Y173512I-19557J30002D01*
G01Y253512D01*
G03X156760Y289326I-35814J0D01*
G01X66760D01*
G03X30946Y253512I0J-35814D01*
G01Y173512D01*
G03X47203Y143510I35814J0D01*
G03X34627Y129322I19557J-30002D01*
G01X4000D01*
G01X-8445D01*
G01Y165623D01*
G03X-29206Y198120I-35814J0D01*
G03X-8445Y230617I-15053J32497D01*
G01Y371617D01*
G03X-44259Y407431I-35814J0D01*
G01X-44260D01*
G01X-179260D01*
G03X-215074Y371617I0J-35814D01*
G01Y230617D01*
G03X-194314Y198120I35814J0D01*
G03X-212082Y179954I15053J-32497D01*
G01X-286208D01*
G01Y227390D01*
G03X-303709Y258167I-35814J0D01*
G01Y293523D01*
G03X-324450Y343596I-70814J0D01*
G01X-363926Y383072D01*
G03X-413999Y403813I-50073J-50073D01*
G01X-833666D01*
G01X-1005853Y576000D01*
G01X-860925Y720929D01*
G03X-840184Y771002I-50073J50073D01*
G01Y961922D01*
G03X-835184Y988998I-70814J27076D01*
G03X-910998Y1064812I-75814J0D01*
G03X-921076Y1064139I0J-75814D01*
G01Y1242445D01*
G03X-956890Y1278259I-35814J0D01*
G01X-1194490D01*
G03X-1230304Y1242445I0J-35814D01*
G01Y1052445D01*
G03X-1194490Y1016631I35814J0D01*
G01X-981597D01*
G03X-986812Y988998I70599J-27633D01*
G03X-981812Y961922I75814J0D01*
G01Y800334D01*
G01X-1028921Y753225D01*
G03X-1022186Y793000I-114079J39775D01*
G03X-1143000Y913814I-120814J0D01*
G03X-1233481Y873057I0J-120814D01*
G01Y1914785D01*
G02X-1169295Y1978971I64186J0D01*
G01X-663461D01*
G03X-664420Y1970740I34855J-8231D01*
G01Y1900740D01*
G03X-657438Y1879495I35814J0D01*
G03X-664416Y1858255I28836J-21240D01*
G01Y1818255D01*
G03X-658308Y1798250I35814J0D01*
G03X-664416Y1778245I29706J-20005D01*
G01Y1738245D01*
G03X-662521Y1726749I35814J0D01*
G01X-721271D01*
G03X-736441Y1747997I-34727J-8755D01*
G03X-720184Y1777999I-19557J30002D01*
G01Y1857999D01*
G03X-755998Y1893813I-35814J0D01*
G01X-845998D01*
G03X-881812Y1857999I0J-35814D01*
G01Y1777999D01*
G03X-865556Y1747997I35814J0D01*
G03X-875321Y1738556I19557J-30002D01*
G01X-930123D01*
G03X-976660Y1719280I0J-65814D01*
G01X-1009876Y1686064D01*
G01Y1704689D01*
G03X-1012402Y1722749I-65814J0D01*
G03X-1087998Y1792810I-75595J-5753D01*
G03X-1163812Y1716997I0J-75814D01*
G03X-1141504Y1663286I75814J0D01*
G01Y1657989D01*
G01X-1194490D01*
G03X-1230304Y1622175I0J-35814D01*
G01Y1432175D01*
G03X-1194490Y1396361I35814J0D01*
G01X-1037951D01*
G01X-972050Y1330460D01*
G03X-925512Y1311183I46538J46538D01*
G01X-883454D01*
G01Y1233962D01*
G03X-867197Y1203960I35814J0D01*
G03X-883454Y1173958I19557J-30002D01*
G01Y1093958D01*
G03X-847640Y1058144I35814J0D01*
G01X-757640D01*
G03X-721826Y1093958I0J35814D01*
G01Y1173958D01*
G03X-738083Y1203960I-35814J0D01*
G03X-722078Y1229722I-19557J30002D01*
G01X-662529D01*
G03X-664416Y1218251I33927J-11471D01*
G01Y1178251D01*
G03X-658308Y1158246I35814J0D01*
G03X-664416Y1138241I29706J-20005D01*
G01Y1098241D01*
G03X-658308Y1078236I35814J0D01*
G03X-664416Y1058231I29706J-20005D01*
G01Y1018231D01*
G03X-659123Y999494I35814J0D01*
G03X-664420Y980750I30517J-18744D01*
G01Y910750D01*
G03X-628606Y874936I35814J0D01*
G01X-558606D01*
G03X-528599Y891199I0J35814D01*
G03X-498594Y874940I30004J19554D01*
G01X-458594D01*
G03X-438602Y881039I0J35814D01*
G03X-418610Y874940I19992J29714D01*
G01X-378610D01*
G03X-358605Y881048I0J35814D01*
G03X-338600Y874940I20005J29706D01*
G01X-324455D01*
G01X-379813Y819582D01*
G03X-395617Y815164I9813J-65584D01*
G03X-427520Y834704I-31903J-16275D01*
G01X-781520D01*
G03X-817334Y798890I0J-35814D01*
G01Y552390D01*
G03X-781520Y516576I35814J0D01*
G01X-427520D01*
G03X-391706Y552390I0J35814D01*
G01Y691338D01*
G03X-369999Y687684I21707J62661D01*
G03X-311092Y723544I0J66314D01*
G03X-260999Y700684I50092J43455D01*
G03X-195416Y757185I0J66314D01*
G01X-181614Y770987D01*
G01Y698848D01*
G03X-167375Y664472I48614J0D01*
G01X-141775Y638873D01*
G03X-107400Y624634I34375J34375D01*
G01X-106864D01*
G03X-93398Y598890I47842J8631D01*
G01X133708Y371784D01*
G03X168083Y357545I34375J34375D01*
G01X488946D01*
G01X738707Y107784D01*
G03X773082Y93546I34375J34375D01*
G01X1039637D01*
G03X1022186Y31000I103363J-62546D01*
G03X1143000Y-89814I120814J0D01*
G03X1234886Y-47441I0J120814D01*
G01Y-1005209D01*
G02X1191068Y-1066077I-64186J0D01*
G01Y-950176D01*
G03X1155254Y-914362I-35814J0D01*
G01X1019255D01*
G03X983441Y-950176I0J-35814D01*
G37*
G36*
G01X-1233481Y619057D02*
G01X-1233481Y712943D01*
G03X-1143000Y672186I90481J80057D01*
G03X-1103225Y678921I0J120814D01*
G01X-1123858Y658288D01*
G03X-1143000Y659814I-19142J-119288D01*
G03X-1233481Y619057I0J-120814D01*
G37*
G36*
G01X-278595Y1020460D02*
G03X-298600Y1026568I-20005J-29706D01*
G01X-338600D01*
G03X-358605Y1020460I0J-35814D01*
G03X-378610Y1026568I-20005J-29706D01*
G01X-418610D01*
G03X-438602Y1020468I0J-35814D01*
G03X-458594Y1026568I-19992J-29714D01*
G01X-498594D01*
G03X-512788Y1023635I0J-35814D01*
G01Y1058231D01*
G03X-518896Y1078236I-35814J0D01*
G03X-512788Y1098241I-29706J20005D01*
G01Y1138241D01*
G03X-518896Y1158246I-35814J0D01*
G03X-512788Y1178251I-29706J20005D01*
G01Y1218251D01*
G03X-518887Y1238244I-35814J0D01*
G03X-512788Y1258236I-29714J19992D01*
G01Y1298236D01*
G03X-518896Y1318241I-35814J0D01*
G03X-512788Y1338246I-29706J20005D01*
G01Y1378246D01*
G03X-518896Y1398251I-35814J0D01*
G03X-512788Y1418256I-29706J20005D01*
G01Y1458256D01*
G03X-518887Y1478248I-35814J0D01*
G03X-512788Y1498241I-29714J19992D01*
G01Y1538241D01*
G03X-518896Y1558246I-35814J0D01*
G03X-512788Y1578251I-29706J20005D01*
G01Y1618251D01*
G03X-518887Y1638243I-35814J0D01*
G03X-512788Y1658235I-29714J19992D01*
G01Y1698235D01*
G03X-518896Y1718240I-35814J0D01*
G03X-512788Y1738245I-29706J20005D01*
G01Y1778245D01*
G03X-518896Y1798250I-35814J0D01*
G03X-512788Y1818255I-29706J20005D01*
G01Y1857855D01*
G03X-498594Y1854923I14194J32881D01*
G01X-458594D01*
G03X-438589Y1861031I0J35814D01*
G03X-418584Y1854923I20005J29706D01*
G01X-378584D01*
G03X-358592Y1861022I0J35814D01*
G03X-338600Y1854923I19992J29714D01*
G01X-298600D01*
G03X-278595Y1861031I0J35814D01*
G03X-258590Y1854923I20005J29706D01*
G01X-218590D01*
G03X-198598Y1861022I0J35814D01*
G03X-178605Y1854923I19992J29714D01*
G01X-138605D01*
G03X-118600Y1861031I0J35814D01*
G03X-98595Y1854923I20005J29706D01*
G01X-58595D01*
G03X-38590Y1861031I0J35814D01*
G03X-18585Y1854923I20005J29706D01*
G01X21415D01*
G03X41407Y1861022I0J35814D01*
G03X61399Y1854923I19992J29714D01*
G01X101399D01*
G03X121404Y1861031I0J35814D01*
G03X141409Y1854923I20005J29706D01*
G01X181409D01*
G03X201402Y1861022I0J35814D01*
G03X221394Y1854923I19992J29714D01*
G01X261394D01*
G03X281399Y1861031I0J35814D01*
G03X301404Y1854923I20005J29706D01*
G01X341404D01*
G03X361409Y1861031I0J35814D01*
G03X381414Y1854923I20005J29706D01*
G01X421414D01*
G03X441406Y1861022I0J35814D01*
G03X461399Y1854923I19992J29714D01*
G01X501399D01*
G03X515592Y1857855I0J35814D01*
G01Y1818255D01*
G03X521700Y1798250I35814J0D01*
G03X515592Y1778245I29706J-20005D01*
G01Y1738245D01*
G03X521700Y1718240I35814J0D01*
G03X515592Y1698235I29706J-20005D01*
G01Y1658235D01*
G03X521692Y1638243I35814J0D01*
G03X515592Y1618251I29714J-19992D01*
G01Y1578251D01*
G03X521700Y1558246I35814J0D01*
G03X515592Y1538241I29706J-20005D01*
G01Y1498241D01*
G03X521700Y1478236I35814J0D01*
G03X515592Y1458231I29706J-20005D01*
G01Y1418231D01*
G03X521692Y1398238I35814J0D01*
G03X515592Y1378246I29714J-19992D01*
G01Y1338246D01*
G03X521700Y1318241I35814J0D01*
G03X515592Y1298236I29706J-20005D01*
G01Y1258236D01*
G03X521692Y1238244I35814J0D01*
G03X515592Y1218251I29714J-19992D01*
G01Y1178251D01*
G03X521700Y1158246I35814J0D01*
G03X515611Y1139392I29706J-20005D01*
G01X496588Y1158415D01*
G03X431800Y1210584I-64788J-14145D01*
G03X365488Y1144834I0J-66314D01*
G03X344170Y1148354I-21318J-62794D01*
G03X277856Y1082040I0J-66314D01*
G03X307833Y1026568I66314J0D01*
G01X301404D01*
G03X281399Y1020460I0J-35814D01*
G03X261394Y1026568I-20005J-29706D01*
G01X221394D01*
G03X201402Y1020468I0J-35814D01*
G03X181409Y1026568I-19992J-29714D01*
G01X141409D01*
G03X121404Y1020460I0J-35814D01*
G03X101399Y1026568I-20005J-29706D01*
G01X61399D01*
G03X41394Y1020460I0J-35814D01*
G03X21389Y1026568I-20005J-29706D01*
G01X-18611D01*
G03X-38603Y1020468I0J-35814D01*
G03X-58595Y1026568I-19992J-29714D01*
G01X-98595D01*
G03X-118600Y1020460I0J-35814D01*
G03X-138605Y1026568I-20005J-29706D01*
G01X-178605D01*
G03X-198598Y1020468I0J-35814D01*
G03X-218590Y1026568I-19992J-29714D01*
G01X-258590D01*
G03X-278595Y1020460I0J-35814D01*
G37*
%LPC*%
G36*
G01X-284420Y1193264D02*
G03X-248606Y1157450I35814J0D01*
G01X-103605D01*
G03X-86101Y1162019I0J35814D01*
G03X-68597Y1157450I17504J31245D01*
G01X76404D01*
G03X93896Y1162012I0J35814D01*
G03X111388Y1157450I17492J31252D01*
G01X256389D01*
G03X292203Y1193264I0J35814D01*
G01Y1338265D01*
G03X287641Y1355757I-35814J0D01*
G03X292203Y1373248I-31252J17492D01*
G01Y1518249D01*
G03X287634Y1535754I-35814J0D01*
G03X292203Y1553258I-31245J17504D01*
G01Y1698259D01*
G03X256389Y1734073I-35814J0D01*
G01X111388D01*
G03X93896Y1729511I0J-35814D01*
G03X76404Y1734073I-17492J-31252D01*
G01X-68597D01*
G03X-86101Y1729504I0J-35814D01*
G03X-103605Y1734073I-17504J-31245D01*
G01X-248606D01*
G03X-284420Y1698259I0J-35814D01*
G01Y1553258D01*
G03X-279851Y1535754I35814J0D01*
G03X-284420Y1518249I31245J-17504D01*
G01Y1373248D01*
G03X-279858Y1355757I35814J0D01*
G03X-284420Y1338265I31252J-17492D01*
G01Y1193264D01*
G37*
%LPD*%
G36*
G01X313219Y-201360D02*
G01X313219Y-223506D01*
G01X230598D01*
G01X217541Y-210449D01*
G03X181610Y-195566I-35931J-35931D01*
G01X-82441D01*
G03X-39068Y-154154I-19159J63486D01*
G01X198208D01*
G03X248016Y-203142I49808J827D01*
G01X300015D01*
G03X313219Y-201360I0J49814D01*
G37*
G36*
G01X405811Y522436D02*
G01X432634Y495613D01*
G01X205136D01*
G01X30431Y670318D01*
G01Y858245D01*
G01X35765Y863579D01*
G03X45922Y878457I-34375J34375D01*
G03X61399Y874940I15477J32297D01*
G01X101399D01*
G03X121404Y881048I0J35814D01*
G03X141409Y874940I20005J29706D01*
G01X181409D01*
G03X201402Y881039I0J35814D01*
G03X221394Y874940I19992J29714D01*
G01X261394D01*
G03X272630Y876748I0J35814D01*
G01Y860064D01*
G01X265340D01*
G03X229526Y824250I0J-35814D01*
G01Y737850D01*
G03X265340Y702036I35814J0D01*
G01X345987D01*
G03X381000Y730316I0J35814D01*
G03X416013Y702036I35013J7534D01*
G01X471209D01*
G03X476122Y684064I65789J8325D01*
G01X403382D01*
G03X373380Y667807I0J-35814D01*
G03X343378Y684064I-30002J-19557D01*
G01X263378D01*
G03X227564Y648250I0J-35814D01*
G01Y558250D01*
G03X263378Y522436I35814J0D01*
G01X343378D01*
G03X373380Y538693I0J35814D01*
G03X403382Y522436I30002J19557D01*
G01X405811D01*
G37*
G36*
G01X208267Y-489396D02*
G03X247814Y-400000I-81267J89396D01*
G03X221821Y-325134I-120814J0D01*
G01X260186D01*
G01Y-485000D01*
G03X260457Y-489396I35814J0D01*
G01X208267D01*
G37*
G36*
G01X571480Y858864D02*
G03X535751Y825514I0J-35814D01*
G01X532452D01*
G03X496660Y860064I-35792J-1264D01*
G01X416013D01*
G03X381000Y831784I0J-35814D01*
G03X374258Y846238I-35013J-7534D01*
G01Y875662D01*
G03X381414Y874940I7156J35092D01*
G01X421414D01*
G03X441406Y881039I0J35814D01*
G03X461399Y874940I19992J29714D01*
G01X501399D01*
G03X531403Y891199I0J35814D01*
G03X561410Y874936I30007J19551D01*
G01X631410D01*
G03X646293Y878175I0J35814D01*
G01X626982Y858864D01*
G01X571480D01*
G37*
G36*
G01X411880Y-279186D02*
G03X414353Y-269145I-47847J17109D01*
G01X415423Y-269126D01*
G03X416618Y-279186I48609J674D01*
G01X411880D01*
G37*
G36*
G01X439026Y-124249D02*
G03X436343Y-122800I-25006J-43083D01*
G03X465313Y-68000I-37343J54800D01*
G03X458491Y-38704I-66314J0D01*
G03X479930Y-25931I-14492J48704D01*
G01X482438Y-23423D01*
G03X484935Y-28334I45587J20082D01*
G03X478211Y-53327I43091J-24994D01*
G03X484942Y-78334I49814J0D01*
G03X478211Y-103340I43083J-25006D01*
G03X481299Y-120606I49814J0D01*
G03X464033Y-117518I-17266J-46726D01*
G03X439026Y-124249I0J-49814D01*
G37*
G36*
G01X770942Y-301688D02*
G03X744220Y-328996I8290J-34841D01*
G03X709207Y-300716I-35013J-7534D01*
G01X634709D01*
G03X621115Y-274235I-47969J-7894D01*
G01X593175Y-246295D01*
G03X558800Y-232056I-34375J-34375D01*
G01X512647D01*
G01Y-230202D01*
G03X513847Y-219332I-48614J10870D01*
G01Y-201081D01*
G03X528025Y-203142I14178J47754D01*
G01X580024D01*
G03X629839Y-153327I0J49814D01*
G03X623115Y-128333I-49814J0D01*
G03X629839Y-103340I-43091J24994D01*
G03X623108Y-78334I-49814J0D01*
G03X629839Y-53327I-43083J25006D01*
G03X623115Y-28334I-49814J0D01*
G03X629839Y-3340I-43091J24994D01*
G03X623108Y21666I-49814J0D01*
G03X627236Y30782I-43083J25006D01*
G03X642385Y3897I63762J18218D01*
G01Y-31869D01*
G03X656623Y-66244I48614J0D01*
G01X792686Y-202307D01*
G01X785181Y-209811D01*
G03X770942Y-244187I34375J-34375D01*
G01Y-301688D01*
G37*
G36*
G01X848360Y1344864D02*
G03X813347Y1373144I-35013J-7534D01*
G01X776211D01*
G03X813074Y1432560I-29451J59416D01*
G03X799288Y1473037I-66314J0D01*
G03X814344Y1515110I-51258J42073D01*
G03X748030Y1581424I-66314J0D01*
G03X706556Y1566854I0J-66314D01*
G01X665358D01*
G03X667220Y1578251I-33952J11396D01*
G01Y1618251D01*
G03X661120Y1638243I-35814J0D01*
G03X667220Y1658235I-29714J19992D01*
G01Y1698235D01*
G03X661112Y1718240I-35814J0D01*
G03X667220Y1738245I-29706J20005D01*
G01Y1778245D01*
G03X661112Y1798250I-35814J0D01*
G03X667220Y1818255I-29706J20005D01*
G01Y1858255D01*
G03X660242Y1879495I-35814J0D01*
G03X667224Y1900740I-28832J21245D01*
G01Y1970740D01*
G03X666265Y1978971I-35814J0D01*
G01X1170700D01*
G02X1234886Y1914785I0J-64186D01*
G01Y1421146D01*
G03X1228000Y1421814I-6886J-35146D01*
G01X1058000D01*
G03X1022186Y1386000I0J-35814D01*
G01Y1349944D01*
G01X997539D01*
G03X964020Y1373144I-33519J-12614D01*
G01X883373D01*
G03X848360Y1344864I0J-35814D01*
G37*
G36*
G01X991941Y823314D02*
G01X991941Y900980D01*
G03X956127Y936794I-35814J0D01*
G01X876127D01*
G03X846125Y920537I0J-35814D01*
G03X816122Y936794I-30002J-19557D01*
G01X736122D01*
G03X700784Y906794I0J-35814D01*
G01X695960D01*
G03X663685Y895228I0J-50814D01*
G03X667224Y910750I-32275J15522D01*
G01Y980750D01*
G01X667185Y982417D01*
G01X700551D01*
G03X732700Y962386I32149J15782D01*
G01X813347D01*
G03X848360Y990666I0J35814D01*
G03X883373Y962386I35013J7534D01*
G01X964020D01*
G03X997539Y985586I0J35814D01*
G01X1038960D01*
G03X1143000Y926186I104040J61414D01*
G03X1234886Y968559I0J120814D01*
G01Y871441D01*
G03X1143000Y913814I-91886J-78441D01*
G03X1026051Y823314I0J-120814D01*
G01X991941D01*
G37*
G36*
G01X929694Y527274D02*
G01X929694Y539617D01*
G03X915543Y573780I-48314J0D01*
G01X854162Y635162D01*
G01X854161D01*
G03X845835Y641824I-34163J-34163D01*
G03X855980Y644122I-2754J35708D01*
G03X868879Y641718I12899J33410D01*
G01X893881D01*
G03X906780Y644122I0J35814D01*
G03X919679Y641718I12899J33410D01*
G01X944681D01*
G03X980495Y677532I0J35814D01*
G01Y707147D01*
G03X980794Y712534I-48315J5387D01*
G01Y726086D01*
G01X1042409D01*
G03X1143000Y672186I100591J66914D01*
G03X1234886Y714559I0J120814D01*
G01Y617441D01*
G03X1143000Y659814I-91886J-78441D01*
G03X1033904Y590904I0J-120814D01*
G01X1013460D01*
G03X979085Y576665I0J-48614D01*
G01X929694Y527274D01*
G37*
G54D8191*
G01X-983998Y-1069395D02*
G03X-983172Y-1061745I-34988J7649D01*
G01Y-938746D01*
G03X-1018986Y-902932I-35814J0D01*
G01X-1154985D01*
G03X-1190799Y-938746I0J-35814D01*
G01Y-1061745D01*
G03X-1190573Y-1065765I35814J0D01*
G02X-1233481Y-1005209I21277J60557D01*
G01Y-89392D01*
G03X-1228000Y-89814I5481J35392D01*
G01X-1058000D01*
G03X-1022186Y-54000I0J35814D01*
G01Y-49814D01*
G01X-986998D01*
G03X-929854Y-26144I0J80814D01*
G01X-922832Y-19122D01*
G03X-910331Y-46296I35814J12D01*
G01Y-79565D01*
G01X-934227D01*
G03X-970041Y-115379I0J-35814D01*
G01Y-115380D01*
G01Y-250380D01*
G03X-934227Y-286194I35814J0D01*
G01X-793227D01*
G03X-760730Y-265434I0J35814D01*
G03X-728233Y-286194I32497J15053D01*
G01X-587233D01*
G03X-551419Y-250380I0J35814D01*
G01Y-115380D01*
G01Y-115379D01*
G03X-587233Y-79565I-35814J0D01*
G01X-728233D01*
G03X-758703Y-96558I0J-35814D01*
G01Y-46296D01*
G03X-746202Y-19110I-23314J27187D01*
G01Y227390D01*
G03X-773537Y262185I-35814J0D01*
G01X-665500D01*
G03X-692835Y227390I8480J-34796D01*
G01Y-19110D01*
G03X-657021Y-54924I35814J0D01*
G01X-552019D01*
G03X-516205Y-19110I0J35814D01*
G01Y227390D01*
G03X-543540Y262185I-35814J0D01*
G01X-445337D01*
G01Y258167D01*
G03X-462838Y227390I18314J-30778D01*
G01Y-19110D01*
G03X-427024Y-54924I35814J0D01*
G01X-383764D01*
G01X-371572Y-67116D01*
G01Y-80991D01*
G03X-395762Y-71586I-24191J-26409D01*
G01X-475762D01*
G03X-511576Y-107400I0J-35814D01*
G01Y-197400D01*
G03X-491396Y-229622I35814J0D01*
G03X-499206Y-236124I31656J-45968D01*
G01X-639069Y-375986D01*
G01X-697911D01*
G03X-731430Y-352786I-33519J-12614D01*
G01X-812077D01*
G03X-847090Y-381066I0J-35814D01*
G03X-882103Y-352786I-35013J-7534D01*
G01X-962750D01*
G03X-996269Y-375986I0J-35814D01*
G01X-1031240D01*
G03X-1070706Y-392334I0J-55814D01*
G01X-1126452Y-448079D01*
G03X-1138452Y-465950I39466J-39466D01*
G01X-1154985D01*
G03X-1190799Y-501764I0J-35814D01*
G01Y-624764D01*
G03X-1154985Y-660578I35814J0D01*
G01X-1018986D01*
G03X-983172Y-624764I0J35814D01*
G01Y-504421D01*
G03X-974410Y-508863I20422J29421D01*
G03X-961893Y-528010I51984J20319D01*
G01X-910608Y-579295D01*
G03X-845820Y-631464I64788J14145D01*
G03X-804881Y-617318I0J66314D01*
G03X-805110Y-625210I135584J-7891D01*
G01Y-1005209D01*
G02X-869296Y-1069395I-64186J0D01*
G01X-983998D01*
G01X983441Y-950176D02*
G01X983441Y-1069395D01*
G01X870701D01*
G02X806515Y-1005209I0J64186D01*
G01Y-625210D01*
G03X670701Y-489396I-135814J0D01*
G01X501543D01*
G03X501814Y-485000I-35543J4396D01*
G01Y-329284D01*
G01X538126D01*
G01Y-359410D01*
G03X552365Y-393785I48614J0D01*
G01X572685Y-414105D01*
G03X592899Y-426236I34375J34375D01*
G03X628560Y-458744I35661J3305D01*
G01X709207D01*
G03X744220Y-430464I0J35814D01*
G03X779233Y-458744I35013J7534D01*
G01X859880D01*
G03X895694Y-422930I0J35814D01*
G01Y-336530D01*
G03X868170Y-301688I-35814J0D01*
G01Y-272129D01*
G03X886054Y-275538I17883J45205D01*
G01X1009078D01*
G03X1036386Y-302260I34841J8290D01*
G03X1008106Y-337273I7534J-35013D01*
G01Y-417920D01*
G03X1024150Y-447784I35814J0D01*
G03X1015481Y-447106I-8670J-55136D01*
G01X967990D01*
G03X932180Y-436606I-35810J-55814D01*
G03X865866Y-502920I0J-66314D01*
G03X932180Y-569234I66314J0D01*
G03X967990Y-558734I0J66314D01*
G01X983441D01*
G01Y-636194D01*
G03X1019255Y-672008I35814J0D01*
G01X1155254D01*
G03X1191068Y-636194I0J35814D01*
G01Y-513194D01*
G03X1155254Y-477380I-35814J0D01*
G01X1138069D01*
G01Y-452886D01*
G03X1166134Y-417920I-7748J34966D01*
G01Y-337273D01*
G03X1137854Y-302260I-35814J0D01*
G03X1166134Y-267247I-7534J35013D01*
G01Y-186600D01*
G03X1130320Y-150786I-35814J0D01*
G01X1043920D01*
G03X1009078Y-178310I0J-35814D01*
G01X906190D01*
G01X895812Y-167931D01*
G01X739613Y-11732D01*
G01Y3897D01*
G03X757313Y49000I-48614J45103D01*
G03X736361Y97371I-66314J0D01*
G03X725374Y114267I-45363J-17480D01*
G01X562695Y276945D01*
G03X528320Y291184I-34375J-34375D01*
G01X526634D01*
G03X491002Y323384I-35631J-3614D01*
G01X411002D01*
G03X381000Y307127I0J-35814D01*
G03X350998Y323384I-30002J-19557D01*
G01X270998D01*
G03X235184Y287570I0J-35814D01*
G01Y197570D01*
G03X270998Y161756I35814J0D01*
G01X350998D01*
G03X381000Y178013I0J35814D01*
G03X407046Y161975I30002J19557D01*
G03X389026Y155742I6974J-49324D01*
G03X364033Y162466I-24994J-43091D01*
G03X314218Y112652I0J-49814D01*
G01Y97479D01*
G01X313327Y97486D01*
G01X274015D01*
G01X215675D01*
G01X203723Y109439D01*
G03X192287Y118028I-35931J-35931D01*
G03X176317Y143510I-35528J-4520D01*
G03X192574Y173512I-19557J30002D01*
G01Y253512D01*
G03X156760Y289326I-35814J0D01*
G01X66760D01*
G03X30946Y253512I0J-35814D01*
G01Y173512D01*
G03X47203Y143510I35814J0D01*
G03X34627Y129322I19557J-30002D01*
G01X4000D01*
G01X-8445D01*
G01Y165623D01*
G03X-29206Y198120I-35814J0D01*
G03X-8445Y230617I-15053J32497D01*
G01Y371617D01*
G03X-44259Y407431I-35814J0D01*
G01X-44260D01*
G01X-179260D01*
G03X-215074Y371617I0J-35814D01*
G01Y230617D01*
G03X-194314Y198120I35814J0D01*
G03X-212082Y179954I15053J-32497D01*
G01X-286208D01*
G01Y227390D01*
G03X-303709Y258167I-35814J0D01*
G01Y293523D01*
G03X-324450Y343596I-70814J0D01*
G01X-363926Y383072D01*
G03X-413999Y403813I-50073J-50073D01*
G01X-833666D01*
G01X-1005853Y576000D01*
G01X-860925Y720929D01*
G03X-840184Y771002I-50073J50073D01*
G01Y961922D01*
G03X-835184Y988998I-70814J27076D01*
G03X-910998Y1064812I-75814J0D01*
G03X-921076Y1064139I0J-75814D01*
G01Y1242445D01*
G03X-956890Y1278259I-35814J0D01*
G01X-1194490D01*
G03X-1230304Y1242445I0J-35814D01*
G01Y1052445D01*
G03X-1194490Y1016631I35814J0D01*
G01X-981597D01*
G03X-986812Y988998I70599J-27633D01*
G03X-981812Y961922I75814J0D01*
G01Y800334D01*
G01X-1028921Y753225D01*
G03X-1022186Y793000I-114079J39775D01*
G03X-1143000Y913814I-120814J0D01*
G03X-1233481Y873057I0J-120814D01*
G01Y1914785D01*
G02X-1169295Y1978971I64186J0D01*
G01X-663461D01*
G03X-664420Y1970740I34855J-8231D01*
G01Y1900740D01*
G03X-657438Y1879495I35814J0D01*
G03X-664416Y1858255I28836J-21240D01*
G01Y1818255D01*
G03X-658308Y1798250I35814J0D01*
G03X-664416Y1778245I29706J-20005D01*
G01Y1738245D01*
G03X-662521Y1726749I35814J0D01*
G01X-721271D01*
G03X-736441Y1747997I-34727J-8755D01*
G03X-720184Y1777999I-19557J30002D01*
G01Y1857999D01*
G03X-755998Y1893813I-35814J0D01*
G01X-845998D01*
G03X-881812Y1857999I0J-35814D01*
G01Y1777999D01*
G03X-865556Y1747997I35814J0D01*
G03X-875321Y1738556I19557J-30002D01*
G01X-930123D01*
G03X-976660Y1719280I0J-65814D01*
G01X-1009876Y1686064D01*
G01Y1704689D01*
G03X-1012402Y1722749I-65814J0D01*
G03X-1087998Y1792810I-75595J-5753D01*
G03X-1163812Y1716997I0J-75814D01*
G03X-1141504Y1663286I75814J0D01*
G01Y1657989D01*
G01X-1194490D01*
G03X-1230304Y1622175I0J-35814D01*
G01Y1432175D01*
G03X-1194490Y1396361I35814J0D01*
G01X-1037951D01*
G01X-972050Y1330460D01*
G03X-925512Y1311183I46538J46538D01*
G01X-883454D01*
G01Y1233962D01*
G03X-867197Y1203960I35814J0D01*
G03X-883454Y1173958I19557J-30002D01*
G01Y1093958D01*
G03X-847640Y1058144I35814J0D01*
G01X-757640D01*
G03X-721826Y1093958I0J35814D01*
G01Y1173958D01*
G03X-738083Y1203960I-35814J0D01*
G03X-722078Y1229722I-19557J30002D01*
G01X-662529D01*
G03X-664416Y1218251I33927J-11471D01*
G01Y1178251D01*
G03X-658308Y1158246I35814J0D01*
G03X-664416Y1138241I29706J-20005D01*
G01Y1098241D01*
G03X-658308Y1078236I35814J0D01*
G03X-664416Y1058231I29706J-20005D01*
G01Y1018231D01*
G03X-659123Y999494I35814J0D01*
G03X-664420Y980750I30517J-18744D01*
G01Y910750D01*
G03X-628606Y874936I35814J0D01*
G01X-558606D01*
G03X-528599Y891199I0J35814D01*
G03X-498594Y874940I30004J19554D01*
G01X-458594D01*
G03X-438602Y881039I0J35814D01*
G03X-418610Y874940I19992J29714D01*
G01X-378610D01*
G03X-358605Y881048I0J35814D01*
G03X-338600Y874940I20005J29706D01*
G01X-324455D01*
G01X-379813Y819582D01*
G03X-395617Y815164I9813J-65584D01*
G03X-427520Y834704I-31903J-16275D01*
G01X-781520D01*
G03X-817334Y798890I0J-35814D01*
G01Y552390D01*
G03X-781520Y516576I35814J0D01*
G01X-427520D01*
G03X-391706Y552390I0J35814D01*
G01Y691338D01*
G03X-369999Y687684I21707J62661D01*
G03X-311092Y723544I0J66314D01*
G03X-260999Y700684I50092J43455D01*
G03X-195416Y757185I0J66314D01*
G01X-181614Y770987D01*
G01Y698848D01*
G03X-167375Y664472I48614J0D01*
G01X-141775Y638873D01*
G03X-107400Y624634I34375J34375D01*
G01X-106864D01*
G03X-93398Y598890I47842J8631D01*
G01X133708Y371784D01*
G03X168083Y357545I34375J34375D01*
G01X488946D01*
G01X738707Y107784D01*
G03X773082Y93546I34375J34375D01*
G01X1039637D01*
G03X1022186Y31000I103363J-62546D01*
G03X1143000Y-89814I120814J0D01*
G03X1234886Y-47441I0J120814D01*
G01Y-1005209D01*
G02X1191068Y-1066077I-64186J0D01*
G01Y-950176D01*
G03X1155254Y-914362I-35814J0D01*
G01X1019255D01*
G03X983441Y-950176I0J-35814D01*
G01X-1233481Y619057D02*
G01X-1233481Y712943D01*
G03X-1143000Y672186I90481J80057D01*
G03X-1103225Y678921I0J120814D01*
G01X-1123858Y658288D01*
G03X-1143000Y659814I-19142J-119288D01*
G03X-1233481Y619057I0J-120814D01*
G01X-278595Y1020460D02*
G03X-298600Y1026568I-20005J-29706D01*
G01X-338600D01*
G03X-358605Y1020460I0J-35814D01*
G03X-378610Y1026568I-20005J-29706D01*
G01X-418610D01*
G03X-438602Y1020468I0J-35814D01*
G03X-458594Y1026568I-19992J-29714D01*
G01X-498594D01*
G03X-512788Y1023635I0J-35814D01*
G01Y1058231D01*
G03X-518896Y1078236I-35814J0D01*
G03X-512788Y1098241I-29706J20005D01*
G01Y1138241D01*
G03X-518896Y1158246I-35814J0D01*
G03X-512788Y1178251I-29706J20005D01*
G01Y1218251D01*
G03X-518887Y1238244I-35814J0D01*
G03X-512788Y1258236I-29714J19992D01*
G01Y1298236D01*
G03X-518896Y1318241I-35814J0D01*
G03X-512788Y1338246I-29706J20005D01*
G01Y1378246D01*
G03X-518896Y1398251I-35814J0D01*
G03X-512788Y1418256I-29706J20005D01*
G01Y1458256D01*
G03X-518887Y1478248I-35814J0D01*
G03X-512788Y1498241I-29714J19992D01*
G01Y1538241D01*
G03X-518896Y1558246I-35814J0D01*
G03X-512788Y1578251I-29706J20005D01*
G01Y1618251D01*
G03X-518887Y1638243I-35814J0D01*
G03X-512788Y1658235I-29714J19992D01*
G01Y1698235D01*
G03X-518896Y1718240I-35814J0D01*
G03X-512788Y1738245I-29706J20005D01*
G01Y1778245D01*
G03X-518896Y1798250I-35814J0D01*
G03X-512788Y1818255I-29706J20005D01*
G01Y1857855D01*
G03X-498594Y1854923I14194J32881D01*
G01X-458594D01*
G03X-438589Y1861031I0J35814D01*
G03X-418584Y1854923I20005J29706D01*
G01X-378584D01*
G03X-358592Y1861022I0J35814D01*
G03X-338600Y1854923I19992J29714D01*
G01X-298600D01*
G03X-278595Y1861031I0J35814D01*
G03X-258590Y1854923I20005J29706D01*
G01X-218590D01*
G03X-198598Y1861022I0J35814D01*
G03X-178605Y1854923I19992J29714D01*
G01X-138605D01*
G03X-118600Y1861031I0J35814D01*
G03X-98595Y1854923I20005J29706D01*
G01X-58595D01*
G03X-38590Y1861031I0J35814D01*
G03X-18585Y1854923I20005J29706D01*
G01X21415D01*
G03X41407Y1861022I0J35814D01*
G03X61399Y1854923I19992J29714D01*
G01X101399D01*
G03X121404Y1861031I0J35814D01*
G03X141409Y1854923I20005J29706D01*
G01X181409D01*
G03X201402Y1861022I0J35814D01*
G03X221394Y1854923I19992J29714D01*
G01X261394D01*
G03X281399Y1861031I0J35814D01*
G03X301404Y1854923I20005J29706D01*
G01X341404D01*
G03X361409Y1861031I0J35814D01*
G03X381414Y1854923I20005J29706D01*
G01X421414D01*
G03X441406Y1861022I0J35814D01*
G03X461399Y1854923I19992J29714D01*
G01X501399D01*
G03X515592Y1857855I0J35814D01*
G01Y1818255D01*
G03X521700Y1798250I35814J0D01*
G03X515592Y1778245I29706J-20005D01*
G01Y1738245D01*
G03X521700Y1718240I35814J0D01*
G03X515592Y1698235I29706J-20005D01*
G01Y1658235D01*
G03X521692Y1638243I35814J0D01*
G03X515592Y1618251I29714J-19992D01*
G01Y1578251D01*
G03X521700Y1558246I35814J0D01*
G03X515592Y1538241I29706J-20005D01*
G01Y1498241D01*
G03X521700Y1478236I35814J0D01*
G03X515592Y1458231I29706J-20005D01*
G01Y1418231D01*
G03X521692Y1398238I35814J0D01*
G03X515592Y1378246I29714J-19992D01*
G01Y1338246D01*
G03X521700Y1318241I35814J0D01*
G03X515592Y1298236I29706J-20005D01*
G01Y1258236D01*
G03X521692Y1238244I35814J0D01*
G03X515592Y1218251I29714J-19992D01*
G01Y1178251D01*
G03X521700Y1158246I35814J0D01*
G03X515611Y1139392I29706J-20005D01*
G01X496588Y1158415D01*
G03X431800Y1210584I-64788J-14145D01*
G03X365488Y1144834I0J-66314D01*
G03X344170Y1148354I-21318J-62794D01*
G03X277856Y1082040I0J-66314D01*
G03X307833Y1026568I66314J0D01*
G01X301404D01*
G03X281399Y1020460I0J-35814D01*
G03X261394Y1026568I-20005J-29706D01*
G01X221394D01*
G03X201402Y1020468I0J-35814D01*
G03X181409Y1026568I-19992J-29714D01*
G01X141409D01*
G03X121404Y1020460I0J-35814D01*
G03X101399Y1026568I-20005J-29706D01*
G01X61399D01*
G03X41394Y1020460I0J-35814D01*
G03X21389Y1026568I-20005J-29706D01*
G01X-18611D01*
G03X-38603Y1020468I0J-35814D01*
G03X-58595Y1026568I-19992J-29714D01*
G01X-98595D01*
G03X-118600Y1020460I0J-35814D01*
G03X-138605Y1026568I-20005J-29706D01*
G01X-178605D01*
G03X-198598Y1020468I0J-35814D01*
G03X-218590Y1026568I-19992J-29714D01*
G01X-258590D01*
G03X-278595Y1020460I0J-35814D01*
G01X-284420Y1193264D02*
G03X-248606Y1157450I35814J0D01*
G01X-103605D01*
G03X-86101Y1162019I0J35814D01*
G03X-68597Y1157450I17504J31245D01*
G01X76404D01*
G03X93896Y1162012I0J35814D01*
G03X111388Y1157450I17492J31252D01*
G01X256389D01*
G03X292203Y1193264I0J35814D01*
G01Y1338265D01*
G03X287641Y1355757I-35814J0D01*
G03X292203Y1373248I-31252J17492D01*
G01Y1518249D01*
G03X287634Y1535754I-35814J0D01*
G03X292203Y1553258I-31245J17504D01*
G01Y1698259D01*
G03X256389Y1734073I-35814J0D01*
G01X111388D01*
G03X93896Y1729511I0J-35814D01*
G03X76404Y1734073I-17492J-31252D01*
G01X-68597D01*
G03X-86101Y1729504I0J-35814D01*
G03X-103605Y1734073I-17504J-31245D01*
G01X-248606D01*
G03X-284420Y1698259I0J-35814D01*
G01Y1553258D01*
G03X-279851Y1535754I35814J0D01*
G03X-284420Y1518249I31245J-17504D01*
G01Y1373248D01*
G03X-279858Y1355757I35814J0D01*
G03X-284420Y1338265I31252J-17492D01*
G01Y1193264D01*
G01X313219Y-201360D02*
G01X313219Y-223506D01*
G01X230598D01*
G01X217541Y-210449D01*
G03X181610Y-195566I-35931J-35931D01*
G01X-82441D01*
G03X-39068Y-154154I-19159J63486D01*
G01X198208D01*
G03X248016Y-203142I49808J827D01*
G01X300015D01*
G03X313219Y-201360I0J49814D01*
G01X405811Y522436D02*
G01X432634Y495613D01*
G01X205136D01*
G01X30431Y670318D01*
G01Y858245D01*
G01X35765Y863579D01*
G03X45922Y878457I-34375J34375D01*
G03X61399Y874940I15477J32297D01*
G01X101399D01*
G03X121404Y881048I0J35814D01*
G03X141409Y874940I20005J29706D01*
G01X181409D01*
G03X201402Y881039I0J35814D01*
G03X221394Y874940I19992J29714D01*
G01X261394D01*
G03X272630Y876748I0J35814D01*
G01Y860064D01*
G01X265340D01*
G03X229526Y824250I0J-35814D01*
G01Y737850D01*
G03X265340Y702036I35814J0D01*
G01X345987D01*
G03X381000Y730316I0J35814D01*
G03X416013Y702036I35013J7534D01*
G01X471209D01*
G03X476122Y684064I65789J8325D01*
G01X403382D01*
G03X373380Y667807I0J-35814D01*
G03X343378Y684064I-30002J-19557D01*
G01X263378D01*
G03X227564Y648250I0J-35814D01*
G01Y558250D01*
G03X263378Y522436I35814J0D01*
G01X343378D01*
G03X373380Y538693I0J35814D01*
G03X403382Y522436I30002J19557D01*
G01X405811D01*
G01X208267Y-489396D02*
G03X247814Y-400000I-81267J89396D01*
G03X221821Y-325134I-120814J0D01*
G01X260186D01*
G01Y-485000D01*
G03X260457Y-489396I35814J0D01*
G01X208267D01*
G01X571480Y858864D02*
G03X535751Y825514I0J-35814D01*
G01X532452D01*
G03X496660Y860064I-35792J-1264D01*
G01X416013D01*
G03X381000Y831784I0J-35814D01*
G03X374258Y846238I-35013J-7534D01*
G01Y875662D01*
G03X381414Y874940I7156J35092D01*
G01X421414D01*
G03X441406Y881039I0J35814D01*
G03X461399Y874940I19992J29714D01*
G01X501399D01*
G03X531403Y891199I0J35814D01*
G03X561410Y874936I30007J19551D01*
G01X631410D01*
G03X646293Y878175I0J35814D01*
G01X626982Y858864D01*
G01X571480D01*
G01X411880Y-279186D02*
G03X414353Y-269145I-47847J17109D01*
G01X415423Y-269126D01*
G03X416618Y-279186I48609J674D01*
G01X411880D01*
G01X439026Y-124249D02*
G03X436343Y-122800I-25006J-43083D01*
G03X465313Y-68000I-37343J54800D01*
G03X458491Y-38704I-66314J0D01*
G03X479930Y-25931I-14492J48704D01*
G01X482438Y-23423D01*
G03X484935Y-28334I45587J20082D01*
G03X478211Y-53327I43091J-24994D01*
G03X484942Y-78334I49814J0D01*
G03X478211Y-103340I43083J-25006D01*
G03X481299Y-120606I49814J0D01*
G03X464033Y-117518I-17266J-46726D01*
G03X439026Y-124249I0J-49814D01*
G01X770942Y-301688D02*
G03X744220Y-328996I8290J-34841D01*
G03X709207Y-300716I-35013J-7534D01*
G01X634709D01*
G03X621115Y-274235I-47969J-7894D01*
G01X593175Y-246295D01*
G03X558800Y-232056I-34375J-34375D01*
G01X512647D01*
G01Y-230202D01*
G03X513847Y-219332I-48614J10870D01*
G01Y-201081D01*
G03X528025Y-203142I14178J47754D01*
G01X580024D01*
G03X629839Y-153327I0J49814D01*
G03X623115Y-128333I-49814J0D01*
G03X629839Y-103340I-43091J24994D01*
G03X623108Y-78334I-49814J0D01*
G03X629839Y-53327I-43083J25006D01*
G03X623115Y-28334I-49814J0D01*
G03X629839Y-3340I-43091J24994D01*
G03X623108Y21666I-49814J0D01*
G03X627236Y30782I-43083J25006D01*
G03X642385Y3897I63762J18218D01*
G01Y-31869D01*
G03X656623Y-66244I48614J0D01*
G01X792686Y-202307D01*
G01X785181Y-209811D01*
G03X770942Y-244187I34375J-34375D01*
G01Y-301688D01*
G01X848360Y1344864D02*
G03X813347Y1373144I-35013J-7534D01*
G01X776211D01*
G03X813074Y1432560I-29451J59416D01*
G03X799288Y1473037I-66314J0D01*
G03X814344Y1515110I-51258J42073D01*
G03X748030Y1581424I-66314J0D01*
G03X706556Y1566854I0J-66314D01*
G01X665358D01*
G03X667220Y1578251I-33952J11396D01*
G01Y1618251D01*
G03X661120Y1638243I-35814J0D01*
G03X667220Y1658235I-29714J19992D01*
G01Y1698235D01*
G03X661112Y1718240I-35814J0D01*
G03X667220Y1738245I-29706J20005D01*
G01Y1778245D01*
G03X661112Y1798250I-35814J0D01*
G03X667220Y1818255I-29706J20005D01*
G01Y1858255D01*
G03X660242Y1879495I-35814J0D01*
G03X667224Y1900740I-28832J21245D01*
G01Y1970740D01*
G03X666265Y1978971I-35814J0D01*
G01X1170700D01*
G02X1234886Y1914785I0J-64186D01*
G01Y1421146D01*
G03X1228000Y1421814I-6886J-35146D01*
G01X1058000D01*
G03X1022186Y1386000I0J-35814D01*
G01Y1349944D01*
G01X997539D01*
G03X964020Y1373144I-33519J-12614D01*
G01X883373D01*
G03X848360Y1344864I0J-35814D01*
G01X991941Y823314D02*
G01X991941Y900980D01*
G03X956127Y936794I-35814J0D01*
G01X876127D01*
G03X846125Y920537I0J-35814D01*
G03X816122Y936794I-30002J-19557D01*
G01X736122D01*
G03X700784Y906794I0J-35814D01*
G01X695960D01*
G03X663685Y895228I0J-50814D01*
G03X667224Y910750I-32275J15522D01*
G01Y980750D01*
G01X667185Y982417D01*
G01X700551D01*
G03X732700Y962386I32149J15782D01*
G01X813347D01*
G03X848360Y990666I0J35814D01*
G03X883373Y962386I35013J7534D01*
G01X964020D01*
G03X997539Y985586I0J35814D01*
G01X1038960D01*
G03X1143000Y926186I104040J61414D01*
G03X1234886Y968559I0J120814D01*
G01Y871441D01*
G03X1143000Y913814I-91886J-78441D01*
G03X1026051Y823314I0J-120814D01*
G01X991941D01*
G01X929694Y527274D02*
G01X929694Y539617D01*
G03X915543Y573780I-48314J0D01*
G01X854162Y635162D01*
G01X854161D01*
G03X845835Y641824I-34163J-34163D01*
G03X855980Y644122I-2754J35708D01*
G03X868879Y641718I12899J33410D01*
G01X893881D01*
G03X906780Y644122I0J35814D01*
G03X919679Y641718I12899J33410D01*
G01X944681D01*
G03X980495Y677532I0J35814D01*
G01Y707147D01*
G03X980794Y712534I-48315J5387D01*
G01Y726086D01*
G01X1042409D01*
G03X1143000Y672186I100591J66914D01*
G03X1234886Y714559I0J120814D01*
G01Y617441D01*
G03X1143000Y659814I-91886J-78441D01*
G03X1033904Y590904I0J-120814D01*
G01X1013460D01*
G03X979085Y576665I0J-48614D01*
G01X929694Y527274D01*
G54D10*
G01X-588602Y1038231D02*
G01X-654510Y1038231D01*
G01X-588602Y1038231D02*
G01X-522694Y1038231D01*
G01X-802640Y1133958D02*
G01X-802640Y1068050D01*
G01X-802640Y1133958D02*
G01X-873548Y1133958D01*
G01X-802640Y1133958D02*
G01X-731732Y1133958D01*
G01X-1075690Y1147445D02*
G01X-1075690Y1026537D01*
G01X-1075690Y1147445D02*
G01X-1075690Y1268353D01*
G01X-1075690Y1147445D02*
G01X-1220398Y1147445D01*
G01X-1075690Y1147445D02*
G01X-930982Y1147445D01*
G01X-1086985Y-1000246D02*
G01X-1086985Y-912838D01*
G01X-1086985Y-1000246D02*
G01X-1180893Y-1000246D01*
G01X-1086985Y-1000246D02*
G01X-993078Y-1000246D01*
G01X-604520Y675640D02*
G01X-604520Y824798D01*
G01X-604520Y675640D02*
G01X-604520Y526482D01*
G01X-604520Y675640D02*
G01X-401612Y675640D01*
G01X-604520Y675640D02*
G01X-807428Y675640D01*
G01X-593606Y945750D02*
G01X-654514Y945750D01*
G01X-593606Y945750D02*
G01X-593606Y884842D01*
G01X-318600Y950754D02*
G01X-318600Y1016662D01*
G01X-604520Y104140D02*
G01X-604520Y-45018D01*
G01X-604520Y104140D02*
G01X-526111Y104140D01*
G01X-604520Y104140D02*
G01X-682929Y104140D01*
G01X-588602Y1758245D02*
G01X-654510Y1758245D01*
G01X-588602Y1758245D02*
G01X-522694Y1758245D01*
G01X-800998Y1817999D02*
G01X-800998Y1883907D01*
G01X-800998Y1817999D02*
G01X-730090Y1817999D01*
G01X-800998Y1817999D02*
G01X-871906Y1817999D01*
G01X-588602Y1838255D02*
G01X-654510Y1838255D01*
G01X-588602Y1838255D02*
G01X-522694Y1838255D01*
G01X-478594Y1930737D02*
G01X-478594Y1864829D01*
G01X-398584Y1930737D02*
G01X-398584Y1864829D01*
G01X-318600Y1930737D02*
G01X-318600Y1864829D01*
G01X-238590Y1930737D02*
G01X-238590Y1864829D01*
G01X-593606Y1935740D02*
G01X-654514Y1935740D01*
G01X-657733Y-182880D02*
G01X-561325Y-182880D01*
G01X-657733Y-182880D02*
G01X-657733Y-276288D01*
G01X-657733Y-182880D02*
G01X-657733Y-89471D01*
G01X-435762Y-152400D02*
G01X-501670Y-152400D01*
G01X-435762Y-152400D02*
G01X-435762Y-81492D01*
G01X183888Y1625759D02*
G01X282297Y1625759D01*
G01X183888Y1625759D02*
G01X183888Y1724167D01*
G01X3904Y1625759D02*
G01X3904Y1724167D01*
G01X1415Y1930737D02*
G01X1415Y1864829D01*
G01X321404Y1930737D02*
G01X321404Y1864829D01*
G01X-78595Y1930737D02*
G01X-78595Y1864829D01*
G01X241394Y1930737D02*
G01X241394Y1864829D01*
G01X-158605Y1930737D02*
G01X-158605Y1864829D01*
G01X161409Y1930737D02*
G01X161409Y1864829D01*
G01X81399Y1930737D02*
G01X81399Y1864829D01*
G01X274015Y-167074D02*
G01X274015Y-193236D01*
G01X111760Y213512D02*
G01X111760Y279420D01*
G01X111760Y213512D02*
G01X182668Y213512D01*
G01X111760Y213512D02*
G01X40852Y213512D01*
G01X310998Y242570D02*
G01X245090Y242570D01*
G01X310998Y242570D02*
G01X310998Y313478D01*
G01X310998Y242570D02*
G01X310998Y171662D01*
G01X-111760Y301117D02*
G01X-111760Y397525D01*
G01X-111760Y301117D02*
G01X-18351Y301117D01*
G01X-111760Y301117D02*
G01X-205168Y301117D01*
G01X-176106Y1265765D02*
G01X-274514Y1265765D01*
G01X-176106Y1265765D02*
G01X-176106Y1167356D01*
G01X183888Y1265765D02*
G01X282297Y1265765D01*
G01X183888Y1265765D02*
G01X183888Y1167356D01*
G01X3904Y1265765D02*
G01X3904Y1167356D01*
G01X-176106Y1445749D02*
G01X-274514Y1445749D01*
G01X183888Y1445749D02*
G01X282297Y1445749D01*
G01X-176106Y1625759D02*
G01X-274514Y1625759D01*
G01X-176106Y1625759D02*
G01X-176106Y1724167D01*
G01X303378Y603250D02*
G01X237470Y603250D01*
G01X303378Y603250D02*
G01X303378Y674158D01*
G01X303378Y603250D02*
G01X303378Y532342D01*
G01X481399Y1930737D02*
G01X481399Y1864829D01*
G01X401414Y1930737D02*
G01X401414Y1864829D01*
G01X596410Y1935740D02*
G01X657318Y1935740D01*
G01X596410Y945750D02*
G01X657318Y945750D01*
G01X596410Y945750D02*
G01X596410Y884842D01*
G01X1087255Y-1011676D02*
G01X1087255Y-924268D01*
G01X1087255Y-1011676D02*
G01X993347Y-1011676D01*
G01X1087255Y-1011676D02*
G01X1181162Y-1011676D01*
G01X881380Y712534D02*
G01X881380Y651624D01*
G01X916127Y855980D02*
G01X982035Y855980D01*
G01X916127Y855980D02*
G01X916127Y926888D01*
G01X-1143000Y793000D02*
G01X-1143000Y682092D01*
G01X-1143000Y793000D02*
G01X-1143000Y903908D01*
G01X-1143000Y793000D02*
G01X-1032092Y793000D01*
G01X381000Y-400000D02*
G01X491908Y-400000D01*
G01X381000Y-400000D02*
G01X270092Y-400000D01*
G04 Copper End*

G04 Pad Start*
G54D11*
G01X-588602Y1838255D03*
G01X-588602Y1758245D03*
G01X-588602Y1678235D03*
G01X-588602Y1598251D03*
G01X-588602Y1518241D03*
G01X-588602Y1438256D03*
G01X-588602Y1358246D03*
G01X-588602Y1278236D03*
G01X-588602Y1198251D03*
G01X-588602Y1118241D03*
G01X-588602Y1038231D03*
G54D12*
G01X-478594Y950754D03*
G01X-398610Y950754D03*
G01X-318600Y950754D03*
G01X-238590Y950754D03*
G01X-158605Y950754D03*
G01X-78595Y950754D03*
G01X1389Y950754D03*
G01X81399Y950754D03*
G01X161409Y950754D03*
G01X241394Y950754D03*
G01X321404Y950754D03*
G01X401414Y950754D03*
G01X481399Y950754D03*
G54D11*
G01X591406Y1038231D03*
G01X591406Y1118241D03*
G01X591406Y1198251D03*
G01X591406Y1278236D03*
G01X591406Y1358246D03*
G01X591406Y1438231D03*
G01X591406Y1518241D03*
G01X591406Y1598251D03*
G01X591406Y1678235D03*
G01X591406Y1758245D03*
G01X591406Y1838255D03*
G54D12*
G01X481399Y1930737D03*
G01X401414Y1930737D03*
G01X321404Y1930737D03*
G01X241394Y1930737D03*
G01X161409Y1930737D03*
G01X81399Y1930737D03*
G01X1415Y1930737D03*
G01X-78595Y1930737D03*
G01X-158605Y1930737D03*
G01X-238590Y1930737D03*
G01X-318600Y1930737D03*
G01X-398584Y1930737D03*
G01X-478594Y1930737D03*
G54D13*
G01X3904Y1445749D03*
G54D15*
G01X596410Y1935740D03*
G01X596410Y945750D03*
G01X-593606Y945750D03*
G01X-593606Y1935740D03*
G54D13*
G01X-176106Y1445749D03*
G01X-176106Y1625759D03*
G01X3904Y1625759D03*
G01X183888Y1625759D03*
G01X183888Y1445749D03*
G01X-176106Y1265765D03*
G01X3904Y1265765D03*
G01X183888Y1265765D03*
G54D16*
G01X-834517Y104140D03*
G01X-604520Y104140D03*
G01X-374523Y104140D03*
G54D17*
G01X-604520Y675640D03*
G54D18*
G01X1087255Y-1011676D03*
G01X1087255Y-574694D03*
G54D19*
G01X-863727Y-182880D03*
G01X-657733Y-182880D03*
G54D20*
G01X-295758Y-152400D03*
G01X-435762Y-152400D03*
G54D21*
G01X-800998Y1677994D03*
G01X-800998Y1817999D03*
G54D22*
G01X1143000Y1301000D03*
G54D23*
G01X1143000Y1047000D03*
G01X1143000Y793000D03*
G01X1143000Y539000D03*
G01X1143000Y285000D03*
G01X1143000Y31000D03*
G54D24*
G01X381000Y-400000D03*
G54D23*
G01X127000Y-400000D03*
G01X-127000Y-400000D03*
G01X-381000Y-400000D03*
G54D25*
G01X-1143000Y31000D03*
G54D23*
G01X-1143000Y285000D03*
G01X-1143000Y539000D03*
G01X-1143000Y793000D03*
G54D26*
G01X932180Y712534D03*
G01X881380Y712534D03*
G01X830580Y712534D03*
G01X779780Y712534D03*
G01X779780Y402527D03*
G01X830580Y402527D03*
G01X881380Y402527D03*
G01X932180Y402527D03*
G54D27*
G01X776122Y855980D03*
G01X916127Y855980D03*
G54D20*
G01X443382Y603250D03*
G01X303378Y603250D03*
G54D28*
G01X614680Y782726D03*
G01X614680Y632054D03*
G01X1087120Y-226924D03*
G01X1087120Y-377596D03*
G54D29*
G01X274015Y46673D03*
G01X274015Y-3340D03*
G01X274015Y-53327D03*
G01X274015Y-103340D03*
G01X274015Y-153327D03*
G54D30*
G01X364033Y-193332D03*
G01X414020Y-193332D03*
G01X464033Y-193332D03*
G54D29*
G01X554025Y-153327D03*
G01X554025Y-103340D03*
G01X554025Y-53327D03*
G01X554025Y-3340D03*
G01X554025Y46673D03*
G54D30*
G01X464033Y86652D03*
G01X414020Y86652D03*
G01X364033Y86652D03*
G54D31*
G01X456336Y781050D03*
G01X305664Y781050D03*
G01X819556Y-379730D03*
G01X668884Y-379730D03*
G54D21*
G01X111760Y73508D03*
G01X111760Y213512D03*
G54D20*
G01X451002Y242570D03*
G01X310998Y242570D03*
G54D18*
G01X-1086985Y-1000246D03*
G01X-1086985Y-563264D03*
G54D31*
G01X-771754Y-431800D03*
G01X-922426Y-431800D03*
G54D32*
G01X773024Y1041400D03*
G01X923696Y1041400D03*
G54D33*
G01X-111760Y95123D03*
G01X-111760Y301117D03*
G54D32*
G01X773024Y1294130D03*
G01X923696Y1294130D03*
G54D34*
G01X-1075690Y1527175D03*
G01X-1075690Y1147445D03*
G54D35*
G01X-802640Y1273962D03*
G01X-802640Y1133958D03*
G04 Pad End*

G04 Via Start*
G54D36*
G01X-101600Y-132080D03*
G01X707390Y480060D03*
G01X706120Y715010D03*
G01X746760Y1432560D03*
G01X748030Y1515110D03*
G01X344170Y1082040D03*
G01X431800Y1144270D03*
G01X932180Y-502920D03*
G01X-845820Y-565150D03*
G01X766998Y602999D03*
G01X-369999Y753998D03*
G01X-260999Y766998D03*
G01X398999Y-68000D03*
G54D37*
G01X17000Y-30000D03*
G01X-1087998Y1716997D03*
G01X-910998Y988998D03*
G54D36*
G01X-18000Y-176000D03*
G01X661999Y-109000D03*
G01X-405999Y1791996D03*
G01X-319999Y1793996D03*
G01X-234303Y1793996D03*
G01X-144000Y1795996D03*
G01X-56000Y1795996D03*
G01X25000Y1796996D03*
G01X456499Y1799497D03*
G01X368499Y1799497D03*
G01X278196Y1797497D03*
G01X192500Y1797497D03*
G01X106500Y1795497D03*
G01X-409061Y1708258D03*
G01X-411468Y1618866D03*
G01X-414530Y1535127D03*
G01X-412999Y1451363D03*
G01X-416061Y1367625D03*
G01X-414530Y1290810D03*
G01X-417593Y1207072D03*
G01X459530Y1710866D03*
G01X456468Y1627127D03*
G01X457999Y1528171D03*
G01X454937Y1444433D03*
G01X455530Y1358867D03*
G01X536999Y710360D03*
G01X690999Y49000D03*
G01X-371999Y474999D03*
G01X-639999Y465999D03*
G01X-1077998Y-253999D03*
G01X-521999Y-63000D03*
G01X-1006998Y-149000D03*
G01X-770998Y986998D03*
G01X-804998Y917998D03*
G01X968998Y1440997D03*
G01X1029998Y927998D03*
G01X1036462Y663499D03*
G01X179000Y794998D03*
G04 Via End*

G04 Track Start*
G54D10*
G01X-802640Y1273962D02*
G01X-798366Y1278236D01*
G01X-588602D01*
G54D37*
G01X-834517Y104140D02*
G01X-834517Y-153670D01*
G01X-863727Y-182880D01*
G01X-374523Y104140D02*
G01X-374523Y43053D01*
G01X-295758Y-35712D01*
G01Y-152400D01*
G54D38*
G01X591406Y1038231D02*
G01X769855Y1038231D01*
G01X773024Y1041400D01*
G01X591406Y1118241D02*
G01X699141Y1118241D01*
G01X723900Y1143000D01*
G01Y1245006D01*
G01X773024Y1294130D01*
G01X923696Y1294130D02*
G01X1097280Y1294130D01*
G01X1107440Y1304290D01*
G01X923696Y1041400D02*
G01X1098550Y1041400D01*
G01X1107440Y1050290D01*
G01X-1086985Y-563264D02*
G01X-1086985Y-487545D01*
G01X-1031240Y-431800D01*
G01X-922426D01*
G01X-771754Y-431800D02*
G01X-615950Y-431800D01*
G01X-459740Y-275590D01*
G01X-337820D01*
G01X-295758Y-233528D01*
G01Y-152400D01*
G01X-90145Y73508D02*
G01X-111760Y95123D01*
G54D37*
G01X-374523Y104140D02*
G01X-120777Y104140D01*
G01X-111760Y95123D01*
G54D39*
G01X111760Y73508D02*
G01X167792Y73508D01*
G01X194628Y46673D02*
G01X274015Y46673D01*
G01X167792Y73508D02*
G01X194628Y46673D01*
G01X464033Y86652D02*
G01X464033Y229540D01*
G01X451002Y242570D01*
G01X414020Y-193332D02*
G01X414020Y-366980D01*
G01X381000Y-400000D01*
G01X-381000Y-400000D02*
G01X-349200Y-400000D01*
G01X-195580Y-246380D01*
G01X181610D01*
G01X209550Y-274320D01*
G01X351790D01*
G01X364033Y-262077D02*
G01X364033Y-193332D01*
G01X351790Y-274320D02*
G01X364033Y-262077D01*
G01X-72860Y-103340D02*
G01X274015Y-103340D01*
G01X-101600Y-132080D02*
G01X-72860Y-103340D01*
G01X1087255Y-574694D02*
G01X1087255Y-377731D01*
G01X323444Y774700D02*
G01X323444Y948714D01*
G01X321404Y950754D01*
G01X695960Y855980D02*
G01X776122Y855980D01*
G01X614680Y774700D02*
G01X695960Y855980D01*
G54D40*
G01X830580Y712534D02*
G01X830580Y801522D01*
G01X776122Y855980D01*
G01X932180Y712534D02*
G01X932180Y759460D01*
G01X947420Y774700D01*
G01X1085850D01*
G01X1107440Y796290D01*
G01X932180Y402527D02*
G01X932180Y461010D01*
G01X1013460Y542290D02*
G01X1107440Y542290D01*
G01X932180Y461010D02*
G01X1013460Y542290D01*
G01X881380Y712534D02*
G01X881380Y821233D01*
G01X916127Y855980D01*
G01X708597Y712534D02*
G01X779780Y712534D01*
G01X706120Y715010D02*
G01X708597Y712534D01*
G01X591406Y1438231D02*
G01X741089Y1438231D01*
G01X746760Y1432560D01*
G01X591406Y1518241D02*
G01X744899Y1518241D01*
G01X748030Y1515110D01*
G01X779780Y402527D02*
G01X779780Y450850D01*
G01X750570Y480060D02*
G01X707390Y480060D01*
G01X779780Y450850D02*
G01X750570Y480060D01*
G01X464033Y-193332D02*
G01X464033Y-268453D01*
G01X476250Y-280670D01*
G01X558800D01*
G01X586740Y-308610D01*
G01Y-359410D01*
G01X607060Y-379730D02*
G01X668884Y-379730D01*
G01X586740Y-359410D02*
G01X607060Y-379730D01*
G01X1087120Y-226924D02*
G01X886054Y-226924D01*
G01X690999Y79891D02*
G01X528320Y242570D01*
G01X451002D01*
G01X819556Y-379730D02*
G01X819556Y-244187D01*
G01X861437Y-202307D01*
G01X886054Y-226924D02*
G01X861437Y-202307D01*
G01X690999Y-31869D02*
G01X861437Y-202307D01*
G54D38*
G01X401414Y950754D02*
G01X401414Y1024796D01*
G01X344170Y1082040D01*
G01X481399Y950754D02*
G01X481399Y1094671D01*
G01X431800Y1144270D01*
G01X-845820Y-565150D02*
G01X-922426Y-488544D01*
G01Y-431800D01*
G01X932180Y-502920D02*
G01X1015481Y-502920D01*
G01X1087255Y-574694D01*
G54D41*
G01X-834517Y104140D02*
G01X-913858Y104140D01*
G01X-986998Y31000D01*
G01X-1143000D01*
G54D42*
G01X-374523Y104140D02*
G01X-374523Y293523D01*
G01X-413999Y332999D01*
G01X-862998D01*
G01X-1068999Y539000D02*
G01X-1143000Y539000D01*
G01X-862998Y332999D02*
G01X-1068999Y539000D01*
G54D43*
G01X881380Y539617D02*
G01X881380Y402527D01*
G54D44*
G01X-802640Y1273962D02*
G01X-802640Y1351639D01*
G01X-827998Y1376997D01*
G01X-925512D01*
G01X-1075690Y1527175D01*
G01X-802640Y1133958D02*
G01X-1062203Y1133958D01*
G01X-1075690Y1147445D01*
G54D40*
G01X830580Y402527D02*
G01X830580Y474417D01*
G01X548999Y540999D02*
G01X536999Y552999D01*
G01X830580Y474417D02*
G01X763998Y540999D01*
G01X548999D01*
G01X536999Y771308D02*
G01X540391Y774700D01*
G54D39*
G01X474116Y774700D02*
G01X540391Y774700D01*
G01X614680D01*
G54D40*
G01X737999Y363199D02*
G01X737999Y352999D01*
G01X762998Y327999D01*
G01X869998Y327999D02*
G01X880998Y338999D01*
G01Y402145D01*
G01X881380Y402527D01*
G01X762998Y327999D02*
G01X869998Y327999D01*
G54D43*
G01X614680Y632054D02*
G01X645735Y600999D01*
G01X819998D01*
G01X881380Y539617D01*
G54D45*
G01X-238590Y885408D02*
G01X-238590Y950754D01*
G01X-369999Y753998D02*
G01X-238590Y885408D01*
G01X-158605Y869393D02*
G01X-158605Y950754D01*
G01X-260999Y766998D02*
G01X-158605Y869393D01*
G54D39*
G01X364033Y-193332D02*
G01X364033Y-102966D01*
G01X398999Y-68000D01*
G54D38*
G01X4000Y73508D02*
G01X17000Y60508D01*
G01Y-30000D01*
G01X111760Y73508D02*
G01X4000Y73508D01*
G01X-90145D01*
G54D42*
G01X-910998Y771002D02*
G01X-1143000Y539000D01*
G01X-910998Y988998D02*
G01X-910998Y771002D01*
G54D44*
G01X-1075690Y1527175D02*
G01X-1075690Y1704689D01*
G01X-1087998Y1716997D01*
G01X-795020Y1672742D02*
G01X-930123Y1672742D01*
G01X-1075690Y1527175D01*
G54D10*
G01X-795020Y1672742D02*
G01X-789527Y1678235D01*
G01X-588602D01*
G54D38*
G01X596410Y1935740D02*
G01X591406Y1930737D01*
G01X481399D01*
G01X-176106Y1445749D02*
G01X3904Y1445749D01*
G01X183888D01*
G01X3904Y1445749D02*
G01X3904Y1265765D01*
G01X3904Y1445749D02*
G01X3904Y1625759D01*
G01X-176106Y1625759D02*
G01X3904Y1625759D01*
G01X183888D01*
G01X183888Y1445749D02*
G01X183888Y1625759D01*
G01X183888Y1265765D02*
G01X183888Y1445749D01*
G01X-176106Y1265765D02*
G01X-176106Y1445749D01*
G01X-176106Y1625759D02*
G01X-176106Y1445749D01*
G01X-176106Y1265765D02*
G01X3904Y1265765D01*
G01X183888D01*
G54D39*
G01X464033Y86652D02*
G01X464033Y30033D01*
G01X313327Y46673D02*
G01X274015Y46673D01*
G01X464033Y30033D02*
G01X443999Y10000D01*
G01X349999D01*
G01X313327Y46673D01*
G54D40*
G01X536999Y552999D02*
G01X536999Y710360D01*
G01Y771308D01*
G01X690999Y49000D02*
G01X690999Y-31869D01*
G01X690999Y49000D02*
G01X690999Y79891D01*
G01X554025Y-103340D02*
G01X494339Y-103340D01*
G01X478999Y-88000D01*
G01Y-31000D01*
G01X506659Y-3340D02*
G01X554025Y-3340D01*
G01X478999Y-31000D02*
G01X506659Y-3340D01*
G01X554025Y-103340D02*
G01X656339Y-103340D01*
G01X661999Y-109000D01*
G01X414020Y-193332D02*
G01X414020Y-146979D01*
G01X457659Y-103340D02*
G01X494339Y-103340D01*
G01X414020Y-146979D02*
G01X457659Y-103340D01*
G01X274015Y-153327D02*
G01X4673Y-153327D01*
G01X-18000Y-176000D01*
G01X596410Y945750D02*
G01X908246Y945750D01*
G01X916998Y936998D01*
G01Y856851D01*
G01X916127Y855980D01*
G01X-78595Y950754D02*
G01X-78595Y897954D01*
G01X-59023Y878382D01*
G01X-59023Y633265D02*
G01X168083Y406159D01*
G01X509083D01*
G01X773082Y142160D01*
G01X1133949D01*
G01X1143000Y133109D01*
G01Y31000D01*
G01X1389Y950754D02*
G01X1389Y897954D01*
G01X-18183Y878382D01*
G01Y650182D01*
G01X185000Y446999D02*
G01X-18183Y650182D01*
G01X185000Y446999D02*
G01X525999Y446999D01*
G01X789998Y183000D01*
G01X1133949Y183000D02*
G01X1143000Y192051D01*
G01Y285000D01*
G01X-59023Y647648D02*
G01X-59023Y633265D01*
G01X-59023Y878382D02*
G01X-59023Y851248D01*
G01X-84623Y673248D02*
G01X-59023Y647648D01*
G01X-107400Y673248D02*
G01X-84623Y673248D01*
G01X-133000Y698848D02*
G01X-107400Y673248D01*
G01X-133000Y800048D02*
G01X-133000Y698848D01*
G01X-107400Y825648D02*
G01X-133000Y800048D01*
G01X-84623Y825648D02*
G01X-107400Y825648D01*
G01X-59023Y851248D02*
G01X-84623Y825648D01*
G01X1063588Y183000D02*
G01X1133949Y183000D01*
G01X789998Y183000D02*
G01X859988Y183000D01*
G01X1029998Y216590D02*
G01X1063588Y183000D01*
G01X1029998Y270172D02*
G01X1029998Y216590D01*
G01X1004398Y295772D02*
G01X1029998Y270172D01*
G01X911188Y295772D02*
G01X1004398Y295772D01*
G01X885588Y270172D02*
G01X911188Y295772D01*
G01X885588Y208600D02*
G01X885588Y270172D01*
G01X859988Y183000D02*
G01X885588Y208600D01*
G01X443382Y603250D02*
G01X436188Y560810D01*
G01X499999Y496999D01*
G01X604199D01*
G01X737999Y363199D01*
G04 Track End*

M02*
