G04 Layer: TopSolderMaskLayer*
G04 EasyEDA Pro v2.1.51.8c9149c1.e57db4, 2024-04-05 14:55:05*
G04 Gerber Generator version 0.3*
G04 Scale: 100 percent, Rotated: No, Reflected: No*
G04 Dimensions in millimeters*
G04 Leading zeros omitted, absolute positions, 3 integers and 5 decimals*
%FSLAX35Y35*%
%MOMM*%
%AMRoundRect*1,1,$1,$2,$3*1,1,$1,$4,$5*1,1,$1,0-$2,0-$3*1,1,$1,0-$4,0-$5*20,1,$1,$2,$3,$4,$5,0*20,1,$1,$4,$5,0-$2,0-$3,0*20,1,$1,0-$2,0-$3,0-$4,0-$5,0*20,1,$1,0-$4,0-$5,$2,$3,0*4,1,4,$2,$3,$4,$5,0-$2,0-$3,0-$4,0-$5,$2,$3,0*%
%ADD10RoundRect,0.08335X-0.40834X0.20834X0.40834X0.20834*%
%ADD11RoundRect,0.08335X0.20834X0.40834X0.20834X-0.40834*%
%ADD12RoundRect,0.09396X-0.72804X0.72804X0.72804X0.72804*%
%ADD13RoundRect,0.08891X-0.35556X0.35556X0.35556X0.35556*%
%ADD14RoundRect,0.09336X0.52912X1.23662X0.52912X-1.23662*%
%ADD15RoundRect,0.09773X1.77193X1.23443X1.77193X-1.23443*%
%ADD16RoundRect,0.0944X-0.6836X-0.6186X-0.6836X0.6186*%
%ADD17RoundRect,0.09495X0.70833X-0.67833X-0.70833X-0.67833*%
%ADD18RoundRect,0.09131X-0.40514X0.45514X0.40514X0.45514*%
%ADD19RoundRect,0.09131X0.45514X0.40514X0.45514X-0.40514*%
%ADD20RoundRect,0.09618X0.85271X0.85271X0.85271X-0.85271*%
%ADD21C,1.8016*%
%ADD22RoundRect,0.09618X0.85271X-0.85271X-0.85271X-0.85271*%
%ADD23RoundRect,0.09618X-0.85271X-0.85271X-0.85271X0.85271*%
%ADD24RoundRect,0.07882X-0.13639X0.3614X0.13639X0.3614*%
%ADD25RoundRect,0.09131X0.40514X-0.45514X-0.40514X-0.45514*%
%ADD26RoundRect,0.09138X-0.43712X-0.40835X-0.43712X0.40835*%
%ADD27O,0.9016X0.38161*%
%ADD28O,0.38161X0.9016*%
%ADD29RoundRect,0.09138X-0.40835X0.43712X0.40835X0.43712*%
%ADD30RoundRect,0.09138X0.40835X-0.43712X-0.40835X-0.43712*%
%ADD31RoundRect,0.09495X0.67833X0.70833X0.67833X-0.70833*%
%ADD32RoundRect,0.09669X-1.19045X-0.95245X-1.19045X0.95245*%
%ADD33RoundRect,0.09131X-0.45514X-0.40514X-0.45514X0.40514*%
G75*


G04 Pad Start*
G54D10*
G01X-588602Y1838255D03*
G01X-588602Y1758245D03*
G01X-588602Y1678235D03*
G01X-588602Y1598251D03*
G01X-588602Y1518241D03*
G01X-588602Y1438256D03*
G01X-588602Y1358246D03*
G01X-588602Y1278236D03*
G01X-588602Y1198251D03*
G01X-588602Y1118241D03*
G01X-588602Y1038231D03*
G54D11*
G01X-478594Y950754D03*
G01X-398610Y950754D03*
G01X-318600Y950754D03*
G01X-238590Y950754D03*
G01X-158605Y950754D03*
G01X-78595Y950754D03*
G01X1389Y950754D03*
G01X81399Y950754D03*
G01X161409Y950754D03*
G01X241394Y950754D03*
G01X321404Y950754D03*
G01X401414Y950754D03*
G01X481399Y950754D03*
G54D10*
G01X591406Y1038231D03*
G01X591406Y1118241D03*
G01X591406Y1198251D03*
G01X591406Y1278236D03*
G01X591406Y1358246D03*
G01X591406Y1438231D03*
G01X591406Y1518241D03*
G01X591406Y1598251D03*
G01X591406Y1678235D03*
G01X591406Y1758245D03*
G01X591406Y1838255D03*
G54D11*
G01X481399Y1930737D03*
G01X401414Y1930737D03*
G01X321404Y1930737D03*
G01X241394Y1930737D03*
G01X161409Y1930737D03*
G01X81399Y1930737D03*
G01X1415Y1930737D03*
G01X-78595Y1930737D03*
G01X-158605Y1930737D03*
G01X-238590Y1930737D03*
G01X-318600Y1930737D03*
G01X-398584Y1930737D03*
G01X-478594Y1930737D03*
G54D12*
G01X3904Y1445749D03*
G54D13*
G01X596410Y1935740D03*
G01X596410Y945750D03*
G01X-593606Y945750D03*
G01X-593606Y1935740D03*
G54D12*
G01X-176106Y1445749D03*
G01X-176106Y1625759D03*
G01X3904Y1625759D03*
G01X183888Y1625759D03*
G01X183888Y1445749D03*
G01X-176106Y1265765D03*
G01X3904Y1265765D03*
G01X183888Y1265765D03*
G54D14*
G01X-834517Y104140D03*
G01X-604520Y104140D03*
G01X-374523Y104140D03*
G54D15*
G01X-604520Y675640D03*
G54D16*
G01X1087255Y-1011676D03*
G01X1087255Y-574694D03*
G54D17*
G01X-863727Y-182880D03*
G01X-657733Y-182880D03*
G54D18*
G01X-295758Y-152400D03*
G01X-435762Y-152400D03*
G54D19*
G01X-800998Y1677994D03*
G01X-800998Y1817999D03*
G54D20*
G01X1143000Y1301000D03*
G54D21*
G01X1143000Y1047000D03*
G01X1143000Y793000D03*
G01X1143000Y539000D03*
G01X1143000Y285000D03*
G01X1143000Y31000D03*
G54D22*
G01X381000Y-400000D03*
G54D21*
G01X127000Y-400000D03*
G01X-127000Y-400000D03*
G01X-381000Y-400000D03*
G54D23*
G01X-1143000Y31000D03*
G54D21*
G01X-1143000Y285000D03*
G01X-1143000Y539000D03*
G01X-1143000Y793000D03*
G54D24*
G01X932180Y712534D03*
G01X881380Y712534D03*
G01X830580Y712534D03*
G01X779780Y712534D03*
G01X779780Y402527D03*
G01X830580Y402527D03*
G01X881380Y402527D03*
G01X932180Y402527D03*
G54D25*
G01X776122Y855980D03*
G01X916127Y855980D03*
G54D18*
G01X443382Y603250D03*
G01X303378Y603250D03*
G54D26*
G01X614680Y782726D03*
G01X614680Y632054D03*
G01X1087120Y-226924D03*
G01X1087120Y-377596D03*
G54D27*
G01X274015Y46673D03*
G01X274015Y-3340D03*
G01X274015Y-53327D03*
G01X274015Y-103340D03*
G01X274015Y-153327D03*
G54D28*
G01X364033Y-193332D03*
G01X414020Y-193332D03*
G01X464033Y-193332D03*
G54D27*
G01X554025Y-153327D03*
G01X554025Y-103340D03*
G01X554025Y-53327D03*
G01X554025Y-3340D03*
G01X554025Y46673D03*
G54D28*
G01X464033Y86652D03*
G01X414020Y86652D03*
G01X364033Y86652D03*
G54D29*
G01X456336Y781050D03*
G01X305664Y781050D03*
G01X819556Y-379730D03*
G01X668884Y-379730D03*
G54D19*
G01X111760Y73508D03*
G01X111760Y213512D03*
G54D18*
G01X451002Y242570D03*
G01X310998Y242570D03*
G54D16*
G01X-1086985Y-1000246D03*
G01X-1086985Y-563264D03*
G54D29*
G01X-771754Y-431800D03*
G01X-922426Y-431800D03*
G54D30*
G01X773024Y1041400D03*
G01X923696Y1041400D03*
G54D31*
G01X-111760Y95123D03*
G01X-111760Y301117D03*
G54D30*
G01X773024Y1294130D03*
G01X923696Y1294130D03*
G54D32*
G01X-1075690Y1527175D03*
G01X-1075690Y1147445D03*
G54D33*
G01X-802640Y1273962D03*
G01X-802640Y1133958D03*
G04 Pad End*

M02*
