G04 Layer: TopSilkscreenLayer*
G04 EasyEDA Pro v2.1.51.8c9149c1.e57db4, 2024-04-05 14:55:05*
G04 Gerber Generator version 0.3*
G04 Scale: 100 percent, Rotated: No, Reflected: No*
G04 Dimensions in millimeters*
G04 Leading zeros omitted, absolute positions, 3 integers and 5 decimals*
%FSLAX35Y35*%
%MOMM*%
%ADD10C,0.203*%
%ADD11C,0.1524*%
%ADD12C,0.254*%
%ADD13C,0.2032*%
%ADD14C,0.2*%
%ADD15C,0.25*%
%ADD16C,0.4040*%
%ADD17C,0.4*%
G75*


G04 Text Start*
G54D10*
G01X-1195838Y1919694D02*
G01X-1195838Y1834604D01*
G01X-1195838Y1919694D02*
G01X-1163326Y1834604D01*
G01X-1131068Y1919694D02*
G01X-1163326Y1834604D01*
G01X-1131068Y1919694D02*
G01X-1131068Y1834604D01*
G01X-1091190Y1919694D02*
G01X-1091190Y1834604D01*
G01X-1091190Y1919694D02*
G01X-1038612Y1919694D01*
G01X-1091190Y1879054D02*
G01X-1058932Y1879054D01*
G01X1030988Y1497157D02*
G01X1083312Y1497157D01*
G01X1056134Y1497157D02*
G01X1051054Y1502237D01*
G01X1048514Y1507063D01*
G01Y1514683D01*
G01X1051054Y1519509D01*
G01X1056134Y1524589D01*
G01X1063500Y1527129D01*
G01X1068580D01*
G01X1075946Y1524589D01*
G01X1081026Y1519509D01*
G01X1083312Y1514683D01*
G01Y1507063D01*
G01X1081026Y1502237D01*
G01X1075946Y1497157D01*
G01X1048514Y1559387D02*
G01X1073406Y1559387D01*
G01X1081026Y1561927D01*
G01X1083312Y1566753D01*
G01Y1574373D01*
G01X1081026Y1579199D01*
G01X1073406Y1586819D01*
G01X1048514Y1586819D02*
G01X1083312Y1586819D01*
G01X1030988Y1619077D02*
G01X1083312Y1619077D01*
G01X1048514Y1643969D02*
G01X1073406Y1619077D01*
G01X1063500Y1628983D02*
G01X1083312Y1646509D01*
G01X1048514Y1708739D02*
G01X1083312Y1708739D01*
G01X1056134Y1708739D02*
G01X1051054Y1703659D01*
G01X1048514Y1698579D01*
G01Y1691213D01*
G01X1051054Y1686133D01*
G01X1056134Y1681307D01*
G01X1063500Y1678767D01*
G01X1068580D01*
G01X1075946Y1681307D01*
G01X1081026Y1686133D01*
G01X1083312Y1691213D01*
G01Y1698579D01*
G01X1081026Y1703659D01*
G01X1075946Y1708739D01*
G01X1030988Y1750903D02*
G01X1033528Y1753443D01*
G01X1030988Y1755983D01*
G01X1028702Y1753443D01*
G01X1030988Y1750903D01*
G01X1048514Y1753443D02*
G01X1090932Y1753443D01*
G01X1098298Y1750903D01*
G01X1100838Y1746077D01*
G01Y1740997D01*
G01X1030988Y1788241D02*
G01X1083312Y1788241D01*
G01X1048514Y1850471D02*
G01X1083312Y1850471D01*
G01X1056134Y1850471D02*
G01X1051054Y1845391D01*
G01X1048514Y1840311D01*
G01Y1832945D01*
G01X1051054Y1827865D01*
G01X1056134Y1823039D01*
G01X1063500Y1820499D01*
G01X1068580D01*
G01X1075946Y1823039D01*
G01X1081026Y1827865D01*
G01X1083312Y1832945D01*
G01Y1840311D01*
G01X1081026Y1845391D01*
G01X1075946Y1850471D01*
G01X1048514Y1912701D02*
G01X1088392Y1912701D01*
G01X1095758Y1910161D01*
G01X1098298Y1907621D01*
G01X1100838Y1902541D01*
G01Y1895175D01*
G01X1098298Y1890095D01*
G01X1056134Y1912701D02*
G01X1051054Y1907621D01*
G01X1048514Y1902541D01*
G01Y1895175D01*
G01X1051054Y1890095D01*
G01X1056134Y1885269D01*
G01X1063500Y1882729D01*
G01X1068580D01*
G01X1075946Y1885269D01*
G01X1081026Y1890095D01*
G01X1083312Y1895175D01*
G01Y1902541D01*
G01X1081026Y1907621D01*
G01X1075946Y1912701D01*
G01X727699Y1906306D02*
G01X727699Y1908846D01*
G01X730239Y1913926D01*
G01X732525Y1916466D01*
G01X737605Y1919006D01*
G01X747511D01*
G01X752591Y1916466D01*
G01X755131Y1913926D01*
G01X757417Y1908846D01*
G01Y1904020D01*
G01X755131Y1898940D01*
G01X750051Y1891574D01*
G01X725159Y1866682D01*
G01X759957D01*
G01X807201Y1919006D02*
G01X799581Y1916466D01*
G01X794755Y1908846D01*
G01X792215Y1896400D01*
G01Y1889034D01*
G01X794755Y1876588D01*
G01X799581Y1868968D01*
G01X807201Y1866682D01*
G01X812027D01*
G01X819647Y1868968D01*
G01X824473Y1876588D01*
G01X827013Y1889034D01*
G01Y1896400D01*
G01X824473Y1908846D01*
G01X819647Y1916466D01*
G01X812027Y1919006D01*
G01X807201D01*
G01X861811Y1906306D02*
G01X861811Y1908846D01*
G01X864351Y1913926D01*
G01X866637Y1916466D01*
G01X871717Y1919006D01*
G01X881623D01*
G01X886703Y1916466D01*
G01X889243Y1913926D01*
G01X891529Y1908846D01*
G01Y1904020D01*
G01X889243Y1898940D01*
G01X884163Y1891574D01*
G01X859271Y1866682D01*
G01X894069D01*
G01X951219Y1919006D02*
G01X926327Y1883954D01*
G01X963665D01*
G01X951219Y1919006D02*
G01X951219Y1866682D01*
G01X1153988Y1517157D02*
G01X1206312Y1536969D01*
G01X1153988Y1557035D02*
G01X1206312Y1536969D01*
G01X1153988Y1594373D02*
G01X1153988Y1621551D01*
G01X1174054Y1606819D01*
G01Y1614185D01*
G01X1176594Y1619265D01*
G01X1179134Y1621551D01*
G01X1186500Y1624091D01*
G01X1191580D01*
G01X1198946Y1621551D01*
G01X1204026Y1616725D01*
G01X1206312Y1609105D01*
G01Y1601739D01*
G01X1204026Y1594373D01*
G01X1201486Y1591833D01*
G01X1196406Y1589293D01*
G01X-832838Y406457D02*
G01X-832838Y340925D01*
G01X-832838Y387661D02*
G01X-818868Y401631D01*
G01X-809470Y406457D01*
G01X-795500D01*
G01X-786102Y401631D01*
G01X-781276Y387661D01*
G01Y340925D01*
G01X-781276Y387661D02*
G01X-767306Y401631D01*
G01X-757908Y406457D01*
G01X-743938D01*
G01X-734540Y401631D01*
G01X-729968Y387661D01*
G01Y340925D01*
G01X-687296Y406457D02*
G01X-687296Y340925D01*
G01X-687296Y378263D02*
G01X-682470Y392233D01*
G01X-673072Y401631D01*
G01X-663928Y406457D01*
G01X-649704D01*
G01X-555470Y392233D02*
G01X-560042Y401631D01*
G01X-574266Y406457D01*
G01X-588236D01*
G01X-602206Y401631D01*
G01X-607032Y392233D01*
G01X-602206Y383089D01*
G01X-592808Y378263D01*
G01X-569440Y373691D01*
G01X-560042Y368865D01*
G01X-555470Y359721D01*
G01Y354895D01*
G01X-560042Y345497D01*
G01X-574266Y340925D01*
G01X-588236D01*
G01X-602206Y345497D01*
G01X-607032Y354895D01*
G01X-512798Y439223D02*
G01X-512798Y340925D01*
G01X-512798Y387661D02*
G01X-498574Y401631D01*
G01X-489430Y406457D01*
G01X-475206D01*
G01X-465808Y401631D01*
G01X-461236Y387661D01*
G01Y340925D01*
G01X-418564Y406457D02*
G01X-418564Y359721D01*
G01X-413738Y345497D01*
G01X-404340Y340925D01*
G01X-390370D01*
G01X-380972Y345497D01*
G01X-367002Y359721D01*
G01X-367002Y406457D02*
G01X-367002Y340925D01*
G01X-377839Y708645D02*
G01X-377839Y656321D01*
G01X-377839Y693659D02*
G01X-366663Y704835D01*
G01X-359043Y708645D01*
G01X-347867D01*
G01X-340501Y704835D01*
G01X-336691Y693659D01*
G01Y656321D01*
G01X-336691Y693659D02*
G01X-325515Y704835D01*
G01X-317895Y708645D01*
G01X-306719D01*
G01X-299353Y704835D01*
G01X-295543Y693659D01*
G01Y656321D01*
G01X-257189Y708645D02*
G01X-257189Y656321D01*
G01X-257189Y686293D02*
G01X-253633Y697469D01*
G01X-246013Y704835D01*
G01X-238647Y708645D01*
G01X-227471D01*
G01X-147969Y697469D02*
G01X-151779Y704835D01*
G01X-162955Y708645D01*
G01X-174131D01*
G01X-185561Y704835D01*
G01X-189117Y697469D01*
G01X-185561Y690103D01*
G01X-177941Y686293D01*
G01X-159399Y682483D01*
G01X-151779Y678673D01*
G01X-147969Y671307D01*
G01Y667497D01*
G01X-151779Y660131D01*
G01X-162955Y656321D01*
G01X-174131D01*
G01X-185561Y660131D01*
G01X-189117Y667497D01*
G01X-109615Y734807D02*
G01X-109615Y656321D01*
G01X-109615Y693659D02*
G01X-98439Y704835D01*
G01X-91073Y708645D01*
G01X-79897D01*
G01X-72277Y704835D01*
G01X-68467Y693659D01*
G01Y656321D01*
G01X-30113Y708645D02*
G01X-30113Y671307D01*
G01X-26557Y660131D01*
G01X-18937Y656321D01*
G01X-7761D01*
G01X-395Y660131D01*
G01X11035Y671307D01*
G01X11035Y708645D02*
G01X11035Y656321D01*
G01X877190Y-72868D02*
G01X955676Y-102840D01*
G01X877190Y-72868D02*
G01X955676Y-42896D01*
G01X929514Y-91664D02*
G01X929514Y-54326D01*
G01X877190Y40162D02*
G01X955676Y40162D01*
G01X914528Y40162D02*
G01X907162Y32796D01*
G01X903352Y25176D01*
G01Y14000D01*
G01X907162Y6634D01*
G01X914528Y-986D01*
G01X925704Y-4542D01*
G01X933324D01*
G01X944500Y-986D01*
G01X951866Y6634D01*
G01X955676Y14000D01*
G01Y25176D01*
G01X951866Y32796D01*
G01X944500Y40162D01*
G01X903352Y78516D02*
G01X955676Y78516D01*
G01X918338Y78516D02*
G01X907162Y89692D01*
G01X903352Y97058D01*
G01Y108234D01*
G01X907162Y115854D01*
G01X918338Y119664D01*
G01X955676D01*
G01X918338Y119664D02*
G01X907162Y130840D01*
G01X903352Y138206D01*
G01Y149382D01*
G01X907162Y157002D01*
G01X918338Y160812D01*
G01X955676D01*
G01X903352Y243870D02*
G01X955676Y243870D01*
G01X914528Y243870D02*
G01X907162Y236504D01*
G01X903352Y228884D01*
G01Y217708D01*
G01X907162Y210342D01*
G01X914528Y202722D01*
G01X925704Y199166D01*
G01X933324D01*
G01X944500Y202722D01*
G01X951866Y210342D01*
G01X955676Y217708D01*
G01Y228884D01*
G01X951866Y236504D01*
G01X944500Y243870D01*
G01X903352Y282224D02*
G01X955676Y282224D01*
G01X918338Y282224D02*
G01X907162Y293400D01*
G01X903352Y300766D01*
G01Y311942D01*
G01X907162Y319562D01*
G01X918338Y323372D01*
G01X955676D01*
G36*
G01X-1119378Y-87732D02*
G01X-1119378Y-96825D01*
G01X-1119988Y-107137D01*
G01X-1121156Y-109220D01*
G01X-1123899Y-110439D01*
G01X-1166927Y-110744D01*
G01X-1207872D01*
G01Y-112268D01*
G01X-1207262Y-114706D01*
G01X-1206043Y-117145D01*
G01X-1204824Y-120752D01*
G01X-1203909Y-125019D01*
G01X-1203300Y-128626D01*
G01X-1202995Y-135890D01*
G01X-1202690Y-142596D01*
G01X-1202080Y-144374D01*
G01X-1201420Y-145085D01*
G01X-1199947Y-145288D01*
G01X-1198169D01*
G01Y-141681D01*
G01X-1197864Y-137109D01*
G01X-1197559Y-131369D01*
G01X-1197305Y-127356D01*
G01X-1196645Y-125019D01*
G01X-1195476Y-123698D01*
G01X-1193902Y-122885D01*
G01X-1157529Y-122276D01*
G01X-1131265Y-122580D01*
G01X-1121461Y-123495D01*
G01X-1120292Y-125070D01*
G01X-1119683Y-127406D01*
G01X-1119378Y-137719D01*
G01Y-145288D01*
G01X-1115111D01*
G01Y-87732D01*
G37*
G36*
G01X-1241196Y-105308D02*
G01X-1243584Y-105918D01*
G01X-1245718Y-107137D01*
G01X-1247242Y-108610D01*
G01X-1248461Y-110439D01*
G01X-1249375Y-112878D01*
G01X-1249680Y-116840D01*
G01X-1249070Y-120142D01*
G01X-1247546Y-122276D01*
G01X-1245718Y-124104D01*
G01X-1243584Y-125324D01*
G01X-1240282Y-125933D01*
G01X-1236624Y-125019D01*
G01X-1234186Y-123495D01*
G01X-1232713Y-121666D01*
G01X-1231494Y-119837D01*
G01X-1230884Y-115926D01*
G01X-1231494Y-111658D01*
G01X-1232713Y-109830D01*
G01X-1234186Y-108356D01*
G01X-1235710Y-107137D01*
G01X-1238148Y-105918D01*
G37*
G36*
G01X-1201166Y-169520D02*
G01X-1201166Y-244704D01*
G01X-1199337D01*
G01X-1196645Y-245008D01*
G01X-1186332Y-245313D01*
G01X-1176934D01*
G01Y-241046D01*
G01X-1179068D01*
G01X-1182065Y-240741D01*
G01X-1184504Y-240132D01*
G01X-1186942Y-239217D01*
G01X-1189380Y-238049D01*
G01X-1191463Y-236525D01*
G01X-1192682Y-234696D01*
G01X-1193902Y-231648D01*
G01X-1194511Y-211074D01*
G01X-1194308Y-197256D01*
G01X-1193597Y-192888D01*
G01X-1192073Y-193802D01*
G01X-1190549Y-195021D01*
G01X-1137260Y-235001D01*
G01X-1132992Y-238049D01*
G01X-1118464Y-248920D01*
G01X-1116330Y-250444D01*
G01X-1113587Y-251358D01*
G01X-1112114D01*
G01Y-171958D01*
G01X-1119378D01*
G01X-1127557Y-171653D01*
G01X-1133602Y-171348D01*
G01X-1138733D01*
G01Y-175006D01*
G01X-1136650D01*
G01X-1133602Y-175311D01*
G01X-1130554Y-175920D01*
G01X-1127252Y-176835D01*
G01X-1124814Y-178054D01*
G01X-1122985Y-179222D01*
G01X-1121156Y-181356D01*
G01X-1119378Y-185014D01*
G01X-1118768Y-188316D01*
G01X-1118464Y-190449D01*
G01X-1118159Y-210160D01*
G01Y-228956D01*
G01X-1119378Y-228651D01*
G01X-1121156Y-227432D01*
G01X-1122680Y-226212D01*
G01X-1124204Y-225298D01*
G01X-1125728Y-224079D01*
G01X-1128166Y-222250D01*
G01X-1131164Y-219862D01*
G01X-1182065Y-181661D01*
G01X-1185113Y-179222D01*
G01X-1194816Y-171958D01*
G01X-1196950Y-170434D01*
G01X-1199642Y-169520D01*
G37*
G36*
G01X-1244803Y-182270D02*
G01X-1245260Y-182372D01*
G01X-1245413Y-183794D01*
G01X-1245210Y-185522D01*
G01X-1244498Y-186538D01*
G01X-1239977Y-191059D01*
G01X-1238148Y-193497D01*
G01X-1233018Y-198628D01*
G01X-1229970Y-202286D01*
G01X-1226922Y-205283D01*
G01X-1225702Y-206807D01*
G01X-1226617Y-209245D01*
G01X-1228446Y-211684D01*
G01X-1230884Y-214681D01*
G01X-1232713Y-217119D01*
G01X-1235100Y-220167D01*
G01X-1238758Y-224993D01*
G01X-1241196Y-228041D01*
G01X-1242974Y-230429D01*
G01X-1244498Y-232562D01*
G01X-1245413Y-235306D01*
G01Y-236830D01*
G01X-1243889Y-236220D01*
G01X-1241806Y-235001D01*
G01X-1239977Y-233782D01*
G01X-1225144Y-225298D01*
G01X-1222705Y-223774D01*
G01X-1219962Y-222250D01*
G01X-1217828Y-221082D01*
G01X-1215441Y-219558D01*
G01X-1213917Y-218643D01*
G01Y-209245D01*
G01X-1214120Y-202133D01*
G01X-1214831Y-199542D01*
G01X-1216609Y-198628D01*
G01X-1237844Y-186538D01*
G01X-1240282Y-185014D01*
G01X-1242974Y-183490D01*
G37*
G36*
G01X-1134516Y-259232D02*
G01X-1134516Y-263500D01*
G01X-1131164D01*
G01X-1126947Y-263804D01*
G01X-1124509Y-264719D01*
G01X-1122070Y-266802D01*
G01X-1121156Y-270764D01*
G01X-1121461Y-272796D01*
G01X-1122375Y-274066D01*
G01X-1124814Y-274980D01*
G01X-1126947Y-275285D01*
G01X-1186942Y-275895D01*
G01X-1189685Y-276809D01*
G01X-1192682Y-278333D01*
G01X-1194816Y-279857D01*
G01X-1196340Y-281381D01*
G01X-1197559Y-282854D01*
G01X-1199083Y-284988D01*
G01X-1200556Y-288036D01*
G01X-1201776Y-291338D01*
G01X-1202690Y-295300D01*
G01X-1203300Y-298958D01*
G01X-1203604Y-308051D01*
G01X-1203300Y-316535D01*
G01X-1202690Y-319532D01*
G01X-1201776Y-322885D01*
G01X-1199947Y-327711D01*
G01X-1198778Y-330149D01*
G01X-1197559Y-332283D01*
G01X-1196340Y-334112D01*
G01X-1194511Y-336499D01*
G01X-1192378Y-338633D01*
G01X-1190295Y-340157D01*
G01X-1186942Y-341681D01*
G01X-1183589Y-342290D01*
G01X-1181202Y-341681D01*
G01X-1179068Y-340462D01*
G01X-1177544Y-338328D01*
G01X-1176934Y-334112D01*
G01X-1177239Y-331724D01*
G01X-1178154Y-330149D01*
G01X-1180897Y-328320D01*
G01X-1184199Y-328016D01*
G01X-1186942Y-328625D01*
G01X-1189685D01*
G01X-1192073Y-327406D01*
G01X-1193597Y-325933D01*
G01X-1195426Y-323799D01*
G01X-1196950Y-320751D01*
G01X-1197864Y-317703D01*
G01X-1198474Y-314706D01*
G01X-1199083Y-310439D01*
G01X-1199337Y-304698D01*
G01X-1199083Y-300736D01*
G01X-1198474Y-297739D01*
G01X-1197254Y-294081D01*
G01X-1195730Y-291643D01*
G01X-1193597Y-289865D01*
G01X-1190295Y-288341D01*
G01X-1186942Y-287426D01*
G01X-1183284Y-286817D01*
G01X-1176630Y-286512D01*
G01X-1172108D01*
G01X-1171905Y-288036D01*
G01X-1166927D01*
G01Y-287274D01*
G01X-1166317Y-286817D01*
G01X-1147826Y-286512D01*
G01X-1134567Y-286766D01*
G01X-1129944Y-287426D01*
G01X-1128776Y-289560D01*
G01X-1126947Y-292252D01*
G01X-1122985Y-300126D01*
G01X-1121766Y-303479D01*
G01X-1120851Y-306832D01*
G01X-1120292Y-309829D01*
G01X-1119988Y-312572D01*
G01X-1119683Y-314706D01*
G01Y-316535D01*
G01X-1119988Y-319227D01*
G01X-1120597Y-322275D01*
G01X-1121766Y-325018D01*
G01X-1123290Y-327101D01*
G01X-1124814Y-328320D01*
G01X-1126947Y-329844D01*
G01X-1129944Y-331368D01*
G01X-1133602Y-332588D01*
G01X-1139038Y-333197D01*
G01X-1143305Y-332892D01*
G01X-1146048Y-331978D01*
G01X-1149045Y-330454D01*
G01X-1151179Y-328930D01*
G01X-1155700Y-324409D01*
G01X-1157224Y-322275D01*
G01X-1158748Y-319532D01*
G01X-1159967Y-317144D01*
G01X-1161186Y-314401D01*
G01X-1162406Y-310744D01*
G01X-1163625Y-306832D01*
G01X-1164488Y-302565D01*
G01X-1165098Y-299568D01*
G01X-1166317Y-292252D01*
G01X-1166927Y-288036D01*
G01X-1171905D01*
G01X-1171804Y-288646D01*
G01X-1171194Y-293472D01*
G01X-1169975Y-301955D01*
G01X-1169365Y-305613D01*
G01X-1168146Y-311658D01*
G01X-1167232Y-314706D01*
G01X-1165708Y-320751D01*
G01X-1164793Y-323190D01*
G01X-1163625Y-326492D01*
G01X-1162406Y-329235D01*
G01X-1161186Y-331368D01*
G01X-1159662Y-333807D01*
G01X-1158138Y-335890D01*
G01X-1153617Y-340462D01*
G01X-1151484Y-341986D01*
G01X-1148740Y-343764D01*
G01X-1145743Y-344983D01*
G01X-1143000Y-345897D01*
G01X-1139647Y-346507D01*
G01X-1136650Y-346812D01*
G01X-1134212D01*
G01X-1131164Y-346202D01*
G01X-1128776Y-345288D01*
G01X-1126642Y-344068D01*
G01X-1123899Y-342290D01*
G01X-1121766Y-340157D01*
G01X-1119988Y-337718D01*
G01X-1118159Y-334721D01*
G01X-1116940Y-332283D01*
G01X-1116025Y-329540D01*
G01X-1115416Y-326796D01*
G01X-1114806Y-325323D01*
G01X-1114501Y-316840D01*
G01X-1114806Y-308051D01*
G01X-1115416Y-305308D01*
G01X-1116330Y-302260D01*
G01X-1117549Y-299263D01*
G01X-1118768Y-296520D01*
G01X-1121156Y-292252D01*
G01X-1122680Y-289865D01*
G01X-1123899Y-287426D01*
G01X-1123696Y-286614D01*
G01X-1122375Y-285902D01*
G01X-1119988Y-284683D01*
G01X-1118464Y-283464D01*
G01X-1116940Y-281381D01*
G01X-1115720Y-278638D01*
G01X-1115111Y-273202D01*
G01X-1115720Y-267716D01*
G01X-1117244Y-265024D01*
G01X-1119683Y-262585D01*
G01X-1122680Y-261061D01*
G01X-1125728Y-260147D01*
G01X-1128776Y-259537D01*
G01X-1132383Y-259232D01*
G37*
G36*
G01X-1173277Y-359258D02*
G01X-1173277Y-398628D01*
G01X-1169060D01*
G01Y-395021D01*
G01X-1168756Y-390449D01*
G01X-1167841Y-388315D01*
G01X-1166317Y-386537D01*
G01X-1164234Y-385318D01*
G01X-1161796Y-384708D01*
G01X-1159662Y-384404D01*
G01X-1145743Y-384099D01*
G01X-1131773Y-384404D01*
G01X-1129386Y-385013D01*
G01X-1126642Y-386232D01*
G01X-1124509Y-387706D01*
G01X-1122985Y-389534D01*
G01X-1121766Y-391668D01*
G01X-1120597Y-394411D01*
G01X-1119683Y-397713D01*
G01X-1119378Y-400456D01*
G01X-1119073Y-402590D01*
G01Y-406197D01*
G01X-1119988Y-411074D01*
G01X-1121156Y-414071D01*
G01X-1122375Y-416204D01*
G01X-1124204Y-418948D01*
G01X-1126338Y-421081D01*
G01X-1128776Y-422859D01*
G01X-1131773Y-424993D01*
G01X-1134821Y-426517D01*
G01X-1137564Y-427736D01*
G01X-1142390Y-429565D01*
G01X-1148436Y-431343D01*
G01X-1151788Y-432257D01*
G01X-1157834Y-433476D01*
G01X-1161491Y-434086D01*
G01X-1165708Y-434696D01*
G01X-1169670Y-435000D01*
G01X-1171804Y-435305D01*
G01X-1181760Y-435610D01*
G01X-1191768Y-435305D01*
G01X-1199083Y-434696D01*
G01X-1203909Y-434086D01*
G01X-1210564Y-432867D01*
G01X-1215441Y-431648D01*
G01X-1218133Y-430733D01*
G01X-1221486Y-429565D01*
G01X-1224229Y-428346D01*
G01X-1226922Y-426822D01*
G01X-1229970Y-424993D01*
G01X-1233018Y-422859D01*
G01X-1235405Y-421081D01*
G01X-1238453Y-418033D01*
G01X-1240282Y-415900D01*
G01X-1241806Y-413461D01*
G01X-1242974Y-411074D01*
G01X-1243889Y-408026D01*
G01X-1244498Y-404978D01*
G01Y-401980D01*
G01X-1243889Y-398628D01*
G01X-1242974Y-395630D01*
G01X-1241806Y-393192D01*
G01X-1239977Y-390449D01*
G01X-1236320Y-386842D01*
G01X-1234491Y-385318D01*
G01X-1232713Y-384099D01*
G01X-1228446Y-381660D01*
G01X-1226617Y-380746D01*
G01X-1224534Y-379832D01*
G01X-1221791Y-378612D01*
G01X-1218133Y-377444D01*
G01X-1214831Y-376225D01*
G01X-1213764Y-375361D01*
G01X-1213612Y-374091D01*
G01X-1214526Y-371653D01*
G01X-1215492Y-371043D01*
G01X-1217219D01*
G01X-1220876Y-371653D01*
G01X-1223924Y-372262D01*
G01X-1231189Y-373482D01*
G01X-1234186Y-374091D01*
G01X-1241501Y-375310D01*
G01X-1244498Y-375920D01*
G01X-1247851Y-376530D01*
G01X-1249070Y-376987D01*
G01Y-377749D01*
G01X-1247851Y-379222D01*
G01X-1246632Y-381051D01*
G01X-1245718Y-383794D01*
G01X-1245413Y-386842D01*
G01X-1246022Y-389534D01*
G01X-1247851Y-394411D01*
G01X-1248766Y-397408D01*
G01X-1249375Y-400152D01*
G01X-1249680Y-405892D01*
G01X-1249375Y-411683D01*
G01X-1248766Y-414071D01*
G01X-1247851Y-416509D01*
G01X-1246937Y-418643D01*
G01X-1245718Y-421081D01*
G01X-1243889Y-423774D01*
G01X-1242416Y-425907D01*
G01X-1241196Y-427431D01*
G01X-1238148Y-430428D01*
G01X-1234491Y-433476D01*
G01X-1233018Y-434696D01*
G01X-1230884Y-435915D01*
G01X-1228141Y-437744D01*
G01X-1217828Y-442874D01*
G01X-1213002Y-444703D01*
G01X-1210259Y-445618D01*
G01X-1207567Y-446227D01*
G01X-1204519Y-447142D01*
G01X-1200252Y-448005D01*
G01X-1196645Y-448615D01*
G01X-1193902Y-448920D01*
G01X-1191768Y-449224D01*
G01X-1184504Y-449834D01*
G01X-1179373Y-450139D01*
G01X-1174191Y-449834D01*
G01X-1166317Y-449224D01*
G01X-1162101Y-448615D01*
G01X-1156005Y-447446D01*
G01X-1153008Y-446532D01*
G01X-1149045Y-445313D01*
G01X-1145438Y-444094D01*
G01X-1142086Y-442874D01*
G01X-1136650Y-440436D01*
G01X-1133907Y-438963D01*
G01X-1131468Y-437439D01*
G01X-1128776Y-435610D01*
G01X-1126338Y-433781D01*
G01X-1123290Y-430733D01*
G01X-1121461Y-428650D01*
G01X-1119988Y-426517D01*
G01X-1118768Y-424688D01*
G01X-1117549Y-422554D01*
G01X-1116635Y-420472D01*
G01X-1115720Y-418033D01*
G01X-1114806Y-414680D01*
G01X-1114196Y-412293D01*
G01X-1113892Y-404673D01*
G01X-1114196Y-396494D01*
G01X-1114806Y-394106D01*
G01X-1115720Y-391363D01*
G01X-1116940Y-388620D01*
G01X-1118159Y-386537D01*
G01X-1119683Y-384404D01*
G01X-1121461Y-382270D01*
G01X-1122223Y-381152D01*
G01X-1122680Y-378917D01*
G01Y-374701D01*
G01X-1121766Y-372262D01*
G01X-1126642Y-371602D01*
G01X-1142390Y-371348D01*
G01X-1164488Y-370738D01*
G01X-1166317Y-369570D01*
G01X-1167841Y-367436D01*
G01X-1168756Y-364388D01*
G01X-1169060Y-361036D01*
G01Y-359258D01*
G37*
G36*
G01X-180645Y620319D02*
G01X-187808Y619963D01*
G01X-190856Y619201D01*
G01X-193904Y618084D01*
G01X-196545Y616915D01*
G01X-199593Y615391D01*
G01X-202997Y613156D01*
G01X-205638Y611226D01*
G01X-207518Y609702D01*
G01X-211328Y605942D01*
G01X-215087Y601370D01*
G01X-216611Y599491D01*
G01X-218135Y596849D01*
G01X-220421Y593446D01*
G01X-226873Y580542D01*
G01X-229108Y574497D01*
G01X-230276Y571094D01*
G01X-231038Y567690D01*
G01X-232156Y563880D01*
G01X-233274Y558597D01*
G01X-234036Y554025D01*
G01X-234442Y550621D01*
G01X-234798Y547980D01*
G01X-235560Y538886D01*
G01X-235915Y532435D01*
G01X-235560Y526034D01*
G01X-234798Y516179D01*
G01X-234036Y510845D01*
G01X-232512Y503276D01*
G01X-231394Y499516D01*
G01X-229870Y494589D01*
G01X-228346Y490017D01*
G01X-226873Y485851D01*
G01X-223825Y479044D01*
G01X-221945Y475640D01*
G01X-220015Y472592D01*
G01X-217780Y469189D01*
G01X-215494Y466141D01*
G01X-211684Y462382D01*
G01X-209042Y460096D01*
G01X-206400Y458216D01*
G01X-204114Y456692D01*
G01X-201473Y455168D01*
G01X-198831Y454050D01*
G01X-195783Y452933D01*
G01X-191618Y451764D01*
G01X-188570Y451002D01*
G01X-179121Y450647D01*
G01X-168910Y451002D01*
G01X-165862Y451764D01*
G01X-162458Y452933D01*
G01X-159055Y454406D01*
G01X-156413Y455930D01*
G01X-153721Y457810D01*
G01X-151079Y460096D01*
G01X-149657Y461061D01*
G01X-146914Y461620D01*
G01X-141630D01*
G01X-138582Y460502D01*
G01X-137719Y466547D01*
G01X-137465Y486258D01*
G01X-136703Y513893D01*
G01X-135179Y516179D01*
G01X-132537Y518058D01*
G01X-128727Y519176D01*
G01X-124562Y519582D01*
G01X-122326D01*
G01Y524866D01*
G01X-171552D01*
G01Y519582D01*
G01X-166980D01*
G01X-161341Y519176D01*
G01X-158648Y518058D01*
G01X-156413Y516179D01*
G01X-154889Y513537D01*
G01X-154127Y510489D01*
G01X-153721Y507848D01*
G01X-153365Y490423D01*
G01X-153721Y472999D01*
G01X-154483Y469951D01*
G01X-156007Y466547D01*
G01X-157886Y463906D01*
G01X-160172Y461975D01*
G01X-162814Y460502D01*
G01X-166218Y458978D01*
G01X-170383Y457810D01*
G01X-173838Y457454D01*
G01X-176479Y457098D01*
G01X-181000D01*
G01X-187096Y458216D01*
G01X-190856Y459740D01*
G01X-193497Y461264D01*
G01X-196901Y463499D01*
G01X-199593Y466141D01*
G01X-201828Y469189D01*
G01X-204521Y472999D01*
G01X-206400Y476758D01*
G01X-207924Y480162D01*
G01X-210160Y486258D01*
G01X-212446Y493827D01*
G01X-213614Y497992D01*
G01X-215087Y505562D01*
G01X-215849Y510083D01*
G01X-216611Y515417D01*
G01X-217018Y520344D01*
G01X-217373Y522986D01*
G01X-217780Y535483D01*
G01X-217373Y547980D01*
G01X-216611Y557073D01*
G01X-215849Y563118D01*
G01X-214325Y571449D01*
G01X-212852Y577545D01*
G01X-211684Y580949D01*
G01X-210160Y585114D01*
G01X-208686Y588518D01*
G01X-206756Y591922D01*
G01X-204521Y595732D01*
G01X-201828Y599491D01*
G01X-199593Y602539D01*
G01X-195783Y606298D01*
G01X-193142Y608584D01*
G01X-190094Y610464D01*
G01X-187096Y611988D01*
G01X-183286Y613156D01*
G01X-179476Y613918D01*
G01X-175717D01*
G01X-171552Y613156D01*
G01X-167742Y611988D01*
G01X-164744Y610464D01*
G01X-161341Y608228D01*
G01X-156769Y603656D01*
G01X-154889Y601370D01*
G01X-153365Y599135D01*
G01X-150317Y593801D01*
G01X-149200Y591566D01*
G01X-148082Y588874D01*
G01X-146558Y585470D01*
G01X-145034Y580949D01*
G01X-143510Y576783D01*
G01X-142494Y575462D01*
G01X-140868Y575259D01*
G01X-137820Y576377D01*
G01X-137058Y577647D01*
G01Y579780D01*
G01X-137820Y584352D01*
G01X-138582Y588112D01*
G01X-140106Y597205D01*
G01X-140868Y601015D01*
G01X-142392Y610108D01*
G01X-143154Y613918D01*
G01X-143916Y618084D01*
G01X-144475Y619557D01*
G01X-145390D01*
G01X-147320Y618084D01*
G01X-149555Y616560D01*
G01X-153010Y615391D01*
G01X-156769Y615036D01*
G01X-160172Y615798D01*
G01X-166218Y618084D01*
G01X-170028Y619201D01*
G01X-173431Y619963D01*
G37*
G36*
G01X180746Y620319D02*
G01X176581Y619557D01*
G01X173888Y617677D01*
G01X171653Y615391D01*
G01X170129Y612750D01*
G01X169367Y608584D01*
G01X170485Y604063D01*
G01X172415Y601015D01*
G01X174650Y599135D01*
G01X176936Y597611D01*
G01X181864Y596849D01*
G01X187147Y597611D01*
G01X189433Y599135D01*
G01X191313Y601015D01*
G01X192837Y602894D01*
G01X194361Y605942D01*
G01X195123Y609702D01*
G01X194361Y612750D01*
G01X192837Y615391D01*
G01X190957Y617322D01*
G01X188671Y618795D01*
G01X185674Y619963D01*
G37*
G36*
G01X30734Y615036D02*
G01X31496Y613156D01*
G01X33020Y610464D01*
G01X34493Y608228D01*
G01X45110Y589636D01*
G01X47041Y586638D01*
G01X48920Y583235D01*
G01X50444Y580542D01*
G01X52324Y577545D01*
G01X53442Y575615D01*
G01X65176D01*
G01X74117Y575920D01*
G01X77318Y576783D01*
G01X78435Y579069D01*
G01X93624Y605536D01*
G01X95504Y608584D01*
G01X97384Y611988D01*
G01X98908Y614274D01*
G01X98806Y614832D01*
G01X97028Y615036D01*
G01X94844Y614731D01*
G01X93624Y613918D01*
G01X87935Y608228D01*
G01X84887Y605942D01*
G01X78435Y599491D01*
G01X73914Y595732D01*
G01X70104Y591922D01*
G01X68224Y590398D01*
G01X65176Y591566D01*
G01X62179Y593801D01*
G01X58369Y596849D01*
G01X55372Y599135D01*
G01X51562Y602132D01*
G01X45517Y606704D01*
G01X41707Y609702D01*
G01X38659Y611988D01*
G01X36017Y613918D01*
G01X32614Y615036D01*
G37*
G36*
G01X186385Y568046D02*
G01X183388Y567284D01*
G01X180340Y565810D01*
G01X175819Y564286D01*
G01X170485Y563118D01*
G01X165964Y562356D01*
G01X156870Y562000D01*
G01X148539Y561645D01*
G01X146253Y560883D01*
G01X145390Y560019D01*
G01X145136Y558190D01*
G01Y555955D01*
G01X149657D01*
G01X155346Y555549D01*
G01X162560Y555193D01*
G01X167589Y554888D01*
G01X170485Y554025D01*
G01X172110Y552602D01*
G01X173177Y550621D01*
G01X173888Y505206D01*
G01X173533Y472338D01*
G01X172415Y460096D01*
G01X170383Y458572D01*
G01X167488Y457810D01*
G01X154584Y457454D01*
G01X145136D01*
G01Y452171D01*
G01X217068D01*
G01Y457454D01*
G01X205740D01*
G01X192837Y458216D01*
G01X190195Y459740D01*
G01X188671Y463144D01*
G01X188316Y516941D01*
G01Y568046D01*
G37*
G36*
G01X-58268Y562762D02*
G01X-68885Y562356D01*
G01X-72695Y561645D01*
G01X-76860Y560476D01*
G01X-82906Y558190D01*
G01X-85954Y556717D01*
G01X-88595Y555193D01*
G01X-90881Y553669D01*
G01X-93878Y551383D01*
G01X-96520Y548742D01*
G01X-98450Y546100D01*
G01X-100330Y541934D01*
G01X-101092Y537769D01*
G01X-100330Y534721D01*
G01X-98806Y532079D01*
G01X-96164Y530200D01*
G01X-90881Y529438D01*
G01X-87935Y529793D01*
G01X-85954Y530962D01*
G01X-83668Y534365D01*
G01X-83312Y538531D01*
G01X-84023Y541934D01*
G01Y545338D01*
G01X-82550Y548386D01*
G01X-80620Y550266D01*
G01X-77978Y552552D01*
G01X-74219Y554431D01*
G01X-70409Y555549D01*
G01X-66599Y556311D01*
G01X-61316Y557073D01*
G01X-54102Y557479D01*
G01X-49174Y557073D01*
G01X-45415Y556311D01*
G01X-40843Y554787D01*
G01X-37846Y552907D01*
G01X-35560Y550266D01*
G01X-33680Y546100D01*
G01X-32512Y541934D01*
G01X-31750Y537362D01*
G01X-31394Y529031D01*
G01Y523342D01*
G01X-34036Y522986D01*
G01X-40081Y522224D01*
G01X-50698Y520700D01*
G01X-55270Y519938D01*
G01X-62840Y518414D01*
G01X-66599Y517296D01*
G01X-74219Y515417D01*
G01X-77216Y514248D01*
G01X-81382Y512775D01*
G01X-84785Y511251D01*
G01X-87478Y509727D01*
G01X-90475Y507848D01*
G01X-93116Y505917D01*
G01X-98806Y500278D01*
G01X-100736Y497586D01*
G01X-102972Y494182D01*
G01X-104496Y490423D01*
G01X-105613Y487020D01*
G01X-106375Y482854D01*
G01X-106477Y482092D01*
G01X-89713D01*
G01X-89357Y487375D01*
G01X-88189Y490779D01*
G01X-86309Y494589D01*
G01X-84430Y497230D01*
G01X-78740Y502920D01*
G01X-76098Y504800D01*
G01X-72695Y506679D01*
G01X-69647Y508203D01*
G01X-66243Y509727D01*
G01X-61671Y511251D01*
G01X-56794Y512775D01*
G01X-51460Y513893D01*
G01X-47701Y514655D01*
G01X-38608Y516179D01*
G01X-33274Y516941D01*
G01X-32360D01*
G01X-31750Y516179D01*
G01X-31394Y493065D01*
G01X-31699Y476504D01*
G01X-32512Y470713D01*
G01X-35204Y469189D01*
G01X-38608Y466903D01*
G01X-48463Y461975D01*
G01X-52629Y460502D01*
G01X-56794Y459334D01*
G01X-60554Y458572D01*
G01X-63957Y458216D01*
G01X-66599Y457810D01*
G01X-68885D01*
G01X-72288Y458216D01*
G01X-76098Y458978D01*
G01X-79502Y460502D01*
G01X-82144Y462382D01*
G01X-83668Y464261D01*
G01X-85547Y466903D01*
G01X-87478Y470713D01*
G01X-88951Y475234D01*
G01X-89713Y482092D01*
G01X-106477D01*
G01X-106782Y479044D01*
G01Y475996D01*
G01X-106020Y472237D01*
G01X-104902Y469189D01*
G01X-103378Y466547D01*
G01X-101092Y463144D01*
G01X-98450Y460502D01*
G01X-95402Y458216D01*
G01X-91643Y455930D01*
G01X-88595Y454406D01*
G01X-85192Y453288D01*
G01X-81788Y452526D01*
G01X-79858Y451764D01*
G01X-69291Y451409D01*
G01X-58268Y451764D01*
G01X-54864Y452526D01*
G01X-51105Y453644D01*
G01X-47295Y455168D01*
G01X-43891Y456692D01*
G01X-38608Y459740D01*
G01X-35560Y461620D01*
G01X-32512Y463144D01*
G01X-31496Y462839D01*
G01X-30632Y461264D01*
G01X-29108Y458216D01*
G01X-27584Y456336D01*
G01X-24943Y454406D01*
G01X-21539Y452933D01*
G01X-14732Y452171D01*
G01X-7925Y452933D01*
G01X-4521Y454812D01*
G01X-1473Y457810D01*
G01X406Y461620D01*
G01X1575Y465430D01*
G01X2337Y469189D01*
G01X2692Y473761D01*
G01Y476402D01*
G01X-2591D01*
G01Y472237D01*
G01X-2997Y466903D01*
G01X-4115Y463906D01*
G01X-6756Y460858D01*
G01X-11684Y459740D01*
G01X-14275Y460096D01*
G01X-15850Y461264D01*
G01X-17018Y464261D01*
G01X-17374Y466903D01*
G01X-18136Y541934D01*
G01X-19253Y545338D01*
G01X-21184Y549097D01*
G01X-23063Y551790D01*
G01X-24943Y553669D01*
G01X-26873Y555193D01*
G01X-29515Y557073D01*
G01X-33274Y558952D01*
G01X-37440Y560476D01*
G01X-42367Y561645D01*
G01X-46939Y562356D01*
G37*
G36*
G01X20879Y559714D02*
G01X20879Y557428D01*
G01X20523Y554025D01*
G01X20117Y541172D01*
G01Y529438D01*
G01X25400D01*
G01Y532079D01*
G01X25806Y535838D01*
G01X26568Y538886D01*
G01X27686Y541934D01*
G01X29210Y544932D01*
G01X31090Y547624D01*
G01X33376Y549097D01*
G01X37186Y550621D01*
G01X62941Y551383D01*
G01X80162Y551129D01*
G01X85649Y550266D01*
G01X84531Y548386D01*
G01X83007Y546456D01*
G01X33020Y479806D01*
G01X29210Y474523D01*
G01X15596Y456336D01*
G01X13665Y453644D01*
G01X12548Y450240D01*
G01Y448361D01*
G01X111811D01*
G01Y457454D01*
G01X112166Y467665D01*
G01X112522Y475234D01*
G01Y481686D01*
G01X108001D01*
G01Y479044D01*
G01X107645Y475234D01*
G01X106883Y471475D01*
G01X105715Y467309D01*
G01X104191Y464261D01*
G01X102718Y461975D01*
G01X100025Y459740D01*
G01X95504Y457454D01*
G01X91338Y456692D01*
G01X88697Y456336D01*
G01X64059Y455930D01*
G01X40589D01*
G01X40945Y457454D01*
G01X42469Y459740D01*
G01X43993Y461620D01*
G01X45110Y463499D01*
G01X46634Y465430D01*
G01X48920Y468427D01*
G01X51918Y472237D01*
G01X99670Y535838D01*
G01X102718Y539648D01*
G01X111811Y551790D01*
G01X113690Y554431D01*
G01X114808Y557835D01*
G01Y559714D01*
G37*
G54D11*
G01X-140380Y841233D02*
G01X-140380Y794751D01*
G01X-137332Y785607D01*
G01X-130982Y779257D01*
G01X-121838Y776209D01*
G01X-115488D01*
G01X-106344Y779257D01*
G01X-100248Y785607D01*
G01X-96946Y794751D01*
G01Y841233D01*
G01X-66720Y828787D02*
G01X-60624Y832089D01*
G01X-51480Y841233D01*
G01Y776209D01*
G01X-951378Y651233D02*
G01X-951378Y604751D01*
G01X-948330Y595607D01*
G01X-941980Y589257D01*
G01X-932836Y586209D01*
G01X-926486D01*
G01X-917342Y589257D01*
G01X-911246Y595607D01*
G01X-907944Y604751D01*
G01Y651233D01*
G01X-874670Y635739D02*
G01X-874670Y638787D01*
G01X-871622Y645137D01*
G01X-868574Y648185D01*
G01X-862478Y651233D01*
G01X-850032D01*
G01X-843682Y648185D01*
G01X-840634Y645137D01*
G01X-837586Y638787D01*
G01Y632691D01*
G01X-840634Y626595D01*
G01X-846984Y617197D01*
G01X-877718Y586209D01*
G01X-834538D01*
G01X838258Y-987896D02*
G01X831908Y-990944D01*
G01X825812Y-997294D01*
G01X822764Y-1003390D01*
G01Y-1015836D01*
G01X825812Y-1021932D01*
G01X831908Y-1028282D01*
G01X838258Y-1031330D01*
G01X847402Y-1034378D01*
G01X862896D01*
G01X872294Y-1031330D01*
G01X878390Y-1028282D01*
G01X884740Y-1021932D01*
G01X887788Y-1015836D01*
G01Y-1003390D01*
G01X884740Y-997294D01*
G01X878390Y-990944D01*
G01X872294Y-987896D01*
G01X822764Y-939128D02*
G01X825812Y-945478D01*
G01X831908Y-951574D01*
G01X838258Y-954622D01*
G01X847402Y-957670D01*
G01X862896D01*
G01X872294Y-954622D01*
G01X878390Y-951574D01*
G01X884740Y-945478D01*
G01X887788Y-939128D01*
G01Y-926936D01*
G01X884740Y-920586D01*
G01X878390Y-914490D01*
G01X872294Y-911442D01*
G01X862896Y-908140D01*
G01X847402D01*
G01X838258Y-911442D01*
G01X831908Y-914490D01*
G01X825812Y-920586D01*
G01X822764Y-926936D01*
G01Y-939128D01*
G01X822764Y-877914D02*
G01X887788Y-877914D01*
G01X822764Y-877914D02*
G01X887788Y-834734D01*
G01X822764Y-834734D02*
G01X887788Y-834734D01*
G01X822764Y-804508D02*
G01X887788Y-804508D01*
G01X822764Y-804508D02*
G01X887788Y-761328D01*
G01X822764Y-761328D02*
G01X887788Y-761328D01*
G01X822764Y-731102D02*
G01X887788Y-731102D01*
G01X822764Y-731102D02*
G01X822764Y-690970D01*
G01X853752Y-731102D02*
G01X853752Y-706464D01*
G01X887788Y-731102D02*
G01X887788Y-690970D01*
G01X838258Y-614516D02*
G01X831908Y-617564D01*
G01X825812Y-623660D01*
G01X822764Y-630010D01*
G01Y-642202D01*
G01X825812Y-648552D01*
G01X831908Y-654648D01*
G01X838258Y-657696D01*
G01X847402Y-660744D01*
G01X862896D01*
G01X872294Y-657696D01*
G01X878390Y-654648D01*
G01X884740Y-648552D01*
G01X887788Y-642202D01*
G01Y-630010D01*
G01X884740Y-623660D01*
G01X878390Y-617564D01*
G01X872294Y-614516D01*
G01X822764Y-562700D02*
G01X887788Y-562700D01*
G01X822764Y-584290D02*
G01X822764Y-541110D01*
G01X-615188Y-342900D02*
G01X-618236Y-336550D01*
G01X-624586Y-330454D01*
G01X-630682Y-327406D01*
G01X-643128D01*
G01X-649224Y-330454D01*
G01X-655574Y-336550D01*
G01X-658622Y-342900D01*
G01X-661670Y-352044D01*
G01Y-367538D01*
G01X-658622Y-376936D01*
G01X-655574Y-383032D01*
G01X-649224Y-389382D01*
G01X-643128Y-392430D01*
G01X-630682D01*
G01X-624586Y-389382D01*
G01X-618236Y-383032D01*
G01X-615188Y-376936D01*
G01X-584962Y-339852D02*
G01X-578866Y-336550D01*
G01X-569722Y-327406D01*
G01Y-392430D01*
G01X-119888Y-189230D02*
G01X-122936Y-182880D01*
G01X-129286Y-176784D01*
G01X-135382Y-173736D01*
G01X-147828D01*
G01X-153924Y-176784D01*
G01X-160274Y-182880D01*
G01X-163322Y-189230D01*
G01X-166370Y-198374D01*
G01Y-213868D01*
G01X-163322Y-223266D01*
G01X-160274Y-229362D01*
G01X-153924Y-235712D01*
G01X-147828Y-238760D01*
G01X-135382D01*
G01X-129286Y-235712D01*
G01X-122936Y-229362D01*
G01X-119888Y-223266D01*
G01X-86614Y-189230D02*
G01X-86614Y-186182D01*
G01X-83566Y-179832D01*
G01X-80518Y-176784D01*
G01X-74422Y-173736D01*
G01X-61976D01*
G01X-55626Y-176784D01*
G01X-52578Y-179832D01*
G01X-49530Y-186182D01*
G01Y-192278D01*
G01X-52578Y-198374D01*
G01X-58928Y-207772D01*
G01X-89662Y-238760D01*
G01X-46482D01*
G01X-814896Y1557737D02*
G01X-817944Y1564087D01*
G01X-824294Y1570183D01*
G01X-830390Y1573231D01*
G01X-842836D01*
G01X-848932Y1570183D01*
G01X-855282Y1564087D01*
G01X-858330Y1557737D01*
G01X-861378Y1548593D01*
G01Y1533099D01*
G01X-858330Y1523701D01*
G01X-855282Y1517605D01*
G01X-848932Y1511255D01*
G01X-842836Y1508207D01*
G01X-830390D01*
G01X-824294Y1511255D01*
G01X-817944Y1517605D01*
G01X-814896Y1523701D01*
G01X-778574Y1573231D02*
G01X-744538Y1573231D01*
G01X-763080Y1548593D01*
G01X-753936D01*
G01X-747586Y1545545D01*
G01X-744538Y1542243D01*
G01X-741490Y1533099D01*
G01Y1526749D01*
G01X-744538Y1517605D01*
G01X-750634Y1511255D01*
G01X-760032Y1508207D01*
G01X-769430D01*
G01X-778574Y1511255D01*
G01X-781622Y1514557D01*
G01X-784670Y1520653D01*
G01X637619Y-190765D02*
G01X637619Y-237247D01*
G01X640667Y-246391D01*
G01X647017Y-252741D01*
G01X656161Y-255789D01*
G01X662511D01*
G01X671655Y-252741D01*
G01X677751Y-246391D01*
G01X681053Y-237247D01*
G01Y-190765D01*
G01X742013Y-190765D02*
G01X711279Y-233945D01*
G01X757507D01*
G01X742013Y-190765D02*
G01X742013Y-255789D01*
G01X704619Y290234D02*
G01X704619Y243752D01*
G01X707667Y234608D01*
G01X714017Y228258D01*
G01X723161Y225210D01*
G01X729511D01*
G01X738655Y228258D01*
G01X744751Y234608D01*
G01X748053Y243752D01*
G01Y290234D01*
G01X815363Y281090D02*
G01X812315Y287186D01*
G01X802917Y290234D01*
G01X796821D01*
G01X787423Y287186D01*
G01X781327Y277788D01*
G01X778279Y262548D01*
G01Y247054D01*
G01X781327Y234608D01*
G01X787423Y228258D01*
G01X796821Y225210D01*
G01X799869D01*
G01X809013Y228258D01*
G01X815363Y234608D01*
G01X818411Y243752D01*
G01Y247054D01*
G01X815363Y256198D01*
G01X809013Y262548D01*
G01X799869Y265596D01*
G01X796821D01*
G01X787423Y262548D01*
G01X781327Y256198D01*
G01X778279Y247054D01*
G01X840100Y1496737D02*
G01X837052Y1503087D01*
G01X830702Y1509183D01*
G01X824606Y1512231D01*
G01X812160D01*
G01X806064Y1509183D01*
G01X799714Y1503087D01*
G01X796666Y1496737D01*
G01X793618Y1487593D01*
G01Y1472099D01*
G01X796666Y1462701D01*
G01X799714Y1456605D01*
G01X806064Y1450255D01*
G01X812160Y1447207D01*
G01X824606D01*
G01X830702Y1450255D01*
G01X837052Y1456605D01*
G01X840100Y1462701D01*
G01X901060Y1512231D02*
G01X870326Y1469051D01*
G01X916554D01*
G01X901060Y1512231D02*
G01X901060Y1447207D01*
G01X120102Y713739D02*
G01X117054Y720089D01*
G01X110704Y726185D01*
G01X104608Y729233D01*
G01X92162D01*
G01X86066Y726185D01*
G01X79716Y720089D01*
G01X76668Y713739D01*
G01X73620Y704595D01*
G01Y689101D01*
G01X76668Y679703D01*
G01X79716Y673607D01*
G01X86066Y667257D01*
G01X92162Y664209D01*
G01X104608D01*
G01X110704Y667257D01*
G01X117054Y673607D01*
G01X120102Y679703D01*
G01X187412Y729233D02*
G01X156424Y729233D01*
G01X153376Y701547D01*
G01X156424Y704595D01*
G01X165568Y707643D01*
G01X174966D01*
G01X184364Y704595D01*
G01X190460Y698245D01*
G01X193508Y689101D01*
G01Y682751D01*
G01X190460Y673607D01*
G01X184364Y667257D01*
G01X174966Y664209D01*
G01X165568D01*
G01X156424Y667257D01*
G01X153376Y670559D01*
G01X150328Y676655D01*
G01X549910Y508254D02*
G01X549910Y443230D01*
G01X549910Y508254D02*
G01X577850Y508254D01*
G01X586994Y505206D01*
G01X590042Y502158D01*
G01X593344Y495808D01*
G01Y489712D01*
G01X590042Y483616D01*
G01X586994Y480568D01*
G01X577850Y477266D01*
G01X549910D01*
G01X571500Y477266D02*
G01X593344Y443230D01*
G01X623570Y495808D02*
G01X629666Y499110D01*
G01X638810Y508254D01*
G01Y443230D01*
G01X1251204Y-252730D02*
G01X1186180Y-252730D01*
G01X1251204Y-252730D02*
G01X1251204Y-280670D01*
G01X1248156Y-289814D01*
G01X1245108Y-292862D01*
G01X1238758Y-296164D01*
G01X1232662D01*
G01X1226566Y-292862D01*
G01X1223518Y-289814D01*
G01X1220216Y-280670D01*
G01Y-252730D01*
G01X1220216Y-274320D02*
G01X1186180Y-296164D01*
G01X1235710Y-329438D02*
G01X1238758Y-329438D01*
G01X1245108Y-332486D01*
G01X1248156Y-335534D01*
G01X1251204Y-341630D01*
G01Y-354076D01*
G01X1248156Y-360426D01*
G01X1245108Y-363474D01*
G01X1238758Y-366522D01*
G01X1232662D01*
G01X1226566Y-363474D01*
G01X1217168Y-357124D01*
G01X1186180Y-326390D01*
G01Y-369570D01*
G01X578866Y189230D02*
G01X625348Y189230D01*
G01X634492Y192278D01*
G01X640842Y198628D01*
G01X643890Y207772D01*
G01Y214122D01*
G01X640842Y223266D01*
G01X634492Y229362D01*
G01X625348Y232664D01*
G01X578866D01*
G01X578866Y306070D02*
G01X643890Y275082D01*
G01X578866Y262890D02*
G01X578866Y306070D01*
G01X18620Y838233D02*
G01X18620Y773209D01*
G01X18620Y838233D02*
G01X46560Y838233D01*
G01X55704Y835185D01*
G01X58752Y832137D01*
G01X62054Y825787D01*
G01Y819691D01*
G01X58752Y813595D01*
G01X55704Y810547D01*
G01X46560Y807245D01*
G01X18620D01*
G01X40210Y807245D02*
G01X62054Y773209D01*
G01X98376Y838233D02*
G01X132412Y838233D01*
G01X113870Y813595D01*
G01X123014D01*
G01X129364Y810547D01*
G01X132412Y807245D01*
G01X135460Y798101D01*
G01Y791751D01*
G01X132412Y782607D01*
G01X126316Y776257D01*
G01X116918Y773209D01*
G01X107520D01*
G01X98376Y776257D01*
G01X95328Y779559D01*
G01X92280Y785655D01*
G01X816618Y-195765D02*
G01X816618Y-260789D01*
G01X816618Y-195765D02*
G01X844558Y-195765D01*
G01X853702Y-198813D01*
G01X856750Y-201861D01*
G01X860052Y-208211D01*
G01Y-214307D01*
G01X856750Y-220403D01*
G01X853702Y-223451D01*
G01X844558Y-226753D01*
G01X816618D01*
G01X838208Y-226753D02*
G01X860052Y-260789D01*
G01X921012Y-195765D02*
G01X890278Y-238945D01*
G01X936506D01*
G01X921012Y-195765D02*
G01X921012Y-260789D01*
G01X104902Y-72390D02*
G01X101854Y-66040D01*
G01X95504Y-59944D01*
G01X89408Y-56896D01*
G01X76962D01*
G01X70866Y-59944D01*
G01X64516Y-66040D01*
G01X61468Y-72390D01*
G01X58420Y-81534D01*
G01Y-97028D01*
G01X61468Y-106426D01*
G01X64516Y-112522D01*
G01X70866Y-118872D01*
G01X76962Y-121920D01*
G01X89408D01*
G01X95504Y-118872D01*
G01X101854Y-112522D01*
G01X104902Y-106426D01*
G01X172212Y-66040D02*
G01X169164Y-59944D01*
G01X159766Y-56896D01*
G01X153670D01*
G01X144272Y-59944D01*
G01X138176Y-69342D01*
G01X135128Y-84582D01*
G01Y-100076D01*
G01X138176Y-112522D01*
G01X144272Y-118872D01*
G01X153670Y-121920D01*
G01X156718D01*
G01X165862Y-118872D01*
G01X172212Y-112522D01*
G01X175260Y-103378D01*
G01Y-100076D01*
G01X172212Y-90932D01*
G01X165862Y-84582D01*
G01X156718Y-81534D01*
G01X153670D01*
G01X144272Y-84582D01*
G01X138176Y-90932D01*
G01X135128Y-100076D01*
G01X381762Y425450D02*
G01X378714Y431800D01*
G01X372364Y437896D01*
G01X366268Y440944D01*
G01X353822D01*
G01X347726Y437896D01*
G01X341376Y431800D01*
G01X338328Y425450D01*
G01X335280Y416306D01*
G01Y400812D01*
G01X338328Y391414D01*
G01X341376Y385318D01*
G01X347726Y378968D01*
G01X353822Y375920D01*
G01X366268D01*
G01X372364Y378968D01*
G01X378714Y385318D01*
G01X381762Y391414D01*
G01X455168Y440944D02*
G01X424180Y375920D01*
G01X411988Y440944D02*
G01X455168Y440944D01*
G01X-820764Y-666619D02*
G01X-885788Y-666619D01*
G01X-820764Y-666619D02*
G01X-820764Y-694559D01*
G01X-823812Y-703703D01*
G01X-826860Y-706751D01*
G01X-833210Y-710053D01*
G01X-842354D01*
G01X-848450Y-706751D01*
G01X-851752Y-703703D01*
G01X-854800Y-694559D01*
G01Y-666619D01*
G01X-820764Y-740279D02*
G01X-885788Y-740279D01*
G01X-820764Y-740279D02*
G01X-820764Y-767965D01*
G01X-823812Y-777363D01*
G01X-826860Y-780411D01*
G01X-833210Y-783459D01*
G01X-839306D01*
G01X-845402Y-780411D01*
G01X-848450Y-777363D01*
G01X-851752Y-767965D01*
G01Y-740279D01*
G01X-851752Y-761869D02*
G01X-885788Y-783459D01*
G01X-820764Y-832227D02*
G01X-823812Y-825877D01*
G01X-829908Y-819781D01*
G01X-836258Y-816733D01*
G01X-845402Y-813685D01*
G01X-860896D01*
G01X-870294Y-816733D01*
G01X-876390Y-819781D01*
G01X-882740Y-825877D01*
G01X-885788Y-832227D01*
G01Y-844419D01*
G01X-882740Y-850769D01*
G01X-876390Y-856865D01*
G01X-870294Y-859913D01*
G01X-860896Y-863215D01*
G01X-845402D01*
G01X-836258Y-859913D01*
G01X-829908Y-856865D01*
G01X-823812Y-850769D01*
G01X-820764Y-844419D01*
G01Y-832227D01*
G01X-836258Y-939669D02*
G01X-829908Y-936621D01*
G01X-823812Y-930525D01*
G01X-820764Y-924175D01*
G01Y-911983D01*
G01X-823812Y-905633D01*
G01X-829908Y-899537D01*
G01X-836258Y-896489D01*
G01X-845402Y-893441D01*
G01X-860896D01*
G01X-870294Y-896489D01*
G01X-876390Y-899537D01*
G01X-882740Y-905633D01*
G01X-885788Y-911983D01*
G01Y-924175D01*
G01X-882740Y-930525D01*
G01X-876390Y-936621D01*
G01X-870294Y-939669D01*
G01X-860896D01*
G01X-860896Y-924175D02*
G01X-860896Y-939669D01*
G01X-1082232Y-429379D02*
G01X-1017208Y-429379D01*
G01X-1082232Y-429379D02*
G01X-1082232Y-401439D01*
G01X-1079184Y-392295D01*
G01X-1076136Y-389247D01*
G01X-1069786Y-385945D01*
G01X-1063690D01*
G01X-1057594Y-389247D01*
G01X-1054546Y-392295D01*
G01X-1051244Y-401439D01*
G01Y-429379D01*
G01X-1051244Y-407789D02*
G01X-1017208Y-385945D01*
G01X-1082232Y-318635D02*
G01X-1082232Y-349623D01*
G01X-1054546Y-352671D01*
G01X-1057594Y-349623D01*
G01X-1060642Y-340479D01*
G01Y-331081D01*
G01X-1057594Y-321683D01*
G01X-1051244Y-315587D01*
G01X-1042100Y-312539D01*
G01X-1035750D01*
G01X-1026606Y-315587D01*
G01X-1020256Y-321683D01*
G01X-1017208Y-331081D01*
G01Y-340479D01*
G01X-1020256Y-349623D01*
G01X-1023558Y-352671D01*
G01X-1029654Y-355719D01*
G01X798830Y1648714D02*
G01X798830Y1583690D01*
G01X798830Y1648714D02*
G01X826770Y1648714D01*
G01X835914Y1645666D01*
G01X838962Y1642618D01*
G01X842264Y1636268D01*
G01Y1630172D01*
G01X838962Y1624076D01*
G01X835914Y1621028D01*
G01X826770Y1617726D01*
G01X798830D01*
G01X820420Y1617726D02*
G01X842264Y1583690D01*
G01X915670Y1648714D02*
G01X884682Y1583690D01*
G01X872490Y1648714D02*
G01X915670Y1648714D01*
G01X-114808Y-44450D02*
G01X-117856Y-38100D01*
G01X-124206Y-32004D01*
G01X-130302Y-28956D01*
G01X-142748D01*
G01X-148844Y-32004D01*
G01X-155194Y-38100D01*
G01X-158242Y-44450D01*
G01X-161290Y-53594D01*
G01Y-69088D01*
G01X-158242Y-78486D01*
G01X-155194Y-84582D01*
G01X-148844Y-90932D01*
G01X-142748Y-93980D01*
G01X-130302D01*
G01X-124206Y-90932D01*
G01X-117856Y-84582D01*
G01X-114808Y-78486D01*
G01X-44450Y-50546D02*
G01X-47498Y-59944D01*
G01X-53848Y-66040D01*
G01X-62992Y-69088D01*
G01X-66040D01*
G01X-75438Y-66040D01*
G01X-81534Y-59944D01*
G01X-84582Y-50546D01*
G01Y-47498D01*
G01X-81534Y-38100D01*
G01X-75438Y-32004D01*
G01X-66040Y-28956D01*
G01X-62992D01*
G01X-53848Y-32004D01*
G01X-47498Y-38100D01*
G01X-44450Y-50546D01*
G01Y-66040D01*
G01X-47498Y-81534D01*
G01X-53848Y-90932D01*
G01X-62992Y-93980D01*
G01X-69342D01*
G01X-78486Y-90932D01*
G01X-81534Y-84582D01*
G01X795020Y1771904D02*
G01X795020Y1706880D01*
G01X795020Y1771904D02*
G01X822960Y1771904D01*
G01X832104Y1768856D01*
G01X835152Y1765808D01*
G01X838454Y1759458D01*
G01Y1753362D01*
G01X835152Y1747266D01*
G01X832104Y1744218D01*
G01X822960Y1740916D01*
G01X795020D01*
G01X816610Y1740916D02*
G01X838454Y1706880D01*
G01X905764Y1762760D02*
G01X902716Y1768856D01*
G01X893318Y1771904D01*
G01X887222D01*
G01X877824Y1768856D01*
G01X871728Y1759458D01*
G01X868680Y1744218D01*
G01Y1728724D01*
G01X871728Y1716278D01*
G01X877824Y1709928D01*
G01X887222Y1706880D01*
G01X890270D01*
G01X899414Y1709928D01*
G01X905764Y1716278D01*
G01X908812Y1725422D01*
G01Y1728724D01*
G01X905764Y1737868D01*
G01X899414Y1744218D01*
G01X890270Y1747266D01*
G01X887222D01*
G01X877824Y1744218D01*
G01X871728Y1737868D01*
G01X868680Y1728724D01*
G01X-1000738Y1706099D02*
G01X-1007088Y1703051D01*
G01X-1013184Y1696701D01*
G01X-1016232Y1690605D01*
G01Y1678159D01*
G01X-1013184Y1672063D01*
G01X-1007088Y1665713D01*
G01X-1000738Y1662665D01*
G01X-991594Y1659617D01*
G01X-976100D01*
G01X-966702Y1662665D01*
G01X-960606Y1665713D01*
G01X-954256Y1672063D01*
G01X-951208Y1678159D01*
G01Y1690605D01*
G01X-954256Y1696701D01*
G01X-960606Y1703051D01*
G01X-966702Y1706099D01*
G01X-1003786Y1736325D02*
G01X-1007088Y1742421D01*
G01X-1016232Y1751565D01*
G01X-951208D01*
G01X-1016232Y1800333D02*
G01X-1013184Y1790935D01*
G01X-1003786Y1784839D01*
G01X-988546Y1781791D01*
G01X-979148D01*
G01X-963654Y1784839D01*
G01X-954256Y1790935D01*
G01X-951208Y1800333D01*
G01Y1806429D01*
G01X-954256Y1815827D01*
G01X-963654Y1821923D01*
G01X-979148Y1824971D01*
G01X-988546D01*
G01X-1003786Y1821923D01*
G01X-1013184Y1815827D01*
G01X-1016232Y1806429D01*
G01Y1800333D01*
G01X-825896Y1451737D02*
G01X-828944Y1458087D01*
G01X-835294Y1464183D01*
G01X-841390Y1467231D01*
G01X-853836D01*
G01X-859932Y1464183D01*
G01X-866282Y1458087D01*
G01X-869330Y1451737D01*
G01X-872378Y1442593D01*
G01Y1427099D01*
G01X-869330Y1417701D01*
G01X-866282Y1411605D01*
G01X-859932Y1405255D01*
G01X-853836Y1402207D01*
G01X-841390D01*
G01X-835294Y1405255D01*
G01X-828944Y1411605D01*
G01X-825896Y1417701D01*
G01X-795670Y1454785D02*
G01X-789574Y1458087D01*
G01X-780430Y1467231D01*
G01Y1402207D01*
G01X-750204Y1454785D02*
G01X-744108Y1458087D01*
G01X-734964Y1467231D01*
G01Y1402207D01*
G04 Text End*

G04 PolygonModel Start*
G54D12*
G01X-658995Y2024943D02*
G01X661805Y2024943D01*
G54D11*
G01X-944641Y529529D02*
G01X-264399Y529529D01*
G01X-264399Y529529D02*
G01X-264399Y250251D01*
G01X-264399Y250251D02*
G01X-944641Y250251D01*
G01X-944641Y250251D02*
G01X-944641Y529529D01*
G01X1241374Y-590564D02*
G01X1241374Y-995806D01*
G01X1241374Y-995806D02*
G01X1175576Y-995806D01*
G01X933135Y-590564D02*
G01X933135Y-995806D01*
G01X933135Y-995806D02*
G01X998934Y-995806D01*
G36*
G01X1248994Y-598184D02*
G01X1170496Y-598184D01*
G01Y-567704D01*
G01X1248994D01*
G01Y-598184D01*
G37*
G36*
G01X925515Y-598184D02*
G01X1004014Y-598184D01*
G01Y-567704D01*
G01X925515D01*
G01Y-598184D01*
G37*
G01X-941850Y-273240D02*
G01X-800849Y-273240D01*
G01X-800849Y-92519D02*
G01X-941850Y-92519D01*
G01X-957090Y-107759D02*
G01X-957090Y-258000D01*
G01X-579610Y-273240D02*
G01X-720611Y-273240D01*
G01X-720611Y-92519D02*
G01X-579610Y-92519D01*
G01X-564370Y-107759D02*
G01X-564370Y-258000D01*
G01X-941850Y-92519D02*
G03X-957090Y-107759I0J-15240D01*
G01X-957090Y-258000D02*
G03X-941850Y-273240I15240J0D01*
G01X-579610Y-92519D02*
G02X-564370Y-107759I0J-15240D01*
G01X-564370Y-258000D02*
G02X-579610Y-273240I-15240J0D01*
G54D12*
G01X-226758Y-112423D02*
G01X-226758Y-192425D01*
G01X-337734Y-81437D02*
G01X-257736Y-81437D01*
G01X-337734Y-223403D02*
G01X-257736Y-223403D01*
G01X-395323Y-80856D02*
G01X-475323Y-80856D01*
G01X-506306Y-111839D02*
G01X-506306Y-191836D01*
G01X-395323Y-222816D02*
G01X-475323Y-222816D01*
G01X-506311Y-111839D02*
G02X-475328Y-80856I30983J0D01*
G01X-475328Y-222821D02*
G02X-506311Y-191836I0J30983D01*
G01X-257741Y-81437D02*
G02X-226758Y-112423I0J-30983D01*
G01X-226758Y-192420D02*
G02X-257741Y-223403I-30983J0D01*
G01X-761021Y1608995D02*
G01X-841024Y1608995D01*
G01X-730036Y1719970D02*
G01X-730036Y1639973D01*
G01X-872002Y1719970D02*
G01X-872002Y1639973D01*
G01X-729454Y1777560D02*
G01X-729454Y1857559D01*
G01X-760437Y1888542D02*
G01X-840434Y1888542D01*
G01X-871415Y1777560D02*
G01X-871415Y1857559D01*
G01X-760437Y1888547D02*
G02X-729454Y1857564I0J-30983D01*
G01X-871420Y1857564D02*
G02X-840434Y1888547I30983J0D01*
G01X-730036Y1639978D02*
G02X-761021Y1608995I-30983J0D01*
G01X-841019Y1608995D02*
G02X-872002Y1639978I0J30983D01*
G54D13*
G01X-508000Y-527000D02*
G01X-508000Y-273000D01*
G01X-508000Y-273000D02*
G01X508000Y-273000D01*
G01X508000Y-273000D02*
G01X508000Y-527000D01*
G01X508000Y-527000D02*
G01X317500Y-527000D01*
G54D10*
G01X-508000Y-527000D02*
G01X317500Y-527000D01*
G54D12*
G01X735993Y457518D02*
G01X735993Y657517D01*
G01X975985Y657517D02*
G01X975985Y457518D01*
G01X975985Y657517D02*
G01X956010Y657517D01*
G01X908375Y657517D02*
G01X905210Y657517D01*
G01X857575Y657517D02*
G01X854410Y657517D01*
G01X806775Y657517D02*
G01X803610Y657517D01*
G01X755975Y657517D02*
G01X735993Y657517D01*
G01X975985Y457518D02*
G01X956010Y457518D01*
G01X908375Y457518D02*
G01X905210Y457518D01*
G01X857575Y457518D02*
G01X854410Y457518D01*
G01X806775Y457518D02*
G01X803610Y457518D01*
G01X755975Y457518D02*
G01X735993Y457518D01*
G01X707123Y816003D02*
G01X707123Y896005D01*
G01X818098Y785017D02*
G01X738101Y785017D01*
G01X818098Y926983D02*
G01X738101Y926983D01*
G01X875688Y784436D02*
G01X955688Y784436D01*
G01X986671Y815419D02*
G01X986671Y895416D01*
G01X875688Y926396D02*
G01X955688Y926396D01*
G01X986676Y815419D02*
G02X955693Y784436I-30983J0D01*
G01X955693Y926402D02*
G02X986676Y895416I0J-30983D01*
G01X738106Y785017D02*
G02X707123Y816003I0J30983D01*
G01X707123Y896000D02*
G02X738106Y926983I30983J0D01*
G01X512382Y643227D02*
G01X512382Y563225D01*
G01X401406Y674213D02*
G01X481404Y674213D01*
G01X401406Y532247D02*
G01X481404Y532247D01*
G01X343817Y674794D02*
G01X263817Y674794D01*
G01X232834Y643811D02*
G01X232834Y563814D01*
G01X343817Y532834D02*
G01X263817Y532834D01*
G01X232829Y643811D02*
G02X263812Y674794I30983J0D01*
G01X263812Y532829D02*
G02X232829Y563814I0J30983D01*
G01X481399Y674213D02*
G02X512382Y643227I0J-30983D01*
G01X512382Y563230D02*
G02X481399Y532247I-30983J0D01*
G54D11*
G01X680740Y750011D02*
G01X680740Y845899D01*
G01X680740Y845899D02*
G01X548620Y845899D01*
G01X548620Y845899D02*
G01X548620Y750011D01*
G01X680740Y664769D02*
G01X680740Y568881D01*
G01X680740Y568881D02*
G01X548620Y568881D01*
G01X548620Y568881D02*
G01X548620Y664769D01*
G01X1153180Y-259639D02*
G01X1153180Y-163751D01*
G01X1153180Y-163751D02*
G01X1021060Y-163751D01*
G01X1021060Y-163751D02*
G01X1021060Y-259639D01*
G01X1153180Y-344881D02*
G01X1153180Y-440769D01*
G01X1153180Y-440769D02*
G01X1021060Y-440769D01*
G01X1021060Y-440769D02*
G01X1021060Y-344881D01*
G54D14*
G01X241531Y91671D02*
G01X241531Y119172D01*
G01X241531Y119172D02*
G01X311531Y119172D01*
G01X516529Y119172D02*
G01X586532Y119172D01*
G01X586532Y119172D02*
G01X586532Y91671D01*
G01X241531Y-198328D02*
G01X241531Y-225829D01*
G01X241531Y-225829D02*
G01X311531Y-225829D01*
G01X516529Y-225829D02*
G01X586532Y-225829D01*
G01X586532Y-225829D02*
G01X586532Y-198328D01*
G54D15*
G01X209052Y104153D02*
G03X209052Y103899I-12502J-127D01*
G54D11*
G01X423621Y714990D02*
G01X519509Y714990D01*
G01X519509Y714990D02*
G01X519509Y847110D01*
G01X519509Y847110D02*
G01X423621Y847110D01*
G01X338379Y714990D02*
G01X242491Y714990D01*
G01X242491Y714990D02*
G01X242491Y847110D01*
G01X242491Y847110D02*
G01X338379Y847110D01*
G01X786841Y-445790D02*
G01X882729Y-445790D01*
G01X882729Y-445790D02*
G01X882729Y-313670D01*
G01X882729Y-313670D02*
G01X786841Y-313670D01*
G01X701599Y-445790D02*
G01X605711Y-445790D01*
G01X605711Y-445790D02*
G01X605711Y-313670D01*
G01X605711Y-313670D02*
G01X701599Y-313670D01*
G54D12*
G01X151737Y4509D02*
G01X71735Y4509D01*
G01X182723Y115484D02*
G01X182723Y35486D01*
G01X40757Y115484D02*
G01X40757Y35486D01*
G01X183304Y173073D02*
G01X183304Y253073D01*
G01X152321Y284056D02*
G01X72324Y284056D01*
G01X41344Y173073D02*
G01X41344Y253073D01*
G01X152321Y284061D02*
G02X183304Y253078I0J-30983D01*
G01X41339Y253078D02*
G02X72324Y284061I30983J0D01*
G01X182723Y35491D02*
G02X151737Y4509I-30983J0D01*
G01X71740Y4509D02*
G02X40757Y35491I0J30983D01*
G01X520002Y282547D02*
G01X520002Y202545D01*
G01X409026Y313533D02*
G01X489024Y313533D01*
G01X409026Y171567D02*
G01X489024Y171567D01*
G01X351437Y314114D02*
G01X271437Y314114D01*
G01X240454Y283131D02*
G01X240454Y203134D01*
G01X351437Y172154D02*
G01X271437Y172154D01*
G01X240449Y283131D02*
G02X271432Y314114I30983J0D01*
G01X271432Y172149D02*
G02X240449Y203134I0J30983D01*
G01X489019Y313533D02*
G02X520002Y282547I0J-30983D01*
G01X520002Y202550D02*
G02X489019Y171567I-30983J0D01*
G54D11*
G01X-932866Y-579134D02*
G01X-932866Y-984376D01*
G01X-932866Y-984376D02*
G01X-998664Y-984376D01*
G01X-1241105Y-579134D02*
G01X-1241105Y-984376D01*
G01X-1241105Y-984376D02*
G01X-1175306Y-984376D01*
G36*
G01X-925246Y-586754D02*
G01X-1003744Y-586754D01*
G01Y-556274D01*
G01X-925246D01*
G01Y-586754D01*
G37*
G36*
G01X-1248725Y-586754D02*
G01X-1170226Y-586754D01*
G01Y-556274D01*
G01X-1248725D01*
G01Y-586754D01*
G37*
G01X-804469Y-497860D02*
G01X-708581Y-497860D01*
G01X-708581Y-497860D02*
G01X-708581Y-365740D01*
G01X-708581Y-365740D02*
G01X-804469Y-365740D01*
G01X-889711Y-497860D02*
G01X-985599Y-497860D01*
G01X-985599Y-497860D02*
G01X-985599Y-365740D01*
G01X-985599Y-365740D02*
G01X-889711Y-365740D01*
G01X805739Y1107460D02*
G01X709851Y1107460D01*
G01X709851Y1107460D02*
G01X709851Y975340D01*
G01X709851Y975340D02*
G01X805739Y975340D01*
G01X890981Y1107460D02*
G01X986869Y1107460D01*
G01X986869Y1107460D02*
G01X986869Y975340D01*
G01X986869Y975340D02*
G01X890981Y975340D01*
G01X-21399Y17000D02*
G01X-21399Y158001D01*
G01X-202120Y158001D02*
G01X-202120Y17000D01*
G01X-186880Y1760D02*
G01X-36639Y1760D01*
G01X-21399Y379240D02*
G01X-21399Y238239D01*
G01X-202120Y238239D02*
G01X-202120Y379240D01*
G01X-186880Y394480D02*
G01X-36639Y394480D01*
G01X-202120Y17000D02*
G03X-186880Y1760I15240J0D01*
G01X-36639Y1760D02*
G03X-21399Y17000I0J15240D01*
G01X-202120Y379240D02*
G02X-186880Y394480I15240J0D01*
G01X-36639Y394480D02*
G02X-21399Y379240I0J-15240D01*
G01X805739Y1360190D02*
G01X709851Y1360190D01*
G01X709851Y1360190D02*
G01X709851Y1228070D01*
G01X709851Y1228070D02*
G01X805739Y1228070D01*
G01X890981Y1360190D02*
G01X986869Y1360190D01*
G01X986869Y1360190D02*
G01X986869Y1228070D01*
G01X986869Y1228070D02*
G01X890981Y1228070D01*
G01X-1223310Y1400810D02*
G01X-928070Y1400810D01*
G01X-1223310Y1154692D02*
G01X-1223310Y1519928D01*
G01X-928070Y1154692D02*
G01X-928070Y1519928D01*
G01X-1223310Y1154692D02*
G01X-1214813Y1154692D01*
G01X-928070Y1154692D02*
G01X-936567Y1154692D01*
G36*
G01X-1230930Y1512311D02*
G01X-1209731Y1512311D01*
G01Y1558031D01*
G01X-1230930D01*
G01Y1512311D01*
G37*
G36*
G01X-920450Y1512311D02*
G01X-941649Y1512311D01*
G01Y1558031D01*
G01X-920450D01*
G01Y1512311D01*
G37*
G54D12*
G01X-842617Y1342962D02*
G01X-762615Y1342962D01*
G01X-873603Y1231986D02*
G01X-873603Y1311984D01*
G01X-731637Y1231986D02*
G01X-731637Y1311984D01*
G01X-874184Y1174397D02*
G01X-874184Y1094397D01*
G01X-843201Y1063414D02*
G01X-763204Y1063414D01*
G01X-732224Y1174397D02*
G01X-732224Y1094397D01*
G01X-843201Y1063409D02*
G02X-874184Y1094392I0J30983D01*
G01X-732218Y1094392D02*
G02X-763204Y1063409I-30983J0D01*
G01X-873603Y1311979D02*
G02X-842617Y1342962I30983J0D01*
G01X-762620Y1342962D02*
G02X-731637Y1311979I0J-30983D01*
G04 PolygonModel End*

G04 Rect Start*
G01X-658604Y2538254D02*
G01X-658604Y878262D01*
G01X661408D01*
G01Y2538254D01*
G01X-658604D01*
G36*
G01X773000Y-477970D02*
G01X773000Y-1121170D01*
G01X1270700D01*
G01Y-477970D01*
G01X773000D01*
G37*
G36*
G01X-1265418Y-521155D02*
G01X-1265418Y-1103355D01*
G01X-767718D01*
G01Y-521155D01*
G01X-1265418D01*
G37*
G04 Rect End*

G04 Circle Start*
G54D17*
G01X-755175Y1847145D02*
G03X-715195Y1847145I19990J0D01*
G03X-755175I-19990J0D01*
G54D12*
G01X997252Y-793187D02*
G03X1177252Y-793187I90000J0D01*
G03X997252I-90000J0D01*
G54D14*
G01X972980Y735317D02*
G03X992980Y735317I10000J0D01*
G03X972980I-10000J0D01*
G54D12*
G01X-1176988Y-781757D02*
G03X-996988Y-781757I90000J0D01*
G03X-1176988I-90000J0D01*
G04 Circle End*

M02*
