G04 Layer: BottomLayer*
G04 EasyEDA Pro v2.1.51.8c9149c1.e57db4, 2024-04-05 14:55:05*
G04 Gerber Generator version 0.3*
G04 Scale: 100 percent, Rotated: No, Reflected: No*
G04 Dimensions in millimeters*
G04 Leading zeros omitted, absolute positions, 3 integers and 5 decimals*
%FSLAX35Y35*%
%MOMM*%
%ADD8191C,0.2032*%
%ADD10C,0.254*%
%ADD11R,1.7X1.7*%
%ADD12C,1.7*%
%ADD13R,1.7X1.7*%
%ADD14R,1.7081X1.7*%
%ADD15R,1.7X1.7*%
%ADD16C,0.61*%
%ADD17C,0.8*%
%ADD18C,0.3*%
%ADD19C,0.256*%
%ADD20C,0.4*%
%ADD21C,0.7*%
G75*


G04 Copper Start*
G36*
G01X-1169295Y-1069395D02*
G02X-1233481Y-1005209I0J64186D01*
G01Y-89392D01*
G03X-1228000Y-89814I5481J35392D01*
G01X-1058000D01*
G03X-1022186Y-54000I0J35814D01*
G01Y116000D01*
G03X-1058000Y151814I-35814J0D01*
G01X-1228000D01*
G03X-1233481Y151392I0J-35814D01*
G01Y204943D01*
G03X-1143000Y164186I90481J80057D01*
G03X-1035852Y229186I0J120814D01*
G01X-990998D01*
G03X-951531Y245534I0J55814D01*
G01X-904532Y292533D01*
G03X-901634Y295661I-39466J39466D01*
G01Y-529340D01*
G03X-912134Y-565150I55814J-35810D01*
G03X-845820Y-631464I66314J0D01*
G03X-804881Y-617318I0J66314D01*
G03X-805110Y-625210I135584J-7891D01*
G01Y-1005209D01*
G02X-869296Y-1069395I-64186J0D01*
G01X-1169295D01*
G37*
G36*
G01X870701Y-1069395D02*
G02X806515Y-1005209I0J64186D01*
G01Y-625210D01*
G03X670701Y-489396I-135814J0D01*
G01X501543D01*
G03X501814Y-485000I-35543J4396D01*
G01Y-315000D01*
G03X466000Y-279186I-35814J0D01*
G01X296000D01*
G03X260186Y-315000I0J-35814D01*
G01Y-485000D01*
G03X260457Y-489396I35814J0D01*
G01X208267D01*
G03X247814Y-400000I-81267J89396D01*
G03X197814Y-302116I-120814J0D01*
G01Y-140000D01*
G03X177073Y-89927I-70814J0D01*
G01X86219Y927D01*
G03X17000Y45814I-69219J-30927D01*
G03X-45786Y12493I0J-75814D01*
G01Y297853D01*
G01X334211Y-82145D01*
G03X398999Y-134314I64788J14145D01*
G03X456561Y-100926I0J66314D01*
G01X554185Y-198550D01*
G01Y-232000D01*
G03X570532Y-271466I55814J0D01*
G01X841453Y-542386D01*
G03X880919Y-558734I39466J39466D01*
G01X896370D01*
G03X932180Y-569234I35810J55814D01*
G03X998494Y-502920I0J66314D01*
G03X932180Y-436606I-66314J0D01*
G03X901213Y-444281I0J-66314D01*
G01X665813Y-208881D01*
G01Y-175431D01*
G03X649465Y-135965I-55814J0D01*
G01X-77186Y590686D01*
G01Y852879D01*
G01X-62881Y867184D01*
G01X313999D01*
G03X353466Y883532I0J55814D01*
G01X471266Y1001332D01*
G03X487614Y1040799I-39466J39466D01*
G01Y1108460D01*
G03X498035Y1141029I-55814J35810D01*
G01X564185Y1074879D01*
G01Y770846D01*
G03X536999Y776674I-27186J-60485D01*
G03X491896Y758974I0J-66314D01*
G01X436361D01*
G03X401986Y744736I0J-48614D01*
G01X355624Y698374D01*
G03X341385Y663999I34375J-34375D01*
G01Y348999D01*
G03X355624Y314624I48614J0D01*
G01X624779Y45469D01*
G03X690999Y-17314I66220J3530D01*
G03X757313Y49000I0J66314D01*
G03X692451Y115298I-66314J0D01*
G01X438613Y369136D01*
G01Y643862D01*
G01X456497Y661746D01*
G01X491896D01*
G03X536999Y644046I45103J48614D01*
G03X564185Y649875I0J66314D01*
G01Y629999D01*
G03X580532Y590532I55814J0D01*
G01X608532Y562532D01*
G03X647999Y546185I39466J39466D01*
G01X702384D01*
G03X641076Y480060I5006J-66125D01*
G03X707390Y413746I66314J0D01*
G03X773134Y471385I0J66314D01*
G01X797998D01*
G03X832374Y485624I0J48614D01*
G01X862615Y515865D01*
G03X876854Y550240I-34375J34375D01*
G01Y1470460D01*
G03X862615Y1504835I-48614J0D01*
G01X817965Y1549485D01*
G03X794413Y1562504I-34375J-34375D01*
G03X748030Y1581424I-46383J-47394D01*
G03X681716Y1515110I0J-66314D01*
G03X695502Y1474633I66314J0D01*
G03X680446Y1432560I51258J-42073D01*
G03X698146Y1387457I66314J0D01*
G01Y780843D01*
G03X675813Y773993I7974J-65833D01*
G01Y1097998D01*
G03X659465Y1137464I-55814J0D01*
G01X522465Y1274464D01*
G03X482999Y1290811I-39466J-39466D01*
G01X373487D01*
G03X334021Y1274464I0J-55814D01*
G01X183369Y1123812D01*
G01X-360002D01*
G03X-399469Y1107464I0J-55814D01*
G01X-983465Y523468D01*
G03X-999812Y484002I39466J-39466D01*
G01Y355118D01*
G01X-1014116Y340814D01*
G01X-1035852D01*
G03X-1143000Y405814I-107148J-55814D01*
G03X-1233481Y365057I0J-120814D01*
G01Y458943D01*
G03X-1143000Y418186I90481J80057D01*
G03X-1022186Y539000I0J120814D01*
G03X-1143000Y659814I-120814J0D01*
G03X-1233481Y619057I0J-120814D01*
G01Y712943D01*
G03X-1143000Y672186I90481J80057D01*
G03X-1022186Y793000I0J120814D01*
G03X-1143000Y913814I-120814J0D01*
G03X-1233481Y873057I0J-120814D01*
G01Y1914785D01*
G02X-1169295Y1978971I64186J0D01*
G01X1170700D01*
G02X1234886Y1914785I0J-64186D01*
G01Y1421146D01*
G03X1228000Y1421814I-6886J-35146D01*
G01X1058000D01*
G03X1022186Y1386000I0J-35814D01*
G01Y1216000D01*
G03X1058000Y1180186I35814J0D01*
G01X1228000D01*
G03X1234886Y1180854I0J35814D01*
G01Y1125441D01*
G03X1143000Y1167814I-91886J-78441D01*
G03X1022186Y1047000I0J-120814D01*
G03X1143000Y926186I120814J0D01*
G03X1234886Y968559I0J120814D01*
G01Y871441D01*
G03X1143000Y913814I-91886J-78441D01*
G03X1022186Y793000I0J-120814D01*
G03X1143000Y672186I120814J0D01*
G03X1234886Y714559I0J120814D01*
G01Y617441D01*
G03X1143000Y659814I-91886J-78441D01*
G03X1022186Y539000I0J-120814D01*
G03X1143000Y418186I120814J0D01*
G03X1234886Y460559I0J120814D01*
G01Y363441D01*
G03X1143000Y405814I-91886J-78441D01*
G03X1022186Y285000I0J-120814D01*
G03X1143000Y164186I120814J0D01*
G03X1234886Y206559I0J120814D01*
G01Y109441D01*
G03X1143000Y151814I-91886J-78441D01*
G03X1022186Y31000I0J-120814D01*
G03X1143000Y-89814I120814J0D01*
G03X1234886Y-47441I0J120814D01*
G01Y-1005209D01*
G02X1170700Y-1069395I-64186J0D01*
G01X870701D01*
G37*
%LPC*%
G36*
G01X-986812Y988998D02*
G03X-910998Y913184I75814J0D01*
G03X-835184Y988998I0J75814D01*
G03X-840184Y1016074I-75814J0D01*
G01Y1539997D01*
G03X-860925Y1590070I-70814J0D01*
G01X-1018779Y1747924D01*
G03X-1087998Y1792810I-69219J-30927D01*
G03X-1163812Y1716997I0J-75814D01*
G03X-1118925Y1647778I75814J0D01*
G01X-981812Y1510665D01*
G01Y1016074D01*
G03X-986812Y988998I70814J-27076D01*
G37*
%LPD*%
G36*
G01X-669296Y-489396D02*
G03X-781560Y-548774I0J-135814D01*
G03X-790006Y-529340I-64260J-16376D01*
G01Y445058D01*
G01X-425813Y809251D01*
G01Y789809D01*
G03X-436313Y753998I55814J-35810D01*
G03X-369999Y687684I66314J0D01*
G03X-319813Y710652I0J66314D01*
G01Y466999D01*
G03X-303466Y427533I55814J0D01*
G01X-157414Y281481D01*
G01Y-96270D01*
G03X-167726Y-127092I55814J-35810D01*
G03X-177814Y-157480I40726J-30388D01*
G01Y-290392D01*
G03X-247814Y-400000I50814J-109608D01*
G03X-208267Y-489396I120814J0D01*
G01X-299733D01*
G03X-260186Y-400000I-81267J89396D01*
G03X-381000Y-279186I-120814J0D01*
G03X-501814Y-400000I0J-120814D01*
G03X-462267Y-489396I120814J0D01*
G01X-669296D01*
G37*
G36*
G01X-45733Y-489396D02*
G03X-6186Y-400000I-81267J89396D01*
G03X-76186Y-290392I-120814J0D01*
G01Y-193331D01*
G03X-35286Y-132080I-25414J61251D01*
G03X-45786Y-96270I-66314J0D01*
G01Y-72493D01*
G03X-13927Y-99219I62786J42493D01*
G01X56186Y-169332D01*
G01Y-302116D01*
G03X6186Y-400000I70814J-97884D01*
G03X45733Y-489396I120814J0D01*
G01X-45733D01*
G37*
G54D8191*
G01X-1169295Y-1069395D02*
G02X-1233481Y-1005209I0J64186D01*
G01Y-89392D01*
G03X-1228000Y-89814I5481J35392D01*
G01X-1058000D01*
G03X-1022186Y-54000I0J35814D01*
G01Y116000D01*
G03X-1058000Y151814I-35814J0D01*
G01X-1228000D01*
G03X-1233481Y151392I0J-35814D01*
G01Y204943D01*
G03X-1143000Y164186I90481J80057D01*
G03X-1035852Y229186I0J120814D01*
G01X-990998D01*
G03X-951531Y245534I0J55814D01*
G01X-904532Y292533D01*
G03X-901634Y295661I-39466J39466D01*
G01Y-529340D01*
G03X-912134Y-565150I55814J-35810D01*
G03X-845820Y-631464I66314J0D01*
G03X-804881Y-617318I0J66314D01*
G03X-805110Y-625210I135584J-7891D01*
G01Y-1005209D01*
G02X-869296Y-1069395I-64186J0D01*
G01X-1169295D01*
G01X870701Y-1069395D02*
G02X806515Y-1005209I0J64186D01*
G01Y-625210D01*
G03X670701Y-489396I-135814J0D01*
G01X501543D01*
G03X501814Y-485000I-35543J4396D01*
G01Y-315000D01*
G03X466000Y-279186I-35814J0D01*
G01X296000D01*
G03X260186Y-315000I0J-35814D01*
G01Y-485000D01*
G03X260457Y-489396I35814J0D01*
G01X208267D01*
G03X247814Y-400000I-81267J89396D01*
G03X197814Y-302116I-120814J0D01*
G01Y-140000D01*
G03X177073Y-89927I-70814J0D01*
G01X86219Y927D01*
G03X17000Y45814I-69219J-30927D01*
G03X-45786Y12493I0J-75814D01*
G01Y297853D01*
G01X334211Y-82145D01*
G03X398999Y-134314I64788J14145D01*
G03X456561Y-100926I0J66314D01*
G01X554185Y-198550D01*
G01Y-232000D01*
G03X570532Y-271466I55814J0D01*
G01X841453Y-542386D01*
G03X880919Y-558734I39466J39466D01*
G01X896370D01*
G03X932180Y-569234I35810J55814D01*
G03X998494Y-502920I0J66314D01*
G03X932180Y-436606I-66314J0D01*
G03X901213Y-444281I0J-66314D01*
G01X665813Y-208881D01*
G01Y-175431D01*
G03X649465Y-135965I-55814J0D01*
G01X-77186Y590686D01*
G01Y852879D01*
G01X-62881Y867184D01*
G01X313999D01*
G03X353466Y883532I0J55814D01*
G01X471266Y1001332D01*
G03X487614Y1040799I-39466J39466D01*
G01Y1108460D01*
G03X498035Y1141029I-55814J35810D01*
G01X564185Y1074879D01*
G01Y770846D01*
G03X536999Y776674I-27186J-60485D01*
G03X491896Y758974I0J-66314D01*
G01X436361D01*
G03X401986Y744736I0J-48614D01*
G01X355624Y698374D01*
G03X341385Y663999I34375J-34375D01*
G01Y348999D01*
G03X355624Y314624I48614J0D01*
G01X624779Y45469D01*
G03X690999Y-17314I66220J3530D01*
G03X757313Y49000I0J66314D01*
G03X692451Y115298I-66314J0D01*
G01X438613Y369136D01*
G01Y643862D01*
G01X456497Y661746D01*
G01X491896D01*
G03X536999Y644046I45103J48614D01*
G03X564185Y649875I0J66314D01*
G01Y629999D01*
G03X580532Y590532I55814J0D01*
G01X608532Y562532D01*
G03X647999Y546185I39466J39466D01*
G01X702384D01*
G03X641076Y480060I5006J-66125D01*
G03X707390Y413746I66314J0D01*
G03X773134Y471385I0J66314D01*
G01X797998D01*
G03X832374Y485624I0J48614D01*
G01X862615Y515865D01*
G03X876854Y550240I-34375J34375D01*
G01Y1470460D01*
G03X862615Y1504835I-48614J0D01*
G01X817965Y1549485D01*
G03X794413Y1562504I-34375J-34375D01*
G03X748030Y1581424I-46383J-47394D01*
G03X681716Y1515110I0J-66314D01*
G03X695502Y1474633I66314J0D01*
G03X680446Y1432560I51258J-42073D01*
G03X698146Y1387457I66314J0D01*
G01Y780843D01*
G03X675813Y773993I7974J-65833D01*
G01Y1097998D01*
G03X659465Y1137464I-55814J0D01*
G01X522465Y1274464D01*
G03X482999Y1290811I-39466J-39466D01*
G01X373487D01*
G03X334021Y1274464I0J-55814D01*
G01X183369Y1123812D01*
G01X-360002D01*
G03X-399469Y1107464I0J-55814D01*
G01X-983465Y523468D01*
G03X-999812Y484002I39466J-39466D01*
G01Y355118D01*
G01X-1014116Y340814D01*
G01X-1035852D01*
G03X-1143000Y405814I-107148J-55814D01*
G03X-1233481Y365057I0J-120814D01*
G01Y458943D01*
G03X-1143000Y418186I90481J80057D01*
G03X-1022186Y539000I0J120814D01*
G03X-1143000Y659814I-120814J0D01*
G03X-1233481Y619057I0J-120814D01*
G01Y712943D01*
G03X-1143000Y672186I90481J80057D01*
G03X-1022186Y793000I0J120814D01*
G03X-1143000Y913814I-120814J0D01*
G03X-1233481Y873057I0J-120814D01*
G01Y1914785D01*
G02X-1169295Y1978971I64186J0D01*
G01X1170700D01*
G02X1234886Y1914785I0J-64186D01*
G01Y1421146D01*
G03X1228000Y1421814I-6886J-35146D01*
G01X1058000D01*
G03X1022186Y1386000I0J-35814D01*
G01Y1216000D01*
G03X1058000Y1180186I35814J0D01*
G01X1228000D01*
G03X1234886Y1180854I0J35814D01*
G01Y1125441D01*
G03X1143000Y1167814I-91886J-78441D01*
G03X1022186Y1047000I0J-120814D01*
G03X1143000Y926186I120814J0D01*
G03X1234886Y968559I0J120814D01*
G01Y871441D01*
G03X1143000Y913814I-91886J-78441D01*
G03X1022186Y793000I0J-120814D01*
G03X1143000Y672186I120814J0D01*
G03X1234886Y714559I0J120814D01*
G01Y617441D01*
G03X1143000Y659814I-91886J-78441D01*
G03X1022186Y539000I0J-120814D01*
G03X1143000Y418186I120814J0D01*
G03X1234886Y460559I0J120814D01*
G01Y363441D01*
G03X1143000Y405814I-91886J-78441D01*
G03X1022186Y285000I0J-120814D01*
G03X1143000Y164186I120814J0D01*
G03X1234886Y206559I0J120814D01*
G01Y109441D01*
G03X1143000Y151814I-91886J-78441D01*
G03X1022186Y31000I0J-120814D01*
G03X1143000Y-89814I120814J0D01*
G03X1234886Y-47441I0J120814D01*
G01Y-1005209D01*
G02X1170700Y-1069395I-64186J0D01*
G01X870701D01*
G01X-986812Y988998D02*
G03X-910998Y913184I75814J0D01*
G03X-835184Y988998I0J75814D01*
G03X-840184Y1016074I-75814J0D01*
G01Y1539997D01*
G03X-860925Y1590070I-70814J0D01*
G01X-1018779Y1747924D01*
G03X-1087998Y1792810I-69219J-30927D01*
G03X-1163812Y1716997I0J-75814D01*
G03X-1118925Y1647778I75814J0D01*
G01X-981812Y1510665D01*
G01Y1016074D01*
G03X-986812Y988998I70814J-27076D01*
G01X-669296Y-489396D02*
G03X-781560Y-548774I0J-135814D01*
G03X-790006Y-529340I-64260J-16376D01*
G01Y445058D01*
G01X-425813Y809251D01*
G01Y789809D01*
G03X-436313Y753998I55814J-35810D01*
G03X-369999Y687684I66314J0D01*
G03X-319813Y710652I0J66314D01*
G01Y466999D01*
G03X-303466Y427533I55814J0D01*
G01X-157414Y281481D01*
G01Y-96270D01*
G03X-167726Y-127092I55814J-35810D01*
G03X-177814Y-157480I40726J-30388D01*
G01Y-290392D01*
G03X-247814Y-400000I50814J-109608D01*
G03X-208267Y-489396I120814J0D01*
G01X-299733D01*
G03X-260186Y-400000I-81267J89396D01*
G03X-381000Y-279186I-120814J0D01*
G03X-501814Y-400000I0J-120814D01*
G03X-462267Y-489396I120814J0D01*
G01X-669296D01*
G01X-45733Y-489396D02*
G03X-6186Y-400000I-81267J89396D01*
G03X-76186Y-290392I-120814J0D01*
G01Y-193331D01*
G03X-35286Y-132080I-25414J61251D01*
G03X-45786Y-96270I-66314J0D01*
G01Y-72493D01*
G03X-13927Y-99219I62786J42493D01*
G01X56186Y-169332D01*
G01Y-302116D01*
G03X6186Y-400000I70814J-97884D01*
G03X45733Y-489396I120814J0D01*
G01X-45733D01*
G54D10*
G01X-1143000Y793000D02*
G01X-1143000Y682092D01*
G01X-1143000Y793000D02*
G01X-1143000Y903908D01*
G01X-1143000Y793000D02*
G01X-1032092Y793000D01*
G01X381000Y-400000D02*
G01X491908Y-400000D01*
G01X381000Y-400000D02*
G01X270092Y-400000D01*
G01X381000Y-400000D02*
G01X381000Y-289092D01*
G04 Copper End*

G04 Pad Start*
G54D11*
G01X1143000Y1301000D03*
G54D12*
G01X1143000Y1047000D03*
G01X1143000Y793000D03*
G01X1143000Y539000D03*
G01X1143000Y285000D03*
G01X1143000Y31000D03*
G54D13*
G01X381000Y-400000D03*
G54D12*
G01X127000Y-400000D03*
G01X-127000Y-400000D03*
G01X-381000Y-400000D03*
G54D15*
G01X-1143000Y31000D03*
G54D12*
G01X-1143000Y285000D03*
G01X-1143000Y539000D03*
G01X-1143000Y793000D03*
G04 Pad End*

G04 Via Start*
G54D16*
G01X-101600Y-132080D03*
G01X707390Y480060D03*
G01X706120Y715010D03*
G01X746760Y1432560D03*
G01X748030Y1515110D03*
G01X344170Y1082040D03*
G01X431800Y1144270D03*
G01X932180Y-502920D03*
G01X-845820Y-565150D03*
G01X766998Y602999D03*
G01X-369999Y753998D03*
G01X-260999Y766998D03*
G01X398999Y-68000D03*
G54D17*
G01X17000Y-30000D03*
G01X-1087998Y1716997D03*
G01X-910998Y988998D03*
G54D16*
G01X-18000Y-176000D03*
G01X661999Y-109000D03*
G01X-405999Y1791996D03*
G01X-319999Y1793996D03*
G01X-234303Y1793996D03*
G01X-144000Y1795996D03*
G01X-56000Y1795996D03*
G01X25000Y1796996D03*
G01X456499Y1799497D03*
G01X368499Y1799497D03*
G01X278196Y1797497D03*
G01X192500Y1797497D03*
G01X106500Y1795497D03*
G01X-409061Y1708258D03*
G01X-411468Y1618866D03*
G01X-414530Y1535127D03*
G01X-412999Y1451363D03*
G01X-416061Y1367625D03*
G01X-414530Y1290810D03*
G01X-417593Y1207072D03*
G01X459530Y1710866D03*
G01X456468Y1627127D03*
G01X457999Y1528171D03*
G01X454937Y1444433D03*
G01X455530Y1358867D03*
G01X536999Y710360D03*
G01X690999Y49000D03*
G01X-371999Y474999D03*
G01X-639999Y465999D03*
G01X-1077998Y-253999D03*
G01X-521999Y-63000D03*
G01X-1006998Y-149000D03*
G01X-770998Y986998D03*
G01X-804998Y917998D03*
G01X968998Y1440997D03*
G01X1029998Y927998D03*
G01X1036462Y663499D03*
G01X179000Y794998D03*
G04 Via End*

G04 Track Start*
G54D18*
G01X-127000Y-157480D02*
G01X-127000Y-400000D01*
G01X-101600Y-132080D02*
G01X-127000Y-157480D01*
G54D19*
G01X748030Y1515110D02*
G01X783590Y1515110D01*
G01X828240Y1470460D01*
G01X706120Y715010D02*
G01X746760Y755650D01*
G01Y1432560D01*
G54D20*
G01X344170Y1082040D02*
G01X254128Y991998D01*
G01X-1143000Y285000D02*
G01X-990998Y285000D01*
G01X-943998Y331999D01*
G01X482999Y1234998D02*
G01X619999Y1097998D01*
G01X619999Y629999D02*
G01X647999Y601999D01*
G01X765998D01*
G01X766998Y602999D01*
G01X619999Y1097998D02*
G01X619999Y629999D01*
G54D19*
G01X828240Y1470460D02*
G01X828240Y550240D01*
G01X797998Y519999D01*
G01X747329D01*
G01X707390Y480060D01*
G54D20*
G01X-101600Y304600D02*
G01X-101600Y-132080D01*
G54D21*
G01X127000Y-400000D02*
G01X127000Y-140000D01*
G01X17000Y-30000D01*
G01X-910998Y988998D02*
G01X-910998Y1539997D01*
G01X-1087998Y1716997D01*
G54D20*
G01X932180Y-502920D02*
G01X880919Y-502920D01*
G01X609999Y-232000D01*
G01X431800Y1040799D02*
G01X431800Y1144270D01*
G01X313999Y922998D02*
G01X431800Y1040799D01*
G01X-260999Y766998D02*
G01X-263999Y763998D01*
G01Y466999D01*
G01X-101600Y304600D01*
G01X-369999Y753998D02*
G01X-369999Y818998D01*
G01X-324999Y863998D01*
G01X-226000D01*
G01X-195000Y832998D01*
G01X-133000Y875998D02*
G01X-86000Y922998D01*
G01X313999D01*
G01X609999Y-232000D02*
G01X609999Y-175431D01*
G01X-133000Y567568D01*
G01Y875998D01*
G01X-195000Y832998D02*
G01X-195000Y525999D01*
G01X398999Y-68000D01*
G54D19*
G01X536999Y710360D02*
G01X436361Y710360D01*
G01X389999Y663999D01*
G01Y348999D01*
G01X689999Y49000D01*
G01X-18000Y-176000D02*
G01X-18000Y-132700D01*
G01X-55000Y-95700D01*
G01X-55000Y54000D02*
G01X-17000Y92000D01*
G01X100000D01*
G01X381000Y-189000D02*
G01X381000Y-400000D01*
G01X-55000Y-95700D02*
G01X-55000Y54000D01*
G01X100000Y92000D02*
G01X381000Y-189000D01*
G54D20*
G01X254128Y991998D02*
G01X-321999Y991998D01*
G01X-845820Y468177D01*
G01Y-565150D01*
G01X-943998Y331999D02*
G01X-943998Y484002D01*
G01X-360002Y1067998D01*
G01X206488D01*
G01X373487Y1234998D01*
G01X482999D01*
G04 Track End*

M02*
