ISO-10303-21;
HEADER;

/* File generated by Shapr3D Version 5.880.0.8980 */

FILE_DESCRIPTION(('HOOPS Exchange Step'),'2;1');

FILE_NAME('/private/var/mobile/Containers/Data/Application/1A2F1CC1-DE3C-4D95-B908-0E143EF96F37/tmp/export/temp_export',
'2025-06-24T18:43:45+08:00',
('mobile'),
('Shapr3D Limited'),
'HOOPS Exchange 2024.8',
'Shapr3D',
'Authorized');

FILE_SCHEMA( ('AP242_MANAGED_MODEL_BASED_3D_ENGINEERING_MIM_LF {1 0 10303 442 1 1 4}') );

ENDSEC;

DATA;
#3=(NAMED_UNIT(*)PLANE_ANGLE_UNIT()SI_UNIT($,.RADIAN.));
#4=PLANE_ANGLE_MEASURE_WITH_UNIT(PLANE_ANGLE_MEASURE(0.0174532925),#3);
#5=(CONVERSION_BASED_UNIT('DEGREE',#4)NAMED_UNIT(#6)PLANE_ANGLE_UNIT());
#6=DIMENSIONAL_EXPONENTS(0.,0.,0.,0.,0.,0.,0.);
#7=(NAMED_UNIT(*)SI_UNIT($,.STERADIAN.)SOLID_ANGLE_UNIT());
#8=(LENGTH_UNIT()NAMED_UNIT(*)SI_UNIT(.MILLI.,.METRE.));
#9=UNCERTAINTY_MEASURE_WITH_UNIT(LENGTH_MEASURE(1.000000E-03),#8,'DISTANCE_ACCURACY_VALUE','Maximum Tolerance applied to model');
#10=(GEOMETRIC_REPRESENTATION_CONTEXT(3)GLOBAL_UNCERTAINTY_ASSIGNED_CONTEXT((#9))GLOBAL_UNIT_ASSIGNED_CONTEXT((#8,#5,#7))REPRESENTATION_CONTEXT('','root'));
#12=CARTESIAN_POINT('',(0.,0.,0.));
#13=DIRECTION('',(0.,0.,1.));
#14=DIRECTION('',(1.,0.,0.));
#15=AXIS2_PLACEMENT_3D('TS3D_PRODUCT_CSYS',#12,#13,#14);
#26=(NAMED_UNIT(*)PLANE_ANGLE_UNIT()SI_UNIT($,.RADIAN.));
#27=PLANE_ANGLE_MEASURE_WITH_UNIT(PLANE_ANGLE_MEASURE(0.0174532925),#26);
#28=(CONVERSION_BASED_UNIT('DEGREE',#27)NAMED_UNIT(#29)PLANE_ANGLE_UNIT());
#29=DIMENSIONAL_EXPONENTS(0.,0.,0.,0.,0.,0.,0.);
#30=(NAMED_UNIT(*)SI_UNIT($,.STERADIAN.)SOLID_ANGLE_UNIT());
#31=(LENGTH_UNIT()NAMED_UNIT(*)SI_UNIT(.MILLI.,.METRE.));
#32=UNCERTAINTY_MEASURE_WITH_UNIT(LENGTH_MEASURE(1.000000E-03),#31,'DISTANCE_ACCURACY_VALUE','Maximum Tolerance applied to model');
#33=(GEOMETRIC_REPRESENTATION_CONTEXT(3)GLOBAL_UNCERTAINTY_ASSIGNED_CONTEXT((#32))GLOBAL_UNIT_ASSIGNED_CONTEXT((#31,#28,#30))REPRESENTATION_CONTEXT('','\X2\4E8C697C\X0\.step'));
#45=CARTESIAN_POINT('',(0.,0.,0.));
#46=DIRECTION('',(0.,0.,1.));
#47=DIRECTION('',(1.,0.,-0.));
#48=AXIS2_PLACEMENT_3D('',#45,#46,#47);
#49=ITEM_DEFINED_TRANSFORMATION('','',#48,#15);
#50=(REPRESENTATION_RELATIONSHIP('','',#35,#16)REPRESENTATION_RELATIONSHIP_WITH_TRANSFORMATION(#49)SHAPE_REPRESENTATION_RELATIONSHIP());
#51=NEXT_ASSEMBLY_USAGE_OCCURRENCE('\X2\4E8C697C\X0\.step_1','\X2\4E8C697C\X0\.step','\X2\4E8C697C\X0\.step',#25,#44,$);
#52=PRODUCT_DEFINITION_SHAPE('','',#51);
#53=CONTEXT_DEPENDENT_SHAPE_REPRESENTATION(#50,#52);
#54=(NAMED_UNIT(*)PLANE_ANGLE_UNIT()SI_UNIT($,.RADIAN.));
#55=PLANE_ANGLE_MEASURE_WITH_UNIT(PLANE_ANGLE_MEASURE(0.0174532925),#54);
#56=(CONVERSION_BASED_UNIT('DEGREE',#55)NAMED_UNIT(#57)PLANE_ANGLE_UNIT());
#57=DIMENSIONAL_EXPONENTS(0.,0.,0.,0.,0.,0.,0.);
#58=(NAMED_UNIT(*)SI_UNIT($,.STERADIAN.)SOLID_ANGLE_UNIT());
#59=(LENGTH_UNIT()NAMED_UNIT(*)SI_UNIT(.MILLI.,.METRE.));
#60=UNCERTAINTY_MEASURE_WITH_UNIT(LENGTH_MEASURE(1.000000E-03),#59,'DISTANCE_ACCURACY_VALUE','Maximum Tolerance applied to model');
#61=(GEOMETRIC_REPRESENTATION_CONTEXT(3)GLOBAL_UNCERTAINTY_ASSIGNED_CONTEXT((#60))GLOBAL_UNIT_ASSIGNED_CONTEXT((#59,#56,#58))REPRESENTATION_CONTEXT('','\X2\76D8740360AC6302\X0\.stp'));
#73=CARTESIAN_POINT('',(0.,0.,0.));
#74=DIRECTION('',(0.,0.,1.));
#75=DIRECTION('',(1.,0.,-0.));
#76=AXIS2_PLACEMENT_3D('',#73,#74,#75);
#77=ITEM_DEFINED_TRANSFORMATION('','',#76,#15);
#78=(REPRESENTATION_RELATIONSHIP('','',#63,#35)REPRESENTATION_RELATIONSHIP_WITH_TRANSFORMATION(#77)SHAPE_REPRESENTATION_RELATIONSHIP());
#79=NEXT_ASSEMBLY_USAGE_OCCURRENCE('\X2\76D8740360AC6302\X0\.stp_2','\X2\76D8740360AC6302\X0\.stp','\X2\76D8740360AC6302\X0\.stp',#44,#72,$);
#80=PRODUCT_DEFINITION_SHAPE('','',#79);
#81=CONTEXT_DEPENDENT_SHAPE_REPRESENTATION(#78,#80);
#82=(NAMED_UNIT(*)PLANE_ANGLE_UNIT()SI_UNIT($,.RADIAN.));
#83=PLANE_ANGLE_MEASURE_WITH_UNIT(PLANE_ANGLE_MEASURE(0.0174532925),#82);
#84=(CONVERSION_BASED_UNIT('DEGREE',#83)NAMED_UNIT(#85)PLANE_ANGLE_UNIT());
#85=DIMENSIONAL_EXPONENTS(0.,0.,0.,0.,0.,0.,0.);
#86=(NAMED_UNIT(*)SI_UNIT($,.STERADIAN.)SOLID_ANGLE_UNIT());
#87=(LENGTH_UNIT()NAMED_UNIT(*)SI_UNIT(.MILLI.,.METRE.));
#88=UNCERTAINTY_MEASURE_WITH_UNIT(LENGTH_MEASURE(1.000000E-05),#87,'DISTANCE_ACCURACY_VALUE','Maximum Tolerance applied to model');
#89=(GEOMETRIC_REPRESENTATION_CONTEXT(3)GLOBAL_UNCERTAINTY_ASSIGNED_CONTEXT((#88))GLOBAL_UNIT_ASSIGNED_CONTEXT((#87,#84,#86))REPRESENTATION_CONTEXT('','_____'));
#101=CARTESIAN_POINT('',(0.,0.,0.));
#102=DIRECTION('',(0.,0.,1.));
#103=DIRECTION('',(1.,0.,-0.));
#104=AXIS2_PLACEMENT_3D('',#101,#102,#103);
#105=ITEM_DEFINED_TRANSFORMATION('','',#104,#15);
#106=(REPRESENTATION_RELATIONSHIP('','',#91,#63)REPRESENTATION_RELATIONSHIP_WITH_TRANSFORMATION(#105)SHAPE_REPRESENTATION_RELATIONSHIP());
#107=NEXT_ASSEMBLY_USAGE_OCCURRENCE('______3','_____','_____',#72,#100,$);
#108=PRODUCT_DEFINITION_SHAPE('','',#107);
#109=CONTEXT_DEPENDENT_SHAPE_REPRESENTATION(#106,#108);
#111=CARTESIAN_POINT('',(436.099614638,339.576923383,52.875044556));
#112=DIRECTION('',(-0.006215594,-0.999980683,-0.));
#113=DIRECTION('',(0.,0.,-1.));
#114=AXIS2_PLACEMENT_3D('',#111,#112,#113);
#115=PLANE('',#114);
#116=CARTESIAN_POINT('',(399.100329367,339.806900378,52.875044556));
#117=VERTEX_POINT('',#116);
#118=CARTESIAN_POINT('',(399.100329367,339.806900378,55.775044556));
#119=VERTEX_POINT('',#118);
#120=CARTESIAN_POINT('',(399.100329367,339.806900378,52.875044556));
#121=DIRECTION('',(-0.,-0.,1.));
#122=VECTOR('',#121,2.9);
#123=LINE('',#120,#122);
#124=EDGE_CURVE('',#117,#119,#123,.T.);
#125=ORIENTED_EDGE('',*,*,#124,.T.);
#126=CARTESIAN_POINT('',(436.099614638,339.576923383,55.775044556));
#127=VERTEX_POINT('',#126);
#128=CARTESIAN_POINT('',(436.099614638,339.576923383,55.775044556));
#129=DIRECTION('',(-0.999980683,0.006215594,-0.));
#130=VECTOR('',#129,37.);
#131=LINE('',#128,#130);
#132=EDGE_CURVE('',#127,#119,#131,.T.);
#133=ORIENTED_EDGE('',*,*,#132,.F.);
#134=CARTESIAN_POINT('',(436.099614638,339.576923383,52.875044556));
#135=VERTEX_POINT('',#134);
#136=CARTESIAN_POINT('',(436.099614638,339.576923383,52.875044556));
#137=DIRECTION('',(-0.,-0.,1.));
#138=VECTOR('',#137,2.9);
#139=LINE('',#136,#138);
#140=EDGE_CURVE('',#135,#127,#139,.T.);
#141=ORIENTED_EDGE('',*,*,#140,.F.);
#142=CARTESIAN_POINT('',(436.099614638,339.576923383,52.875044556));
#143=DIRECTION('',(-0.999980683,0.006215594,-0.));
#144=VECTOR('',#143,37.);
#145=LINE('',#142,#144);
#146=EDGE_CURVE('',#135,#117,#145,.T.);
#147=ORIENTED_EDGE('',*,*,#146,.T.);
#148=EDGE_LOOP('',(#125,#133,#141,#147));
#149=FACE_BOUND('',#148,.T.);
#150=ADVANCED_FACE('',(#149),#115,.F.);
#151=CARTESIAN_POINT('',(436.099614638,339.576923383,51.425044556));
#152=DIRECTION('',(0.999980683,-0.006215594,0.));
#153=DIRECTION('',(-0.,-0.,1.));
#154=AXIS2_PLACEMENT_3D('',#151,#152,#153);
#155=PLANE('',#154);
#156=CARTESIAN_POINT('',(436.084004336,337.065498227,57.225044556));
#157=VERTEX_POINT('',#156);
#158=CARTESIAN_POINT('',(436.099614638,339.576923383,55.775044556));
#159=DIRECTION('',(-0.005382863,-0.866008675,0.5));
#160=VECTOR('',#159,2.899999999);
#161=LINE('',#158,#160);
#162=EDGE_CURVE('',#127,#157,#161,.T.);
#163=ORIENTED_EDGE('',*,*,#162,.T.);
#164=CARTESIAN_POINT('',(436.068394034,334.554073069,55.775044556));
#165=VERTEX_POINT('',#164);
#166=CARTESIAN_POINT('',(436.084004336,337.065498227,57.225044556));
#167=DIRECTION('',(-0.005382863,-0.866008675,-0.5));
#168=VECTOR('',#167,2.900000001);
#169=LINE('',#166,#168);
#170=EDGE_CURVE('',#157,#165,#169,.T.);
#171=ORIENTED_EDGE('',*,*,#170,.T.);
#172=CARTESIAN_POINT('',(436.068394034,334.554073069,52.875044556));
#173=VERTEX_POINT('',#172);
#174=CARTESIAN_POINT('',(436.068394034,334.554073069,55.775044556));
#175=DIRECTION('',(0.,0.,-1.));
#176=VECTOR('',#175,2.9);
#177=LINE('',#174,#176);
#178=EDGE_CURVE('',#165,#173,#177,.T.);
#179=ORIENTED_EDGE('',*,*,#178,.T.);
#180=CARTESIAN_POINT('',(436.084004336,337.065498227,51.425044556));
#181=VERTEX_POINT('',#180);
#182=CARTESIAN_POINT('',(436.068394034,334.554073069,52.875044556));
#183=DIRECTION('',(0.005382863,0.866008675,-0.5));
#184=VECTOR('',#183,2.900000001);
#185=LINE('',#182,#184);
#186=EDGE_CURVE('',#173,#181,#185,.T.);
#187=ORIENTED_EDGE('',*,*,#186,.T.);
#188=CARTESIAN_POINT('',(436.084004336,337.065498227,51.425044556));
#189=DIRECTION('',(0.005382863,0.866008675,0.5));
#190=VECTOR('',#189,2.899999999);
#191=LINE('',#188,#190);
#192=EDGE_CURVE('',#181,#135,#191,.T.);
#193=ORIENTED_EDGE('',*,*,#192,.T.);
#194=ORIENTED_EDGE('',*,*,#140,.T.);
#195=EDGE_LOOP('',(#163,#171,#179,#187,#193,#194));
#196=FACE_BOUND('',#195,.T.);
#197=ADVANCED_FACE('',(#196),#155,.T.);
#198=CARTESIAN_POINT('',(436.084004336,337.065498227,51.425044556));
#199=DIRECTION('',(-0.003107797,-0.499990342,0.866025404));
#200=DIRECTION('',(-0.005382863,-0.866008675,-0.5));
#201=AXIS2_PLACEMENT_3D('',#198,#199,#200);
#202=PLANE('',#201);
#203=CARTESIAN_POINT('',(399.084719065,337.295475221,51.425044556));
#204=VERTEX_POINT('',#203);
#205=CARTESIAN_POINT('',(399.084719065,337.295475221,51.425044556));
#206=DIRECTION('',(0.005382863,0.866008675,0.5));
#207=VECTOR('',#206,2.9);
#208=LINE('',#205,#207);
#209=EDGE_CURVE('',#204,#117,#208,.T.);
#210=ORIENTED_EDGE('',*,*,#209,.T.);
#211=ORIENTED_EDGE('',*,*,#146,.F.);
#212=ORIENTED_EDGE('',*,*,#192,.F.);
#213=CARTESIAN_POINT('',(436.084004336,337.065498227,51.425044556));
#214=DIRECTION('',(-0.999980683,0.006215594,-0.));
#215=VECTOR('',#214,37.);
#216=LINE('',#213,#215);
#217=EDGE_CURVE('',#181,#204,#216,.T.);
#218=ORIENTED_EDGE('',*,*,#217,.T.);
#219=EDGE_LOOP('',(#210,#211,#212,#218));
#220=FACE_BOUND('',#219,.T.);
#221=ADVANCED_FACE('',(#220),#202,.F.);
#222=CARTESIAN_POINT('',(436.099614638,339.576923383,55.775044556));
#223=DIRECTION('',(-0.003107797,-0.499990342,-0.866025404));
#224=DIRECTION('',(0.005382863,0.866008675,-0.5));
#225=AXIS2_PLACEMENT_3D('',#222,#223,#224);
#226=PLANE('',#225);
#227=CARTESIAN_POINT('',(399.084719065,337.295475222,57.225044556));
#228=VERTEX_POINT('',#227);
#229=CARTESIAN_POINT('',(399.100329367,339.806900378,55.775044556));
#230=DIRECTION('',(-0.005382863,-0.866008675,0.5));
#231=VECTOR('',#230,2.899999999);
#232=LINE('',#229,#231);
#233=EDGE_CURVE('',#119,#228,#232,.T.);
#234=ORIENTED_EDGE('',*,*,#233,.T.);
#235=CARTESIAN_POINT('',(436.084004336,337.065498227,57.225044556));
#236=DIRECTION('',(-0.999980683,0.006215594,-0.));
#237=VECTOR('',#236,37.);
#238=LINE('',#235,#237);
#239=EDGE_CURVE('',#157,#228,#238,.T.);
#240=ORIENTED_EDGE('',*,*,#239,.F.);
#241=ORIENTED_EDGE('',*,*,#162,.F.);
#242=ORIENTED_EDGE('',*,*,#132,.T.);
#243=EDGE_LOOP('',(#234,#240,#241,#242));
#244=FACE_BOUND('',#243,.T.);
#245=ADVANCED_FACE('',(#244),#226,.F.);
#246=CARTESIAN_POINT('',(436.084004336,337.065498227,57.225044556));
#247=DIRECTION('',(0.003107797,0.499990342,-0.866025404));
#248=DIRECTION('',(0.005382863,0.866008675,0.5));
#249=AXIS2_PLACEMENT_3D('',#246,#247,#248);
#250=PLANE('',#249);
#251=CARTESIAN_POINT('',(399.069108763,334.784050065,55.775044555));
#252=VERTEX_POINT('',#251);
#253=CARTESIAN_POINT('',(399.084719065,337.295475222,57.225044556));
#254=DIRECTION('',(-0.005382863,-0.866008675,-0.5));
#255=VECTOR('',#254,2.900000001);
#256=LINE('',#253,#255);
#257=EDGE_CURVE('',#228,#252,#256,.T.);
#258=ORIENTED_EDGE('',*,*,#257,.T.);
#259=CARTESIAN_POINT('',(436.068394034,334.554073069,55.775044556));
#260=DIRECTION('',(-0.999980683,0.006215594,-0.));
#261=VECTOR('',#260,37.);
#262=LINE('',#259,#261);
#263=EDGE_CURVE('',#165,#252,#262,.T.);
#264=ORIENTED_EDGE('',*,*,#263,.F.);
#265=ORIENTED_EDGE('',*,*,#170,.F.);
#266=ORIENTED_EDGE('',*,*,#239,.T.);
#267=EDGE_LOOP('',(#258,#264,#265,#266));
#268=FACE_BOUND('',#267,.T.);
#269=ADVANCED_FACE('',(#268),#250,.F.);
#270=CARTESIAN_POINT('',(436.068394034,334.554073069,55.775044556));
#271=DIRECTION('',(0.006215594,0.999980683,0.));
#272=DIRECTION('',(-0.,-0.,1.));
#273=AXIS2_PLACEMENT_3D('',#270,#271,#272);
#274=PLANE('',#273);
#275=CARTESIAN_POINT('',(399.069108763,334.784050065,52.875044556));
#276=VERTEX_POINT('',#275);
#277=CARTESIAN_POINT('',(399.069108763,334.784050065,55.775044555));
#278=DIRECTION('',(0.,0.,-1.));
#279=VECTOR('',#278,2.899999999);
#280=LINE('',#277,#279);
#281=EDGE_CURVE('',#252,#276,#280,.T.);
#282=ORIENTED_EDGE('',*,*,#281,.T.);
#283=CARTESIAN_POINT('',(436.068394034,334.554073069,52.875044556));
#284=DIRECTION('',(-0.999980683,0.006215594,-0.));
#285=VECTOR('',#284,37.);
#286=LINE('',#283,#285);
#287=EDGE_CURVE('',#173,#276,#286,.T.);
#288=ORIENTED_EDGE('',*,*,#287,.F.);
#289=ORIENTED_EDGE('',*,*,#178,.F.);
#290=ORIENTED_EDGE('',*,*,#263,.T.);
#291=EDGE_LOOP('',(#282,#288,#289,#290));
#292=FACE_BOUND('',#291,.T.);
#293=ADVANCED_FACE('',(#292),#274,.F.);
#294=CARTESIAN_POINT('',(436.068394034,334.554073069,52.875044556));
#295=DIRECTION('',(0.003107797,0.499990342,0.866025404));
#296=DIRECTION('',(-0.005382863,-0.866008675,0.5));
#297=AXIS2_PLACEMENT_3D('',#294,#295,#296);
#298=PLANE('',#297);
#299=CARTESIAN_POINT('',(399.069108763,334.784050065,52.875044556));
#300=DIRECTION('',(0.005382863,0.866008675,-0.5));
#301=VECTOR('',#300,2.9);
#302=LINE('',#299,#301);
#303=EDGE_CURVE('',#276,#204,#302,.T.);
#304=ORIENTED_EDGE('',*,*,#303,.T.);
#305=ORIENTED_EDGE('',*,*,#217,.F.);
#306=ORIENTED_EDGE('',*,*,#186,.F.);
#307=ORIENTED_EDGE('',*,*,#287,.T.);
#308=EDGE_LOOP('',(#304,#305,#306,#307));
#309=FACE_BOUND('',#308,.T.);
#310=ADVANCED_FACE('',(#309),#298,.F.);
#311=CARTESIAN_POINT('',(399.100329367,339.806900378,51.425044556));
#312=DIRECTION('',(0.999980683,-0.006215594,0.));
#313=DIRECTION('',(-0.,-0.,1.));
#314=AXIS2_PLACEMENT_3D('',#311,#312,#313);
#315=PLANE('',#314);
#316=ORIENTED_EDGE('',*,*,#233,.F.);
#317=ORIENTED_EDGE('',*,*,#124,.F.);
#318=ORIENTED_EDGE('',*,*,#209,.F.);
#319=ORIENTED_EDGE('',*,*,#303,.F.);
#320=ORIENTED_EDGE('',*,*,#281,.F.);
#321=ORIENTED_EDGE('',*,*,#257,.F.);
#322=EDGE_LOOP('',(#316,#317,#318,#319,#320,#321));
#323=FACE_BOUND('',#322,.T.);
#324=ADVANCED_FACE('',(#323),#315,.F.);
#325=CLOSED_SHELL('',(#150,#197,#221,#245,#269,#293,#310,#324));
#326=MANIFOLD_SOLID_BREP('\X2\76D8740396504F4D67F1\X0\',#325);
#327=COLOUR_RGB('',0.905882359,0.760784328,0.443137258);
#328=FILL_AREA_STYLE_COLOUR('',#327);
#329=FILL_AREA_STYLE('',(#328));
#330=SURFACE_STYLE_FILL_AREA(#329);
#331=SURFACE_SIDE_STYLE('',(#330));
#332=SURFACE_STYLE_USAGE(.BOTH.,#331);
#333=PRESENTATION_STYLE_ASSIGNMENT((#332));
#110=STYLED_ITEM('',(#333),#326);
#91=SHAPE_REPRESENTATION('_____',(#15),#89);
#92=ADVANCED_BREP_SHAPE_REPRESENTATION('_____',(#326),#89);
#341=SHAPE_REPRESENTATION_RELATIONSHIP('','',#91,#92);
#342=CARTESIAN_POINT('',(0.,0.,0.));
#343=DIRECTION('',(0.,0.,1.));
#344=DIRECTION('',(1.,0.,0.));
#345=AXIS2_PLACEMENT_3D('',#342,#343,#344);
#347=MAPPED_ITEM('',#346,#345);
#346=REPRESENTATION_MAP(#345,#91);
#348=APPLICATION_CONTEXT('Managed model based 3d engineering');
#349=APPLICATION_PROTOCOL_DEFINITION('international standard','ap242_managed_model_based_3d_engineering',2014,#348);
#350=PRODUCT_CONTEXT('',#348,'mechanical');
#351=PRODUCT_DEFINITION_CONTEXT('part definition',#348,'design');
#99=PRODUCT('_____','_____','',(#350));
#352=PRODUCT_RELATED_PRODUCT_CATEGORY('part','',(#99));
#353=PRODUCT_DEFINITION_FORMATION_WITH_SPECIFIED_SOURCE('','',#99,.NOT_KNOWN.);
#100=PRODUCT_DEFINITION('design','',#353,#351);
#98=PRODUCT_DEFINITION_SHAPE('','',#100);
#354=SHAPE_DEFINITION_REPRESENTATION(#98,#91);
#90=DRAUGHTING_MODEL('',(#347),#89);
#63=SHAPE_REPRESENTATION('\X2\76D8740360AC6302\X0\.stp',(#15,#104),#61);
#355=CARTESIAN_POINT('',(0.,0.,0.));
#356=DIRECTION('',(0.,0.,1.));
#357=DIRECTION('',(1.,0.,0.));
#358=AXIS2_PLACEMENT_3D('',#355,#356,#357);
#360=MAPPED_ITEM('',#359,#358);
#359=REPRESENTATION_MAP(#358,#63);
#71=PRODUCT('\X2\76D8740360AC6302\X0\.stp','\X2\76D8740360AC6302\X0\.stp','',(#350));
#361=PRODUCT_RELATED_PRODUCT_CATEGORY('part','',(#71));
#362=PRODUCT_DEFINITION_FORMATION_WITH_SPECIFIED_SOURCE('','',#71,.NOT_KNOWN.);
#72=PRODUCT_DEFINITION('design','',#362,#351);
#70=PRODUCT_DEFINITION_SHAPE('','',#72);
#363=SHAPE_DEFINITION_REPRESENTATION(#70,#63);
#62=DRAUGHTING_MODEL('',(#360),#61);
#35=SHAPE_REPRESENTATION('\X2\4E8C697C\X0\.step',(#15,#76),#33);
#364=CARTESIAN_POINT('',(0.,0.,0.));
#365=DIRECTION('',(0.,0.,1.));
#366=DIRECTION('',(1.,0.,0.));
#367=AXIS2_PLACEMENT_3D('',#364,#365,#366);
#369=MAPPED_ITEM('',#368,#367);
#368=REPRESENTATION_MAP(#367,#35);
#43=PRODUCT('\X2\4E8C697C\X0\.step','\X2\4E8C697C\X0\.step','',(#350));
#370=PRODUCT_RELATED_PRODUCT_CATEGORY('part','',(#43));
#371=PRODUCT_DEFINITION_FORMATION_WITH_SPECIFIED_SOURCE('','',#43,.NOT_KNOWN.);
#44=PRODUCT_DEFINITION('design','',#371,#351);
#42=PRODUCT_DEFINITION_SHAPE('','',#44);
#372=SHAPE_DEFINITION_REPRESENTATION(#42,#35);
#34=DRAUGHTING_MODEL('',(#369),#33);
#16=SHAPE_REPRESENTATION('root',(#15,#48),#10);
#373=CARTESIAN_POINT('',(0.,0.,0.));
#374=DIRECTION('',(0.,0.,1.));
#375=DIRECTION('',(1.,0.,0.));
#376=AXIS2_PLACEMENT_3D('',#373,#374,#375);
#378=MAPPED_ITEM('',#377,#376);
#377=REPRESENTATION_MAP(#376,#16);
#24=PRODUCT('root','root','',(#350));
#379=PRODUCT_RELATED_PRODUCT_CATEGORY('part','',(#24));
#380=PRODUCT_DEFINITION_FORMATION_WITH_SPECIFIED_SOURCE('','',#24,.NOT_KNOWN.);
#25=PRODUCT_DEFINITION('design','',#380,#351);
#23=PRODUCT_DEFINITION_SHAPE('','',#25);
#381=SHAPE_DEFINITION_REPRESENTATION(#23,#16);
#11=DRAUGHTING_MODEL('',(#378),#10);
#382=DESCRIPTIVE_REPRESENTATION_ITEM('KEY','/private/var/mobile/Containers/Data/Application/1A2F1CC1-DE3C-4D95-B908-0E143EF96F37/tmp/06BB3F0C-0F28-432D-B856-A06C2ADB6E4E.tmp');
#383=PROPERTY_DEFINITION('KEY','',#25);
#384=REPRESENTATION('',(#382),#10);
#385=PROPERTY_DEFINITION_REPRESENTATION(#383,#384);
#386=GENERAL_PROPERTY('','KEY','');
#387=GENERAL_PROPERTY_ASSOCIATION('','',#386,#383);
#1=MECHANICAL_DESIGN_GEOMETRIC_PRESENTATION_REPRESENTATION('',(#110),#10);
ENDSEC;
END-ISO-10303-21;
