ISO-10303-21;
HEADER;

/* File generated by Shapr3D Version 5.880.0.8980 */

FILE_DESCRIPTION(('HOOPS Exchange Step'),'2;1');

FILE_NAME('/private/var/mobile/Containers/Data/Application/1A2F1CC1-DE3C-4D95-B908-0E143EF96F37/tmp/export/temp_export',
'2025-06-24T18:07:17+08:00',
('mobile'),
('Shapr3D Limited'),
'HOOPS Exchange 2024.8',
'Shapr3D',
'Authorized');

FILE_SCHEMA( ('AP242_MANAGED_MODEL_BASED_3D_ENGINEERING_MIM_LF {1 0 10303 442 1 1 4}') );

ENDSEC;

DATA;
#3=(NAMED_UNIT(*)PLANE_ANGLE_UNIT()SI_UNIT($,.RADIAN.));
#4=PLANE_ANGLE_MEASURE_WITH_UNIT(PLANE_ANGLE_MEASURE(0.0174532925),#3);
#5=(CONVERSION_BASED_UNIT('DEGREE',#4)NAMED_UNIT(#6)PLANE_ANGLE_UNIT());
#6=DIMENSIONAL_EXPONENTS(0.,0.,0.,0.,0.,0.,0.);
#7=(NAMED_UNIT(*)SI_UNIT($,.STERADIAN.)SOLID_ANGLE_UNIT());
#8=(LENGTH_UNIT()NAMED_UNIT(*)SI_UNIT(.MILLI.,.METRE.));
#9=UNCERTAINTY_MEASURE_WITH_UNIT(LENGTH_MEASURE(1.000000E-05),#8,'DISTANCE_ACCURACY_VALUE','Maximum Tolerance applied to model');
#10=(GEOMETRIC_REPRESENTATION_CONTEXT(3)GLOBAL_UNCERTAINTY_ASSIGNED_CONTEXT((#9))GLOBAL_UNIT_ASSIGNED_CONTEXT((#8,#5,#7))REPRESENTATION_CONTEXT('','root'));
#12=CARTESIAN_POINT('',(0.,0.,0.));
#13=DIRECTION('',(0.,0.,1.));
#14=DIRECTION('',(1.,0.,0.));
#15=AXIS2_PLACEMENT_3D('TS3D_PRODUCT_CSYS',#12,#13,#14);
#27=CARTESIAN_POINT('',(87.564312464,-3.842276514,0.));
#28=DIRECTION('',(0.345941723,-0.938256001,0.));
#29=DIRECTION('',(0.938256001,0.345941723,0.));
#30=AXIS2_PLACEMENT_3D('',#27,#28,#29);
#31=PLANE('',#30);
#32=CARTESIAN_POINT('',(79.,-7.,2.));
#33=VERTEX_POINT('',#32);
#34=CARTESIAN_POINT('',(96.128624928,-0.684553027,2.));
#35=VERTEX_POINT('',#34);
#36=CARTESIAN_POINT('',(79.,-7.,2.));
#37=DIRECTION('',(0.938256001,0.345941723,0.));
#38=VECTOR('',#37,18.255811743);
#39=LINE('',#36,#38);
#40=EDGE_CURVE('',#33,#35,#39,.T.);
#41=ORIENTED_EDGE('',*,*,#40,.F.);
#42=CARTESIAN_POINT('',(79.,-7.,0.));
#43=VERTEX_POINT('',#42);
#44=CARTESIAN_POINT('',(79.,-7.,0.));
#45=DIRECTION('',(0.,0.,1.));
#46=VECTOR('',#45,2.);
#47=LINE('',#44,#46);
#48=EDGE_CURVE('',#43,#33,#47,.T.);
#49=ORIENTED_EDGE('',*,*,#48,.F.);
#50=CARTESIAN_POINT('',(96.128624928,-0.684553027,0.));
#51=VERTEX_POINT('',#50);
#52=CARTESIAN_POINT('',(79.,-7.,0.));
#53=DIRECTION('',(0.938256001,0.345941723,0.));
#54=VECTOR('',#53,18.255811743);
#55=LINE('',#52,#54);
#56=EDGE_CURVE('',#43,#51,#55,.T.);
#57=ORIENTED_EDGE('',*,*,#56,.T.);
#58=CARTESIAN_POINT('',(96.128624928,-0.684553027,0.));
#59=DIRECTION('',(0.,0.,1.));
#60=VECTOR('',#59,2.);
#61=LINE('',#58,#60);
#62=EDGE_CURVE('',#51,#35,#61,.T.);
#63=ORIENTED_EDGE('',*,*,#62,.T.);
#64=EDGE_LOOP('',(#41,#49,#57,#63));
#65=FACE_BOUND('',#64,.T.);
#66=ADVANCED_FACE('',(#65),#31,.T.);
#67=CARTESIAN_POINT('',(87.564312464,-0.684553027,0.));
#68=DIRECTION('',(0.,1.,0.));
#69=DIRECTION('',(0.,0.,1.));
#70=AXIS2_PLACEMENT_3D('',#67,#68,#69);
#71=PLANE('',#70);
#72=CARTESIAN_POINT('',(79.,-0.684553027,2.));
#73=VERTEX_POINT('',#72);
#74=CARTESIAN_POINT('',(96.128624928,-0.684553027,2.));
#75=DIRECTION('',(-1.,0.,0.));
#76=VECTOR('',#75,17.128624928);
#77=LINE('',#74,#76);
#78=EDGE_CURVE('',#35,#73,#77,.T.);
#79=ORIENTED_EDGE('',*,*,#78,.F.);
#80=ORIENTED_EDGE('',*,*,#62,.F.);
#81=CARTESIAN_POINT('',(79.,-0.684553027,0.));
#82=VERTEX_POINT('',#81);
#83=CARTESIAN_POINT('',(96.128624928,-0.684553027,0.));
#84=DIRECTION('',(-1.,0.,0.));
#85=VECTOR('',#84,17.128624928);
#86=LINE('',#83,#85);
#87=EDGE_CURVE('',#51,#82,#86,.T.);
#88=ORIENTED_EDGE('',*,*,#87,.T.);
#89=CARTESIAN_POINT('',(79.,-0.684553027,0.));
#90=DIRECTION('',(0.,0.,1.));
#91=VECTOR('',#90,2.);
#92=LINE('',#89,#91);
#93=EDGE_CURVE('',#82,#73,#92,.T.);
#94=ORIENTED_EDGE('',*,*,#93,.T.);
#95=EDGE_LOOP('',(#79,#80,#88,#94));
#96=FACE_BOUND('',#95,.T.);
#97=ADVANCED_FACE('',(#96),#71,.T.);
#98=CARTESIAN_POINT('',(79.,-3.842276514,0.));
#99=DIRECTION('',(1.,0.,0.));
#100=DIRECTION('',(0.,0.,-1.));
#101=AXIS2_PLACEMENT_3D('',#98,#99,#100);
#102=PLANE('',#101);
#103=CARTESIAN_POINT('',(79.,-7.,2.));
#104=DIRECTION('',(0.,1.,0.));
#105=VECTOR('',#104,6.315446973);
#106=LINE('',#103,#105);
#107=EDGE_CURVE('',#33,#73,#106,.T.);
#108=ORIENTED_EDGE('',*,*,#107,.T.);
#109=ORIENTED_EDGE('',*,*,#93,.F.);
#110=CARTESIAN_POINT('',(79.,-7.,0.));
#111=DIRECTION('',(0.,1.,0.));
#112=VECTOR('',#111,6.315446973);
#113=LINE('',#110,#112);
#114=EDGE_CURVE('',#43,#82,#113,.T.);
#115=ORIENTED_EDGE('',*,*,#114,.F.);
#116=ORIENTED_EDGE('',*,*,#48,.T.);
#117=EDGE_LOOP('',(#108,#109,#115,#116));
#118=FACE_BOUND('',#117,.T.);
#119=ADVANCED_FACE('',(#118),#102,.F.);
#120=CARTESIAN_POINT('',(0.,0.,0.));
#121=DIRECTION('',(0.,0.,1.));
#122=DIRECTION('',(1.,0.,0.));
#123=AXIS2_PLACEMENT_3D('',#120,#121,#122);
#124=PLANE('',#123);
#125=ORIENTED_EDGE('',*,*,#56,.F.);
#126=ORIENTED_EDGE('',*,*,#114,.T.);
#127=ORIENTED_EDGE('',*,*,#87,.F.);
#128=EDGE_LOOP('',(#125,#126,#127));
#129=FACE_BOUND('',#128,.T.);
#130=ADVANCED_FACE('',(#129),#124,.F.);
#131=CARTESIAN_POINT('',(0.,0.,2.));
#132=DIRECTION('',(0.,0.,1.));
#133=DIRECTION('',(1.,0.,0.));
#134=AXIS2_PLACEMENT_3D('',#131,#132,#133);
#135=PLANE('',#134);
#136=ORIENTED_EDGE('',*,*,#40,.T.);
#137=ORIENTED_EDGE('',*,*,#78,.T.);
#138=ORIENTED_EDGE('',*,*,#107,.F.);
#139=EDGE_LOOP('',(#136,#137,#138));
#140=FACE_BOUND('',#139,.T.);
#141=ADVANCED_FACE('',(#140),#135,.T.);
#142=CLOSED_SHELL('',(#66,#97,#119,#130,#141));
#143=MANIFOLD_SOLID_BREP('\X2\5B9E4F53\X0\  05',#142);
#144=COLOUR_RGB('',0.627451003,0.627451003,0.643137276);
#145=FILL_AREA_STYLE_COLOUR('',#144);
#146=FILL_AREA_STYLE('',(#145));
#147=SURFACE_STYLE_FILL_AREA(#146);
#148=SURFACE_SIDE_STYLE('',(#147));
#149=SURFACE_STYLE_USAGE(.BOTH.,#148);
#150=PRESENTATION_STYLE_ASSIGNMENT((#149));
#26=STYLED_ITEM('',(#150),#143);
#152=CARTESIAN_POINT('',(79.,92.657723486,0.));
#153=DIRECTION('',(1.,0.,0.));
#154=DIRECTION('',(0.,0.,-1.));
#155=AXIS2_PLACEMENT_3D('',#152,#153,#154);
#156=PLANE('',#155);
#157=CARTESIAN_POINT('',(79.,88.315446973,2.));
#158=VERTEX_POINT('',#157);
#159=CARTESIAN_POINT('',(79.,97.,2.));
#160=VERTEX_POINT('',#159);
#161=CARTESIAN_POINT('',(79.,88.315446973,2.));
#162=DIRECTION('',(0.,1.,0.));
#163=VECTOR('',#162,8.684553027);
#164=LINE('',#161,#163);
#165=EDGE_CURVE('',#158,#160,#164,.T.);
#166=ORIENTED_EDGE('',*,*,#165,.T.);
#167=CARTESIAN_POINT('',(79.,97.,0.));
#168=VERTEX_POINT('',#167);
#169=CARTESIAN_POINT('',(79.,97.,0.));
#170=DIRECTION('',(0.,0.,1.));
#171=VECTOR('',#170,2.);
#172=LINE('',#169,#171);
#173=EDGE_CURVE('',#168,#160,#172,.T.);
#174=ORIENTED_EDGE('',*,*,#173,.F.);
#175=CARTESIAN_POINT('',(79.,88.315446973,0.));
#176=VERTEX_POINT('',#175);
#177=CARTESIAN_POINT('',(79.,88.315446973,0.));
#178=DIRECTION('',(0.,1.,0.));
#179=VECTOR('',#178,8.684553027);
#180=LINE('',#177,#179);
#181=EDGE_CURVE('',#176,#168,#180,.T.);
#182=ORIENTED_EDGE('',*,*,#181,.F.);
#183=CARTESIAN_POINT('',(79.,88.315446973,0.));
#184=DIRECTION('',(0.,0.,1.));
#185=VECTOR('',#184,2.);
#186=LINE('',#183,#185);
#187=EDGE_CURVE('',#176,#158,#186,.T.);
#188=ORIENTED_EDGE('',*,*,#187,.T.);
#189=EDGE_LOOP('',(#166,#174,#182,#188));
#190=FACE_BOUND('',#189,.T.);
#191=ADVANCED_FACE('',(#190),#156,.F.);
#192=CARTESIAN_POINT('',(87.564312464,88.315446973,0.));
#193=DIRECTION('',(0.,-1.,0.));
#194=DIRECTION('',(0.,0.,-1.));
#195=AXIS2_PLACEMENT_3D('',#192,#193,#194);
#196=PLANE('',#195);
#197=CARTESIAN_POINT('',(96.128624928,88.315446973,2.));
#198=VERTEX_POINT('',#197);
#199=CARTESIAN_POINT('',(79.,88.315446973,2.));
#200=DIRECTION('',(1.,0.,-0.));
#201=VECTOR('',#200,17.128624928);
#202=LINE('',#199,#201);
#203=EDGE_CURVE('',#158,#198,#202,.T.);
#204=ORIENTED_EDGE('',*,*,#203,.F.);
#205=ORIENTED_EDGE('',*,*,#187,.F.);
#206=CARTESIAN_POINT('',(96.128624928,88.315446973,0.));
#207=VERTEX_POINT('',#206);
#208=CARTESIAN_POINT('',(79.,88.315446973,0.));
#209=DIRECTION('',(1.,0.,-0.));
#210=VECTOR('',#209,17.128624928);
#211=LINE('',#208,#210);
#212=EDGE_CURVE('',#176,#207,#211,.T.);
#213=ORIENTED_EDGE('',*,*,#212,.T.);
#214=CARTESIAN_POINT('',(96.128624928,88.315446973,0.));
#215=DIRECTION('',(0.,0.,1.));
#216=VECTOR('',#215,2.);
#217=LINE('',#214,#216);
#218=EDGE_CURVE('',#207,#198,#217,.T.);
#219=ORIENTED_EDGE('',*,*,#218,.T.);
#220=EDGE_LOOP('',(#204,#205,#213,#219));
#221=FACE_BOUND('',#220,.T.);
#222=ADVANCED_FACE('',(#221),#196,.T.);
#223=CARTESIAN_POINT('',(87.564312464,92.657723486,0.));
#224=DIRECTION('',(-0.452215443,-0.891908736,0.));
#225=DIRECTION('',(0.891908736,-0.452215443,0.));
#226=AXIS2_PLACEMENT_3D('',#223,#224,#225);
#227=PLANE('',#226);
#228=CARTESIAN_POINT('',(79.,97.,2.));
#229=DIRECTION('',(0.891908736,-0.452215443,0.));
#230=VECTOR('',#229,19.204459201);
#231=LINE('',#228,#230);
#232=EDGE_CURVE('',#160,#198,#231,.T.);
#233=ORIENTED_EDGE('',*,*,#232,.T.);
#234=ORIENTED_EDGE('',*,*,#218,.F.);
#235=CARTESIAN_POINT('',(79.,97.,0.));
#236=DIRECTION('',(0.891908736,-0.452215443,0.));
#237=VECTOR('',#236,19.204459201);
#238=LINE('',#235,#237);
#239=EDGE_CURVE('',#168,#207,#238,.T.);
#240=ORIENTED_EDGE('',*,*,#239,.F.);
#241=ORIENTED_EDGE('',*,*,#173,.T.);
#242=EDGE_LOOP('',(#233,#234,#240,#241));
#243=FACE_BOUND('',#242,.T.);
#244=ADVANCED_FACE('',(#243),#227,.F.);
#245=CARTESIAN_POINT('',(0.,0.,0.));
#246=DIRECTION('',(0.,0.,1.));
#247=DIRECTION('',(1.,0.,0.));
#248=AXIS2_PLACEMENT_3D('',#245,#246,#247);
#249=PLANE('',#248);
#250=ORIENTED_EDGE('',*,*,#181,.T.);
#251=ORIENTED_EDGE('',*,*,#239,.T.);
#252=ORIENTED_EDGE('',*,*,#212,.F.);
#253=EDGE_LOOP('',(#250,#251,#252));
#254=FACE_BOUND('',#253,.T.);
#255=ADVANCED_FACE('',(#254),#249,.F.);
#256=CARTESIAN_POINT('',(0.,0.,2.));
#257=DIRECTION('',(0.,0.,1.));
#258=DIRECTION('',(1.,0.,0.));
#259=AXIS2_PLACEMENT_3D('',#256,#257,#258);
#260=PLANE('',#259);
#261=ORIENTED_EDGE('',*,*,#165,.F.);
#262=ORIENTED_EDGE('',*,*,#203,.T.);
#263=ORIENTED_EDGE('',*,*,#232,.F.);
#264=EDGE_LOOP('',(#261,#262,#263));
#265=FACE_BOUND('',#264,.T.);
#266=ADVANCED_FACE('',(#265),#260,.T.);
#267=CLOSED_SHELL('',(#191,#222,#244,#255,#266));
#268=MANIFOLD_SOLID_BREP('\X2\5B9E4F53\X0\  04',#267);
#151=STYLED_ITEM('',(#150),#268);
#270=CARTESIAN_POINT('',(87.564312464,88.315446973,0.));
#271=DIRECTION('',(0.,-1.,0.));
#272=DIRECTION('',(0.,0.,-1.));
#273=AXIS2_PLACEMENT_3D('',#270,#271,#272);
#274=PLANE('',#273);
#275=CARTESIAN_POINT('',(79.,88.315446973,2.));
#276=VERTEX_POINT('',#275);
#277=CARTESIAN_POINT('',(96.128624928,88.315446973,2.));
#278=VERTEX_POINT('',#277);
#279=CARTESIAN_POINT('',(79.,88.315446973,2.));
#280=DIRECTION('',(1.,0.,-0.));
#281=VECTOR('',#280,17.128624928);
#282=LINE('',#279,#281);
#283=EDGE_CURVE('',#276,#278,#282,.T.);
#284=ORIENTED_EDGE('',*,*,#283,.T.);
#285=CARTESIAN_POINT('',(96.128624928,88.315446973,0.));
#286=VERTEX_POINT('',#285);
#287=CARTESIAN_POINT('',(96.128624928,88.315446973,0.));
#288=DIRECTION('',(0.,0.,1.));
#289=VECTOR('',#288,2.);
#290=LINE('',#287,#289);
#291=EDGE_CURVE('',#286,#278,#290,.T.);
#292=ORIENTED_EDGE('',*,*,#291,.F.);
#293=CARTESIAN_POINT('',(79.,88.315446973,0.));
#294=VERTEX_POINT('',#293);
#295=CARTESIAN_POINT('',(79.,88.315446973,0.));
#296=DIRECTION('',(1.,0.,-0.));
#297=VECTOR('',#296,17.128624928);
#298=LINE('',#295,#297);
#299=EDGE_CURVE('',#294,#286,#298,.T.);
#300=ORIENTED_EDGE('',*,*,#299,.F.);
#301=CARTESIAN_POINT('',(79.,88.315446973,0.));
#302=DIRECTION('',(0.,0.,1.));
#303=VECTOR('',#302,2.);
#304=LINE('',#301,#303);
#305=EDGE_CURVE('',#294,#276,#304,.T.);
#306=ORIENTED_EDGE('',*,*,#305,.T.);
#307=EDGE_LOOP('',(#284,#292,#300,#306));
#308=FACE_BOUND('',#307,.T.);
#309=ADVANCED_FACE('',(#308),#274,.F.);
#310=CARTESIAN_POINT('',(79.,43.815446973,0.));
#311=DIRECTION('',(1.,0.,0.));
#312=DIRECTION('',(0.,0.,-1.));
#313=AXIS2_PLACEMENT_3D('',#310,#311,#312);
#314=PLANE('',#313);
#315=CARTESIAN_POINT('',(79.,-0.684553027,2.));
#316=VERTEX_POINT('',#315);
#317=CARTESIAN_POINT('',(79.,-0.684553027,2.));
#318=DIRECTION('',(0.,1.,0.));
#319=VECTOR('',#318,89.);
#320=LINE('',#317,#319);
#321=EDGE_CURVE('',#316,#276,#320,.T.);
#322=ORIENTED_EDGE('',*,*,#321,.T.);
#323=ORIENTED_EDGE('',*,*,#305,.F.);
#324=CARTESIAN_POINT('',(79.,-0.684553027,0.));
#325=VERTEX_POINT('',#324);
#326=CARTESIAN_POINT('',(79.,-0.684553027,0.));
#327=DIRECTION('',(0.,1.,0.));
#328=VECTOR('',#327,89.);
#329=LINE('',#326,#328);
#330=EDGE_CURVE('',#325,#294,#329,.T.);
#331=ORIENTED_EDGE('',*,*,#330,.F.);
#332=CARTESIAN_POINT('',(79.,-0.684553027,0.));
#333=DIRECTION('',(0.,0.,1.));
#334=VECTOR('',#333,2.);
#335=LINE('',#332,#334);
#336=EDGE_CURVE('',#325,#316,#335,.T.);
#337=ORIENTED_EDGE('',*,*,#336,.T.);
#338=EDGE_LOOP('',(#322,#323,#331,#337));
#339=FACE_BOUND('',#338,.T.);
#340=ADVANCED_FACE('',(#339),#314,.F.);
#341=CARTESIAN_POINT('',(87.564312464,-0.684553027,0.));
#342=DIRECTION('',(0.,1.,0.));
#343=DIRECTION('',(0.,0.,1.));
#344=AXIS2_PLACEMENT_3D('',#341,#342,#343);
#345=PLANE('',#344);
#346=CARTESIAN_POINT('',(96.128624928,-0.684553027,2.));
#347=VERTEX_POINT('',#346);
#348=CARTESIAN_POINT('',(96.128624928,-0.684553027,2.));
#349=DIRECTION('',(-1.,0.,0.));
#350=VECTOR('',#349,17.128624928);
#351=LINE('',#348,#350);
#352=EDGE_CURVE('',#347,#316,#351,.T.);
#353=ORIENTED_EDGE('',*,*,#352,.T.);
#354=ORIENTED_EDGE('',*,*,#336,.F.);
#355=CARTESIAN_POINT('',(96.128624928,-0.684553027,0.));
#356=VERTEX_POINT('',#355);
#357=CARTESIAN_POINT('',(96.128624928,-0.684553027,0.));
#358=DIRECTION('',(-1.,0.,0.));
#359=VECTOR('',#358,17.128624928);
#360=LINE('',#357,#359);
#361=EDGE_CURVE('',#356,#325,#360,.T.);
#362=ORIENTED_EDGE('',*,*,#361,.F.);
#363=CARTESIAN_POINT('',(96.128624928,-0.684553027,0.));
#364=DIRECTION('',(0.,0.,1.));
#365=VECTOR('',#364,2.);
#366=LINE('',#363,#365);
#367=EDGE_CURVE('',#356,#347,#366,.T.);
#368=ORIENTED_EDGE('',*,*,#367,.T.);
#369=EDGE_LOOP('',(#353,#354,#362,#368));
#370=FACE_BOUND('',#369,.T.);
#371=ADVANCED_FACE('',(#370),#345,.F.);
#372=CARTESIAN_POINT('',(96.128624928,43.815446973,0.));
#373=DIRECTION('',(-1.,0.,0.));
#374=DIRECTION('',(0.,0.,1.));
#375=AXIS2_PLACEMENT_3D('',#372,#373,#374);
#376=PLANE('',#375);
#377=CARTESIAN_POINT('',(96.128624928,88.315446973,2.));
#378=DIRECTION('',(0.,-1.,0.));
#379=VECTOR('',#378,89.);
#380=LINE('',#377,#379);
#381=EDGE_CURVE('',#278,#347,#380,.T.);
#382=ORIENTED_EDGE('',*,*,#381,.T.);
#383=ORIENTED_EDGE('',*,*,#367,.F.);
#384=CARTESIAN_POINT('',(96.128624928,88.315446973,0.));
#385=DIRECTION('',(0.,-1.,0.));
#386=VECTOR('',#385,89.);
#387=LINE('',#384,#386);
#388=EDGE_CURVE('',#286,#356,#387,.T.);
#389=ORIENTED_EDGE('',*,*,#388,.F.);
#390=ORIENTED_EDGE('',*,*,#291,.T.);
#391=EDGE_LOOP('',(#382,#383,#389,#390));
#392=FACE_BOUND('',#391,.T.);
#393=ADVANCED_FACE('',(#392),#376,.F.);
#394=CARTESIAN_POINT('',(0.,0.,0.));
#395=DIRECTION('',(0.,0.,1.));
#396=DIRECTION('',(1.,0.,0.));
#397=AXIS2_PLACEMENT_3D('',#394,#395,#396);
#398=PLANE('',#397);
#399=ORIENTED_EDGE('',*,*,#299,.T.);
#400=ORIENTED_EDGE('',*,*,#388,.T.);
#401=ORIENTED_EDGE('',*,*,#361,.T.);
#402=ORIENTED_EDGE('',*,*,#330,.T.);
#403=EDGE_LOOP('',(#399,#400,#401,#402));
#404=FACE_BOUND('',#403,.T.);
#405=ADVANCED_FACE('',(#404),#398,.F.);
#406=CARTESIAN_POINT('',(0.,0.,2.));
#407=DIRECTION('',(0.,0.,1.));
#408=DIRECTION('',(1.,0.,0.));
#409=AXIS2_PLACEMENT_3D('',#406,#407,#408);
#410=PLANE('',#409);
#411=ORIENTED_EDGE('',*,*,#283,.F.);
#412=ORIENTED_EDGE('',*,*,#321,.F.);
#413=ORIENTED_EDGE('',*,*,#352,.F.);
#414=ORIENTED_EDGE('',*,*,#381,.F.);
#415=EDGE_LOOP('',(#411,#412,#413,#414));
#416=FACE_BOUND('',#415,.T.);
#417=ADVANCED_FACE('',(#416),#410,.T.);
#418=CLOSED_SHELL('',(#309,#340,#371,#393,#405,#417));
#419=MANIFOLD_SOLID_BREP('\X2\5B9E4F53\X0\  03',#418);
#269=STYLED_ITEM('',(#150),#419);
#421=CARTESIAN_POINT('',(65.5,53.,2.));
#422=DIRECTION('',(0.,-1.,0.));
#423=DIRECTION('',(0.,0.,-1.));
#424=AXIS2_PLACEMENT_3D('',#421,#422,#423);
#425=PLANE('',#424);
#426=CARTESIAN_POINT('',(67.,53.,0.));
#427=VERTEX_POINT('',#426);
#428=CARTESIAN_POINT('',(66.,53.,0.));
#429=VERTEX_POINT('',#428);
#430=CARTESIAN_POINT('',(67.,53.,0.));
#431=DIRECTION('',(-1.,0.,0.));
#432=VECTOR('',#431,1.);
#433=LINE('',#430,#432);
#434=EDGE_CURVE('',#427,#429,#433,.T.);
#435=ORIENTED_EDGE('',*,*,#434,.F.);
#436=CARTESIAN_POINT('',(67.,53.,2.));
#437=VERTEX_POINT('',#436);
#438=CARTESIAN_POINT('',(67.,53.,0.));
#439=DIRECTION('',(-0.,-0.,1.));
#440=VECTOR('',#439,2.);
#441=LINE('',#438,#440);
#442=EDGE_CURVE('',#427,#437,#441,.T.);
#443=ORIENTED_EDGE('',*,*,#442,.T.);
#444=CARTESIAN_POINT('',(66.,53.,2.));
#445=VERTEX_POINT('',#444);
#446=CARTESIAN_POINT('',(67.,53.,2.));
#447=DIRECTION('',(-1.,0.,0.));
#448=VECTOR('',#447,1.);
#449=LINE('',#446,#448);
#450=EDGE_CURVE('',#437,#445,#449,.T.);
#451=ORIENTED_EDGE('',*,*,#450,.T.);
#452=CARTESIAN_POINT('',(66.,53.,2.));
#453=DIRECTION('',(0.,0.,-1.));
#454=VECTOR('',#453,2.);
#455=LINE('',#452,#454);
#456=EDGE_CURVE('',#445,#429,#455,.T.);
#457=ORIENTED_EDGE('',*,*,#456,.T.);
#458=EDGE_LOOP('',(#435,#443,#451,#457));
#459=FACE_BOUND('',#458,.T.);
#460=ADVANCED_FACE('',(#459),#425,.T.);
#461=CARTESIAN_POINT('',(68.,20.5,2.));
#462=DIRECTION('',(1.,0.,0.));
#463=DIRECTION('',(0.,0.,-1.));
#464=AXIS2_PLACEMENT_3D('',#461,#462,#463);
#465=PLANE('',#464);
#466=CARTESIAN_POINT('',(68.,52.,0.));
#467=VERTEX_POINT('',#466);
#468=CARTESIAN_POINT('',(68.,-4.,0.));
#469=VERTEX_POINT('',#468);
#470=CARTESIAN_POINT('',(68.,52.,0.));
#471=DIRECTION('',(0.,-1.,0.));
#472=VECTOR('',#471,56.);
#473=LINE('',#470,#472);
#474=EDGE_CURVE('',#467,#469,#473,.T.);
#475=ORIENTED_EDGE('',*,*,#474,.T.);
#476=CARTESIAN_POINT('',(68.,-4.,2.));
#477=VERTEX_POINT('',#476);
#478=CARTESIAN_POINT('',(68.,-4.,0.));
#479=DIRECTION('',(-0.,-0.,1.));
#480=VECTOR('',#479,2.);
#481=LINE('',#478,#480);
#482=EDGE_CURVE('',#469,#477,#481,.T.);
#483=ORIENTED_EDGE('',*,*,#482,.T.);
#484=CARTESIAN_POINT('',(68.,52.,2.));
#485=VERTEX_POINT('',#484);
#486=CARTESIAN_POINT('',(68.,52.,2.));
#487=DIRECTION('',(0.,-1.,0.));
#488=VECTOR('',#487,56.);
#489=LINE('',#486,#488);
#490=EDGE_CURVE('',#485,#477,#489,.T.);
#491=ORIENTED_EDGE('',*,*,#490,.F.);
#492=CARTESIAN_POINT('',(68.,52.,2.));
#493=DIRECTION('',(0.,0.,-1.));
#494=VECTOR('',#493,2.);
#495=LINE('',#492,#494);
#496=EDGE_CURVE('',#485,#467,#495,.T.);
#497=ORIENTED_EDGE('',*,*,#496,.T.);
#498=EDGE_LOOP('',(#475,#483,#491,#497));
#499=FACE_BOUND('',#498,.T.);
#500=ADVANCED_FACE('',(#499),#465,.F.);
#501=CARTESIAN_POINT('',(73.,-7.,2.));
#502=DIRECTION('',(0.,1.,0.));
#503=DIRECTION('',(0.,0.,1.));
#504=AXIS2_PLACEMENT_3D('',#501,#502,#503);
#505=PLANE('',#504);
#506=CARTESIAN_POINT('',(71.,-7.,2.));
#507=VERTEX_POINT('',#506);
#508=CARTESIAN_POINT('',(79.,-7.,2.));
#509=VERTEX_POINT('',#508);
#510=CARTESIAN_POINT('',(71.,-7.,2.));
#511=DIRECTION('',(1.,0.,-0.));
#512=VECTOR('',#511,8.);
#513=LINE('',#510,#512);
#514=EDGE_CURVE('',#507,#509,#513,.T.);
#515=ORIENTED_EDGE('',*,*,#514,.F.);
#516=CARTESIAN_POINT('',(71.,-7.,0.));
#517=VERTEX_POINT('',#516);
#518=CARTESIAN_POINT('',(71.,-7.,2.));
#519=DIRECTION('',(0.,0.,-1.));
#520=VECTOR('',#519,2.);
#521=LINE('',#518,#520);
#522=EDGE_CURVE('',#507,#517,#521,.T.);
#523=ORIENTED_EDGE('',*,*,#522,.T.);
#524=CARTESIAN_POINT('',(79.,-7.,0.));
#525=VERTEX_POINT('',#524);
#526=CARTESIAN_POINT('',(71.,-7.,0.));
#527=DIRECTION('',(1.,0.,-0.));
#528=VECTOR('',#527,8.);
#529=LINE('',#526,#528);
#530=EDGE_CURVE('',#517,#525,#529,.T.);
#531=ORIENTED_EDGE('',*,*,#530,.T.);
#532=CARTESIAN_POINT('',(79.,-7.,2.));
#533=DIRECTION('',(0.,0.,-1.));
#534=VECTOR('',#533,2.);
#535=LINE('',#532,#534);
#536=EDGE_CURVE('',#509,#525,#535,.T.);
#537=ORIENTED_EDGE('',*,*,#536,.F.);
#538=EDGE_LOOP('',(#515,#523,#531,#537));
#539=FACE_BOUND('',#538,.T.);
#540=ADVANCED_FACE('',(#539),#505,.F.);
#541=CARTESIAN_POINT('',(79.,54.5,2.));
#542=DIRECTION('',(-1.,0.,0.));
#543=DIRECTION('',(0.,0.,1.));
#544=AXIS2_PLACEMENT_3D('',#541,#542,#543);
#545=PLANE('',#544);
#546=CARTESIAN_POINT('',(79.,97.,0.));
#547=VERTEX_POINT('',#546);
#548=CARTESIAN_POINT('',(79.,-7.,0.));
#549=DIRECTION('',(0.,1.,0.));
#550=VECTOR('',#549,104.);
#551=LINE('',#548,#550);
#552=EDGE_CURVE('',#525,#547,#551,.T.);
#553=ORIENTED_EDGE('',*,*,#552,.T.);
#554=CARTESIAN_POINT('',(79.,97.,2.));
#555=VERTEX_POINT('',#554);
#556=CARTESIAN_POINT('',(79.,97.,2.));
#557=DIRECTION('',(0.,0.,-1.));
#558=VECTOR('',#557,2.);
#559=LINE('',#556,#558);
#560=EDGE_CURVE('',#555,#547,#559,.T.);
#561=ORIENTED_EDGE('',*,*,#560,.F.);
#562=CARTESIAN_POINT('',(79.,-7.,2.));
#563=DIRECTION('',(0.,1.,0.));
#564=VECTOR('',#563,104.);
#565=LINE('',#562,#564);
#566=EDGE_CURVE('',#509,#555,#565,.T.);
#567=ORIENTED_EDGE('',*,*,#566,.F.);
#568=ORIENTED_EDGE('',*,*,#536,.T.);
#569=EDGE_LOOP('',(#553,#561,#567,#568));
#570=FACE_BOUND('',#569,.T.);
#571=ADVANCED_FACE('',(#570),#545,.F.);
#572=CARTESIAN_POINT('',(73.,97.,2.));
#573=DIRECTION('',(0.,-1.,0.));
#574=DIRECTION('',(0.,0.,-1.));
#575=AXIS2_PLACEMENT_3D('',#572,#573,#574);
#576=PLANE('',#575);
#577=CARTESIAN_POINT('',(66.,97.,0.));
#578=VERTEX_POINT('',#577);
#579=CARTESIAN_POINT('',(79.,97.,0.));
#580=DIRECTION('',(-1.,0.,0.));
#581=VECTOR('',#580,13.);
#582=LINE('',#579,#581);
#583=EDGE_CURVE('',#547,#578,#582,.T.);
#584=ORIENTED_EDGE('',*,*,#583,.T.);
#585=CARTESIAN_POINT('',(66.,97.,2.));
#586=VERTEX_POINT('',#585);
#587=CARTESIAN_POINT('',(66.,97.,0.));
#588=DIRECTION('',(-0.,-0.,1.));
#589=VECTOR('',#588,2.);
#590=LINE('',#587,#589);
#591=EDGE_CURVE('',#578,#586,#590,.T.);
#592=ORIENTED_EDGE('',*,*,#591,.T.);
#593=CARTESIAN_POINT('',(79.,97.,2.));
#594=DIRECTION('',(-1.,0.,0.));
#595=VECTOR('',#594,13.);
#596=LINE('',#593,#595);
#597=EDGE_CURVE('',#555,#586,#596,.T.);
#598=ORIENTED_EDGE('',*,*,#597,.F.);
#599=ORIENTED_EDGE('',*,*,#560,.T.);
#600=EDGE_LOOP('',(#584,#592,#598,#599));
#601=FACE_BOUND('',#600,.T.);
#602=ADVANCED_FACE('',(#601),#576,.F.);
#603=CARTESIAN_POINT('',(66.,86.,2.));
#604=DIRECTION('',(0.,0.,-1.));
#605=DIRECTION('',(-1.,0.,0.));
#606=AXIS2_PLACEMENT_3D('',#603,#604,#605);
#607=CYLINDRICAL_SURFACE('',#606,1.6);
#608=CARTESIAN_POINT('',(64.4,86.,0.));
#609=VERTEX_POINT('',#608);
#610=CARTESIAN_POINT('',(64.4,86.,2.));
#611=VERTEX_POINT('',#610);
#612=CARTESIAN_POINT('',(64.4,86.,0.));
#613=DIRECTION('',(-0.,-0.,1.));
#614=VECTOR('',#613,2.);
#615=LINE('',#612,#614);
#616=EDGE_CURVE('',#609,#611,#615,.T.);
#617=ORIENTED_EDGE('',*,*,#616,.F.);
#618=CARTESIAN_POINT('',(67.6,86.,0.));
#619=VERTEX_POINT('',#618);
#620=CARTESIAN_POINT('',(66.,86.,0.));
#621=DIRECTION('',(0.,0.,1.));
#622=DIRECTION('',(1.,0.,-0.));
#623=AXIS2_PLACEMENT_3D('',#620,#621,#622);
#624=CIRCLE('',#623,1.6);
#625=EDGE_CURVE('',#619,#609,#624,.T.);
#626=ORIENTED_EDGE('',*,*,#625,.F.);
#627=CARTESIAN_POINT('',(66.,86.,0.));
#628=DIRECTION('',(0.,0.,1.));
#629=DIRECTION('',(1.,0.,-0.));
#630=AXIS2_PLACEMENT_3D('',#627,#628,#629);
#631=CIRCLE('',#630,1.6);
#632=EDGE_CURVE('',#609,#619,#631,.T.);
#633=ORIENTED_EDGE('',*,*,#632,.F.);
#634=ORIENTED_EDGE('',*,*,#616,.T.);
#635=CARTESIAN_POINT('',(67.6,86.,2.));
#636=VERTEX_POINT('',#635);
#637=CARTESIAN_POINT('',(66.,86.,2.));
#638=DIRECTION('',(0.,0.,1.));
#639=DIRECTION('',(1.,0.,-0.));
#640=AXIS2_PLACEMENT_3D('',#637,#638,#639);
#641=CIRCLE('',#640,1.6);
#642=EDGE_CURVE('',#611,#636,#641,.T.);
#643=ORIENTED_EDGE('',*,*,#642,.T.);
#644=CARTESIAN_POINT('',(66.,86.,2.));
#645=DIRECTION('',(0.,0.,1.));
#646=DIRECTION('',(1.,0.,-0.));
#647=AXIS2_PLACEMENT_3D('',#644,#645,#646);
#648=CIRCLE('',#647,1.6);
#649=EDGE_CURVE('',#636,#611,#648,.T.);
#650=ORIENTED_EDGE('',*,*,#649,.T.);
#651=EDGE_LOOP('',(#617,#626,#633,#634,#643,#650));
#652=FACE_BOUND('',#651,.T.);
#653=ADVANCED_FACE('',(#652),#607,.F.);
#654=CARTESIAN_POINT('',(73.,-2.,2.));
#655=DIRECTION('',(0.,0.,-1.));
#656=DIRECTION('',(-1.,0.,0.));
#657=AXIS2_PLACEMENT_3D('',#654,#655,#656);
#658=CYLINDRICAL_SURFACE('',#657,1.6);
#659=CARTESIAN_POINT('',(71.4,-2.,0.));
#660=VERTEX_POINT('',#659);
#661=CARTESIAN_POINT('',(71.4,-2.,2.));
#662=VERTEX_POINT('',#661);
#663=CARTESIAN_POINT('',(71.4,-2.,0.));
#664=DIRECTION('',(-0.,-0.,1.));
#665=VECTOR('',#664,2.);
#666=LINE('',#663,#665);
#667=EDGE_CURVE('',#660,#662,#666,.T.);
#668=ORIENTED_EDGE('',*,*,#667,.F.);
#669=CARTESIAN_POINT('',(74.6,-2.,0.));
#670=VERTEX_POINT('',#669);
#671=CARTESIAN_POINT('',(73.,-2.,0.));
#672=DIRECTION('',(0.,0.,1.));
#673=DIRECTION('',(1.,0.,-0.));
#674=AXIS2_PLACEMENT_3D('',#671,#672,#673);
#675=CIRCLE('',#674,1.6);
#676=EDGE_CURVE('',#670,#660,#675,.T.);
#677=ORIENTED_EDGE('',*,*,#676,.F.);
#678=CARTESIAN_POINT('',(73.,-2.,0.));
#679=DIRECTION('',(0.,0.,1.));
#680=DIRECTION('',(1.,0.,-0.));
#681=AXIS2_PLACEMENT_3D('',#678,#679,#680);
#682=CIRCLE('',#681,1.6);
#683=EDGE_CURVE('',#660,#670,#682,.T.);
#684=ORIENTED_EDGE('',*,*,#683,.F.);
#685=ORIENTED_EDGE('',*,*,#667,.T.);
#686=CARTESIAN_POINT('',(74.6,-2.,2.));
#687=VERTEX_POINT('',#686);
#688=CARTESIAN_POINT('',(73.,-2.,2.));
#689=DIRECTION('',(0.,0.,1.));
#690=DIRECTION('',(1.,0.,-0.));
#691=AXIS2_PLACEMENT_3D('',#688,#689,#690);
#692=CIRCLE('',#691,1.6);
#693=EDGE_CURVE('',#662,#687,#692,.T.);
#694=ORIENTED_EDGE('',*,*,#693,.T.);
#695=CARTESIAN_POINT('',(73.,-2.,2.));
#696=DIRECTION('',(0.,0.,1.));
#697=DIRECTION('',(1.,0.,-0.));
#698=AXIS2_PLACEMENT_3D('',#695,#696,#697);
#699=CIRCLE('',#698,1.6);
#700=EDGE_CURVE('',#687,#662,#699,.T.);
#701=ORIENTED_EDGE('',*,*,#700,.T.);
#702=EDGE_LOOP('',(#668,#677,#684,#685,#694,#701));
#703=FACE_BOUND('',#702,.T.);
#704=ADVANCED_FACE('',(#703),#658,.F.);
#705=CARTESIAN_POINT('',(63.,89.,2.));
#706=DIRECTION('',(1.,0.,0.));
#707=DIRECTION('',(0.,0.,-1.));
#708=AXIS2_PLACEMENT_3D('',#705,#706,#707);
#709=PLANE('',#708);
#710=CARTESIAN_POINT('',(63.,94.,0.));
#711=VERTEX_POINT('',#710);
#712=CARTESIAN_POINT('',(63.,56.,0.));
#713=VERTEX_POINT('',#712);
#714=CARTESIAN_POINT('',(63.,94.,0.));
#715=DIRECTION('',(0.,-1.,0.));
#716=VECTOR('',#715,38.);
#717=LINE('',#714,#716);
#718=EDGE_CURVE('',#711,#713,#717,.T.);
#719=ORIENTED_EDGE('',*,*,#718,.T.);
#720=CARTESIAN_POINT('',(63.,56.,2.));
#721=VERTEX_POINT('',#720);
#722=CARTESIAN_POINT('',(63.,56.,0.));
#723=DIRECTION('',(-0.,-0.,1.));
#724=VECTOR('',#723,2.);
#725=LINE('',#722,#724);
#726=EDGE_CURVE('',#713,#721,#725,.T.);
#727=ORIENTED_EDGE('',*,*,#726,.T.);
#728=CARTESIAN_POINT('',(63.,94.,2.));
#729=VERTEX_POINT('',#728);
#730=CARTESIAN_POINT('',(63.,94.,2.));
#731=DIRECTION('',(0.,-1.,0.));
#732=VECTOR('',#731,38.);
#733=LINE('',#730,#732);
#734=EDGE_CURVE('',#729,#721,#733,.T.);
#735=ORIENTED_EDGE('',*,*,#734,.F.);
#736=CARTESIAN_POINT('',(63.,94.,2.));
#737=DIRECTION('',(0.,0.,-1.));
#738=VECTOR('',#737,2.);
#739=LINE('',#736,#738);
#740=EDGE_CURVE('',#729,#711,#739,.T.);
#741=ORIENTED_EDGE('',*,*,#740,.T.);
#742=EDGE_LOOP('',(#719,#727,#735,#741));
#743=FACE_BOUND('',#742,.T.);
#744=ADVANCED_FACE('',(#743),#709,.F.);
#745=CARTESIAN_POINT('',(0.,0.,2.));
#746=DIRECTION('',(0.,0.,1.));
#747=DIRECTION('',(1.,0.,0.));
#748=AXIS2_PLACEMENT_3D('',#745,#746,#747);
#749=PLANE('',#748);
#750=ORIENTED_EDGE('',*,*,#693,.F.);
#751=ORIENTED_EDGE('',*,*,#700,.F.);
#752=EDGE_LOOP('',(#750,#751));
#753=FACE_BOUND('',#752,.T.);
#754=ORIENTED_EDGE('',*,*,#642,.F.);
#755=ORIENTED_EDGE('',*,*,#649,.F.);
#756=EDGE_LOOP('',(#754,#755));
#757=FACE_BOUND('',#756,.T.);
#758=ORIENTED_EDGE('',*,*,#490,.T.);
#759=CARTESIAN_POINT('',(71.,-4.,2.));
#760=DIRECTION('',(0.,0.,1.));
#761=DIRECTION('',(1.,0.,-0.));
#762=AXIS2_PLACEMENT_3D('',#759,#760,#761);
#763=CIRCLE('',#762,3.);
#764=EDGE_CURVE('',#477,#507,#763,.T.);
#765=ORIENTED_EDGE('',*,*,#764,.T.);
#766=ORIENTED_EDGE('',*,*,#514,.T.);
#767=ORIENTED_EDGE('',*,*,#566,.T.);
#768=ORIENTED_EDGE('',*,*,#597,.T.);
#769=CARTESIAN_POINT('',(66.,94.,2.));
#770=DIRECTION('',(0.,0.,1.));
#771=DIRECTION('',(1.,0.,-0.));
#772=AXIS2_PLACEMENT_3D('',#769,#770,#771);
#773=CIRCLE('',#772,3.);
#774=EDGE_CURVE('',#586,#729,#773,.T.);
#775=ORIENTED_EDGE('',*,*,#774,.T.);
#776=ORIENTED_EDGE('',*,*,#734,.T.);
#777=CARTESIAN_POINT('',(66.,56.,2.));
#778=DIRECTION('',(0.,0.,1.));
#779=DIRECTION('',(1.,0.,-0.));
#780=AXIS2_PLACEMENT_3D('',#777,#778,#779);
#781=CIRCLE('',#780,3.);
#782=EDGE_CURVE('',#721,#445,#781,.T.);
#783=ORIENTED_EDGE('',*,*,#782,.T.);
#784=ORIENTED_EDGE('',*,*,#450,.F.);
#785=CARTESIAN_POINT('',(67.,52.,2.));
#786=DIRECTION('',(-0.,-0.,-1.));
#787=DIRECTION('',(1.,0.,-0.));
#788=AXIS2_PLACEMENT_3D('',#785,#786,#787);
#789=CIRCLE('',#788,1.);
#790=EDGE_CURVE('',#437,#485,#789,.T.);
#791=ORIENTED_EDGE('',*,*,#790,.T.);
#792=EDGE_LOOP('',(#758,#765,#766,#767,#768,#775,#776,#783,#784,#791));
#793=FACE_BOUND('',#792,.T.);
#794=ADVANCED_FACE('',(#753,#757,#793),#749,.T.);
#795=CARTESIAN_POINT('',(0.,0.,0.));
#796=DIRECTION('',(0.,0.,1.));
#797=DIRECTION('',(1.,0.,0.));
#798=AXIS2_PLACEMENT_3D('',#795,#796,#797);
#799=PLANE('',#798);
#800=ORIENTED_EDGE('',*,*,#676,.T.);
#801=ORIENTED_EDGE('',*,*,#683,.T.);
#802=EDGE_LOOP('',(#800,#801));
#803=FACE_BOUND('',#802,.T.);
#804=ORIENTED_EDGE('',*,*,#625,.T.);
#805=ORIENTED_EDGE('',*,*,#632,.T.);
#806=EDGE_LOOP('',(#804,#805));
#807=FACE_BOUND('',#806,.T.);
#808=ORIENTED_EDGE('',*,*,#530,.F.);
#809=CARTESIAN_POINT('',(71.,-4.,0.));
#810=DIRECTION('',(-0.,-0.,-1.));
#811=DIRECTION('',(1.,0.,-0.));
#812=AXIS2_PLACEMENT_3D('',#809,#810,#811);
#813=CIRCLE('',#812,3.);
#814=EDGE_CURVE('',#517,#469,#813,.T.);
#815=ORIENTED_EDGE('',*,*,#814,.T.);
#816=ORIENTED_EDGE('',*,*,#474,.F.);
#817=CARTESIAN_POINT('',(67.,52.,0.));
#818=DIRECTION('',(0.,0.,1.));
#819=DIRECTION('',(1.,0.,-0.));
#820=AXIS2_PLACEMENT_3D('',#817,#818,#819);
#821=CIRCLE('',#820,1.);
#822=EDGE_CURVE('',#467,#427,#821,.T.);
#823=ORIENTED_EDGE('',*,*,#822,.T.);
#824=ORIENTED_EDGE('',*,*,#434,.T.);
#825=CARTESIAN_POINT('',(66.,56.,0.));
#826=DIRECTION('',(-0.,-0.,-1.));
#827=DIRECTION('',(1.,0.,-0.));
#828=AXIS2_PLACEMENT_3D('',#825,#826,#827);
#829=CIRCLE('',#828,3.);
#830=EDGE_CURVE('',#429,#713,#829,.T.);
#831=ORIENTED_EDGE('',*,*,#830,.T.);
#832=ORIENTED_EDGE('',*,*,#718,.F.);
#833=CARTESIAN_POINT('',(66.,94.,0.));
#834=DIRECTION('',(-0.,-0.,-1.));
#835=DIRECTION('',(1.,0.,-0.));
#836=AXIS2_PLACEMENT_3D('',#833,#834,#835);
#837=CIRCLE('',#836,3.);
#838=EDGE_CURVE('',#711,#578,#837,.T.);
#839=ORIENTED_EDGE('',*,*,#838,.T.);
#840=ORIENTED_EDGE('',*,*,#583,.F.);
#841=ORIENTED_EDGE('',*,*,#552,.F.);
#842=EDGE_LOOP('',(#808,#815,#816,#823,#824,#831,#832,#839,#840,#841));
#843=FACE_BOUND('',#842,.T.);
#844=ADVANCED_FACE('',(#803,#807,#843),#799,.F.);
#845=CARTESIAN_POINT('',(66.,94.,2.));
#846=DIRECTION('',(0.,0.,-1.));
#847=DIRECTION('',(-1.,0.,0.));
#848=AXIS2_PLACEMENT_3D('',#845,#846,#847);
#849=CYLINDRICAL_SURFACE('',#848,3.);
#850=ORIENTED_EDGE('',*,*,#774,.F.);
#851=ORIENTED_EDGE('',*,*,#591,.F.);
#852=ORIENTED_EDGE('',*,*,#838,.F.);
#853=ORIENTED_EDGE('',*,*,#740,.F.);
#854=EDGE_LOOP('',(#850,#851,#852,#853));
#855=FACE_BOUND('',#854,.T.);
#856=ADVANCED_FACE('',(#855),#849,.T.);
#857=CARTESIAN_POINT('',(66.,56.,2.));
#858=DIRECTION('',(0.,0.,1.));
#859=DIRECTION('',(1.,0.,-0.));
#860=AXIS2_PLACEMENT_3D('',#857,#858,#859);
#861=CYLINDRICAL_SURFACE('',#860,3.);
#862=ORIENTED_EDGE('',*,*,#782,.F.);
#863=ORIENTED_EDGE('',*,*,#726,.F.);
#864=ORIENTED_EDGE('',*,*,#830,.F.);
#865=ORIENTED_EDGE('',*,*,#456,.F.);
#866=EDGE_LOOP('',(#862,#863,#864,#865));
#867=FACE_BOUND('',#866,.T.);
#868=ADVANCED_FACE('',(#867),#861,.T.);
#869=CARTESIAN_POINT('',(67.,52.,2.));
#870=DIRECTION('',(0.,0.,-1.));
#871=DIRECTION('',(-1.,0.,0.));
#872=AXIS2_PLACEMENT_3D('',#869,#870,#871);
#873=CYLINDRICAL_SURFACE('',#872,1.);
#874=ORIENTED_EDGE('',*,*,#790,.F.);
#875=ORIENTED_EDGE('',*,*,#442,.F.);
#876=ORIENTED_EDGE('',*,*,#822,.F.);
#877=ORIENTED_EDGE('',*,*,#496,.F.);
#878=EDGE_LOOP('',(#874,#875,#876,#877));
#879=FACE_BOUND('',#878,.T.);
#880=ADVANCED_FACE('',(#879),#873,.F.);
#881=CARTESIAN_POINT('',(71.,-4.,2.));
#882=DIRECTION('',(0.,0.,-1.));
#883=DIRECTION('',(-1.,0.,0.));
#884=AXIS2_PLACEMENT_3D('',#881,#882,#883);
#885=CYLINDRICAL_SURFACE('',#884,3.);
#886=ORIENTED_EDGE('',*,*,#764,.F.);
#887=ORIENTED_EDGE('',*,*,#482,.F.);
#888=ORIENTED_EDGE('',*,*,#814,.F.);
#889=ORIENTED_EDGE('',*,*,#522,.F.);
#890=EDGE_LOOP('',(#886,#887,#888,#889));
#891=FACE_BOUND('',#890,.T.);
#892=ADVANCED_FACE('',(#891),#885,.T.);
#893=CLOSED_SHELL('',(#460,#500,#540,#571,#602,#653,#704,#744,#794,#844,#856,#868,#880,#892));
#894=MANIFOLD_SOLID_BREP('\X2\5B9E4F53\X0\  02',#893);
#420=STYLED_ITEM('',(#150),#894);
#896=CARTESIAN_POINT('',(74.128624928,0.315446973,60.971657318));
#897=DIRECTION('',(1.,0.,0.));
#898=DIRECTION('',(0.,0.,-1.));
#899=AXIS2_PLACEMENT_3D('',#896,#897,#898);
#900=PLANE('',#899);
#901=CARTESIAN_POINT('',(74.128624928,84.815446973,56.821657318));
#902=VERTEX_POINT('',#901);
#903=CARTESIAN_POINT('',(74.128624928,84.815446973,52.121657318));
#904=VERTEX_POINT('',#903);
#905=CARTESIAN_POINT('',(74.128624928,84.815446973,54.471657318));
#906=DIRECTION('',(1.,0.,0.));
#907=DIRECTION('',(0.,0.,-1.));
#908=AXIS2_PLACEMENT_3D('',#905,#906,#907);
#909=CIRCLE('',#908,2.35);
#910=EDGE_CURVE('',#902,#904,#909,.T.);
#911=ORIENTED_EDGE('',*,*,#910,.F.);
#912=CARTESIAN_POINT('',(74.128624928,84.815446973,54.471657318));
#913=DIRECTION('',(1.,0.,0.));
#914=DIRECTION('',(0.,0.,-1.));
#915=AXIS2_PLACEMENT_3D('',#912,#913,#914);
#916=CIRCLE('',#915,2.35);
#917=EDGE_CURVE('',#904,#902,#916,.T.);
#918=ORIENTED_EDGE('',*,*,#917,.F.);
#919=EDGE_LOOP('',(#911,#918));
#920=FACE_BOUND('',#919,.T.);
#921=CARTESIAN_POINT('',(74.128624928,84.815446973,7.821657318));
#922=VERTEX_POINT('',#921);
#923=CARTESIAN_POINT('',(74.128624928,84.815446973,3.121657318));
#924=VERTEX_POINT('',#923);
#925=CARTESIAN_POINT('',(74.128624928,84.815446973,5.471657318));
#926=DIRECTION('',(1.,0.,0.));
#927=DIRECTION('',(0.,0.,-1.));
#928=AXIS2_PLACEMENT_3D('',#925,#926,#927);
#929=CIRCLE('',#928,2.35);
#930=EDGE_CURVE('',#922,#924,#929,.T.);
#931=ORIENTED_EDGE('',*,*,#930,.F.);
#932=CARTESIAN_POINT('',(74.128624928,84.815446973,5.471657318));
#933=DIRECTION('',(1.,0.,0.));
#934=DIRECTION('',(0.,0.,-1.));
#935=AXIS2_PLACEMENT_3D('',#932,#933,#934);
#936=CIRCLE('',#935,2.35);
#937=EDGE_CURVE('',#924,#922,#936,.T.);
#938=ORIENTED_EDGE('',*,*,#937,.F.);
#939=EDGE_LOOP('',(#931,#938));
#940=FACE_BOUND('',#939,.T.);
#941=CARTESIAN_POINT('',(74.128624928,26.815446973,7.821657318));
#942=VERTEX_POINT('',#941);
#943=CARTESIAN_POINT('',(74.128624928,26.815446973,3.121657318));
#944=VERTEX_POINT('',#943);
#945=CARTESIAN_POINT('',(74.128624928,26.815446973,5.471657318));
#946=DIRECTION('',(1.,0.,0.));
#947=DIRECTION('',(0.,0.,-1.));
#948=AXIS2_PLACEMENT_3D('',#945,#946,#947);
#949=CIRCLE('',#948,2.35);
#950=EDGE_CURVE('',#942,#944,#949,.T.);
#951=ORIENTED_EDGE('',*,*,#950,.F.);
#952=CARTESIAN_POINT('',(74.128624928,26.815446973,5.471657318));
#953=DIRECTION('',(1.,0.,0.));
#954=DIRECTION('',(0.,0.,-1.));
#955=AXIS2_PLACEMENT_3D('',#952,#953,#954);
#956=CIRCLE('',#955,2.35);
#957=EDGE_CURVE('',#944,#942,#956,.T.);
#958=ORIENTED_EDGE('',*,*,#957,.F.);
#959=EDGE_LOOP('',(#951,#958));
#960=FACE_BOUND('',#959,.T.);
#961=CARTESIAN_POINT('',(74.128624928,26.815446973,56.821657318));
#962=VERTEX_POINT('',#961);
#963=CARTESIAN_POINT('',(74.128624928,26.815446973,52.121657318));
#964=VERTEX_POINT('',#963);
#965=CARTESIAN_POINT('',(74.128624928,26.815446973,54.471657318));
#966=DIRECTION('',(1.,0.,0.));
#967=DIRECTION('',(0.,0.,-1.));
#968=AXIS2_PLACEMENT_3D('',#965,#966,#967);
#969=CIRCLE('',#968,2.35);
#970=EDGE_CURVE('',#962,#964,#969,.T.);
#971=ORIENTED_EDGE('',*,*,#970,.F.);
#972=CARTESIAN_POINT('',(74.128624928,26.815446973,54.471657318));
#973=DIRECTION('',(1.,0.,0.));
#974=DIRECTION('',(0.,0.,-1.));
#975=AXIS2_PLACEMENT_3D('',#972,#973,#974);
#976=CIRCLE('',#975,2.35);
#977=EDGE_CURVE('',#964,#962,#976,.T.);
#978=ORIENTED_EDGE('',*,*,#977,.F.);
#979=EDGE_LOOP('',(#971,#978));
#980=FACE_BOUND('',#979,.T.);
#981=CARTESIAN_POINT('',(74.128624928,88.315446973,57.971657318));
#982=VERTEX_POINT('',#981);
#983=CARTESIAN_POINT('',(74.128624928,88.315446973,1.971657318));
#984=VERTEX_POINT('',#983);
#985=CARTESIAN_POINT('',(74.128624928,88.315446973,57.971657318));
#986=DIRECTION('',(0.,0.,-1.));
#987=VECTOR('',#986,56.);
#988=LINE('',#985,#987);
#989=EDGE_CURVE('',#982,#984,#988,.T.);
#990=ORIENTED_EDGE('',*,*,#989,.F.);
#991=CARTESIAN_POINT('',(74.128624928,23.315446973,57.971657318));
#992=VERTEX_POINT('',#991);
#993=CARTESIAN_POINT('',(74.128624928,88.315446973,57.971657318));
#994=DIRECTION('',(-0.,-1.,0.));
#995=VECTOR('',#994,65.);
#996=LINE('',#993,#995);
#997=EDGE_CURVE('',#982,#992,#996,.T.);
#998=ORIENTED_EDGE('',*,*,#997,.T.);
#999=CARTESIAN_POINT('',(74.128624928,23.315446973,1.971657318));
#1000=VERTEX_POINT('',#999);
#1001=CARTESIAN_POINT('',(74.128624928,23.315446973,57.971657318));
#1002=DIRECTION('',(0.,0.,-1.));
#1003=VECTOR('',#1002,56.);
#1004=LINE('',#1001,#1003);
#1005=EDGE_CURVE('',#992,#1000,#1004,.T.);
#1006=ORIENTED_EDGE('',*,*,#1005,.T.);
#1007=CARTESIAN_POINT('',(74.128624928,23.315446973,1.971657318));
#1008=DIRECTION('',(0.,1.,0.));
#1009=VECTOR('',#1008,65.);
#1010=LINE('',#1007,#1009);
#1011=EDGE_CURVE('',#1000,#984,#1010,.T.);
#1012=ORIENTED_EDGE('',*,*,#1011,.T.);
#1013=EDGE_LOOP('',(#990,#998,#1006,#1012));
#1014=FACE_BOUND('',#1013,.T.);
#1015=CARTESIAN_POINT('',(74.128624928,31.,52.));
#1016=VERTEX_POINT('',#1015);
#1017=CARTESIAN_POINT('',(74.128624928,81.,52.));
#1018=VERTEX_POINT('',#1017);
#1019=CARTESIAN_POINT('',(74.128624928,31.,52.));
#1020=DIRECTION('',(0.,1.,0.));
#1021=VECTOR('',#1020,50.);
#1022=LINE('',#1019,#1021);
#1023=EDGE_CURVE('',#1016,#1018,#1022,.T.);
#1024=ORIENTED_EDGE('',*,*,#1023,.T.);
#1025=CARTESIAN_POINT('',(74.128624928,81.,8.));
#1026=VERTEX_POINT('',#1025);
#1027=CARTESIAN_POINT('',(74.128624928,81.,52.));
#1028=DIRECTION('',(0.,0.,-1.));
#1029=VECTOR('',#1028,44.);
#1030=LINE('',#1027,#1029);
#1031=EDGE_CURVE('',#1018,#1026,#1030,.T.);
#1032=ORIENTED_EDGE('',*,*,#1031,.T.);
#1033=CARTESIAN_POINT('',(74.128624928,31.,8.));
#1034=VERTEX_POINT('',#1033);
#1035=CARTESIAN_POINT('',(74.128624928,81.,8.));
#1036=DIRECTION('',(0.,-1.,-0.));
#1037=VECTOR('',#1036,50.);
#1038=LINE('',#1035,#1037);
#1039=EDGE_CURVE('',#1026,#1034,#1038,.T.);
#1040=ORIENTED_EDGE('',*,*,#1039,.T.);
#1041=CARTESIAN_POINT('',(74.128624928,31.,8.));
#1042=DIRECTION('',(-0.,0.,1.));
#1043=VECTOR('',#1042,44.);
#1044=LINE('',#1041,#1043);
#1045=EDGE_CURVE('',#1034,#1016,#1044,.T.);
#1046=ORIENTED_EDGE('',*,*,#1045,.T.);
#1047=EDGE_LOOP('',(#1024,#1032,#1040,#1046));
#1048=FACE_BOUND('',#1047,.T.);
#1049=ADVANCED_FACE('',(#920,#940,#960,#980,#1014,#1048),#900,.T.);
#1050=CARTESIAN_POINT('',(72.128624928,0.315446973,60.971657318));
#1051=DIRECTION('',(1.,0.,0.));
#1052=DIRECTION('',(0.,0.,-1.));
#1053=AXIS2_PLACEMENT_3D('',#1050,#1051,#1052);
#1054=PLANE('',#1053);
#1055=CARTESIAN_POINT('',(72.128624928,88.315446973,57.971657318));
#1056=VERTEX_POINT('',#1055);
#1057=CARTESIAN_POINT('',(72.128624928,88.315446973,1.971657318));
#1058=VERTEX_POINT('',#1057);
#1059=CARTESIAN_POINT('',(72.128624928,88.315446973,57.971657318));
#1060=DIRECTION('',(0.,0.,-1.));
#1061=VECTOR('',#1060,56.);
#1062=LINE('',#1059,#1061);
#1063=EDGE_CURVE('',#1056,#1058,#1062,.T.);
#1064=ORIENTED_EDGE('',*,*,#1063,.T.);
#1065=CARTESIAN_POINT('',(72.128624928,23.315446973,1.971657318));
#1066=VERTEX_POINT('',#1065);
#1067=CARTESIAN_POINT('',(72.128624928,23.315446973,1.971657318));
#1068=DIRECTION('',(0.,1.,0.));
#1069=VECTOR('',#1068,65.);
#1070=LINE('',#1067,#1069);
#1071=EDGE_CURVE('',#1066,#1058,#1070,.T.);
#1072=ORIENTED_EDGE('',*,*,#1071,.F.);
#1073=CARTESIAN_POINT('',(72.128624928,23.315446973,57.971657318));
#1074=VERTEX_POINT('',#1073);
#1075=CARTESIAN_POINT('',(72.128624928,23.315446973,57.971657318));
#1076=DIRECTION('',(0.,0.,-1.));
#1077=VECTOR('',#1076,56.);
#1078=LINE('',#1075,#1077);
#1079=EDGE_CURVE('',#1074,#1066,#1078,.T.);
#1080=ORIENTED_EDGE('',*,*,#1079,.F.);
#1081=CARTESIAN_POINT('',(72.128624928,88.315446973,57.971657318));
#1082=DIRECTION('',(-0.,-1.,0.));
#1083=VECTOR('',#1082,65.);
#1084=LINE('',#1081,#1083);
#1085=EDGE_CURVE('',#1056,#1074,#1084,.T.);
#1086=ORIENTED_EDGE('',*,*,#1085,.F.);
#1087=EDGE_LOOP('',(#1064,#1072,#1080,#1086));
#1088=FACE_BOUND('',#1087,.T.);
#1089=CARTESIAN_POINT('',(72.128624928,26.815446973,52.971657318));
#1090=VERTEX_POINT('',#1089);
#1091=CARTESIAN_POINT('',(72.128624928,26.815446973,55.971657318));
#1092=VERTEX_POINT('',#1091);
#1093=CARTESIAN_POINT('',(72.128624928,26.815446973,54.471657318));
#1094=DIRECTION('',(1.,0.,0.));
#1095=DIRECTION('',(0.,0.,-1.));
#1096=AXIS2_PLACEMENT_3D('',#1093,#1094,#1095);
#1097=CIRCLE('',#1096,1.5);
#1098=EDGE_CURVE('',#1090,#1092,#1097,.T.);
#1099=ORIENTED_EDGE('',*,*,#1098,.T.);
#1100=CARTESIAN_POINT('',(72.128624928,26.815446973,54.471657318));
#1101=DIRECTION('',(1.,0.,0.));
#1102=DIRECTION('',(0.,0.,-1.));
#1103=AXIS2_PLACEMENT_3D('',#1100,#1101,#1102);
#1104=CIRCLE('',#1103,1.5);
#1105=EDGE_CURVE('',#1092,#1090,#1104,.T.);
#1106=ORIENTED_EDGE('',*,*,#1105,.T.);
#1107=EDGE_LOOP('',(#1099,#1106));
#1108=FACE_BOUND('',#1107,.T.);
#1109=CARTESIAN_POINT('',(72.128624928,84.815446973,52.971657318));
#1110=VERTEX_POINT('',#1109);
#1111=CARTESIAN_POINT('',(72.128624928,84.815446973,55.971657318));
#1112=VERTEX_POINT('',#1111);
#1113=CARTESIAN_POINT('',(72.128624928,84.815446973,54.471657318));
#1114=DIRECTION('',(1.,0.,0.));
#1115=DIRECTION('',(0.,0.,-1.));
#1116=AXIS2_PLACEMENT_3D('',#1113,#1114,#1115);
#1117=CIRCLE('',#1116,1.5);
#1118=EDGE_CURVE('',#1110,#1112,#1117,.T.);
#1119=ORIENTED_EDGE('',*,*,#1118,.T.);
#1120=CARTESIAN_POINT('',(72.128624928,84.815446973,54.471657318));
#1121=DIRECTION('',(1.,0.,0.));
#1122=DIRECTION('',(0.,0.,-1.));
#1123=AXIS2_PLACEMENT_3D('',#1120,#1121,#1122);
#1124=CIRCLE('',#1123,1.5);
#1125=EDGE_CURVE('',#1112,#1110,#1124,.T.);
#1126=ORIENTED_EDGE('',*,*,#1125,.T.);
#1127=EDGE_LOOP('',(#1119,#1126));
#1128=FACE_BOUND('',#1127,.T.);
#1129=CARTESIAN_POINT('',(72.128624928,26.815446973,3.971657318));
#1130=VERTEX_POINT('',#1129);
#1131=CARTESIAN_POINT('',(72.128624928,26.815446973,6.971657318));
#1132=VERTEX_POINT('',#1131);
#1133=CARTESIAN_POINT('',(72.128624928,26.815446973,5.471657318));
#1134=DIRECTION('',(1.,0.,0.));
#1135=DIRECTION('',(0.,0.,-1.));
#1136=AXIS2_PLACEMENT_3D('',#1133,#1134,#1135);
#1137=CIRCLE('',#1136,1.5);
#1138=EDGE_CURVE('',#1130,#1132,#1137,.T.);
#1139=ORIENTED_EDGE('',*,*,#1138,.T.);
#1140=CARTESIAN_POINT('',(72.128624928,26.815446973,5.471657318));
#1141=DIRECTION('',(1.,0.,0.));
#1142=DIRECTION('',(0.,0.,-1.));
#1143=AXIS2_PLACEMENT_3D('',#1140,#1141,#1142);
#1144=CIRCLE('',#1143,1.5);
#1145=EDGE_CURVE('',#1132,#1130,#1144,.T.);
#1146=ORIENTED_EDGE('',*,*,#1145,.T.);
#1147=EDGE_LOOP('',(#1139,#1146));
#1148=FACE_BOUND('',#1147,.T.);
#1149=CARTESIAN_POINT('',(72.128624928,84.815446973,3.971657318));
#1150=VERTEX_POINT('',#1149);
#1151=CARTESIAN_POINT('',(72.128624928,84.815446973,6.971657318));
#1152=VERTEX_POINT('',#1151);
#1153=CARTESIAN_POINT('',(72.128624928,84.815446973,5.471657318));
#1154=DIRECTION('',(1.,0.,0.));
#1155=DIRECTION('',(0.,0.,-1.));
#1156=AXIS2_PLACEMENT_3D('',#1153,#1154,#1155);
#1157=CIRCLE('',#1156,1.5);
#1158=EDGE_CURVE('',#1150,#1152,#1157,.T.);
#1159=ORIENTED_EDGE('',*,*,#1158,.T.);
#1160=CARTESIAN_POINT('',(72.128624928,84.815446973,5.471657318));
#1161=DIRECTION('',(1.,0.,0.));
#1162=DIRECTION('',(0.,0.,-1.));
#1163=AXIS2_PLACEMENT_3D('',#1160,#1161,#1162);
#1164=CIRCLE('',#1163,1.5);
#1165=EDGE_CURVE('',#1152,#1150,#1164,.T.);
#1166=ORIENTED_EDGE('',*,*,#1165,.T.);
#1167=EDGE_LOOP('',(#1159,#1166));
#1168=FACE_BOUND('',#1167,.T.);
#1169=CARTESIAN_POINT('',(72.128624928,81.,52.));
#1170=VERTEX_POINT('',#1169);
#1171=CARTESIAN_POINT('',(72.128624928,81.,8.));
#1172=VERTEX_POINT('',#1171);
#1173=CARTESIAN_POINT('',(72.128624928,81.,52.));
#1174=DIRECTION('',(0.,0.,-1.));
#1175=VECTOR('',#1174,44.);
#1176=LINE('',#1173,#1175);
#1177=EDGE_CURVE('',#1170,#1172,#1176,.T.);
#1178=ORIENTED_EDGE('',*,*,#1177,.F.);
#1179=CARTESIAN_POINT('',(72.128624928,31.,52.));
#1180=VERTEX_POINT('',#1179);
#1181=CARTESIAN_POINT('',(72.128624928,31.,52.));
#1182=DIRECTION('',(0.,1.,0.));
#1183=VECTOR('',#1182,50.);
#1184=LINE('',#1181,#1183);
#1185=EDGE_CURVE('',#1180,#1170,#1184,.T.);
#1186=ORIENTED_EDGE('',*,*,#1185,.F.);
#1187=CARTESIAN_POINT('',(72.128624928,31.,8.));
#1188=VERTEX_POINT('',#1187);
#1189=CARTESIAN_POINT('',(72.128624928,31.,8.));
#1190=DIRECTION('',(-0.,0.,1.));
#1191=VECTOR('',#1190,44.);
#1192=LINE('',#1189,#1191);
#1193=EDGE_CURVE('',#1188,#1180,#1192,.T.);
#1194=ORIENTED_EDGE('',*,*,#1193,.F.);
#1195=CARTESIAN_POINT('',(72.128624928,81.,8.));
#1196=DIRECTION('',(0.,-1.,-0.));
#1197=VECTOR('',#1196,50.);
#1198=LINE('',#1195,#1197);
#1199=EDGE_CURVE('',#1172,#1188,#1198,.T.);
#1200=ORIENTED_EDGE('',*,*,#1199,.F.);
#1201=EDGE_LOOP('',(#1178,#1186,#1194,#1200));
#1202=FACE_BOUND('',#1201,.T.);
#1203=ADVANCED_FACE('',(#1088,#1108,#1128,#1148,#1168,#1202),#1054,.F.);
#1204=CARTESIAN_POINT('',(74.128624928,88.315446973,3.721657318));
#1205=DIRECTION('',(0.,1.,0.));
#1206=DIRECTION('',(1.,0.,0.));
#1207=AXIS2_PLACEMENT_3D('',#1204,#1205,#1206);
#1208=PLANE('',#1207);
#1209=ORIENTED_EDGE('',*,*,#1063,.F.);
#1210=CARTESIAN_POINT('',(74.128624928,88.315446973,57.971657318));
#1211=DIRECTION('',(-1.,0.,-0.));
#1212=VECTOR('',#1211,2.);
#1213=LINE('',#1210,#1212);
#1214=EDGE_CURVE('',#982,#1056,#1213,.T.);
#1215=ORIENTED_EDGE('',*,*,#1214,.F.);
#1216=ORIENTED_EDGE('',*,*,#989,.T.);
#1217=CARTESIAN_POINT('',(74.128624928,88.315446973,1.971657318));
#1218=DIRECTION('',(-1.,0.,-0.));
#1219=VECTOR('',#1218,2.);
#1220=LINE('',#1217,#1219);
#1221=EDGE_CURVE('',#984,#1058,#1220,.T.);
#1222=ORIENTED_EDGE('',*,*,#1221,.T.);
#1223=EDGE_LOOP('',(#1209,#1215,#1216,#1222));
#1224=FACE_BOUND('',#1223,.T.);
#1225=ADVANCED_FACE('',(#1224),#1208,.T.);
#1226=CARTESIAN_POINT('',(74.128624928,86.565446973,57.971657318));
#1227=DIRECTION('',(0.,-0.,-1.));
#1228=DIRECTION('',(0.,1.,-0.));
#1229=AXIS2_PLACEMENT_3D('',#1226,#1227,#1228);
#1230=PLANE('',#1229);
#1231=ORIENTED_EDGE('',*,*,#1085,.T.);
#1232=CARTESIAN_POINT('',(74.128624928,23.315446973,57.971657318));
#1233=DIRECTION('',(-1.,0.,-0.));
#1234=VECTOR('',#1233,2.);
#1235=LINE('',#1232,#1234);
#1236=EDGE_CURVE('',#992,#1074,#1235,.T.);
#1237=ORIENTED_EDGE('',*,*,#1236,.F.);
#1238=ORIENTED_EDGE('',*,*,#997,.F.);
#1239=ORIENTED_EDGE('',*,*,#1214,.T.);
#1240=EDGE_LOOP('',(#1231,#1237,#1238,#1239));
#1241=FACE_BOUND('',#1240,.T.);
#1242=ADVANCED_FACE('',(#1241),#1230,.F.);
#1243=CARTESIAN_POINT('',(74.128624928,23.315446973,29.971657318));
#1244=DIRECTION('',(0.,1.,0.));
#1245=DIRECTION('',(1.,0.,0.));
#1246=AXIS2_PLACEMENT_3D('',#1243,#1244,#1245);
#1247=PLANE('',#1246);
#1248=ORIENTED_EDGE('',*,*,#1079,.T.);
#1249=CARTESIAN_POINT('',(74.128624928,23.315446973,1.971657318));
#1250=DIRECTION('',(-1.,0.,-0.));
#1251=VECTOR('',#1250,2.);
#1252=LINE('',#1249,#1251);
#1253=EDGE_CURVE('',#1000,#1066,#1252,.T.);
#1254=ORIENTED_EDGE('',*,*,#1253,.F.);
#1255=ORIENTED_EDGE('',*,*,#1005,.F.);
#1256=ORIENTED_EDGE('',*,*,#1236,.T.);
#1257=EDGE_LOOP('',(#1248,#1254,#1255,#1256));
#1258=FACE_BOUND('',#1257,.T.);
#1259=ADVANCED_FACE('',(#1258),#1247,.F.);
#1260=CARTESIAN_POINT('',(74.128624928,26.815446973,54.471657318));
#1261=DIRECTION('',(-1.,0.,-0.));
#1262=DIRECTION('',(-0.,0.,1.));
#1263=AXIS2_PLACEMENT_3D('',#1260,#1261,#1262);
#1264=CYLINDRICAL_SURFACE('',#1263,1.5);
#1265=CARTESIAN_POINT('',(78.128624928,26.815446973,55.971657318));
#1266=VERTEX_POINT('',#1265);
#1267=CARTESIAN_POINT('',(72.128624928,26.815446973,55.971657318));
#1268=DIRECTION('',(1.,-0.,0.));
#1269=VECTOR('',#1268,6.);
#1270=LINE('',#1267,#1269);
#1271=EDGE_CURVE('',#1092,#1266,#1270,.T.);
#1272=ORIENTED_EDGE('',*,*,#1271,.F.);
#1273=ORIENTED_EDGE('',*,*,#1098,.F.);
#1274=ORIENTED_EDGE('',*,*,#1105,.F.);
#1275=ORIENTED_EDGE('',*,*,#1271,.T.);
#1276=CARTESIAN_POINT('',(78.128624928,26.815446973,52.971657318));
#1277=VERTEX_POINT('',#1276);
#1278=CARTESIAN_POINT('',(78.128624928,26.815446973,54.471657318));
#1279=DIRECTION('',(1.,0.,0.));
#1280=DIRECTION('',(0.,0.,-1.));
#1281=AXIS2_PLACEMENT_3D('',#1278,#1279,#1280);
#1282=CIRCLE('',#1281,1.5);
#1283=EDGE_CURVE('',#1266,#1277,#1282,.T.);
#1284=ORIENTED_EDGE('',*,*,#1283,.T.);
#1285=CARTESIAN_POINT('',(78.128624928,26.815446973,54.471657318));
#1286=DIRECTION('',(1.,0.,0.));
#1287=DIRECTION('',(0.,0.,-1.));
#1288=AXIS2_PLACEMENT_3D('',#1285,#1286,#1287);
#1289=CIRCLE('',#1288,1.5);
#1290=EDGE_CURVE('',#1277,#1266,#1289,.T.);
#1291=ORIENTED_EDGE('',*,*,#1290,.T.);
#1292=EDGE_LOOP('',(#1272,#1273,#1274,#1275,#1284,#1291));
#1293=FACE_BOUND('',#1292,.T.);
#1294=ADVANCED_FACE('',(#1293),#1264,.F.);
#1295=CARTESIAN_POINT('',(74.128624928,84.815446973,54.471657318));
#1296=DIRECTION('',(-1.,0.,-0.));
#1297=DIRECTION('',(-0.,0.,1.));
#1298=AXIS2_PLACEMENT_3D('',#1295,#1296,#1297);
#1299=CYLINDRICAL_SURFACE('',#1298,1.5);
#1300=CARTESIAN_POINT('',(78.128624928,84.815446973,55.971657318));
#1301=VERTEX_POINT('',#1300);
#1302=CARTESIAN_POINT('',(72.128624928,84.815446973,55.971657318));
#1303=DIRECTION('',(1.,-0.,0.));
#1304=VECTOR('',#1303,6.);
#1305=LINE('',#1302,#1304);
#1306=EDGE_CURVE('',#1112,#1301,#1305,.T.);
#1307=ORIENTED_EDGE('',*,*,#1306,.F.);
#1308=ORIENTED_EDGE('',*,*,#1118,.F.);
#1309=ORIENTED_EDGE('',*,*,#1125,.F.);
#1310=ORIENTED_EDGE('',*,*,#1306,.T.);
#1311=CARTESIAN_POINT('',(78.128624928,84.815446973,52.971657318));
#1312=VERTEX_POINT('',#1311);
#1313=CARTESIAN_POINT('',(78.128624928,84.815446973,54.471657318));
#1314=DIRECTION('',(1.,0.,0.));
#1315=DIRECTION('',(0.,0.,-1.));
#1316=AXIS2_PLACEMENT_3D('',#1313,#1314,#1315);
#1317=CIRCLE('',#1316,1.5);
#1318=EDGE_CURVE('',#1301,#1312,#1317,.T.);
#1319=ORIENTED_EDGE('',*,*,#1318,.T.);
#1320=CARTESIAN_POINT('',(78.128624928,84.815446973,54.471657318));
#1321=DIRECTION('',(1.,0.,0.));
#1322=DIRECTION('',(0.,0.,-1.));
#1323=AXIS2_PLACEMENT_3D('',#1320,#1321,#1322);
#1324=CIRCLE('',#1323,1.5);
#1325=EDGE_CURVE('',#1312,#1301,#1324,.T.);
#1326=ORIENTED_EDGE('',*,*,#1325,.T.);
#1327=EDGE_LOOP('',(#1307,#1308,#1309,#1310,#1319,#1326));
#1328=FACE_BOUND('',#1327,.T.);
#1329=ADVANCED_FACE('',(#1328),#1299,.F.);
#1330=CARTESIAN_POINT('',(74.128624928,26.815446973,5.471657318));
#1331=DIRECTION('',(-1.,0.,-0.));
#1332=DIRECTION('',(-0.,0.,1.));
#1333=AXIS2_PLACEMENT_3D('',#1330,#1331,#1332);
#1334=CYLINDRICAL_SURFACE('',#1333,1.5);
#1335=CARTESIAN_POINT('',(78.128624928,26.815446973,6.971657318));
#1336=VERTEX_POINT('',#1335);
#1337=CARTESIAN_POINT('',(72.128624928,26.815446973,6.971657318));
#1338=DIRECTION('',(1.,-0.,0.));
#1339=VECTOR('',#1338,6.);
#1340=LINE('',#1337,#1339);
#1341=EDGE_CURVE('',#1132,#1336,#1340,.T.);
#1342=ORIENTED_EDGE('',*,*,#1341,.F.);
#1343=ORIENTED_EDGE('',*,*,#1138,.F.);
#1344=ORIENTED_EDGE('',*,*,#1145,.F.);
#1345=ORIENTED_EDGE('',*,*,#1341,.T.);
#1346=CARTESIAN_POINT('',(78.128624928,26.815446973,3.971657318));
#1347=VERTEX_POINT('',#1346);
#1348=CARTESIAN_POINT('',(78.128624928,26.815446973,5.471657318));
#1349=DIRECTION('',(1.,0.,0.));
#1350=DIRECTION('',(0.,0.,-1.));
#1351=AXIS2_PLACEMENT_3D('',#1348,#1349,#1350);
#1352=CIRCLE('',#1351,1.5);
#1353=EDGE_CURVE('',#1336,#1347,#1352,.T.);
#1354=ORIENTED_EDGE('',*,*,#1353,.T.);
#1355=CARTESIAN_POINT('',(78.128624928,26.815446973,5.471657318));
#1356=DIRECTION('',(1.,0.,0.));
#1357=DIRECTION('',(0.,0.,-1.));
#1358=AXIS2_PLACEMENT_3D('',#1355,#1356,#1357);
#1359=CIRCLE('',#1358,1.5);
#1360=EDGE_CURVE('',#1347,#1336,#1359,.T.);
#1361=ORIENTED_EDGE('',*,*,#1360,.T.);
#1362=EDGE_LOOP('',(#1342,#1343,#1344,#1345,#1354,#1361));
#1363=FACE_BOUND('',#1362,.T.);
#1364=ADVANCED_FACE('',(#1363),#1334,.F.);
#1365=CARTESIAN_POINT('',(74.128624928,84.815446973,5.471657318));
#1366=DIRECTION('',(-1.,0.,-0.));
#1367=DIRECTION('',(-0.,0.,1.));
#1368=AXIS2_PLACEMENT_3D('',#1365,#1366,#1367);
#1369=CYLINDRICAL_SURFACE('',#1368,1.5);
#1370=CARTESIAN_POINT('',(78.128624928,84.815446973,6.971657318));
#1371=VERTEX_POINT('',#1370);
#1372=CARTESIAN_POINT('',(72.128624928,84.815446973,6.971657318));
#1373=DIRECTION('',(1.,-0.,0.));
#1374=VECTOR('',#1373,6.);
#1375=LINE('',#1372,#1374);
#1376=EDGE_CURVE('',#1152,#1371,#1375,.T.);
#1377=ORIENTED_EDGE('',*,*,#1376,.F.);
#1378=ORIENTED_EDGE('',*,*,#1158,.F.);
#1379=ORIENTED_EDGE('',*,*,#1165,.F.);
#1380=ORIENTED_EDGE('',*,*,#1376,.T.);
#1381=CARTESIAN_POINT('',(78.128624928,84.815446973,3.971657318));
#1382=VERTEX_POINT('',#1381);
#1383=CARTESIAN_POINT('',(78.128624928,84.815446973,5.471657318));
#1384=DIRECTION('',(1.,0.,0.));
#1385=DIRECTION('',(0.,0.,-1.));
#1386=AXIS2_PLACEMENT_3D('',#1383,#1384,#1385);
#1387=CIRCLE('',#1386,1.5);
#1388=EDGE_CURVE('',#1371,#1382,#1387,.T.);
#1389=ORIENTED_EDGE('',*,*,#1388,.T.);
#1390=CARTESIAN_POINT('',(78.128624928,84.815446973,5.471657318));
#1391=DIRECTION('',(1.,0.,0.));
#1392=DIRECTION('',(0.,0.,-1.));
#1393=AXIS2_PLACEMENT_3D('',#1390,#1391,#1392);
#1394=CIRCLE('',#1393,1.5);
#1395=EDGE_CURVE('',#1382,#1371,#1394,.T.);
#1396=ORIENTED_EDGE('',*,*,#1395,.T.);
#1397=EDGE_LOOP('',(#1377,#1378,#1379,#1380,#1389,#1396));
#1398=FACE_BOUND('',#1397,.T.);
#1399=ADVANCED_FACE('',(#1398),#1369,.F.);
#1400=CARTESIAN_POINT('',(74.128624928,15.065446973,1.971657318));
#1401=DIRECTION('',(-0.,0.,1.));
#1402=DIRECTION('',(1.,0.,0.));
#1403=AXIS2_PLACEMENT_3D('',#1400,#1401,#1402);
#1404=PLANE('',#1403);
#1405=ORIENTED_EDGE('',*,*,#1071,.T.);
#1406=ORIENTED_EDGE('',*,*,#1221,.F.);
#1407=ORIENTED_EDGE('',*,*,#1011,.F.);
#1408=ORIENTED_EDGE('',*,*,#1253,.T.);
#1409=EDGE_LOOP('',(#1405,#1406,#1407,#1408));
#1410=FACE_BOUND('',#1409,.T.);
#1411=ADVANCED_FACE('',(#1410),#1404,.F.);
#1412=CARTESIAN_POINT('',(78.128624928,26.815446973,54.471657318));
#1413=DIRECTION('',(-1.,0.,-0.));
#1414=DIRECTION('',(-0.,0.,1.));
#1415=AXIS2_PLACEMENT_3D('',#1412,#1413,#1414);
#1416=CYLINDRICAL_SURFACE('',#1415,2.35);
#1417=CARTESIAN_POINT('',(78.128624928,26.815446973,56.821657318));
#1418=VERTEX_POINT('',#1417);
#1419=CARTESIAN_POINT('',(74.128624928,26.815446973,56.821657318));
#1420=DIRECTION('',(1.,-0.,0.));
#1421=VECTOR('',#1420,4.);
#1422=LINE('',#1419,#1421);
#1423=EDGE_CURVE('',#962,#1418,#1422,.T.);
#1424=ORIENTED_EDGE('',*,*,#1423,.T.);
#1425=CARTESIAN_POINT('',(78.128624928,26.815446973,52.121657318));
#1426=VERTEX_POINT('',#1425);
#1427=CARTESIAN_POINT('',(78.128624928,26.815446973,54.471657318));
#1428=DIRECTION('',(1.,0.,0.));
#1429=DIRECTION('',(0.,0.,-1.));
#1430=AXIS2_PLACEMENT_3D('',#1427,#1428,#1429);
#1431=CIRCLE('',#1430,2.35);
#1432=EDGE_CURVE('',#1426,#1418,#1431,.T.);
#1433=ORIENTED_EDGE('',*,*,#1432,.F.);
#1434=CARTESIAN_POINT('',(78.128624928,26.815446973,54.471657318));
#1435=DIRECTION('',(1.,0.,0.));
#1436=DIRECTION('',(0.,0.,-1.));
#1437=AXIS2_PLACEMENT_3D('',#1434,#1435,#1436);
#1438=CIRCLE('',#1437,2.35);
#1439=EDGE_CURVE('',#1418,#1426,#1438,.T.);
#1440=ORIENTED_EDGE('',*,*,#1439,.F.);
#1441=ORIENTED_EDGE('',*,*,#1423,.F.);
#1442=ORIENTED_EDGE('',*,*,#970,.T.);
#1443=ORIENTED_EDGE('',*,*,#977,.T.);
#1444=EDGE_LOOP('',(#1424,#1433,#1440,#1441,#1442,#1443));
#1445=FACE_BOUND('',#1444,.T.);
#1446=ADVANCED_FACE('',(#1445),#1416,.T.);
#1447=CARTESIAN_POINT('',(78.128624928,0.315446973,60.971657318));
#1448=DIRECTION('',(1.,0.,0.));
#1449=DIRECTION('',(0.,0.,-1.));
#1450=AXIS2_PLACEMENT_3D('',#1447,#1448,#1449);
#1451=PLANE('',#1450);
#1452=ORIENTED_EDGE('',*,*,#1283,.F.);
#1453=ORIENTED_EDGE('',*,*,#1290,.F.);
#1454=EDGE_LOOP('',(#1452,#1453));
#1455=FACE_BOUND('',#1454,.T.);
#1456=ORIENTED_EDGE('',*,*,#1432,.T.);
#1457=ORIENTED_EDGE('',*,*,#1439,.T.);
#1458=EDGE_LOOP('',(#1456,#1457));
#1459=FACE_BOUND('',#1458,.T.);
#1460=ADVANCED_FACE('',(#1455,#1459),#1451,.T.);
#1461=CARTESIAN_POINT('',(78.128624928,26.815446973,5.471657318));
#1462=DIRECTION('',(-1.,0.,-0.));
#1463=DIRECTION('',(-0.,0.,1.));
#1464=AXIS2_PLACEMENT_3D('',#1461,#1462,#1463);
#1465=CYLINDRICAL_SURFACE('',#1464,2.35);
#1466=CARTESIAN_POINT('',(78.128624928,26.815446973,7.821657318));
#1467=VERTEX_POINT('',#1466);
#1468=CARTESIAN_POINT('',(74.128624928,26.815446973,7.821657318));
#1469=DIRECTION('',(1.,-0.,0.));
#1470=VECTOR('',#1469,4.);
#1471=LINE('',#1468,#1470);
#1472=EDGE_CURVE('',#942,#1467,#1471,.T.);
#1473=ORIENTED_EDGE('',*,*,#1472,.T.);
#1474=CARTESIAN_POINT('',(78.128624928,26.815446973,3.121657318));
#1475=VERTEX_POINT('',#1474);
#1476=CARTESIAN_POINT('',(78.128624928,26.815446973,5.471657318));
#1477=DIRECTION('',(1.,0.,0.));
#1478=DIRECTION('',(0.,0.,-1.));
#1479=AXIS2_PLACEMENT_3D('',#1476,#1477,#1478);
#1480=CIRCLE('',#1479,2.35);
#1481=EDGE_CURVE('',#1475,#1467,#1480,.T.);
#1482=ORIENTED_EDGE('',*,*,#1481,.F.);
#1483=CARTESIAN_POINT('',(78.128624928,26.815446973,5.471657318));
#1484=DIRECTION('',(1.,0.,0.));
#1485=DIRECTION('',(0.,0.,-1.));
#1486=AXIS2_PLACEMENT_3D('',#1483,#1484,#1485);
#1487=CIRCLE('',#1486,2.35);
#1488=EDGE_CURVE('',#1467,#1475,#1487,.T.);
#1489=ORIENTED_EDGE('',*,*,#1488,.F.);
#1490=ORIENTED_EDGE('',*,*,#1472,.F.);
#1491=ORIENTED_EDGE('',*,*,#950,.T.);
#1492=ORIENTED_EDGE('',*,*,#957,.T.);
#1493=EDGE_LOOP('',(#1473,#1482,#1489,#1490,#1491,#1492));
#1494=FACE_BOUND('',#1493,.T.);
#1495=ADVANCED_FACE('',(#1494),#1465,.T.);
#1496=CARTESIAN_POINT('',(78.128624928,0.315446973,60.971657318));
#1497=DIRECTION('',(1.,0.,0.));
#1498=DIRECTION('',(0.,0.,-1.));
#1499=AXIS2_PLACEMENT_3D('',#1496,#1497,#1498);
#1500=PLANE('',#1499);
#1501=ORIENTED_EDGE('',*,*,#1353,.F.);
#1502=ORIENTED_EDGE('',*,*,#1360,.F.);
#1503=EDGE_LOOP('',(#1501,#1502));
#1504=FACE_BOUND('',#1503,.T.);
#1505=ORIENTED_EDGE('',*,*,#1481,.T.);
#1506=ORIENTED_EDGE('',*,*,#1488,.T.);
#1507=EDGE_LOOP('',(#1505,#1506));
#1508=FACE_BOUND('',#1507,.T.);
#1509=ADVANCED_FACE('',(#1504,#1508),#1500,.T.);
#1510=CARTESIAN_POINT('',(78.128624928,84.815446973,5.471657318));
#1511=DIRECTION('',(-1.,0.,-0.));
#1512=DIRECTION('',(-0.,0.,1.));
#1513=AXIS2_PLACEMENT_3D('',#1510,#1511,#1512);
#1514=CYLINDRICAL_SURFACE('',#1513,2.35);
#1515=CARTESIAN_POINT('',(78.128624928,84.815446973,7.821657318));
#1516=VERTEX_POINT('',#1515);
#1517=CARTESIAN_POINT('',(74.128624928,84.815446973,7.821657318));
#1518=DIRECTION('',(1.,-0.,0.));
#1519=VECTOR('',#1518,4.);
#1520=LINE('',#1517,#1519);
#1521=EDGE_CURVE('',#922,#1516,#1520,.T.);
#1522=ORIENTED_EDGE('',*,*,#1521,.T.);
#1523=CARTESIAN_POINT('',(78.128624928,84.815446973,3.121657318));
#1524=VERTEX_POINT('',#1523);
#1525=CARTESIAN_POINT('',(78.128624928,84.815446973,5.471657318));
#1526=DIRECTION('',(1.,0.,0.));
#1527=DIRECTION('',(0.,0.,-1.));
#1528=AXIS2_PLACEMENT_3D('',#1525,#1526,#1527);
#1529=CIRCLE('',#1528,2.35);
#1530=EDGE_CURVE('',#1524,#1516,#1529,.T.);
#1531=ORIENTED_EDGE('',*,*,#1530,.F.);
#1532=CARTESIAN_POINT('',(78.128624928,84.815446973,5.471657318));
#1533=DIRECTION('',(1.,0.,0.));
#1534=DIRECTION('',(0.,0.,-1.));
#1535=AXIS2_PLACEMENT_3D('',#1532,#1533,#1534);
#1536=CIRCLE('',#1535,2.35);
#1537=EDGE_CURVE('',#1516,#1524,#1536,.T.);
#1538=ORIENTED_EDGE('',*,*,#1537,.F.);
#1539=ORIENTED_EDGE('',*,*,#1521,.F.);
#1540=ORIENTED_EDGE('',*,*,#930,.T.);
#1541=ORIENTED_EDGE('',*,*,#937,.T.);
#1542=EDGE_LOOP('',(#1522,#1531,#1538,#1539,#1540,#1541));
#1543=FACE_BOUND('',#1542,.T.);
#1544=ADVANCED_FACE('',(#1543),#1514,.T.);
#1545=CARTESIAN_POINT('',(78.128624928,0.315446973,60.971657318));
#1546=DIRECTION('',(1.,0.,0.));
#1547=DIRECTION('',(0.,0.,-1.));
#1548=AXIS2_PLACEMENT_3D('',#1545,#1546,#1547);
#1549=PLANE('',#1548);
#1550=ORIENTED_EDGE('',*,*,#1388,.F.);
#1551=ORIENTED_EDGE('',*,*,#1395,.F.);
#1552=EDGE_LOOP('',(#1550,#1551));
#1553=FACE_BOUND('',#1552,.T.);
#1554=ORIENTED_EDGE('',*,*,#1530,.T.);
#1555=ORIENTED_EDGE('',*,*,#1537,.T.);
#1556=EDGE_LOOP('',(#1554,#1555));
#1557=FACE_BOUND('',#1556,.T.);
#1558=ADVANCED_FACE('',(#1553,#1557),#1549,.T.);
#1559=CARTESIAN_POINT('',(78.128624928,84.815446973,54.471657318));
#1560=DIRECTION('',(-1.,0.,-0.));
#1561=DIRECTION('',(-0.,0.,1.));
#1562=AXIS2_PLACEMENT_3D('',#1559,#1560,#1561);
#1563=CYLINDRICAL_SURFACE('',#1562,2.35);
#1564=CARTESIAN_POINT('',(78.128624928,84.815446973,56.821657318));
#1565=VERTEX_POINT('',#1564);
#1566=CARTESIAN_POINT('',(74.128624928,84.815446973,56.821657318));
#1567=DIRECTION('',(1.,-0.,0.));
#1568=VECTOR('',#1567,4.);
#1569=LINE('',#1566,#1568);
#1570=EDGE_CURVE('',#902,#1565,#1569,.T.);
#1571=ORIENTED_EDGE('',*,*,#1570,.T.);
#1572=CARTESIAN_POINT('',(78.128624928,84.815446973,52.121657318));
#1573=VERTEX_POINT('',#1572);
#1574=CARTESIAN_POINT('',(78.128624928,84.815446973,54.471657318));
#1575=DIRECTION('',(1.,0.,0.));
#1576=DIRECTION('',(0.,0.,-1.));
#1577=AXIS2_PLACEMENT_3D('',#1574,#1575,#1576);
#1578=CIRCLE('',#1577,2.35);
#1579=EDGE_CURVE('',#1573,#1565,#1578,.T.);
#1580=ORIENTED_EDGE('',*,*,#1579,.F.);
#1581=CARTESIAN_POINT('',(78.128624928,84.815446973,54.471657318));
#1582=DIRECTION('',(1.,0.,0.));
#1583=DIRECTION('',(0.,0.,-1.));
#1584=AXIS2_PLACEMENT_3D('',#1581,#1582,#1583);
#1585=CIRCLE('',#1584,2.35);
#1586=EDGE_CURVE('',#1565,#1573,#1585,.T.);
#1587=ORIENTED_EDGE('',*,*,#1586,.F.);
#1588=ORIENTED_EDGE('',*,*,#1570,.F.);
#1589=ORIENTED_EDGE('',*,*,#910,.T.);
#1590=ORIENTED_EDGE('',*,*,#917,.T.);
#1591=EDGE_LOOP('',(#1571,#1580,#1587,#1588,#1589,#1590));
#1592=FACE_BOUND('',#1591,.T.);
#1593=ADVANCED_FACE('',(#1592),#1563,.T.);
#1594=CARTESIAN_POINT('',(78.128624928,0.315446973,60.971657318));
#1595=DIRECTION('',(1.,0.,0.));
#1596=DIRECTION('',(0.,0.,-1.));
#1597=AXIS2_PLACEMENT_3D('',#1594,#1595,#1596);
#1598=PLANE('',#1597);
#1599=ORIENTED_EDGE('',*,*,#1318,.F.);
#1600=ORIENTED_EDGE('',*,*,#1325,.F.);
#1601=EDGE_LOOP('',(#1599,#1600));
#1602=FACE_BOUND('',#1601,.T.);
#1603=ORIENTED_EDGE('',*,*,#1579,.T.);
#1604=ORIENTED_EDGE('',*,*,#1586,.T.);
#1605=EDGE_LOOP('',(#1603,#1604));
#1606=FACE_BOUND('',#1605,.T.);
#1607=ADVANCED_FACE('',(#1602,#1606),#1598,.T.);
#1608=CARTESIAN_POINT('',(70.128624928,81.,30.));
#1609=DIRECTION('',(0.,-1.,0.));
#1610=DIRECTION('',(0.,0.,-1.));
#1611=AXIS2_PLACEMENT_3D('',#1608,#1609,#1610);
#1612=PLANE('',#1611);
#1613=ORIENTED_EDGE('',*,*,#1177,.T.);
#1614=CARTESIAN_POINT('',(72.128624928,81.,8.));
#1615=DIRECTION('',(1.,0.,0.));
#1616=VECTOR('',#1615,2.);
#1617=LINE('',#1614,#1616);
#1618=EDGE_CURVE('',#1172,#1026,#1617,.T.);
#1619=ORIENTED_EDGE('',*,*,#1618,.T.);
#1620=ORIENTED_EDGE('',*,*,#1031,.F.);
#1621=CARTESIAN_POINT('',(72.128624928,81.,52.));
#1622=DIRECTION('',(1.,0.,0.));
#1623=VECTOR('',#1622,2.);
#1624=LINE('',#1621,#1623);
#1625=EDGE_CURVE('',#1170,#1018,#1624,.T.);
#1626=ORIENTED_EDGE('',*,*,#1625,.F.);
#1627=EDGE_LOOP('',(#1613,#1619,#1620,#1626));
#1628=FACE_BOUND('',#1627,.T.);
#1629=ADVANCED_FACE('',(#1628),#1612,.T.);
#1630=CARTESIAN_POINT('',(70.128624928,56.,52.));
#1631=DIRECTION('',(0.,0.,-1.));
#1632=DIRECTION('',(-1.,0.,-0.));
#1633=AXIS2_PLACEMENT_3D('',#1630,#1631,#1632);
#1634=PLANE('',#1633);
#1635=ORIENTED_EDGE('',*,*,#1185,.T.);
#1636=ORIENTED_EDGE('',*,*,#1625,.T.);
#1637=ORIENTED_EDGE('',*,*,#1023,.F.);
#1638=CARTESIAN_POINT('',(72.128624928,31.,52.));
#1639=DIRECTION('',(1.,0.,0.));
#1640=VECTOR('',#1639,2.);
#1641=LINE('',#1638,#1640);
#1642=EDGE_CURVE('',#1180,#1016,#1641,.T.);
#1643=ORIENTED_EDGE('',*,*,#1642,.F.);
#1644=EDGE_LOOP('',(#1635,#1636,#1637,#1643));
#1645=FACE_BOUND('',#1644,.T.);
#1646=ADVANCED_FACE('',(#1645),#1634,.T.);
#1647=CARTESIAN_POINT('',(70.128624928,31.,30.));
#1648=DIRECTION('',(0.,1.,0.));
#1649=DIRECTION('',(0.,0.,1.));
#1650=AXIS2_PLACEMENT_3D('',#1647,#1648,#1649);
#1651=PLANE('',#1650);
#1652=ORIENTED_EDGE('',*,*,#1193,.T.);
#1653=ORIENTED_EDGE('',*,*,#1642,.T.);
#1654=ORIENTED_EDGE('',*,*,#1045,.F.);
#1655=CARTESIAN_POINT('',(72.128624928,31.,8.));
#1656=DIRECTION('',(1.,0.,0.));
#1657=VECTOR('',#1656,2.);
#1658=LINE('',#1655,#1657);
#1659=EDGE_CURVE('',#1188,#1034,#1658,.T.);
#1660=ORIENTED_EDGE('',*,*,#1659,.F.);
#1661=EDGE_LOOP('',(#1652,#1653,#1654,#1660));
#1662=FACE_BOUND('',#1661,.T.);
#1663=ADVANCED_FACE('',(#1662),#1651,.T.);
#1664=CARTESIAN_POINT('',(70.128624928,56.,8.));
#1665=DIRECTION('',(-0.,-0.,1.));
#1666=DIRECTION('',(1.,0.,0.));
#1667=AXIS2_PLACEMENT_3D('',#1664,#1665,#1666);
#1668=PLANE('',#1667);
#1669=ORIENTED_EDGE('',*,*,#1199,.T.);
#1670=ORIENTED_EDGE('',*,*,#1659,.T.);
#1671=ORIENTED_EDGE('',*,*,#1039,.F.);
#1672=ORIENTED_EDGE('',*,*,#1618,.F.);
#1673=EDGE_LOOP('',(#1669,#1670,#1671,#1672));
#1674=FACE_BOUND('',#1673,.T.);
#1675=ADVANCED_FACE('',(#1674),#1668,.T.);
#1676=CLOSED_SHELL('',(#1049,#1203,#1225,#1242,#1259,#1294,#1329,#1364,#1399,#1411,#1446,#1460,#1495,#1509,#1544,#1558,#1593,#1607,#1629,#1646,#1663,#1675));
#1677=MANIFOLD_SOLID_BREP('\X2\5B9E4F53\X0\  01',#1676);
#895=STYLED_ITEM('',(#150),#1677);
#16=SHAPE_REPRESENTATION('root',(#15),#10);
#17=ADVANCED_BREP_SHAPE_REPRESENTATION('root',(#143,#268,#419,#894,#1677),#10);
#1685=SHAPE_REPRESENTATION_RELATIONSHIP('','',#16,#17);
#1686=CARTESIAN_POINT('',(0.,0.,0.));
#1687=DIRECTION('',(0.,0.,1.));
#1688=DIRECTION('',(1.,0.,0.));
#1689=AXIS2_PLACEMENT_3D('',#1686,#1687,#1688);
#1691=MAPPED_ITEM('',#1690,#1689);
#1690=REPRESENTATION_MAP(#1689,#16);
#1692=APPLICATION_CONTEXT('Managed model based 3d engineering');
#1693=APPLICATION_PROTOCOL_DEFINITION('international standard','ap242_managed_model_based_3d_engineering',2014,#1692);
#1694=PRODUCT_CONTEXT('',#1692,'mechanical');
#1695=PRODUCT_DEFINITION_CONTEXT('part definition',#1692,'design');
#24=PRODUCT('root','root','',(#1694));
#1696=PRODUCT_RELATED_PRODUCT_CATEGORY('part','',(#24));
#1697=PRODUCT_DEFINITION_FORMATION_WITH_SPECIFIED_SOURCE('','',#24,.NOT_KNOWN.);
#25=PRODUCT_DEFINITION('design','',#1697,#1695);
#23=PRODUCT_DEFINITION_SHAPE('','',#25);
#1698=SHAPE_DEFINITION_REPRESENTATION(#23,#16);
#11=DRAUGHTING_MODEL('',(#1691),#10);
#1699=DESCRIPTIVE_REPRESENTATION_ITEM('KEY','/private/var/mobile/Containers/Data/Application/1A2F1CC1-DE3C-4D95-B908-0E143EF96F37/tmp/79419306-E526-4FA7-91C0-36FE5BAEFB19.tmp');
#1700=PROPERTY_DEFINITION('KEY','',#25);
#1701=REPRESENTATION('',(#1699),#10);
#1702=PROPERTY_DEFINITION_REPRESENTATION(#1700,#1701);
#1703=GENERAL_PROPERTY('','KEY','');
#1704=GENERAL_PROPERTY_ASSOCIATION('','',#1703,#1700);
#1=MECHANICAL_DESIGN_GEOMETRIC_PRESENTATION_REPRESENTATION('',(#26,#151,#269,#420,#895),#10);
ENDSEC;
END-ISO-10303-21;
