ISO-10303-21;
HEADER;

/* File generated by Shapr3D Version 5.880.0.8980 */

FILE_DESCRIPTION(('HOOPS Exchange Step'),'2;1');

FILE_NAME('/private/var/mobile/Containers/Data/Application/1A2F1CC1-DE3C-4D95-B908-0E143EF96F37/tmp/export/temp_export',
'2025-06-27T14:16:01+08:00',
('mobile'),
('Shapr3D Limited'),
'HOOPS Exchange 2024.8',
'Shapr3D',
'Authorized');

FILE_SCHEMA( ('AP242_MANAGED_MODEL_BASED_3D_ENGINEERING_MIM_LF {1 0 10303 442 1 1 4}') );

ENDSEC;

DATA;
#3=(NAMED_UNIT(*)PLANE_ANGLE_UNIT()SI_UNIT($,.RADIAN.));
#4=PLANE_ANGLE_MEASURE_WITH_UNIT(PLANE_ANGLE_MEASURE(0.0174532925),#3);
#5=(CONVERSION_BASED_UNIT('DEGREE',#4)NAMED_UNIT(#6)PLANE_ANGLE_UNIT());
#6=DIMENSIONAL_EXPONENTS(0.,0.,0.,0.,0.,0.,0.);
#7=(NAMED_UNIT(*)SI_UNIT($,.STERADIAN.)SOLID_ANGLE_UNIT());
#8=(LENGTH_UNIT()NAMED_UNIT(*)SI_UNIT(.MILLI.,.METRE.));
#9=UNCERTAINTY_MEASURE_WITH_UNIT(LENGTH_MEASURE(1.000000E-03),#8,'DISTANCE_ACCURACY_VALUE','Maximum Tolerance applied to model');
#10=(GEOMETRIC_REPRESENTATION_CONTEXT(3)GLOBAL_UNCERTAINTY_ASSIGNED_CONTEXT((#9))GLOBAL_UNIT_ASSIGNED_CONTEXT((#8,#5,#7))REPRESENTATION_CONTEXT('','root'));
#12=CARTESIAN_POINT('',(0.,0.,0.));
#13=DIRECTION('',(0.,0.,1.));
#14=DIRECTION('',(1.,0.,0.));
#15=AXIS2_PLACEMENT_3D('',#12,#13,#14);
#26=(NAMED_UNIT(*)PLANE_ANGLE_UNIT()SI_UNIT($,.RADIAN.));
#27=PLANE_ANGLE_MEASURE_WITH_UNIT(PLANE_ANGLE_MEASURE(0.0174532925),#26);
#28=(CONVERSION_BASED_UNIT('DEGREE',#27)NAMED_UNIT(#29)PLANE_ANGLE_UNIT());
#29=DIMENSIONAL_EXPONENTS(0.,0.,0.,0.,0.,0.,0.);
#30=(NAMED_UNIT(*)SI_UNIT($,.STERADIAN.)SOLID_ANGLE_UNIT());
#31=(LENGTH_UNIT()NAMED_UNIT(*)SI_UNIT(.MILLI.,.METRE.));
#32=UNCERTAINTY_MEASURE_WITH_UNIT(LENGTH_MEASURE(1.000000E-03),#31,'DISTANCE_ACCURACY_VALUE','Maximum Tolerance applied to model');
#33=(GEOMETRIC_REPRESENTATION_CONTEXT(3)GLOBAL_UNCERTAINTY_ASSIGNED_CONTEXT((#32))GLOBAL_UNIT_ASSIGNED_CONTEXT((#31,#28,#30))REPRESENTATION_CONTEXT('','\X2\76D8740360AC6302\X0\625.stp'));
#45=CARTESIAN_POINT('',(0.,0.,0.));
#46=DIRECTION('',(0.,0.,1.));
#47=DIRECTION('',(1.,0.,-0.));
#48=AXIS2_PLACEMENT_3D('',#45,#46,#47);
#49=ITEM_DEFINED_TRANSFORMATION('','',#48,#15);
#50=(REPRESENTATION_RELATIONSHIP('','',#35,#16)REPRESENTATION_RELATIONSHIP_WITH_TRANSFORMATION(#49)SHAPE_REPRESENTATION_RELATIONSHIP());
#51=NEXT_ASSEMBLY_USAGE_OCCURRENCE('\X2\76D8740360AC6302\X0\625.stp_1','\X2\76D8740360AC6302\X0\625.stp','\X2\76D8740360AC6302\X0\625.stp',#25,#44,$);
#52=PRODUCT_DEFINITION_SHAPE('','',#51);
#53=CONTEXT_DEPENDENT_SHAPE_REPRESENTATION(#50,#52);
#54=(NAMED_UNIT(*)PLANE_ANGLE_UNIT()SI_UNIT($,.RADIAN.));
#55=PLANE_ANGLE_MEASURE_WITH_UNIT(PLANE_ANGLE_MEASURE(0.0174532925),#54);
#56=(CONVERSION_BASED_UNIT('DEGREE',#55)NAMED_UNIT(#57)PLANE_ANGLE_UNIT());
#57=DIMENSIONAL_EXPONENTS(0.,0.,0.,0.,0.,0.,0.);
#58=(NAMED_UNIT(*)SI_UNIT($,.STERADIAN.)SOLID_ANGLE_UNIT());
#59=(LENGTH_UNIT()NAMED_UNIT(*)SI_UNIT(.MILLI.,.METRE.));
#60=UNCERTAINTY_MEASURE_WITH_UNIT(LENGTH_MEASURE(1.000000E-05),#59,'DISTANCE_ACCURACY_VALUE','Maximum Tolerance applied to model');
#61=(GEOMETRIC_REPRESENTATION_CONTEXT(3)GLOBAL_UNCERTAINTY_ASSIGNED_CONTEXT((#60))GLOBAL_UNIT_ASSIGNED_CONTEXT((#59,#56,#58))REPRESENTATION_CONTEXT('','__400'));
#73=CARTESIAN_POINT('',(0.,0.,0.));
#74=DIRECTION('',(0.,0.,1.));
#75=DIRECTION('',(1.,0.,-0.));
#76=AXIS2_PLACEMENT_3D('',#73,#74,#75);
#77=ITEM_DEFINED_TRANSFORMATION('','',#76,#15);
#78=(REPRESENTATION_RELATIONSHIP('','',#63,#35)REPRESENTATION_RELATIONSHIP_WITH_TRANSFORMATION(#77)SHAPE_REPRESENTATION_RELATIONSHIP());
#79=NEXT_ASSEMBLY_USAGE_OCCURRENCE('__400_2','__400','__400',#44,#72,$);
#80=PRODUCT_DEFINITION_SHAPE('','',#79);
#81=CONTEXT_DEPENDENT_SHAPE_REPRESENTATION(#78,#80);
#83=CARTESIAN_POINT('',(98.595795487,-95.823629349,187.733742131));
#84=DIRECTION('',(1.,0.,-0.));
#85=DIRECTION('',(-0.,1.,0.));
#86=AXIS2_PLACEMENT_3D('',#83,#84,#85);
#87=CYLINDRICAL_SURFACE('',#86,1.65);
#88=CARTESIAN_POINT('',(101.595795487,-94.173629349,187.733742131));
#89=VERTEX_POINT('',#88);
#90=CARTESIAN_POINT('',(99.595795487,-94.173629349,187.733742131));
#91=VERTEX_POINT('',#90);
#92=CARTESIAN_POINT('',(101.595795487,-94.173629349,187.733742131));
#93=DIRECTION('',(-1.,-0.,0.));
#94=VECTOR('',#93,2.);
#95=LINE('',#92,#94);
#96=EDGE_CURVE('',#89,#91,#95,.T.);
#97=ORIENTED_EDGE('',*,*,#96,.F.);
#98=CARTESIAN_POINT('',(101.595795487,-94.513785419,186.730343467));
#99=VERTEX_POINT('',#98);
#100=CARTESIAN_POINT('',(101.595795487,-95.823629349,187.733742131));
#101=DIRECTION('',(-1.,-0.,0.));
#102=DIRECTION('',(-0.,0.793844806,-0.608120402));
#103=AXIS2_PLACEMENT_3D('',#100,#101,#102);
#104=CIRCLE('',#103,1.65);
#105=EDGE_CURVE('',#99,#89,#104,.T.);
#106=ORIENTED_EDGE('',*,*,#105,.F.);
#107=CARTESIAN_POINT('',(101.595795487,-95.823629349,187.733742131));
#108=DIRECTION('',(-1.,-0.,0.));
#109=DIRECTION('',(-0.,0.793844806,-0.608120402));
#110=AXIS2_PLACEMENT_3D('',#107,#108,#109);
#111=CIRCLE('',#110,1.65);
#112=EDGE_CURVE('',#89,#99,#111,.T.);
#113=ORIENTED_EDGE('',*,*,#112,.F.);
#114=ORIENTED_EDGE('',*,*,#96,.T.);
#115=CARTESIAN_POINT('',(99.595795487,-95.823629349,187.733742131));
#116=DIRECTION('',(-1.,0.,-0.));
#117=DIRECTION('',(0.,1.,0.));
#118=AXIS2_PLACEMENT_3D('',#115,#116,#117);
#119=CIRCLE('',#118,1.65);
#120=EDGE_CURVE('',#91,#91,#119,.T.);
#121=ORIENTED_EDGE('',*,*,#120,.T.);
#122=EDGE_LOOP('',(#97,#106,#113,#114,#121));
#123=FACE_BOUND('',#122,.T.);
#124=ADVANCED_FACE('',(#123),#87,.F.);
#125=CARTESIAN_POINT('',(101.595795487,-75.10629701,185.333742131));
#126=DIRECTION('',(0.,0.,1.));
#127=DIRECTION('',(-0.766044443,0.64278761,-0.));
#128=AXIS2_PLACEMENT_3D('',#125,#126,#127);
#129=CYLINDRICAL_SURFACE('',#128,2.8);
#130=CARTESIAN_POINT('',(99.450871046,-73.306491703,190.333742131));
#131=VERTEX_POINT('',#130);
#132=CARTESIAN_POINT('',(99.450871046,-73.306491703,185.333742131));
#133=VERTEX_POINT('',#132);
#134=CARTESIAN_POINT('',(99.450871046,-73.306491703,190.333742131));
#135=DIRECTION('',(-0.,-0.,-1.));
#136=VECTOR('',#135,5.);
#137=LINE('',#134,#136);
#138=EDGE_CURVE('',#131,#133,#137,.T.);
#139=ORIENTED_EDGE('',*,*,#138,.F.);
#140=CARTESIAN_POINT('',(101.595795487,-72.30629701,190.333742131));
#141=VERTEX_POINT('',#140);
#142=CARTESIAN_POINT('',(101.595795487,-75.10629701,190.333742131));
#143=DIRECTION('',(-0.,-0.,-1.));
#144=DIRECTION('',(0.,1.,-0.));
#145=AXIS2_PLACEMENT_3D('',#142,#143,#144);
#146=CIRCLE('',#145,2.8);
#147=EDGE_CURVE('',#141,#131,#146,.T.);
#148=ORIENTED_EDGE('',*,*,#147,.F.);
#149=CARTESIAN_POINT('',(101.595795487,-75.10629701,190.333742131));
#150=DIRECTION('',(-0.,-0.,-1.));
#151=DIRECTION('',(0.,1.,-0.));
#152=AXIS2_PLACEMENT_3D('',#149,#150,#151);
#153=CIRCLE('',#152,2.8);
#154=EDGE_CURVE('',#131,#141,#153,.T.);
#155=ORIENTED_EDGE('',*,*,#154,.F.);
#156=ORIENTED_EDGE('',*,*,#138,.T.);
#157=CARTESIAN_POINT('',(103.395600794,-72.961372569,185.333742131));
#158=VERTEX_POINT('',#157);
#159=CARTESIAN_POINT('',(101.595795487,-75.10629701,185.333742131));
#160=DIRECTION('',(-0.,-0.,-1.));
#161=DIRECTION('',(0.64278761,0.766044443,-0.));
#162=AXIS2_PLACEMENT_3D('',#159,#160,#161);
#163=CIRCLE('',#162,2.8);
#164=EDGE_CURVE('',#133,#158,#163,.T.);
#165=ORIENTED_EDGE('',*,*,#164,.T.);
#166=CARTESIAN_POINT('',(101.595795487,-75.10629701,185.333742131));
#167=DIRECTION('',(-0.,-0.,-1.));
#168=DIRECTION('',(0.64278761,0.766044443,-0.));
#169=AXIS2_PLACEMENT_3D('',#166,#167,#168);
#170=CIRCLE('',#169,2.8);
#171=EDGE_CURVE('',#158,#133,#170,.T.);
#172=ORIENTED_EDGE('',*,*,#171,.T.);
#173=EDGE_LOOP('',(#139,#148,#155,#156,#165,#172));
#174=FACE_BOUND('',#173,.T.);
#175=ADVANCED_FACE('',(#174),#129,.F.);
#176=CARTESIAN_POINT('',(96.595795487,-99.823629446,185.333742131));
#177=DIRECTION('',(-0.,-0.,-1.));
#178=DIRECTION('',(-0.766044443,0.64278761,-0.));
#179=AXIS2_PLACEMENT_3D('',#176,#177,#178);
#180=PLANE('',#179);
#181=ORIENTED_EDGE('',*,*,#164,.F.);
#182=ORIENTED_EDGE('',*,*,#171,.F.);
#183=EDGE_LOOP('',(#181,#182));
#184=FACE_BOUND('',#183,.T.);
#185=CARTESIAN_POINT('',(96.595795487,-102.823629446,185.333742131));
#186=VERTEX_POINT('',#185);
#187=CARTESIAN_POINT('',(93.612667334,-100.141350117,185.333742131));
#188=VERTEX_POINT('',#187);
#189=CARTESIAN_POINT('',(96.595795487,-99.823629446,185.333742131));
#190=DIRECTION('',(-0.,-0.,-1.));
#191=DIRECTION('',(0.,1.,-0.));
#192=AXIS2_PLACEMENT_3D('',#189,#190,#191);
#193=CIRCLE('',#192,3.);
#194=EDGE_CURVE('',#186,#188,#193,.T.);
#195=ORIENTED_EDGE('',*,*,#194,.F.);
#196=CARTESIAN_POINT('',(99.595795487,-99.823629446,185.333742131));
#197=VERTEX_POINT('',#196);
#198=CARTESIAN_POINT('',(96.595795487,-99.823629446,185.333742131));
#199=DIRECTION('',(-0.,-0.,-1.));
#200=DIRECTION('',(0.,1.,-0.));
#201=AXIS2_PLACEMENT_3D('',#198,#199,#200);
#202=CIRCLE('',#201,3.);
#203=EDGE_CURVE('',#197,#186,#202,.T.);
#204=ORIENTED_EDGE('',*,*,#203,.F.);
#205=CARTESIAN_POINT('',(99.595795487,-91.823629446,185.333742131));
#206=VERTEX_POINT('',#205);
#207=CARTESIAN_POINT('',(99.595795487,-91.823629446,185.333742131));
#208=DIRECTION('',(-0.,-1.,0.));
#209=VECTOR('',#208,8.);
#210=LINE('',#207,#209);
#211=EDGE_CURVE('',#206,#197,#210,.T.);
#212=ORIENTED_EDGE('',*,*,#211,.F.);
#213=CARTESIAN_POINT('',(101.595795487,-91.823629446,185.333742131));
#214=VERTEX_POINT('',#213);
#215=CARTESIAN_POINT('',(101.595795487,-91.823629446,185.333742131));
#216=DIRECTION('',(-1.,0.,0.));
#217=VECTOR('',#216,2.);
#218=LINE('',#215,#217);
#219=EDGE_CURVE('',#214,#206,#218,.T.);
#220=ORIENTED_EDGE('',*,*,#219,.F.);
#221=CARTESIAN_POINT('',(101.595795487,-99.823629446,185.333742131));
#222=VERTEX_POINT('',#221);
#223=CARTESIAN_POINT('',(101.595795487,-99.823629446,185.333742131));
#224=DIRECTION('',(-0.,1.,-0.));
#225=VECTOR('',#224,8.);
#226=LINE('',#223,#225);
#227=EDGE_CURVE('',#222,#214,#226,.T.);
#228=ORIENTED_EDGE('',*,*,#227,.F.);
#229=CARTESIAN_POINT('',(91.623915232,-100.353163899,185.333742131));
#230=VERTEX_POINT('',#229);
#231=CARTESIAN_POINT('',(96.595795487,-99.823629446,185.333742131));
#232=DIRECTION('',(0.,0.,1.));
#233=DIRECTION('',(-0.64278761,-0.766044443,0.));
#234=AXIS2_PLACEMENT_3D('',#231,#232,#233);
#235=CIRCLE('',#234,5.);
#236=EDGE_CURVE('',#230,#222,#235,.T.);
#237=ORIENTED_EDGE('',*,*,#236,.F.);
#238=CARTESIAN_POINT('',(89.086122695,-76.525440247,185.333742131));
#239=VERTEX_POINT('',#238);
#240=CARTESIAN_POINT('',(89.086122695,-76.525440247,185.333742131));
#241=DIRECTION('',(0.105906891,-0.994376051,0.));
#242=VECTOR('',#241,23.962487462);
#243=LINE('',#240,#242);
#244=EDGE_CURVE('',#239,#230,#243,.T.);
#245=ORIENTED_EDGE('',*,*,#244,.F.);
#246=CARTESIAN_POINT('',(91.940267791,-67.166758994,185.333742131));
#247=VERTEX_POINT('',#246);
#248=CARTESIAN_POINT('',(101.51582333,-75.201604115,185.333742131));
#249=DIRECTION('',(0.,0.,1.));
#250=DIRECTION('',(-0.64278761,-0.766044443,0.));
#251=AXIS2_PLACEMENT_3D('',#248,#249,#250);
#252=CIRCLE('',#251,12.5);
#253=EDGE_CURVE('',#247,#239,#252,.T.);
#254=ORIENTED_EDGE('',*,*,#253,.F.);
#255=CARTESIAN_POINT('',(96.659993151,-86.719890153,185.333742131));
#256=VERTEX_POINT('',#255);
#257=CARTESIAN_POINT('',(101.51582333,-75.201604115,185.333742131));
#258=DIRECTION('',(0.,0.,1.));
#259=DIRECTION('',(-0.64278761,-0.766044443,0.));
#260=AXIS2_PLACEMENT_3D('',#257,#258,#259);
#261=CIRCLE('',#260,12.5);
#262=EDGE_CURVE('',#256,#247,#261,.T.);
#263=ORIENTED_EDGE('',*,*,#262,.F.);
#264=CARTESIAN_POINT('',(95.494593908,-86.484278802,185.333742131));
#265=VERTEX_POINT('',#264);
#266=CARTESIAN_POINT('',(95.494593908,-89.484278802,185.333742131));
#267=DIRECTION('',(-0.,-0.,-1.));
#268=DIRECTION('',(0.,1.,-0.));
#269=AXIS2_PLACEMENT_3D('',#266,#267,#268);
#270=CIRCLE('',#269,3.);
#271=EDGE_CURVE('',#265,#256,#270,.T.);
#272=ORIENTED_EDGE('',*,*,#271,.F.);
#273=CARTESIAN_POINT('',(92.511466131,-89.802003007,185.333742131));
#274=VERTEX_POINT('',#273);
#275=CARTESIAN_POINT('',(95.494593908,-89.484278802,185.333742131));
#276=DIRECTION('',(-0.,-0.,-1.));
#277=DIRECTION('',(0.,1.,-0.));
#278=AXIS2_PLACEMENT_3D('',#275,#276,#277);
#279=CIRCLE('',#278,3.);
#280=EDGE_CURVE('',#274,#265,#279,.T.);
#281=ORIENTED_EDGE('',*,*,#280,.F.);
#282=CARTESIAN_POINT('',(93.612667334,-100.141350117,185.333742131));
#283=DIRECTION('',(-0.105906891,0.994376051,-0.));
#284=VECTOR('',#283,10.397823944);
#285=LINE('',#282,#284);
#286=EDGE_CURVE('',#188,#274,#285,.T.);
#287=ORIENTED_EDGE('',*,*,#286,.F.);
#288=EDGE_LOOP('',(#195,#204,#212,#220,#228,#237,#245,#254,#263,#272,#281,#287));
#289=FACE_BOUND('',#288,.T.);
#290=ADVANCED_FACE('',(#184,#289),#180,.T.);
#291=CARTESIAN_POINT('',(96.595795487,-99.823629446,193.333742131));
#292=DIRECTION('',(-0.,0.,1.));
#293=DIRECTION('',(-0.,-1.,0.));
#294=AXIS2_PLACEMENT_3D('',#291,#292,#293);
#295=CYLINDRICAL_SURFACE('',#294,3.);
#296=CARTESIAN_POINT('',(96.595795487,-102.823629446,190.333742131));
#297=VERTEX_POINT('',#296);
#298=CARTESIAN_POINT('',(96.595795487,-102.823629446,190.333742131));
#299=DIRECTION('',(0.,-0.,-1.));
#300=VECTOR('',#299,5.);
#301=LINE('',#298,#300);
#302=EDGE_CURVE('',#297,#186,#301,.T.);
#303=ORIENTED_EDGE('',*,*,#302,.F.);
#304=CARTESIAN_POINT('',(99.595795487,-99.823629446,190.333742131));
#305=VERTEX_POINT('',#304);
#306=CARTESIAN_POINT('',(96.595795487,-99.823629446,190.333742131));
#307=DIRECTION('',(-0.,-0.,-1.));
#308=DIRECTION('',(0.,1.,-0.));
#309=AXIS2_PLACEMENT_3D('',#306,#307,#308);
#310=CIRCLE('',#309,3.);
#311=EDGE_CURVE('',#305,#297,#310,.T.);
#312=ORIENTED_EDGE('',*,*,#311,.F.);
#313=CARTESIAN_POINT('',(99.595795487,-99.823629446,190.333742131));
#314=DIRECTION('',(0.,-0.,-1.));
#315=VECTOR('',#314,5.);
#316=LINE('',#313,#315);
#317=EDGE_CURVE('',#305,#197,#316,.T.);
#318=ORIENTED_EDGE('',*,*,#317,.T.);
#319=ORIENTED_EDGE('',*,*,#203,.T.);
#320=EDGE_LOOP('',(#303,#312,#318,#319));
#321=FACE_BOUND('',#320,.T.);
#322=ADVANCED_FACE('',(#321),#295,.F.);
#323=CARTESIAN_POINT('',(93.612667325,-100.141350036,193.333742131));
#324=DIRECTION('',(-0.994376051,-0.105906891,0.));
#325=DIRECTION('',(0.105906891,-0.994376051,0.));
#326=AXIS2_PLACEMENT_3D('',#323,#324,#325);
#327=PLANE('',#326);
#328=CARTESIAN_POINT('',(93.612667334,-100.141350117,190.333742131));
#329=VERTEX_POINT('',#328);
#330=CARTESIAN_POINT('',(93.612667334,-100.141350117,190.333742131));
#331=DIRECTION('',(0.,-0.,-1.));
#332=VECTOR('',#331,5.);
#333=LINE('',#330,#332);
#334=EDGE_CURVE('',#329,#188,#333,.T.);
#335=ORIENTED_EDGE('',*,*,#334,.T.);
#336=ORIENTED_EDGE('',*,*,#286,.T.);
#337=CARTESIAN_POINT('',(92.511466131,-89.802003007,190.333742131));
#338=VERTEX_POINT('',#337);
#339=CARTESIAN_POINT('',(92.511465755,-89.801999474,190.333742131));
#340=DIRECTION('',(-0.,-0.,-1.));
#341=VECTOR('',#340,5.);
#342=LINE('',#339,#341);
#343=EDGE_CURVE('',#338,#274,#342,.T.);
#344=ORIENTED_EDGE('',*,*,#343,.F.);
#345=CARTESIAN_POINT('',(93.612667334,-100.141350117,190.333742131));
#346=DIRECTION('',(-0.105906891,0.994376051,-0.));
#347=VECTOR('',#346,10.397823943);
#348=LINE('',#345,#347);
#349=EDGE_CURVE('',#329,#338,#348,.T.);
#350=ORIENTED_EDGE('',*,*,#349,.F.);
#351=EDGE_LOOP('',(#335,#336,#344,#350));
#352=FACE_BOUND('',#351,.T.);
#353=ADVANCED_FACE('',(#352),#327,.F.);
#354=CARTESIAN_POINT('',(95.494593908,-89.484278802,193.333742131));
#355=DIRECTION('',(-0.,-0.,-1.));
#356=DIRECTION('',(0.,1.,-0.));
#357=AXIS2_PLACEMENT_3D('',#354,#355,#356);
#358=CYLINDRICAL_SURFACE('',#357,3.);
#359=CARTESIAN_POINT('',(95.494593908,-86.484278802,190.333742131));
#360=VERTEX_POINT('',#359);
#361=CARTESIAN_POINT('',(95.494593908,-86.484278802,185.333742131));
#362=DIRECTION('',(0.,0.,1.));
#363=VECTOR('',#362,5.);
#364=LINE('',#361,#363);
#365=EDGE_CURVE('',#265,#360,#364,.T.);
#366=ORIENTED_EDGE('',*,*,#365,.F.);
#367=ORIENTED_EDGE('',*,*,#271,.T.);
#368=CARTESIAN_POINT('',(96.659993151,-86.719890153,190.333742131));
#369=VERTEX_POINT('',#368);
#370=CARTESIAN_POINT('',(96.659993151,-86.719890153,190.333742131));
#371=DIRECTION('',(-0.,-0.,-1.));
#372=VECTOR('',#371,5.);
#373=LINE('',#370,#372);
#374=EDGE_CURVE('',#369,#256,#373,.T.);
#375=ORIENTED_EDGE('',*,*,#374,.F.);
#376=CARTESIAN_POINT('',(95.494593908,-89.484278802,190.333742131));
#377=DIRECTION('',(-0.,-0.,-1.));
#378=DIRECTION('',(0.,1.,-0.));
#379=AXIS2_PLACEMENT_3D('',#376,#377,#378);
#380=CIRCLE('',#379,3.);
#381=EDGE_CURVE('',#360,#369,#380,.T.);
#382=ORIENTED_EDGE('',*,*,#381,.F.);
#383=EDGE_LOOP('',(#366,#367,#375,#382));
#384=FACE_BOUND('',#383,.T.);
#385=ADVANCED_FACE('',(#384),#358,.F.);
#386=CARTESIAN_POINT('',(101.51582333,-75.201604115,193.333742131));
#387=DIRECTION('',(-0.,-0.,-1.));
#388=DIRECTION('',(-0.766044443,0.64278761,-0.));
#389=AXIS2_PLACEMENT_3D('',#386,#387,#388);
#390=CYLINDRICAL_SURFACE('',#389,12.5);
#391=CARTESIAN_POINT('',(91.940267791,-67.166758994,190.333742131));
#392=VERTEX_POINT('',#391);
#393=CARTESIAN_POINT('',(91.940267791,-67.166758994,185.333742131));
#394=DIRECTION('',(0.,0.,1.));
#395=VECTOR('',#394,5.);
#396=LINE('',#393,#395);
#397=EDGE_CURVE('',#247,#392,#396,.T.);
#398=ORIENTED_EDGE('',*,*,#397,.T.);
#399=CARTESIAN_POINT('',(101.51582333,-75.201604115,190.333742131));
#400=DIRECTION('',(0.,0.,1.));
#401=DIRECTION('',(0.,1.,-0.));
#402=AXIS2_PLACEMENT_3D('',#399,#400,#401);
#403=CIRCLE('',#402,12.5);
#404=EDGE_CURVE('',#369,#392,#403,.T.);
#405=ORIENTED_EDGE('',*,*,#404,.F.);
#406=ORIENTED_EDGE('',*,*,#374,.T.);
#407=ORIENTED_EDGE('',*,*,#262,.T.);
#408=EDGE_LOOP('',(#398,#405,#406,#407));
#409=FACE_BOUND('',#408,.T.);
#410=ADVANCED_FACE('',(#409),#390,.T.);
#411=CARTESIAN_POINT('',(89.086122695,-76.525440247,193.333742131));
#412=DIRECTION('',(0.994376051,0.105906891,-0.));
#413=DIRECTION('',(-0.105906891,0.994376051,-0.));
#414=AXIS2_PLACEMENT_3D('',#411,#412,#413);
#415=PLANE('',#414);
#416=ORIENTED_EDGE('',*,*,#244,.T.);
#417=CARTESIAN_POINT('',(91.62391569,-100.353168196,190.333742131));
#418=VERTEX_POINT('',#417);
#419=CARTESIAN_POINT('',(91.623915232,-100.353163899,190.333742131));
#420=DIRECTION('',(0.,-0.,-1.));
#421=VECTOR('',#420,5.);
#422=LINE('',#419,#421);
#423=EDGE_CURVE('',#418,#230,#422,.T.);
#424=ORIENTED_EDGE('',*,*,#423,.F.);
#425=CARTESIAN_POINT('',(89.086122695,-76.525440247,190.333742131));
#426=VERTEX_POINT('',#425);
#427=CARTESIAN_POINT('',(89.086122695,-76.525440247,190.333742131));
#428=DIRECTION('',(0.105906891,-0.994376051,0.));
#429=VECTOR('',#428,23.962491784);
#430=LINE('',#427,#429);
#431=EDGE_CURVE('',#426,#418,#430,.T.);
#432=ORIENTED_EDGE('',*,*,#431,.F.);
#433=CARTESIAN_POINT('',(89.086122695,-76.525440247,190.333742131));
#434=DIRECTION('',(-0.,-0.,-1.));
#435=VECTOR('',#434,5.);
#436=LINE('',#433,#435);
#437=EDGE_CURVE('',#426,#239,#436,.T.);
#438=ORIENTED_EDGE('',*,*,#437,.T.);
#439=EDGE_LOOP('',(#416,#424,#432,#438));
#440=FACE_BOUND('',#439,.T.);
#441=ADVANCED_FACE('',(#440),#415,.F.);
#442=CARTESIAN_POINT('',(96.595795487,-99.823629446,193.333742131));
#443=DIRECTION('',(0.,-0.,-1.));
#444=DIRECTION('',(-0.,1.,-0.));
#445=AXIS2_PLACEMENT_3D('',#442,#443,#444);
#446=CYLINDRICAL_SURFACE('',#445,5.);
#447=ORIENTED_EDGE('',*,*,#236,.T.);
#448=CARTESIAN_POINT('',(101.595795487,-99.823629163,190.333742131));
#449=VERTEX_POINT('',#448);
#450=CARTESIAN_POINT('',(101.595795487,-99.823629446,190.333742131));
#451=DIRECTION('',(0.,-0.,-1.));
#452=VECTOR('',#451,5.);
#453=LINE('',#450,#452);
#454=EDGE_CURVE('',#449,#222,#453,.T.);
#455=ORIENTED_EDGE('',*,*,#454,.F.);
#456=CARTESIAN_POINT('',(96.595795487,-99.823629446,190.333742131));
#457=DIRECTION('',(0.,0.,1.));
#458=DIRECTION('',(0.,1.,-0.));
#459=AXIS2_PLACEMENT_3D('',#456,#457,#458);
#460=CIRCLE('',#459,5.);
#461=EDGE_CURVE('',#418,#449,#460,.T.);
#462=ORIENTED_EDGE('',*,*,#461,.F.);
#463=ORIENTED_EDGE('',*,*,#423,.T.);
#464=EDGE_LOOP('',(#447,#455,#462,#463));
#465=FACE_BOUND('',#464,.T.);
#466=ADVANCED_FACE('',(#465),#446,.T.);
#467=CARTESIAN_POINT('',(101.595795487,-99.823629253,193.333742131));
#468=DIRECTION('',(-1.,-0.,-0.));
#469=DIRECTION('',(0.,-1.,0.));
#470=AXIS2_PLACEMENT_3D('',#467,#468,#469);
#471=PLANE('',#470);
#472=ORIENTED_EDGE('',*,*,#105,.T.);
#473=ORIENTED_EDGE('',*,*,#112,.T.);
#474=EDGE_LOOP('',(#472,#473));
#475=FACE_BOUND('',#474,.T.);
#476=ORIENTED_EDGE('',*,*,#227,.T.);
#477=CARTESIAN_POINT('',(101.595795487,-91.823629446,190.333742131));
#478=VERTEX_POINT('',#477);
#479=CARTESIAN_POINT('',(101.595795487,-91.823629446,190.333742131));
#480=DIRECTION('',(-0.,-0.,-1.));
#481=VECTOR('',#480,5.);
#482=LINE('',#479,#481);
#483=EDGE_CURVE('',#478,#214,#482,.T.);
#484=ORIENTED_EDGE('',*,*,#483,.F.);
#485=CARTESIAN_POINT('',(101.595795487,-99.823629163,190.333742131));
#486=DIRECTION('',(-0.,1.,-0.));
#487=VECTOR('',#486,7.999999718);
#488=LINE('',#485,#487);
#489=EDGE_CURVE('',#449,#478,#488,.T.);
#490=ORIENTED_EDGE('',*,*,#489,.F.);
#491=ORIENTED_EDGE('',*,*,#454,.T.);
#492=EDGE_LOOP('',(#476,#484,#490,#491));
#493=FACE_BOUND('',#492,.T.);
#494=ADVANCED_FACE('',(#475,#493),#471,.F.);
#495=CARTESIAN_POINT('',(101.595795487,-91.823629446,193.333742131));
#496=DIRECTION('',(-0.,-1.,0.));
#497=DIRECTION('',(1.,-0.,-0.));
#498=AXIS2_PLACEMENT_3D('',#495,#496,#497);
#499=PLANE('',#498);
#500=ORIENTED_EDGE('',*,*,#219,.T.);
#501=CARTESIAN_POINT('',(99.595795487,-91.823629446,190.333742131));
#502=VERTEX_POINT('',#501);
#503=CARTESIAN_POINT('',(99.595795487,-91.823629446,190.333742131));
#504=DIRECTION('',(0.,-0.,-1.));
#505=VECTOR('',#504,5.);
#506=LINE('',#503,#505);
#507=EDGE_CURVE('',#502,#206,#506,.T.);
#508=ORIENTED_EDGE('',*,*,#507,.F.);
#509=CARTESIAN_POINT('',(101.595795487,-91.823629446,190.333742131));
#510=DIRECTION('',(-1.,0.,0.));
#511=VECTOR('',#510,2.);
#512=LINE('',#509,#511);
#513=EDGE_CURVE('',#478,#502,#512,.T.);
#514=ORIENTED_EDGE('',*,*,#513,.F.);
#515=ORIENTED_EDGE('',*,*,#483,.T.);
#516=EDGE_LOOP('',(#500,#508,#514,#515));
#517=FACE_BOUND('',#516,.T.);
#518=ADVANCED_FACE('',(#517),#499,.F.);
#519=CARTESIAN_POINT('',(99.595795487,-91.823629446,193.333742131));
#520=DIRECTION('',(1.,-0.,0.));
#521=DIRECTION('',(0.,1.,-0.));
#522=AXIS2_PLACEMENT_3D('',#519,#520,#521);
#523=PLANE('',#522);
#524=ORIENTED_EDGE('',*,*,#120,.F.);
#525=EDGE_LOOP('',(#524));
#526=FACE_BOUND('',#525,.T.);
#527=ORIENTED_EDGE('',*,*,#317,.F.);
#528=CARTESIAN_POINT('',(99.595795487,-91.823629446,190.333742131));
#529=DIRECTION('',(-0.,-1.,0.));
#530=VECTOR('',#529,8.);
#531=LINE('',#528,#530);
#532=EDGE_CURVE('',#502,#305,#531,.T.);
#533=ORIENTED_EDGE('',*,*,#532,.F.);
#534=ORIENTED_EDGE('',*,*,#507,.T.);
#535=ORIENTED_EDGE('',*,*,#211,.T.);
#536=EDGE_LOOP('',(#527,#533,#534,#535));
#537=FACE_BOUND('',#536,.T.);
#538=ADVANCED_FACE('',(#526,#537),#523,.F.);
#539=CARTESIAN_POINT('',(96.595795487,-99.823629446,190.333742131));
#540=DIRECTION('',(-0.,-0.,-1.));
#541=DIRECTION('',(-0.766044443,0.64278761,-0.));
#542=AXIS2_PLACEMENT_3D('',#539,#540,#541);
#543=PLANE('',#542);
#544=ORIENTED_EDGE('',*,*,#147,.T.);
#545=ORIENTED_EDGE('',*,*,#154,.T.);
#546=EDGE_LOOP('',(#544,#545));
#547=FACE_BOUND('',#546,.T.);
#548=ORIENTED_EDGE('',*,*,#311,.T.);
#549=CARTESIAN_POINT('',(96.595795487,-99.823629446,190.333742131));
#550=DIRECTION('',(-0.,-0.,-1.));
#551=DIRECTION('',(0.,1.,-0.));
#552=AXIS2_PLACEMENT_3D('',#549,#550,#551);
#553=CIRCLE('',#552,3.);
#554=EDGE_CURVE('',#297,#329,#553,.T.);
#555=ORIENTED_EDGE('',*,*,#554,.T.);
#556=ORIENTED_EDGE('',*,*,#349,.T.);
#557=CARTESIAN_POINT('',(95.494593908,-89.484278802,190.333742131));
#558=DIRECTION('',(-0.,-0.,-1.));
#559=DIRECTION('',(0.,1.,-0.));
#560=AXIS2_PLACEMENT_3D('',#557,#558,#559);
#561=CIRCLE('',#560,3.);
#562=EDGE_CURVE('',#338,#360,#561,.T.);
#563=ORIENTED_EDGE('',*,*,#562,.T.);
#564=ORIENTED_EDGE('',*,*,#381,.T.);
#565=ORIENTED_EDGE('',*,*,#404,.T.);
#566=CARTESIAN_POINT('',(101.51582333,-75.201604115,190.333742131));
#567=DIRECTION('',(0.,0.,1.));
#568=DIRECTION('',(0.,1.,-0.));
#569=AXIS2_PLACEMENT_3D('',#566,#567,#568);
#570=CIRCLE('',#569,12.5);
#571=EDGE_CURVE('',#392,#426,#570,.T.);
#572=ORIENTED_EDGE('',*,*,#571,.T.);
#573=ORIENTED_EDGE('',*,*,#431,.T.);
#574=ORIENTED_EDGE('',*,*,#461,.T.);
#575=ORIENTED_EDGE('',*,*,#489,.T.);
#576=ORIENTED_EDGE('',*,*,#513,.T.);
#577=ORIENTED_EDGE('',*,*,#532,.T.);
#578=EDGE_LOOP('',(#548,#555,#556,#563,#564,#565,#572,#573,#574,#575,#576,#577));
#579=FACE_BOUND('',#578,.T.);
#580=ADVANCED_FACE('',(#547,#579),#543,.F.);
#581=CARTESIAN_POINT('',(96.595795487,-99.823629446,193.333742131));
#582=DIRECTION('',(-0.,0.,1.));
#583=DIRECTION('',(-0.,-1.,0.));
#584=AXIS2_PLACEMENT_3D('',#581,#582,#583);
#585=CYLINDRICAL_SURFACE('',#584,3.);
#586=ORIENTED_EDGE('',*,*,#302,.T.);
#587=ORIENTED_EDGE('',*,*,#194,.T.);
#588=ORIENTED_EDGE('',*,*,#334,.F.);
#589=ORIENTED_EDGE('',*,*,#554,.F.);
#590=EDGE_LOOP('',(#586,#587,#588,#589));
#591=FACE_BOUND('',#590,.T.);
#592=ADVANCED_FACE('',(#591),#585,.F.);
#593=CARTESIAN_POINT('',(95.494593908,-89.484278802,193.333742131));
#594=DIRECTION('',(-0.,-0.,-1.));
#595=DIRECTION('',(0.,1.,-0.));
#596=AXIS2_PLACEMENT_3D('',#593,#594,#595);
#597=CYLINDRICAL_SURFACE('',#596,3.);
#598=ORIENTED_EDGE('',*,*,#365,.T.);
#599=ORIENTED_EDGE('',*,*,#562,.F.);
#600=ORIENTED_EDGE('',*,*,#343,.T.);
#601=ORIENTED_EDGE('',*,*,#280,.T.);
#602=EDGE_LOOP('',(#598,#599,#600,#601));
#603=FACE_BOUND('',#602,.T.);
#604=ADVANCED_FACE('',(#603),#597,.F.);
#605=CARTESIAN_POINT('',(101.51582333,-75.201604115,193.333742131));
#606=DIRECTION('',(-0.,-0.,-1.));
#607=DIRECTION('',(-0.766044443,0.64278761,-0.));
#608=AXIS2_PLACEMENT_3D('',#605,#606,#607);
#609=CYLINDRICAL_SURFACE('',#608,12.5);
#610=ORIENTED_EDGE('',*,*,#397,.F.);
#611=ORIENTED_EDGE('',*,*,#253,.T.);
#612=ORIENTED_EDGE('',*,*,#437,.F.);
#613=ORIENTED_EDGE('',*,*,#571,.F.);
#614=EDGE_LOOP('',(#610,#611,#612,#613));
#615=FACE_BOUND('',#614,.T.);
#616=ADVANCED_FACE('',(#615),#609,.T.);
#617=CLOSED_SHELL('',(#124,#175,#290,#322,#353,#385,#410,#441,#466,#494,#518,#538,#580,#592,#604,#616));
#618=MANIFOLD_SOLID_BREP('\X2\96F64EF6\X0\400',#617);
#619=COLOUR_RGB('',0.90196079,0.827450991,0.776470602);
#620=FILL_AREA_STYLE_COLOUR('',#619);
#621=FILL_AREA_STYLE('',(#620));
#622=SURFACE_STYLE_FILL_AREA(#621);
#623=SURFACE_SIDE_STYLE('',(#622));
#624=SURFACE_STYLE_USAGE(.BOTH.,#623);
#625=PRESENTATION_STYLE_ASSIGNMENT((#624));
#82=STYLED_ITEM('',(#625),#618);
#63=SHAPE_REPRESENTATION('__400',(#15),#61);
#64=ADVANCED_BREP_SHAPE_REPRESENTATION('__400',(#618),#61);
#633=SHAPE_REPRESENTATION_RELATIONSHIP('','',#63,#64);
#634=CARTESIAN_POINT('',(0.,0.,0.));
#635=DIRECTION('',(0.,0.,1.));
#636=DIRECTION('',(1.,0.,0.));
#637=AXIS2_PLACEMENT_3D('',#634,#635,#636);
#639=MAPPED_ITEM('',#638,#637);
#638=REPRESENTATION_MAP(#637,#63);
#640=APPLICATION_CONTEXT('Managed model based 3d engineering');
#641=APPLICATION_PROTOCOL_DEFINITION('international standard','ap242_managed_model_based_3d_engineering',2014,#640);
#642=PRODUCT_CONTEXT('',#640,'mechanical');
#643=PRODUCT_DEFINITION_CONTEXT('part definition',#640,'design');
#71=PRODUCT('__400','__400','',(#642));
#644=PRODUCT_RELATED_PRODUCT_CATEGORY('part','',(#71));
#645=PRODUCT_DEFINITION_FORMATION_WITH_SPECIFIED_SOURCE('','',#71,.NOT_KNOWN.);
#72=PRODUCT_DEFINITION('design','',#645,#643);
#70=PRODUCT_DEFINITION_SHAPE('','',#72);
#646=SHAPE_DEFINITION_REPRESENTATION(#70,#63);
#62=DRAUGHTING_MODEL('',(#639),#61);
#647=(NAMED_UNIT(*)PLANE_ANGLE_UNIT()SI_UNIT($,.RADIAN.));
#648=PLANE_ANGLE_MEASURE_WITH_UNIT(PLANE_ANGLE_MEASURE(0.0174532925),#647);
#649=(CONVERSION_BASED_UNIT('DEGREE',#648)NAMED_UNIT(#650)PLANE_ANGLE_UNIT());
#650=DIMENSIONAL_EXPONENTS(0.,0.,0.,0.,0.,0.,0.);
#651=(NAMED_UNIT(*)SI_UNIT($,.STERADIAN.)SOLID_ANGLE_UNIT());
#652=(LENGTH_UNIT()NAMED_UNIT(*)SI_UNIT(.MILLI.,.METRE.));
#653=UNCERTAINTY_MEASURE_WITH_UNIT(LENGTH_MEASURE(1.000000E-05),#652,'DISTANCE_ACCURACY_VALUE','Maximum Tolerance applied to model');
#654=(GEOMETRIC_REPRESENTATION_CONTEXT(3)GLOBAL_UNCERTAINTY_ASSIGNED_CONTEXT((#653))GLOBAL_UNIT_ASSIGNED_CONTEXT((#652,#649,#651))REPRESENTATION_CONTEXT('','__400'));
#666=CARTESIAN_POINT('',(0.,0.,0.));
#667=DIRECTION('',(0.,0.,1.));
#668=DIRECTION('',(1.,0.,-0.));
#669=AXIS2_PLACEMENT_3D('',#666,#667,#668);
#670=ITEM_DEFINED_TRANSFORMATION('','',#669,#15);
#671=(REPRESENTATION_RELATIONSHIP('','',#656,#35)REPRESENTATION_RELATIONSHIP_WITH_TRANSFORMATION(#670)SHAPE_REPRESENTATION_RELATIONSHIP());
#672=NEXT_ASSEMBLY_USAGE_OCCURRENCE('__400_3','__400','__400',#44,#665,$);
#673=PRODUCT_DEFINITION_SHAPE('','',#672);
#674=CONTEXT_DEPENDENT_SHAPE_REPRESENTATION(#671,#673);
#676=CARTESIAN_POINT('',(54.595795487,-91.823629446,193.333742131));
#677=DIRECTION('',(1.,-0.,-0.));
#678=DIRECTION('',(0.,1.,-0.));
#679=AXIS2_PLACEMENT_3D('',#676,#677,#678);
#680=PLANE('',#679);
#681=CARTESIAN_POINT('',(54.595795487,-94.173629349,187.833742131));
#682=VERTEX_POINT('',#681);
#683=CARTESIAN_POINT('',(54.595795487,-95.823629349,187.833742131));
#684=DIRECTION('',(1.,-0.,-0.));
#685=DIRECTION('',(0.,1.,0.));
#686=AXIS2_PLACEMENT_3D('',#683,#684,#685);
#687=CIRCLE('',#686,1.65);
#688=EDGE_CURVE('',#682,#682,#687,.T.);
#689=ORIENTED_EDGE('',*,*,#688,.T.);
#690=EDGE_LOOP('',(#689));
#691=FACE_BOUND('',#690,.T.);
#692=CARTESIAN_POINT('',(54.595795487,-91.823629446,185.333742131));
#693=VERTEX_POINT('',#692);
#694=CARTESIAN_POINT('',(54.595795487,-99.823629446,185.333742131));
#695=VERTEX_POINT('',#694);
#696=CARTESIAN_POINT('',(54.595795487,-91.823629446,185.333742131));
#697=DIRECTION('',(-0.,-1.,0.));
#698=VECTOR('',#697,8.);
#699=LINE('',#696,#698);
#700=EDGE_CURVE('',#693,#695,#699,.T.);
#701=ORIENTED_EDGE('',*,*,#700,.T.);
#702=CARTESIAN_POINT('',(54.595795487,-99.823629446,190.333742131));
#703=VERTEX_POINT('',#702);
#704=CARTESIAN_POINT('',(54.595795487,-99.823629446,190.333742131));
#705=DIRECTION('',(-0.,-0.,-1.));
#706=VECTOR('',#705,5.);
#707=LINE('',#704,#706);
#708=EDGE_CURVE('',#703,#695,#707,.T.);
#709=ORIENTED_EDGE('',*,*,#708,.F.);
#710=CARTESIAN_POINT('',(54.595795487,-91.823629446,190.333742131));
#711=VERTEX_POINT('',#710);
#712=CARTESIAN_POINT('',(54.595795487,-91.823629446,190.333742131));
#713=DIRECTION('',(-0.,-1.,0.));
#714=VECTOR('',#713,8.);
#715=LINE('',#712,#714);
#716=EDGE_CURVE('',#711,#703,#715,.T.);
#717=ORIENTED_EDGE('',*,*,#716,.F.);
#718=CARTESIAN_POINT('',(54.595795487,-91.823629446,190.333742131));
#719=DIRECTION('',(-0.,-0.,-1.));
#720=VECTOR('',#719,5.);
#721=LINE('',#718,#720);
#722=EDGE_CURVE('',#711,#693,#721,.T.);
#723=ORIENTED_EDGE('',*,*,#722,.T.);
#724=EDGE_LOOP('',(#701,#709,#717,#723));
#725=FACE_BOUND('',#724,.T.);
#726=ADVANCED_FACE('',(#691,#725),#680,.F.);
#727=CARTESIAN_POINT('',(53.595795487,-95.823629349,187.833742131));
#728=DIRECTION('',(1.,0.,-0.));
#729=DIRECTION('',(-0.,1.,0.));
#730=AXIS2_PLACEMENT_3D('',#727,#728,#729);
#731=CYLINDRICAL_SURFACE('',#730,1.65);
#732=CARTESIAN_POINT('',(56.595795487,-94.173629349,187.833742131));
#733=VERTEX_POINT('',#732);
#734=CARTESIAN_POINT('',(56.595795487,-94.173629349,187.833742131));
#735=DIRECTION('',(-1.,-0.,0.));
#736=VECTOR('',#735,2.);
#737=LINE('',#734,#736);
#738=EDGE_CURVE('',#733,#682,#737,.T.);
#739=ORIENTED_EDGE('',*,*,#738,.F.);
#740=CARTESIAN_POINT('',(56.595795487,-94.513785419,186.830343467));
#741=VERTEX_POINT('',#740);
#742=CARTESIAN_POINT('',(56.595795487,-95.823629349,187.833742131));
#743=DIRECTION('',(-1.,-0.,0.));
#744=DIRECTION('',(-0.,0.793844806,-0.608120402));
#745=AXIS2_PLACEMENT_3D('',#742,#743,#744);
#746=CIRCLE('',#745,1.65);
#747=EDGE_CURVE('',#741,#733,#746,.T.);
#748=ORIENTED_EDGE('',*,*,#747,.F.);
#749=CARTESIAN_POINT('',(56.595795487,-95.823629349,187.833742131));
#750=DIRECTION('',(-1.,-0.,0.));
#751=DIRECTION('',(-0.,0.793844806,-0.608120402));
#752=AXIS2_PLACEMENT_3D('',#749,#750,#751);
#753=CIRCLE('',#752,1.65);
#754=EDGE_CURVE('',#733,#741,#753,.T.);
#755=ORIENTED_EDGE('',*,*,#754,.F.);
#756=ORIENTED_EDGE('',*,*,#738,.T.);
#757=ORIENTED_EDGE('',*,*,#688,.F.);
#758=EDGE_LOOP('',(#739,#748,#755,#756,#757));
#759=FACE_BOUND('',#758,.T.);
#760=ADVANCED_FACE('',(#759),#731,.F.);
#761=CARTESIAN_POINT('',(48.612667325,-100.141350036,193.333742131));
#762=DIRECTION('',(-0.994376051,-0.105906891,0.));
#763=DIRECTION('',(0.105906891,-0.994376051,0.));
#764=AXIS2_PLACEMENT_3D('',#761,#762,#763);
#765=PLANE('',#764);
#766=CARTESIAN_POINT('',(48.328539402,-97.473629349,187.833742131));
#767=VERTEX_POINT('',#766);
#768=CARTESIAN_POINT('',(47.977070017,-94.173629349,187.833742131));
#769=VERTEX_POINT('',#768);
#770=CARTESIAN_POINT('',(48.152804709,-95.823629349,187.833742131));
#771=DIRECTION('',(-0.994376051,-0.105906891,0.));
#772=DIRECTION('',(0.105906891,-0.994376051,-0.));
#773=AXIS2_PLACEMENT_3D('',#770,#771,#772);
#774=ELLIPSE('',#773,1.659331999,1.65);
#775=EDGE_CURVE('',#767,#769,#774,.T.);
#776=ORIENTED_EDGE('',*,*,#775,.T.);
#777=CARTESIAN_POINT('',(48.152804709,-95.823629349,187.833742131));
#778=DIRECTION('',(-0.994376051,-0.105906891,0.));
#779=DIRECTION('',(0.105906891,-0.994376051,-0.));
#780=AXIS2_PLACEMENT_3D('',#777,#778,#779);
#781=ELLIPSE('',#780,1.659331999,1.65);
#782=EDGE_CURVE('',#769,#767,#781,.T.);
#783=ORIENTED_EDGE('',*,*,#782,.T.);
#784=EDGE_LOOP('',(#776,#783));
#785=FACE_BOUND('',#784,.T.);
#786=CARTESIAN_POINT('',(48.612667334,-100.141350117,190.333742131));
#787=VERTEX_POINT('',#786);
#788=CARTESIAN_POINT('',(48.612667334,-100.141350117,185.333742131));
#789=VERTEX_POINT('',#788);
#790=CARTESIAN_POINT('',(48.612667334,-100.141350117,190.333742131));
#791=DIRECTION('',(-0.,-0.,-1.));
#792=VECTOR('',#791,5.);
#793=LINE('',#790,#792);
#794=EDGE_CURVE('',#787,#789,#793,.T.);
#795=ORIENTED_EDGE('',*,*,#794,.T.);
#796=CARTESIAN_POINT('',(47.511466056,-89.802002295,185.333742131));
#797=VERTEX_POINT('',#796);
#798=CARTESIAN_POINT('',(48.612667334,-100.141350117,185.333742131));
#799=DIRECTION('',(-0.105906891,0.994376051,-0.));
#800=VECTOR('',#799,10.397824659);
#801=LINE('',#798,#800);
#802=EDGE_CURVE('',#789,#797,#801,.T.);
#803=ORIENTED_EDGE('',*,*,#802,.T.);
#804=CARTESIAN_POINT('',(47.511466056,-89.802002296,190.333742131));
#805=VERTEX_POINT('',#804);
#806=CARTESIAN_POINT('',(47.511465755,-89.801999474,190.333742131));
#807=DIRECTION('',(-0.,-0.,-1.));
#808=VECTOR('',#807,5.);
#809=LINE('',#806,#808);
#810=EDGE_CURVE('',#805,#797,#809,.T.);
#811=ORIENTED_EDGE('',*,*,#810,.F.);
#812=CARTESIAN_POINT('',(48.612667334,-100.141350117,190.333742131));
#813=DIRECTION('',(-0.105906891,0.994376051,-0.));
#814=VECTOR('',#813,10.397824659);
#815=LINE('',#812,#814);
#816=EDGE_CURVE('',#787,#805,#815,.T.);
#817=ORIENTED_EDGE('',*,*,#816,.F.);
#818=EDGE_LOOP('',(#795,#803,#811,#817));
#819=FACE_BOUND('',#818,.T.);
#820=ADVANCED_FACE('',(#785,#819),#765,.F.);
#821=CARTESIAN_POINT('',(51.595795487,-99.823629446,193.333742131));
#822=DIRECTION('',(-0.,-0.,-1.));
#823=DIRECTION('',(0.,1.,-0.));
#824=AXIS2_PLACEMENT_3D('',#821,#822,#823);
#825=CYLINDRICAL_SURFACE('',#824,5.);
#826=CARTESIAN_POINT('',(46.623915232,-100.353163899,185.333742131));
#827=VERTEX_POINT('',#826);
#828=CARTESIAN_POINT('',(56.595795487,-99.823629446,185.333742131));
#829=VERTEX_POINT('',#828);
#830=CARTESIAN_POINT('',(51.595795487,-99.823629446,185.333742131));
#831=DIRECTION('',(0.,0.,1.));
#832=DIRECTION('',(-0.64278761,-0.766044443,0.));
#833=AXIS2_PLACEMENT_3D('',#830,#831,#832);
#834=CIRCLE('',#833,5.);
#835=EDGE_CURVE('',#827,#829,#834,.T.);
#836=ORIENTED_EDGE('',*,*,#835,.T.);
#837=CARTESIAN_POINT('',(56.595795487,-99.823629476,190.333742131));
#838=VERTEX_POINT('',#837);
#839=CARTESIAN_POINT('',(56.595795487,-99.823629446,190.333742131));
#840=DIRECTION('',(-0.,-0.,-1.));
#841=VECTOR('',#840,5.);
#842=LINE('',#839,#841);
#843=EDGE_CURVE('',#838,#829,#842,.T.);
#844=ORIENTED_EDGE('',*,*,#843,.F.);
#845=CARTESIAN_POINT('',(46.623915678,-100.353168082,190.333742131));
#846=VERTEX_POINT('',#845);
#847=CARTESIAN_POINT('',(51.595795487,-99.823629446,190.333742131));
#848=DIRECTION('',(0.,0.,1.));
#849=DIRECTION('',(-0.,1.,-0.));
#850=AXIS2_PLACEMENT_3D('',#847,#848,#849);
#851=CIRCLE('',#850,5.);
#852=EDGE_CURVE('',#846,#838,#851,.T.);
#853=ORIENTED_EDGE('',*,*,#852,.F.);
#854=CARTESIAN_POINT('',(46.623915232,-100.353163899,190.333742131));
#855=DIRECTION('',(-0.,-0.,-1.));
#856=VECTOR('',#855,5.);
#857=LINE('',#854,#856);
#858=EDGE_CURVE('',#846,#827,#857,.T.);
#859=ORIENTED_EDGE('',*,*,#858,.T.);
#860=EDGE_LOOP('',(#836,#844,#853,#859));
#861=FACE_BOUND('',#860,.T.);
#862=ADVANCED_FACE('',(#861),#825,.T.);
#863=CARTESIAN_POINT('',(56.595795487,-99.823629253,193.333742131));
#864=DIRECTION('',(-1.,-0.,0.));
#865=DIRECTION('',(0.,-1.,0.));
#866=AXIS2_PLACEMENT_3D('',#863,#864,#865);
#867=PLANE('',#866);
#868=ORIENTED_EDGE('',*,*,#747,.T.);
#869=ORIENTED_EDGE('',*,*,#754,.T.);
#870=EDGE_LOOP('',(#868,#869));
#871=FACE_BOUND('',#870,.T.);
#872=CARTESIAN_POINT('',(56.595795487,-91.823629446,185.333742131));
#873=VERTEX_POINT('',#872);
#874=CARTESIAN_POINT('',(56.595795487,-99.823629446,185.333742131));
#875=DIRECTION('',(-0.,1.,-0.));
#876=VECTOR('',#875,8.);
#877=LINE('',#874,#876);
#878=EDGE_CURVE('',#829,#873,#877,.T.);
#879=ORIENTED_EDGE('',*,*,#878,.T.);
#880=CARTESIAN_POINT('',(56.595795487,-91.823629446,190.333742131));
#881=VERTEX_POINT('',#880);
#882=CARTESIAN_POINT('',(56.595795487,-91.823629446,190.333742131));
#883=DIRECTION('',(-0.,-0.,-1.));
#884=VECTOR('',#883,5.);
#885=LINE('',#882,#884);
#886=EDGE_CURVE('',#881,#873,#885,.T.);
#887=ORIENTED_EDGE('',*,*,#886,.F.);
#888=CARTESIAN_POINT('',(56.595795487,-99.823629476,190.333742131));
#889=DIRECTION('',(-0.,1.,-0.));
#890=VECTOR('',#889,8.00000003);
#891=LINE('',#888,#890);
#892=EDGE_CURVE('',#838,#881,#891,.T.);
#893=ORIENTED_EDGE('',*,*,#892,.F.);
#894=ORIENTED_EDGE('',*,*,#843,.T.);
#895=EDGE_LOOP('',(#879,#887,#893,#894));
#896=FACE_BOUND('',#895,.T.);
#897=ADVANCED_FACE('',(#871,#896),#867,.F.);
#898=CARTESIAN_POINT('',(44.086122695,-76.525440247,193.333742131));
#899=DIRECTION('',(0.994376051,0.105906891,-0.));
#900=DIRECTION('',(-0.105906891,0.994376051,-0.));
#901=AXIS2_PLACEMENT_3D('',#898,#899,#900);
#902=PLANE('',#901);
#903=CARTESIAN_POINT('',(45.965758503,-94.173629349,187.833742131));
#904=VERTEX_POINT('',#903);
#905=CARTESIAN_POINT('',(46.317227888,-97.473629349,187.833742131));
#906=VERTEX_POINT('',#905);
#907=CARTESIAN_POINT('',(46.141493195,-95.823629349,187.833742131));
#908=DIRECTION('',(-0.994376051,-0.105906891,0.));
#909=DIRECTION('',(0.105906891,-0.994376051,-0.));
#910=AXIS2_PLACEMENT_3D('',#907,#908,#909);
#911=ELLIPSE('',#910,1.659331999,1.65);
#912=EDGE_CURVE('',#904,#906,#911,.T.);
#913=ORIENTED_EDGE('',*,*,#912,.F.);
#914=CARTESIAN_POINT('',(46.141493195,-95.823629349,187.833742131));
#915=DIRECTION('',(-0.994376051,-0.105906891,0.));
#916=DIRECTION('',(0.105906891,-0.994376051,-0.));
#917=AXIS2_PLACEMENT_3D('',#914,#915,#916);
#918=ELLIPSE('',#917,1.659331999,1.65);
#919=EDGE_CURVE('',#906,#904,#918,.T.);
#920=ORIENTED_EDGE('',*,*,#919,.F.);
#921=EDGE_LOOP('',(#913,#920));
#922=FACE_BOUND('',#921,.T.);
#923=CARTESIAN_POINT('',(44.086122695,-76.525440247,185.333742131));
#924=VERTEX_POINT('',#923);
#925=CARTESIAN_POINT('',(44.086122695,-76.525440247,185.333742131));
#926=DIRECTION('',(0.105906891,-0.994376051,0.));
#927=VECTOR('',#926,23.962487462);
#928=LINE('',#925,#927);
#929=EDGE_CURVE('',#924,#827,#928,.T.);
#930=ORIENTED_EDGE('',*,*,#929,.T.);
#931=ORIENTED_EDGE('',*,*,#858,.F.);
#932=CARTESIAN_POINT('',(44.086122695,-76.525440247,190.333742131));
#933=VERTEX_POINT('',#932);
#934=CARTESIAN_POINT('',(44.086122695,-76.525440247,190.333742131));
#935=DIRECTION('',(0.105906891,-0.994376051,0.));
#936=VECTOR('',#935,23.962491669);
#937=LINE('',#934,#936);
#938=EDGE_CURVE('',#933,#846,#937,.T.);
#939=ORIENTED_EDGE('',*,*,#938,.F.);
#940=CARTESIAN_POINT('',(44.086122695,-76.525440247,190.333742131));
#941=DIRECTION('',(-0.,-0.,-1.));
#942=VECTOR('',#941,5.);
#943=LINE('',#940,#942);
#944=EDGE_CURVE('',#933,#924,#943,.T.);
#945=ORIENTED_EDGE('',*,*,#944,.T.);
#946=EDGE_LOOP('',(#930,#931,#939,#945));
#947=FACE_BOUND('',#946,.T.);
#948=ADVANCED_FACE('',(#922,#947),#902,.F.);
#949=CARTESIAN_POINT('',(51.595795487,-99.823629446,185.333742131));
#950=DIRECTION('',(-0.,-0.,-1.));
#951=DIRECTION('',(-0.766044443,0.64278761,-0.));
#952=AXIS2_PLACEMENT_3D('',#949,#950,#951);
#953=PLANE('',#952);
#954=CARTESIAN_POINT('',(51.595795487,-99.823629446,185.333742131));
#955=DIRECTION('',(-0.,-0.,-1.));
#956=DIRECTION('',(-0.,1.,-0.));
#957=AXIS2_PLACEMENT_3D('',#954,#955,#956);
#958=CIRCLE('',#957,3.);
#959=EDGE_CURVE('',#695,#789,#958,.T.);
#960=ORIENTED_EDGE('',*,*,#959,.F.);
#961=ORIENTED_EDGE('',*,*,#700,.F.);
#962=CARTESIAN_POINT('',(56.595795487,-91.823629446,185.333742131));
#963=DIRECTION('',(-1.,0.,0.));
#964=VECTOR('',#963,2.);
#965=LINE('',#962,#964);
#966=EDGE_CURVE('',#873,#693,#965,.T.);
#967=ORIENTED_EDGE('',*,*,#966,.F.);
#968=ORIENTED_EDGE('',*,*,#878,.F.);
#969=ORIENTED_EDGE('',*,*,#835,.F.);
#970=ORIENTED_EDGE('',*,*,#929,.F.);
#971=CARTESIAN_POINT('',(46.940267791,-67.166758994,185.333742131));
#972=VERTEX_POINT('',#971);
#973=CARTESIAN_POINT('',(56.51582333,-75.201604115,185.333742131));
#974=DIRECTION('',(0.,0.,1.));
#975=DIRECTION('',(-0.64278761,-0.766044443,0.));
#976=AXIS2_PLACEMENT_3D('',#973,#974,#975);
#977=CIRCLE('',#976,12.5);
#978=EDGE_CURVE('',#972,#924,#977,.T.);
#979=ORIENTED_EDGE('',*,*,#978,.F.);
#980=CARTESIAN_POINT('',(51.659993151,-86.719890153,185.333742131));
#981=VERTEX_POINT('',#980);
#982=CARTESIAN_POINT('',(56.51582333,-75.201604115,185.333742131));
#983=DIRECTION('',(0.,0.,1.));
#984=DIRECTION('',(-0.64278761,-0.766044443,0.));
#985=AXIS2_PLACEMENT_3D('',#982,#983,#984);
#986=CIRCLE('',#985,12.5);
#987=EDGE_CURVE('',#981,#972,#986,.T.);
#988=ORIENTED_EDGE('',*,*,#987,.F.);
#989=CARTESIAN_POINT('',(50.494593908,-86.484278802,185.333742131));
#990=VERTEX_POINT('',#989);
#991=CARTESIAN_POINT('',(50.494593908,-89.484278802,185.333742131));
#992=DIRECTION('',(-0.,-0.,-1.));
#993=DIRECTION('',(-0.,1.,-0.));
#994=AXIS2_PLACEMENT_3D('',#991,#992,#993);
#995=CIRCLE('',#994,3.);
#996=EDGE_CURVE('',#990,#981,#995,.T.);
#997=ORIENTED_EDGE('',*,*,#996,.F.);
#998=CARTESIAN_POINT('',(50.494593908,-89.484278802,185.333742131));
#999=DIRECTION('',(-0.,-0.,-1.));
#1000=DIRECTION('',(-0.,1.,-0.));
#1001=AXIS2_PLACEMENT_3D('',#998,#999,#1000);
#1002=CIRCLE('',#1001,3.);
#1003=EDGE_CURVE('',#797,#990,#1002,.T.);
#1004=ORIENTED_EDGE('',*,*,#1003,.F.);
#1005=ORIENTED_EDGE('',*,*,#802,.F.);
#1006=EDGE_LOOP('',(#960,#961,#967,#968,#969,#970,#979,#988,#997,#1004,#1005));
#1007=FACE_BOUND('',#1006,.T.);
#1008=CARTESIAN_POINT('',(61.745795487,-81.35629701,185.333742131));
#1009=VERTEX_POINT('',#1008);
#1010=CARTESIAN_POINT('',(61.745795487,-68.85629701,185.333742131));
#1011=VERTEX_POINT('',#1010);
#1012=CARTESIAN_POINT('',(61.745795487,-81.35629701,185.333742131));
#1013=DIRECTION('',(-0.,1.,-0.));
#1014=VECTOR('',#1013,12.5);
#1015=LINE('',#1012,#1014);
#1016=EDGE_CURVE('',#1009,#1011,#1015,.T.);
#1017=ORIENTED_EDGE('',*,*,#1016,.T.);
#1018=CARTESIAN_POINT('',(51.445795487,-68.85629701,185.333742131));
#1019=VERTEX_POINT('',#1018);
#1020=CARTESIAN_POINT('',(61.745795487,-68.85629701,185.333742131));
#1021=DIRECTION('',(-1.,0.,0.));
#1022=VECTOR('',#1021,10.3);
#1023=LINE('',#1020,#1022);
#1024=EDGE_CURVE('',#1011,#1019,#1023,.T.);
#1025=ORIENTED_EDGE('',*,*,#1024,.T.);
#1026=CARTESIAN_POINT('',(51.445795487,-81.35629701,185.333742131));
#1027=VERTEX_POINT('',#1026);
#1028=CARTESIAN_POINT('',(51.445795487,-68.85629701,185.333742131));
#1029=DIRECTION('',(-0.,-1.,0.));
#1030=VECTOR('',#1029,12.5);
#1031=LINE('',#1028,#1030);
#1032=EDGE_CURVE('',#1019,#1027,#1031,.T.);
#1033=ORIENTED_EDGE('',*,*,#1032,.T.);
#1034=CARTESIAN_POINT('',(51.445795487,-81.35629701,185.333742131));
#1035=DIRECTION('',(1.,-0.,-0.));
#1036=VECTOR('',#1035,10.3);
#1037=LINE('',#1034,#1036);
#1038=EDGE_CURVE('',#1027,#1009,#1037,.T.);
#1039=ORIENTED_EDGE('',*,*,#1038,.T.);
#1040=EDGE_LOOP('',(#1017,#1025,#1033,#1039));
#1041=FACE_BOUND('',#1040,.T.);
#1042=ADVANCED_FACE('',(#1007,#1041),#953,.T.);
#1043=CARTESIAN_POINT('',(51.595795487,-99.823629446,190.333742131));
#1044=DIRECTION('',(-0.,-0.,-1.));
#1045=DIRECTION('',(-0.766044443,0.64278761,-0.));
#1046=AXIS2_PLACEMENT_3D('',#1043,#1044,#1045);
#1047=PLANE('',#1046);
#1048=CARTESIAN_POINT('',(51.595795487,-99.823629446,190.333742131));
#1049=DIRECTION('',(-0.,-0.,-1.));
#1050=DIRECTION('',(-0.,1.,-0.));
#1051=AXIS2_PLACEMENT_3D('',#1048,#1049,#1050);
#1052=CIRCLE('',#1051,3.);
#1053=EDGE_CURVE('',#703,#787,#1052,.T.);
#1054=ORIENTED_EDGE('',*,*,#1053,.T.);
#1055=ORIENTED_EDGE('',*,*,#816,.T.);
#1056=CARTESIAN_POINT('',(50.494593908,-86.484278802,190.333742131));
#1057=VERTEX_POINT('',#1056);
#1058=CARTESIAN_POINT('',(50.494593908,-89.484278802,190.333742131));
#1059=DIRECTION('',(-0.,-0.,-1.));
#1060=DIRECTION('',(-0.,1.,-0.));
#1061=AXIS2_PLACEMENT_3D('',#1058,#1059,#1060);
#1062=CIRCLE('',#1061,3.);
#1063=EDGE_CURVE('',#805,#1057,#1062,.T.);
#1064=ORIENTED_EDGE('',*,*,#1063,.T.);
#1065=CARTESIAN_POINT('',(51.659993151,-86.719890153,190.333742131));
#1066=VERTEX_POINT('',#1065);
#1067=CARTESIAN_POINT('',(50.494593908,-89.484278802,190.333742131));
#1068=DIRECTION('',(-0.,-0.,-1.));
#1069=DIRECTION('',(-0.,1.,-0.));
#1070=AXIS2_PLACEMENT_3D('',#1067,#1068,#1069);
#1071=CIRCLE('',#1070,3.);
#1072=EDGE_CURVE('',#1057,#1066,#1071,.T.);
#1073=ORIENTED_EDGE('',*,*,#1072,.T.);
#1074=CARTESIAN_POINT('',(46.940267791,-67.166758994,190.333742131));
#1075=VERTEX_POINT('',#1074);
#1076=CARTESIAN_POINT('',(56.51582333,-75.201604115,190.333742131));
#1077=DIRECTION('',(0.,0.,1.));
#1078=DIRECTION('',(-0.,1.,-0.));
#1079=AXIS2_PLACEMENT_3D('',#1076,#1077,#1078);
#1080=CIRCLE('',#1079,12.5);
#1081=EDGE_CURVE('',#1066,#1075,#1080,.T.);
#1082=ORIENTED_EDGE('',*,*,#1081,.T.);
#1083=CARTESIAN_POINT('',(56.51582333,-75.201604115,190.333742131));
#1084=DIRECTION('',(0.,0.,1.));
#1085=DIRECTION('',(-0.,1.,-0.));
#1086=AXIS2_PLACEMENT_3D('',#1083,#1084,#1085);
#1087=CIRCLE('',#1086,12.5);
#1088=EDGE_CURVE('',#1075,#933,#1087,.T.);
#1089=ORIENTED_EDGE('',*,*,#1088,.T.);
#1090=ORIENTED_EDGE('',*,*,#938,.T.);
#1091=ORIENTED_EDGE('',*,*,#852,.T.);
#1092=ORIENTED_EDGE('',*,*,#892,.T.);
#1093=CARTESIAN_POINT('',(56.595795487,-91.823629446,190.333742131));
#1094=DIRECTION('',(-1.,0.,0.));
#1095=VECTOR('',#1094,2.);
#1096=LINE('',#1093,#1095);
#1097=EDGE_CURVE('',#881,#711,#1096,.T.);
#1098=ORIENTED_EDGE('',*,*,#1097,.T.);
#1099=ORIENTED_EDGE('',*,*,#716,.T.);
#1100=EDGE_LOOP('',(#1054,#1055,#1064,#1073,#1082,#1089,#1090,#1091,#1092,#1098,#1099));
#1101=FACE_BOUND('',#1100,.T.);
#1102=CARTESIAN_POINT('',(61.745795487,-68.85629701,190.333742131));
#1103=VERTEX_POINT('',#1102);
#1104=CARTESIAN_POINT('',(51.445795487,-68.85629701,190.333742131));
#1105=VERTEX_POINT('',#1104);
#1106=CARTESIAN_POINT('',(61.745795487,-68.85629701,190.333742131));
#1107=DIRECTION('',(-1.,0.,0.));
#1108=VECTOR('',#1107,10.3);
#1109=LINE('',#1106,#1108);
#1110=EDGE_CURVE('',#1103,#1105,#1109,.T.);
#1111=ORIENTED_EDGE('',*,*,#1110,.F.);
#1112=CARTESIAN_POINT('',(61.745795487,-81.35629701,190.333742131));
#1113=VERTEX_POINT('',#1112);
#1114=CARTESIAN_POINT('',(61.745795487,-81.35629701,190.333742131));
#1115=DIRECTION('',(0.,1.,-0.));
#1116=VECTOR('',#1115,12.5);
#1117=LINE('',#1114,#1116);
#1118=EDGE_CURVE('',#1113,#1103,#1117,.T.);
#1119=ORIENTED_EDGE('',*,*,#1118,.F.);
#1120=CARTESIAN_POINT('',(51.445795487,-81.35629701,190.333742131));
#1121=VERTEX_POINT('',#1120);
#1122=CARTESIAN_POINT('',(51.445795487,-81.35629701,190.333742131));
#1123=DIRECTION('',(1.,-0.,-0.));
#1124=VECTOR('',#1123,10.3);
#1125=LINE('',#1122,#1124);
#1126=EDGE_CURVE('',#1121,#1113,#1125,.T.);
#1127=ORIENTED_EDGE('',*,*,#1126,.F.);
#1128=CARTESIAN_POINT('',(51.445795487,-68.85629701,190.333742131));
#1129=DIRECTION('',(-0.,-1.,0.));
#1130=VECTOR('',#1129,12.5);
#1131=LINE('',#1128,#1130);
#1132=EDGE_CURVE('',#1105,#1121,#1131,.T.);
#1133=ORIENTED_EDGE('',*,*,#1132,.F.);
#1134=EDGE_LOOP('',(#1111,#1119,#1127,#1133));
#1135=FACE_BOUND('',#1134,.T.);
#1136=ADVANCED_FACE('',(#1101,#1135),#1047,.F.);
#1137=CARTESIAN_POINT('',(56.595795487,-91.823629446,193.333742131));
#1138=DIRECTION('',(-0.,-1.,0.));
#1139=DIRECTION('',(1.,-0.,-0.));
#1140=AXIS2_PLACEMENT_3D('',#1137,#1138,#1139);
#1141=PLANE('',#1140);
#1142=ORIENTED_EDGE('',*,*,#966,.T.);
#1143=ORIENTED_EDGE('',*,*,#722,.F.);
#1144=ORIENTED_EDGE('',*,*,#1097,.F.);
#1145=ORIENTED_EDGE('',*,*,#886,.T.);
#1146=EDGE_LOOP('',(#1142,#1143,#1144,#1145));
#1147=FACE_BOUND('',#1146,.T.);
#1148=ADVANCED_FACE('',(#1147),#1141,.F.);
#1149=CARTESIAN_POINT('',(53.595795487,-95.823629349,187.833742131));
#1150=DIRECTION('',(1.,0.,-0.));
#1151=DIRECTION('',(-0.,1.,0.));
#1152=AXIS2_PLACEMENT_3D('',#1149,#1150,#1151);
#1153=CYLINDRICAL_SURFACE('',#1152,1.65);
#1154=CARTESIAN_POINT('',(47.977070017,-94.173629349,187.833742131));
#1155=DIRECTION('',(-1.,-0.,0.));
#1156=VECTOR('',#1155,2.011311514);
#1157=LINE('',#1154,#1156);
#1158=EDGE_CURVE('',#769,#904,#1157,.T.);
#1159=ORIENTED_EDGE('',*,*,#1158,.F.);
#1160=ORIENTED_EDGE('',*,*,#775,.F.);
#1161=ORIENTED_EDGE('',*,*,#782,.F.);
#1162=ORIENTED_EDGE('',*,*,#1158,.T.);
#1163=ORIENTED_EDGE('',*,*,#912,.T.);
#1164=ORIENTED_EDGE('',*,*,#919,.T.);
#1165=EDGE_LOOP('',(#1159,#1160,#1161,#1162,#1163,#1164));
#1166=FACE_BOUND('',#1165,.T.);
#1167=ADVANCED_FACE('',(#1166),#1153,.F.);
#1168=CARTESIAN_POINT('',(61.745795487,-68.85629701,193.333742131));
#1169=DIRECTION('',(-0.,-1.,-0.));
#1170=DIRECTION('',(-0.,0.,-1.));
#1171=AXIS2_PLACEMENT_3D('',#1168,#1169,#1170);
#1172=PLANE('',#1171);
#1173=ORIENTED_EDGE('',*,*,#1024,.F.);
#1174=CARTESIAN_POINT('',(61.745795487,-68.85629701,190.333742131));
#1175=DIRECTION('',(-0.,-0.,-1.));
#1176=VECTOR('',#1175,5.);
#1177=LINE('',#1174,#1176);
#1178=EDGE_CURVE('',#1103,#1011,#1177,.T.);
#1179=ORIENTED_EDGE('',*,*,#1178,.F.);
#1180=ORIENTED_EDGE('',*,*,#1110,.T.);
#1181=CARTESIAN_POINT('',(51.445795487,-68.85629701,190.333742131));
#1182=DIRECTION('',(-0.,0.,-1.));
#1183=VECTOR('',#1182,5.);
#1184=LINE('',#1181,#1183);
#1185=EDGE_CURVE('',#1105,#1019,#1184,.T.);
#1186=ORIENTED_EDGE('',*,*,#1185,.T.);
#1187=EDGE_LOOP('',(#1173,#1179,#1180,#1186));
#1188=FACE_BOUND('',#1187,.T.);
#1189=ADVANCED_FACE('',(#1188),#1172,.T.);
#1190=CARTESIAN_POINT('',(51.445795487,-68.85629701,193.333742131));
#1191=DIRECTION('',(1.,-0.,-0.));
#1192=DIRECTION('',(0.,0.,1.));
#1193=AXIS2_PLACEMENT_3D('',#1190,#1191,#1192);
#1194=PLANE('',#1193);
#1195=ORIENTED_EDGE('',*,*,#1032,.F.);
#1196=ORIENTED_EDGE('',*,*,#1185,.F.);
#1197=ORIENTED_EDGE('',*,*,#1132,.T.);
#1198=CARTESIAN_POINT('',(51.445795487,-81.35629701,190.333742131));
#1199=DIRECTION('',(-0.,-0.,-1.));
#1200=VECTOR('',#1199,5.);
#1201=LINE('',#1198,#1200);
#1202=EDGE_CURVE('',#1121,#1027,#1201,.T.);
#1203=ORIENTED_EDGE('',*,*,#1202,.T.);
#1204=EDGE_LOOP('',(#1195,#1196,#1197,#1203));
#1205=FACE_BOUND('',#1204,.T.);
#1206=ADVANCED_FACE('',(#1205),#1194,.T.);
#1207=CARTESIAN_POINT('',(51.445795487,-81.35629701,193.333742131));
#1208=DIRECTION('',(0.,1.,0.));
#1209=DIRECTION('',(0.,-0.,1.));
#1210=AXIS2_PLACEMENT_3D('',#1207,#1208,#1209);
#1211=PLANE('',#1210);
#1212=ORIENTED_EDGE('',*,*,#1038,.F.);
#1213=ORIENTED_EDGE('',*,*,#1202,.F.);
#1214=ORIENTED_EDGE('',*,*,#1126,.T.);
#1215=CARTESIAN_POINT('',(61.745795487,-81.35629701,190.333742131));
#1216=DIRECTION('',(-0.,0.,-1.));
#1217=VECTOR('',#1216,5.);
#1218=LINE('',#1215,#1217);
#1219=EDGE_CURVE('',#1113,#1009,#1218,.T.);
#1220=ORIENTED_EDGE('',*,*,#1219,.T.);
#1221=EDGE_LOOP('',(#1212,#1213,#1214,#1220));
#1222=FACE_BOUND('',#1221,.T.);
#1223=ADVANCED_FACE('',(#1222),#1211,.T.);
#1224=CARTESIAN_POINT('',(61.745795487,-81.35629701,193.333742131));
#1225=DIRECTION('',(-1.,0.,0.));
#1226=DIRECTION('',(-0.,-0.,-1.));
#1227=AXIS2_PLACEMENT_3D('',#1224,#1225,#1226);
#1228=PLANE('',#1227);
#1229=ORIENTED_EDGE('',*,*,#1016,.F.);
#1230=ORIENTED_EDGE('',*,*,#1219,.F.);
#1231=ORIENTED_EDGE('',*,*,#1118,.T.);
#1232=ORIENTED_EDGE('',*,*,#1178,.T.);
#1233=EDGE_LOOP('',(#1229,#1230,#1231,#1232));
#1234=FACE_BOUND('',#1233,.T.);
#1235=ADVANCED_FACE('',(#1234),#1228,.T.);
#1236=CARTESIAN_POINT('',(50.494593908,-89.484278802,193.333742131));
#1237=DIRECTION('',(-0.,-0.,-1.));
#1238=DIRECTION('',(-0.,1.,-0.));
#1239=AXIS2_PLACEMENT_3D('',#1236,#1237,#1238);
#1240=CYLINDRICAL_SURFACE('',#1239,3.);
#1241=CARTESIAN_POINT('',(50.494593908,-86.484278802,185.333742131));
#1242=DIRECTION('',(0.,0.,1.));
#1243=VECTOR('',#1242,5.);
#1244=LINE('',#1241,#1243);
#1245=EDGE_CURVE('',#990,#1057,#1244,.T.);
#1246=ORIENTED_EDGE('',*,*,#1245,.F.);
#1247=ORIENTED_EDGE('',*,*,#996,.T.);
#1248=CARTESIAN_POINT('',(51.659993151,-86.719890153,190.333742131));
#1249=DIRECTION('',(-0.,-0.,-1.));
#1250=VECTOR('',#1249,5.);
#1251=LINE('',#1248,#1250);
#1252=EDGE_CURVE('',#1066,#981,#1251,.T.);
#1253=ORIENTED_EDGE('',*,*,#1252,.F.);
#1254=ORIENTED_EDGE('',*,*,#1072,.F.);
#1255=EDGE_LOOP('',(#1246,#1247,#1253,#1254));
#1256=FACE_BOUND('',#1255,.T.);
#1257=ADVANCED_FACE('',(#1256),#1240,.F.);
#1258=CARTESIAN_POINT('',(51.595795487,-99.823629446,193.333742131));
#1259=DIRECTION('',(-0.,-0.,-1.));
#1260=DIRECTION('',(-0.,1.,-0.));
#1261=AXIS2_PLACEMENT_3D('',#1258,#1259,#1260);
#1262=CYLINDRICAL_SURFACE('',#1261,3.);
#1263=ORIENTED_EDGE('',*,*,#708,.T.);
#1264=ORIENTED_EDGE('',*,*,#959,.T.);
#1265=ORIENTED_EDGE('',*,*,#794,.F.);
#1266=ORIENTED_EDGE('',*,*,#1053,.F.);
#1267=EDGE_LOOP('',(#1263,#1264,#1265,#1266));
#1268=FACE_BOUND('',#1267,.T.);
#1269=ADVANCED_FACE('',(#1268),#1262,.F.);
#1270=CARTESIAN_POINT('',(56.51582333,-75.201604115,193.333742131));
#1271=DIRECTION('',(-0.,-0.,-1.));
#1272=DIRECTION('',(-0.766044443,0.64278761,-0.));
#1273=AXIS2_PLACEMENT_3D('',#1270,#1271,#1272);
#1274=CYLINDRICAL_SURFACE('',#1273,12.5);
#1275=CARTESIAN_POINT('',(46.940267791,-67.166758994,185.333742131));
#1276=DIRECTION('',(0.,0.,1.));
#1277=VECTOR('',#1276,5.);
#1278=LINE('',#1275,#1277);
#1279=EDGE_CURVE('',#972,#1075,#1278,.T.);
#1280=ORIENTED_EDGE('',*,*,#1279,.T.);
#1281=ORIENTED_EDGE('',*,*,#1081,.F.);
#1282=ORIENTED_EDGE('',*,*,#1252,.T.);
#1283=ORIENTED_EDGE('',*,*,#987,.T.);
#1284=EDGE_LOOP('',(#1280,#1281,#1282,#1283));
#1285=FACE_BOUND('',#1284,.T.);
#1286=ADVANCED_FACE('',(#1285),#1274,.T.);
#1287=CARTESIAN_POINT('',(50.494593908,-89.484278802,193.333742131));
#1288=DIRECTION('',(-0.,-0.,-1.));
#1289=DIRECTION('',(-0.,1.,-0.));
#1290=AXIS2_PLACEMENT_3D('',#1287,#1288,#1289);
#1291=CYLINDRICAL_SURFACE('',#1290,3.);
#1292=ORIENTED_EDGE('',*,*,#1245,.T.);
#1293=ORIENTED_EDGE('',*,*,#1063,.F.);
#1294=ORIENTED_EDGE('',*,*,#810,.T.);
#1295=ORIENTED_EDGE('',*,*,#1003,.T.);
#1296=EDGE_LOOP('',(#1292,#1293,#1294,#1295));
#1297=FACE_BOUND('',#1296,.T.);
#1298=ADVANCED_FACE('',(#1297),#1291,.F.);
#1299=CARTESIAN_POINT('',(56.51582333,-75.201604115,193.333742131));
#1300=DIRECTION('',(-0.,-0.,-1.));
#1301=DIRECTION('',(-0.766044443,0.64278761,-0.));
#1302=AXIS2_PLACEMENT_3D('',#1299,#1300,#1301);
#1303=CYLINDRICAL_SURFACE('',#1302,12.5);
#1304=ORIENTED_EDGE('',*,*,#1279,.F.);
#1305=ORIENTED_EDGE('',*,*,#978,.T.);
#1306=ORIENTED_EDGE('',*,*,#944,.F.);
#1307=ORIENTED_EDGE('',*,*,#1088,.F.);
#1308=EDGE_LOOP('',(#1304,#1305,#1306,#1307));
#1309=FACE_BOUND('',#1308,.T.);
#1310=ADVANCED_FACE('',(#1309),#1303,.T.);
#1311=CLOSED_SHELL('',(#726,#760,#820,#862,#897,#948,#1042,#1136,#1148,#1167,#1189,#1206,#1223,#1235,#1257,#1269,#1286,#1298,#1310));
#1312=MANIFOLD_SOLID_BREP('\X2\96F64EF6\X0\400',#1311);
#675=STYLED_ITEM('',(#625),#1312);
#656=SHAPE_REPRESENTATION('__400',(#15),#654);
#657=ADVANCED_BREP_SHAPE_REPRESENTATION('__400',(#1312),#654);
#1320=SHAPE_REPRESENTATION_RELATIONSHIP('','',#656,#657);
#1321=CARTESIAN_POINT('',(0.,0.,0.));
#1322=DIRECTION('',(0.,0.,1.));
#1323=DIRECTION('',(1.,0.,0.));
#1324=AXIS2_PLACEMENT_3D('',#1321,#1322,#1323);
#1326=MAPPED_ITEM('',#1325,#1324);
#1325=REPRESENTATION_MAP(#1324,#656);
#664=PRODUCT('__400','__400','',(#642));
#1327=PRODUCT_RELATED_PRODUCT_CATEGORY('part','',(#664));
#1328=PRODUCT_DEFINITION_FORMATION_WITH_SPECIFIED_SOURCE('','',#664,.NOT_KNOWN.);
#665=PRODUCT_DEFINITION('design','',#1328,#643);
#663=PRODUCT_DEFINITION_SHAPE('','',#665);
#1329=SHAPE_DEFINITION_REPRESENTATION(#663,#656);
#655=DRAUGHTING_MODEL('',(#1326),#654);
#35=SHAPE_REPRESENTATION('\X2\76D8740360AC6302\X0\625.stp',(#15,#76,#669),#33);
#1330=CARTESIAN_POINT('',(0.,0.,0.));
#1331=DIRECTION('',(0.,0.,1.));
#1332=DIRECTION('',(1.,0.,0.));
#1333=AXIS2_PLACEMENT_3D('',#1330,#1331,#1332);
#1335=MAPPED_ITEM('',#1334,#1333);
#1334=REPRESENTATION_MAP(#1333,#35);
#43=PRODUCT('\X2\76D8740360AC6302\X0\625.stp','\X2\76D8740360AC6302\X0\625.stp','',(#642));
#1336=PRODUCT_RELATED_PRODUCT_CATEGORY('part','',(#43));
#1337=PRODUCT_DEFINITION_FORMATION_WITH_SPECIFIED_SOURCE('','',#43,.NOT_KNOWN.);
#44=PRODUCT_DEFINITION('design','',#1337,#643);
#42=PRODUCT_DEFINITION_SHAPE('','',#44);
#1338=SHAPE_DEFINITION_REPRESENTATION(#42,#35);
#34=DRAUGHTING_MODEL('',(#1335),#33);
#16=SHAPE_REPRESENTATION('root',(#15,#48),#10);
#1339=CARTESIAN_POINT('',(0.,0.,0.));
#1340=DIRECTION('',(0.,0.,1.));
#1341=DIRECTION('',(1.,0.,0.));
#1342=AXIS2_PLACEMENT_3D('',#1339,#1340,#1341);
#1344=MAPPED_ITEM('',#1343,#1342);
#1343=REPRESENTATION_MAP(#1342,#16);
#24=PRODUCT('root','root','',(#642));
#1345=PRODUCT_RELATED_PRODUCT_CATEGORY('part','',(#24));
#1346=PRODUCT_DEFINITION_FORMATION_WITH_SPECIFIED_SOURCE('','',#24,.NOT_KNOWN.);
#25=PRODUCT_DEFINITION('design','',#1346,#643);
#23=PRODUCT_DEFINITION_SHAPE('','',#25);
#1347=SHAPE_DEFINITION_REPRESENTATION(#23,#16);
#11=DRAUGHTING_MODEL('',(#1344),#10);
#1348=DESCRIPTIVE_REPRESENTATION_ITEM('KEY','/private/var/mobile/Containers/Data/Application/1A2F1CC1-DE3C-4D95-B908-0E143EF96F37/tmp/CE573929-A2AA-4CA7-A421-F5A42A61EFBE.tmp');
#1349=PROPERTY_DEFINITION('KEY','',#25);
#1350=REPRESENTATION('',(#1348),#10);
#1351=PROPERTY_DEFINITION_REPRESENTATION(#1349,#1350);
#1352=GENERAL_PROPERTY('','KEY','');
#1353=GENERAL_PROPERTY_ASSOCIATION('','',#1352,#1349);
#1=MECHANICAL_DESIGN_GEOMETRIC_PRESENTATION_REPRESENTATION('',(#82,#675),#10);
ENDSEC;
END-ISO-10303-21;
